<?xml version="1.0" encoding="UTF-8"?><svg id="Layer_2" xmlns="http://www.w3.org/2000/svg" viewBox="0 0 191.44 99.62"><defs><style>.cls-1{fill:#cb6e6c;}.cls-2{fill:#6fcacc;}.cls-3{fill:#71b6cc;}.cls-4{fill:none;stroke:#cb6e6c;stroke-miterlimit:10;stroke-width:2px;}</style></defs><g id="water"><polygon class="cls-2" points="190.37 76.87 1 76.87 1.96 57.96 191.32 57.96 190.37 76.87"/><rect class="cls-3" x="1" y="52.55" width="189.37" height="5.41"/></g><g id="section"><path class="cls-1" d="M130.44,55.68l2.81,1.51c7.42,3.98,15.7,6.06,24.12,6.05l32.99-.03v27.04c-.29,1.34-1.45,7.37-8.72,7.85H9.64c-7.95-1.2-8.17-6.36-8.72-8.72l-.15-3.41,.2-19.87,31.94-2.93c5.71-.52,11.35-1.72,16.78-3.57l24.83-8.44c2.66-.9,5.39-1.57,8.16-2,0,0,14.83-1.56,18.62-.73l23.06,5c2.12,.46,4.17,1.21,6.08,2.24Z"/></g><g id="frames"><rect class="cls-4" x="1" y="1" width="189.44" height="97.62" rx="12" ry="12"/></g></svg>