<?xml version="1.0" encoding="UTF-8"?><svg id="Layer_2" xmlns="http://www.w3.org/2000/svg" viewBox="0 0 191.44 99.62"><defs><style>.cls-1,.cls-2{fill:#cb6e6c;}.cls-3{fill:#6fcacc;}.cls-4{fill:#71b6cc;}.cls-2{stroke:#f1f2f2;stroke-width:.25px;}.cls-2,.cls-5{stroke-miterlimit:10;}.cls-5{fill:none;stroke:#cb6e6c;stroke-width:2px;}</style></defs><g id="water"><rect class="cls-3" x="1" y="55.74" width="189.37" height="19.68"/><rect class="cls-4" x="1.25" y="50.87" width="156.86" height="4.79"/></g><g id="section"><path class="cls-1" d="M190.37,44.9v45.53c-.29,1.34-1.45,7.37-8.72,7.85H9.64c-7.95-1.2-8.17-6.36-8.72-8.72l-.15-3.41,.45-17.89,54.06-2.68,72.71-7.56,38.26-10.94,24.11-2.18Z"/><g><path class="cls-2" d="M68.31,52.8c-.2,1.51-.92,2.49-2.03,2.86-1.18,.39-2.43,.65-3.65,.67-4.32,.08-8.65,.03-12.98,.03-13.39,0-26.78,.02-40.17-.03-1.37,0-2.77-.28-4.09-.69-1.11-.34-1.81-1.36-2.01-2.84H68.31Z"/><path class="cls-2" d="M59.13,49.8h3.26l.08,1.17,.23,.16,.71-1.28,.45,.72,.52-.72,.63,1.27,.28-.07c-.15-1.06,.3-1.52,1.08-1.8,.23-.08,.43-.61,.49-.97,.24-1.28,.43-2.57,.64-3.91h1.1v8.05H3.08v-3.74c3.17,.36,6.29,.72,9.49,1.09l.07,1.84H59.06l.07-1.81Z"/><path class="cls-2" d="M47.65,50.73c-1.8-2.06-4.21-2.87-6.34-4.24-.85-.54-1.66-1.17-2.49-1.76l-.4-.55c3-1.59,5.94-1.59,8.81,.14,2.75,1.67,5.43,3.48,8.13,5.27,.63,.42,1.17,1.01,1.75,1.53l-.06,.29c-.3,0-.6,0-.91,0-2.25,0-4.5-.03-6.75,.01-.68,.01-1.27-.08-1.73-.71Z"/><path class="cls-2" d="M47.65,50.73l.19,.63H14.41c.67-.69,1.12-1.33,1.7-1.72,1.49-1,3.04-1.86,4.54-2.82,.93-.59,1.88-1.19,2.73-1.92,5.07-4.3,9.71-4.45,14.96-.42,.14,.11,.31,.16,.47,.24,.83,.59,1.64,1.22,2.49,1.76,2.14,1.37,4.55,2.17,6.34,4.24Zm-25.52-1.46c1.87-.15,2.55-1.9,3.68-2.91l-3.68,2.91Zm9.44-3.73l-.15-.07-.35,.78-.24-.5-.4,3.18,.13,.02,1.02-3.41Z"/></g><g><path class="cls-1" d="M55.24,51.06c1-.96,2.01-1.91,3.01-2.87,.16-.15,.34-.28,.52-.4,.2-.14,.42-.26,.56-.34,0-.12-.02-.22,.02-.26,.84-.79,1.69-1.58,2.54-2.36,.14-.13,.3-.24,.42-.39l-1.14,.94-.04-.03s.05-.08,.09-.11c.42-.34,.85-.68,1.27-1.02,.2-.17,.39-.35,.58-.52,.05-.04,.11-.11,.17-.12,.22-.02,.33-.16,.43-.29,.21-.26,.49-.37,.83-.46,.19-.05,.36-.15,.54-.23,0-.28,.23-.49,.59-.56,.06-.01,.11-.07,.16-.11,.11-.11,.18-.26,.41-.25,.04,0,.12-.1,.12-.15-.01-.12,.05-.16,.17-.16,.14,0,.28,0,.4-.03,.24-.06,.32-.25,.43-.42,.06-.09,.13-.18,.2-.27,.12-.15,.22-.3,.36-.43,.08-.08,.21-.13,.33-.17,.04-.01,.17,.06,.18,.1,.03,.16,.15,.14,.26,.1,.19-.08,.38-.09,.62,.04-.06-.08-.08-.13-.12-.15-.14-.1-.08-.21,.03-.25,.26-.1,.41-.22,.31-.49,.11,0,.18-.01,.26-.01,.24,0,.32-.1,.24-.29-.05-.11-.1-.25,.08-.3,.15-.05,.28,0,.29,.16,.13-.02,.28-.08,.34,.09,0,.02,.14,.04,.18,.02,.08-.05,.14-.12,.21-.18l-.13-.23c.27-.05,.51-.11,.75-.15,.44-.08,.86-.47,.9-.84,0-.05,.05-.14,.09-.14,.07,0,.18,.02,.21,.07,.06,.11,.14,.1,.23,.04,.06-.04,.18-.08,.06-.19-.04-.03,0-.18,.02-.19,.1-.02,.24-.04,.33,0,.15,.07,.31,.08,.38-.04,.09-.16,.24-.22,.42-.27,.06-.02,.13-.11,.14-.17,.03-.22,.15-.33,.41-.35,.23-.01,.37-.13,.47-.29,.04-.06,.13-.16,.18-.16,.09,.01,.15,.1,.24,.14,.04,.02,.15,.02,.16,0,.1-.17,.21-.1,.31,0,.07,.06,.12,.13,.19,.2l.23-.21c-.17-.06-.27-.13-.09-.26,.02-.02-.02-.08,0-.11,.05-.08,.1-.19,.18-.22,.05-.02,.18,.06,.25,.12,.03,.02,0,.11-.03,.15-.04,.06-.11,.11-.17,.16l.04,.06c.07-.03,.15-.06,.22-.08,.08-.03,.15-.06,.23-.07,.15-.01,.3,0,.52,0-.18-.13-.1-.37-.46-.35,.06-.08,.1-.17,.14-.17,.11,0,.21,.03,.31,.05l.17-.66s.09,.04,.12,.07c.06,.05,.11,.1,.17,.15l.19-.2q.16,0,.06,.38c.27,.04,.33-.18,.47-.23-.08-.1-.14-.19-.22-.24-.06-.04-.16-.04-.24-.03-.1,.01-.2,.06-.3,.09l-.05-.07,.43-.35,.06,.02c0,.32,.39,.29,.57,.45,.01,.01,.1-.01,.14-.03,.08-.05,.16-.1,.28-.18,.1-.12,.22-.3,.37-.46,.03-.04,.12-.04,.18-.07,.02,.05,.08,.12,.06,.16-.11,.18-.11,.43-.45,.47-.07,0-.12,.12-.17,.19,.08,.03,.16,.08,.24,.08,.11,0,.23-.05,.34-.08-.1-.2,.03-.36,.2-.37,.09,0,.18-.03,.26-.05l-.09-.38,.18,.07c.13-.02,.23-.03,.31-.06,.07-.02,.12-.06,.18-.1,.13-.08,.26-.17,.37,.02,0,0,0,.01,.01,.01,.22,.03,.43,.09,.6,.22,0,0,.11-.06,.14-.11,.02-.02-.02-.08-.05-.11-.03-.03-.09-.04-.1-.05-.01-.08-.03-.14-.02-.19,0-.03,.04-.08,.05-.08,.04,0,.09,.02,.11,.05,.06,.06,.11,.13,.17,.18,.02,.02,.11,.02,.12,.01,.06-.18,.3-.21,.47-.34-.27-.05-.4-.15-.23-.36,.21,.07,.3-.1,.42-.19,.15-.1,.22-.29,.47-.27,.03,0,.07-.06,.09-.09,.05-.08,.09-.17,.12-.25,.04-.12,.09-.18,.23-.06,.02,.02,.08,.01,.15,.03l-.24,.29,.03,.03,.37-.15c-.01,.17,.09,.33-.17,.39,.01,.06,.04,.12,.03,.16-.01,.05-.06,.1-.12,.12-.03,.01-.11-.02-.14-.06-.22-.2-.24-.21-.58-.01,.14,.01,.27,.02,.39,.04,.02,0,.02,.07,.03,.11,.17,0,.35,.11,.49-.02,.1-.1,.27-.21,.13-.36,.14-.11,.25-.22,.4-.3,.07-.04,.19-.03,.28-.01,.16,.03,.32,.09,.5,.14,.02-.23,.09-.33,.35-.27,.17,.04,.41-.24,.39-.42,.3-.05,.43-.18,.43-.44-.07-.02-.18-.03-.22-.07-.05-.06-.09-.2-.05-.22,.1-.07,.24-.1,.37-.14l.05,.08-.2,.09,.08,.24,.46-.02v.33c.13-.01,.26,0,.36-.04,.1-.04,.15-.14,.23-.21,.03-.03,.07-.08,.11-.09,.04-.01,.1,0,.14,.02,.03,.01,.05,.09,.03,.09-.15,.1-.17,.35-.46,.31l.39,.16c.11-.09,.18-.18,.27-.21,.05-.01,.14,.09,.25,.17,.32-.2,.57,.09,.83,.18l1.08-.55s-.01-.05-.02-.06c-.07-.06-.17-.1-.22-.17-.02-.03,.05-.15,.08-.15,.12,0,.25,.04,.37,.06,.05,0,.09,.02,.14,.03,0-.03,0-.07-.02-.1,0-.02-.03-.05-.03-.06,.08-.14,.15-.3,.27-.42,.06-.06,.23-.06,.34-.09,.18-.05,.27-.16,.33-.32,.03-.08,.14-.15,.21-.22,.07,.06,.13,.13,.22,.17,.29,.11,.4,.49,.83,.39,.07-.02,.17,.03,.25,.04l-.09,.61c.14,.09,.33,.11,.52,.09,.31-.03,.32-.02,.35,.22l.24,.1c-.06,.06-.11,.13-.17,.18-.11,.1-.23,.2-.35,.31,.13,0,.26,.02,.37,0,.08-.02,.15-.11,.22-.17,.04-.03,.07-.09,.11-.1,.28-.01,.31-.16,.29-.34l-.45,.07,.18-.35-.43,.03c.09-.25,.42-.39,.23-.69,.23,.05,.4,.09,.41,.26,0,.05-.11,.11-.18,.17,0,.24,.24,.1,.45,.1l-.18,.37s.11-.05,.13-.09c.06-.11,.16-.12,.28-.08,.12,.04,.17,0,.16-.1-.01-.09-.04-.18,.1-.18,.13,0,.31-.08,.36,.11l.02,.06c.19-.03,.28,.04,.34,.2,.04,.11,.18,.19,.29,.31,.09,0,.24-.03,.39-.01,.05,0,.09,.11,.13,.16-.17,.04-.34,.05-.46,.12-.13,.08-.23,.21-.36,.33l.22,.07,.02-.17c.24-.04,.23,.15,.34,.26,.07-.06,.16-.11,.21-.18,.1-.12,.4-.17,.55-.09,.07,.03,.17,0,.26,0l-.05-.25,.32,.09c.06-.04,.18-.12,.32-.19,.06-.03,.17-.04,.23-.02,.17,.09,.28,.06,.38-.07,.02-.02,.14-.03,.15,0,.15,.19,.35,.13,.55,.09,.06-.01,.13-.03,.19-.02,.27,.02,.27,.02,.34-.19-.06-.07-.12-.12-.15-.18-.03-.05-.05-.15-.02-.16,.08-.04,.18-.07,.26-.06,.11,.02,.22,.08,.35,.13-.01,.09-.03,.2,.19,.16,.04,0,.13,.12,.17,.2,.04,.09,.09,.2-.05,.26-.13,.06-.27,.1-.39,.16-.07,.04-.12,.12-.17,.18,.08,.04,.15,.1,.23,.11,.31,.04,.33,.03,.44-.21,.1,.07,.21,.12,.27,.2,.1,.13,.21,.12,.31,.03,.19-.17,.36-.36,.57-.57,.06,.04,.15,.1,.24,.17,.05,.04,.11,.12,.13,.11,.07-.03,.16-.07,.18-.13,.05-.16,.07-.33,.1-.5-.28-.16,.02-.22,.09-.29,.04-.04,.2-.04,.28-.02,.08,.02,.15,.09,.2,.15,.13,.15,.25,.24,.43,.05,.02-.02,.12,0,.18,0,0,.06,.01,.15-.02,.17-.12,.07-.18,.15-.07,.23,.05,.04,.22,.06,.25,.03,.06-.07,.06-.16,.08-.25,.01-.05-.01-.12,.02-.15,.02-.03,.14-.04,.16-.02,.08,.07,.18,.15,.18,.23,0,.09-.02,.19,.11,.19,.13,0,.21-.08,.18-.2,0-.02,0-.03,.02-.06h.39l.15,.42s.01-.1,.04-.16c.01-.03,.06-.05,.1-.08,.03,.03,.07,.06,.08,.1,.06,.18,.11,.35,.18,.59l.87-.64,.16,.54h0c.15,.01,.3,0,.44,.05,.1,.03,.18,.12,.24,.2,.02,.03-.05,.1-.08,.16-.04,.05-.08,.11-.14,.18l.3,.04s.02,.12,0,.13c-.22,.09-.14,.28-.2,.42l.4,.29s.18-.05,.22-.12c.1-.15,.19-.12,.3-.03,.02,.02,.05,.03,.08,.05,.08-.06,.18-.11,.24-.19,.24-.3,.61-.4,.99-.5,.06-.02,.13,0,.19-.01,.08-.01,.16-.03,.29-.05,.24,.03,.53,.09,.82,.11,.08,0,.18-.07,.27-.12,.06-.04,.11-.1,.18-.12,.05-.01,.12,.02,.18,.04-.04,.04-.07,.08-.11,.11-.08,.07-.16,.14-.25,.22l.29,.17,.42-.19c.13,.15-.15,.34,.15,.4l.03-.23c.1,.07,.17,.11,.23,.16,.05,.04,.1,.09,.15,.13,.04-.05,.1-.11,.11-.16,.02-.11-.02-.21,.14-.31,.12-.07,.2-.09,.33-.06,.1,.02,.2,.03,.33,.05,.03,.19,.14,.41-.18,.56-.04,.02-.05,.11-.06,.17-.03,.17-.18,.24-.36,.15-.05-.03-.12-.05-.18-.05-.03,0-.07,.05-.1,.08,.03,.02,.05,.07,.09,.07,.1,.01,.2,.03,.19,.13,0,.05-.12,.08-.14,.13-.12,.27-.5,.16-.69,.34-.04,.04-.16,0-.25,0l-.03,.06,.41,.18,.06-.17c.09,0,.19-.02,.27,0,.08,.02,.22,.09,.22,.13-.01,.09-.07,.19-.15,.26-.1,.08-.23,.12-.36,.18,.11,.1,.2,.17,.27,.24,.03,.03,.03,.08,.03,.12,0,.09-.2,.17,0,.26,.1,.05,.2,.09,.33,.15-.02,.05-.02,.15-.08,.19-.04,.03-.16-.04-.24-.05-.05-.01-.11-.01-.16-.02,.03,.04,.05,.07,.08,.11,.07,.08,.13,.17,.22,.24,.14,.11,.23,.09,.31-.07,.13-.27,.22-.33,.51-.32l-.19,.45c.15,0,.31,.07,.45-.08,.04-.04,.19,0,.34,0l-.22,.25c.1,.08,.16,.1,.27,.02,.1-.08,.25-.11,.38-.16-.18-.03-.22-.14-.2-.28l-.53-.04c.02-.2,.14-.27,.45-.24,.19,.02,.09,.16,.12,.25,.12,0,.25,0,.36,.03,.06,.02,.08,.12,.11,.19,.03,.05,.04,.11,.08,.14,.03,.02,.13,.03,.16,0,.04-.03,.05-.09,.05-.14,.02-.13,.03-.26,.04-.42l-.16-.07,.02,.06-.32,.12c-.01-.08-.07-.18-.03-.23,.05-.05,.18-.04,.29-.06l-.16-.09s.03-.1,.07-.15c.03-.04,.08-.06,.12-.09,.04,.04,.1,.07,.11,.12,.06,.16,.15,.3,.33,.39,.05,.03,.12,.09,.12,.13-.03,.16-.09,.32-.12,.44l.2,.33,.28,.05c-.09,.1-.19,.18-.24,.27-.04,.09-.04,.19-.05,.29h.3v.02c-.05-.26,.21-.3,.39-.42l.14,.09c.28-.19,.58-.31,.93-.32,.16,0,.32-.03,.48-.03,.21,0,.26-.11,.29-.25-.05-.02-.12-.03-.16-.06-.04-.04-.09-.11-.07-.15,.01-.04,.1-.1,.16-.1,.19,0,.38,0,.54,.01,.03-.08,.08-.19,.1-.3,.02-.07,.03-.19-.02-.22-.07-.05-.2-.06-.31-.08l-.05,.07,.21,.29c-.29,.11-.37-.12-.54-.22,.06-.02,.13-.02,.17-.05,.05-.04,.11-.1,.11-.15,0-.25,.17-.35,.45-.25,.09,.03,.2,.05,.3,.04,.17,0,.25,.04,.26,.18,0,.1,.04,.21,.06,.31,.19,0,.19-.09,.2-.19,0-.09,.02-.19,.06-.28,.02-.03,.12-.05,.19-.05,.04,0,.07,.06,.11,.09,.04,.04,.08,.09,.12,.13,.02-.06,.04-.12,.04-.18,0-.03-.05-.06-.07-.09-.02-.04-.03-.11-.02-.11,.17-.06,.34-.17,.5-.16,.18,.02,.14,.19,.1,.31,0,.01,0,.02,0,.04,.11,.09,.34-.09,.37,.12,0,.04-.16,.09-.29,.15,.01,.03,.03,.11,.07,.16,.04,.04,.11,.08,.17,.09,.04,0,.09-.07,.11-.12,.03-.09,.05-.17,.2-.19,.14-.01,.13-.1,.06-.18-.03-.03-.07-.06-.11-.09-.25-.22-.28-.42-.09-.71,.03,.02,.06,.05,.1,.06,.08,.03,.19,.09,.22,.07,.08-.05,.17-.14,.17-.22,.01-.26-.24-.47-.55-.49-.47-.03-.55-.14-.38-.47-.12-.15-.25-.27-.32-.41-.04-.08,.03-.2,.05-.3,.01-.06,.03-.12,.04-.19-.07,0-.14,0-.2,0-.07,0-.19,0-.21-.03-.11-.16-.28-.17-.46-.15-.18,.02-.29-.05-.39-.16-.03-.03-.05-.08-.04-.11,.09-.29,.08-.31-.31-.44,.04,.15,.05,.29,.12,.38,.11,.14-.02,.2-.1,.28-.02,.02-.12,.03-.14,0-.04-.04-.06-.1-.07-.15-.02-.1-.02-.2-.06-.32-.16,.33-.48,.17-.72,.2-.12,.01-.26-.06-.12-.2,.02-.02,.02-.05,.04-.11-.07,.01-.12,0-.16,.03-.13,.07-.23,.07-.3-.06-.02-.03-.07-.06-.12-.08-.27-.1-.55-.2-.82-.3-.11-.04-.29-.31-.26-.4,.02-.04,.08-.09,.13-.1,.04-.01,.11,.02,.14,.04,.12,.11,.23,.23,.34,.36,.09,.1,.16,.06,.21-.02,.06-.09,.12-.18,.17-.28,.02-.04,.04-.1,.02-.14-.01-.03-.1-.02-.15-.03-.1-.03-.21-.06-.29-.11-.22-.14-.45-.17-.62-.05-.08,.05-.16,.11-.24,.16-.04-.08-.08-.16-.13-.24-.12-.21-.08-.34,.09-.52,.09-.1,.28-.18,.19-.34-.11-.2-.25-.37-.56-.38-.4-.02-.8-.09-1.2-.1-.17,0-.31,0-.38-.09l-.57,.1c-.01,.14,.01,.14,.37,0l-.13,.34,.29,.02-.13-.21c.27-.04,.36,.1,.5,.24-.14,.06-.3,.09-.4,.17-.1,.08-.14,.2-.22,.32-.03-.17-.45-.12-.31-.43,.04-.09-.02-.26-.24-.3-.06,0-.08-.17-.12-.26-.09,.01-.21,.05-.31,.03-.09-.02-.17-.11-.25-.16l-.05,.04,.02,.19c-.12,0-.23,0-.32-.02-.27-.06-.27-.07-.48,0-.02-.04-.04-.09-.06-.13-.01,0-.03-.01-.04,0-.23,.1-.34,.07-.47-.14-.2-.32-.59-.41-.96-.55q-.04,.26-.19,.25v-.22c-.39-.16-.39-.04-.65,.26-.05,.05-.08,.12-.14,.15-.04,.02-.13-.01-.17-.04-.02-.02,0-.1,.03-.13,.08-.09,.17-.17,.27-.24,.1-.07,.18-.16,.11-.25-.08-.1-.2-.21-.33-.26-.18-.08-.4-.08-.58-.16-.18-.08-.34-.22-.52-.34-.07,.12-.11,.25-.2,.3-.09,.05-.25,.03-.37,.04,.02,.23,.18,.29,.38,.3,.16,0,.23,.07,.31,.19,.06,.09,.23,.14,.38,.22-.02,.07,.01,.23-.26,.15-.08-.02-.18,0-.26,0-.38-.03-.54-.32-.79-.49-.06-.04-.01-.25,.05-.34,.07-.09,.09-.15,.02-.24-.03-.04-.01-.11-.02-.17-.03-.2-.11-.24-.32-.15-.14,.06-.57-.08-.65-.21-.06-.1-.1-.22-.17-.32-.04-.06-.12-.11-.18-.17-.06,.06-.12,.11-.18,.17-.05,.05-.1,.1-.15,.16-.03,.03-.05,.07-.06,.1-.02,.16-.17,.23-.32,.23-.08,0-.21-.12-.23-.2-.05-.16-.15-.21-.32-.16-.08,.02-.18,.04-.1,.16,.01,.02-.08,.12-.13,.13-.18,.02-.37,0-.55,.02-.13,.01-.26,.05-.27,.2,0,.04-.1,.08-.18,.11,.03-.25-.14-.25-.34-.3-.25-.06-.57-.02-.73-.27-.01-.02-.05-.04-.07-.04-.24,.04-.47,.08-.7,.13-.1,.02-.19,.08-.28,.13-.05,.03-.1,.07-.11,.12,0,.03,.06,.07,.09,.1,.04,.04,.07,.08,.1,.12-.06,.01-.16,.06-.19,.04-.1-.06-.29-.05-.26-.23,.01-.09-.16-.13-.41-.1l.08,.3c-.19-.06-.39,0-.43-.25-.01-.09-.2-.18-.33-.22-.21-.07-.44-.11-.67-.15-.12-.02-.25-.04-.37-.03-.12,.01-.23,.07-.4,.12,.03-.1,.05-.17,.06-.23,0-.06,0-.11,0-.17-.07,.02-.14,.03-.21,.05-.04,.01-.07,.04-.11,.05-.29-.24-.29-.24-.42,.06-.04,.1-.13,.15-.26,.09-.14-.06-.27-.12-.37-.16l-.62,.45-.3,.44s-.13-.02-.14-.05c-.03-.09-.04-.19-.03-.28,.02-.11,.08-.21,.13-.34-.23,.02-.36,.05-.41,.22-.04,.16-.21,.11-.35,.08,0,.01,0,.03,0,.03,.19,.31,.17,.34-.25,.34-.04,0-.09,0-.13,0l.05,.14,.33-.02,.06,.05c-.07,.09-.11,.21-.2,.26-.14,.07-.24-.02-.29-.15,0-.02-.07-.03-.09-.05-.04-.06-.08-.12-.12-.18l.21-.09v-.21c-.15,.07-.3,.19-.44,.19-.1,0-.18-.18-.29-.29v.2c-.09-.05-.16-.07-.21-.11-.17-.18-.22-.17-.37,.01-.02,.03-.16,.03-.2,0-.17-.13-.32-.27-.48-.4-.02-.02-.07-.04-.1-.03-.19,.04-.38,.09-.63,.15l.25,.03c-.06,.22-.11,.43-.18,.63-.01,.04-.11,.06-.18,.08-.22,.05-.45,.08-.67,.14-.05,.01-.13,.1-.11,.13,.04,.08,.1,.17,.18,.23,.03,.02,.13-.02,.18-.03l-.08-.24c.09,0,.17-.01,.26-.02,.07,0,.13,0,.2,0,.06,0,.11,.02,.17,.02-.01,.06,0,.16-.04,.18-.24,.12-.49,.23-.74,.34-.04,.02-.12,0-.16-.02-.09-.06-.19-.14-.25-.22-.04-.05,0-.13,0-.23-.14,.02-.28,.05-.42,.06-.19,.02-.37,.03-.48-.15-.02-.03-.08-.04-.1-.06-.03-.04-.08-.09-.06-.12,.09-.2-.02-.35-.25-.31-.23,.05-.45,.15-.67,.22-.14,.04-.28,.08-.42,.12-.11,.03-.23,.05-.31,.11-.17,.12-.37,.24-.44,.49,.2-.11,.36-.19,.5-.29,.11-.08,.17-.1,.26,.02,.04,.06,.13,.09,.2,.13,.04-.11,.08-.22,.13-.32,.07-.16,.23-.11,.37-.12,.05,0,.1-.06,.13-.05,.13,.03,.27,.06,.39,.11,.03,.01,.04,.12,.01,.16-.17,.17-.34,.34-.53,.49-.08,.06-.19,.05-.22-.05-.04-.13-.15-.18-.28-.23,.05,.1,.1,.19,.14,.29,.03,.07,.04,.14,.07,.24l-.54-.04c0,.17-.05,.3-.29,.27-.03,0-.06,.03-.09,.05-.19,.14-.22,.13-.33-.05-.13,0-.29,.12-.33-.11-.06-.34-.02-.44,.24-.47l-.16-.16c-.06,.06-.11,.11-.15,.16-.04,.05-.11,.15-.12,.14-.1-.04-.19-.1-.29-.16l-.03,.15c-.2-.02-.4-.04-.6-.07-.25-.05-.42,.04-.44,.25,.24-.02,.45,.23,.39,.47-.01,.06-.03,.12-.05,.18-.04,.13-.17,.16-.3,.07-.07-.05-.15-.09-.22-.15-.06-.06-.11-.13-.14-.21-.25-.09-.39,0-.57,.39,.06-.03,.14-.04,.17-.09,.11-.13,.1-.14,.33-.13l-.17,.39,.39-.08c.06,.16,.02,.23-.14,.27-.48,.14-.88-.03-1.01-.46-.05-.16-.14-.2-.3-.17l-.07,.06s.11,.02,.14,.04c.22,.22,.22,.26,0,.49-.11,.12-.16,.3-.42,.27-.03,0-.11,.12-.11,.18,0,.13-.09,.18-.21,.19-.18,.01-.3,.07-.37,.21-.02,.03-.09,.05-.19,.11l.07-.44c.08,0,.16,0,.23,0,.15-.02,.26-.05,.22-.22-.02-.07,.06-.17,.12-.23,.02-.03,.13,0,.22,.02,.03-.05,.08-.13,.13-.2,.11-.16,0-.27-.11-.37-.02-.02-.09,0-.14,0,.02,.05,.02,.12,.07,.15,.13,.08,.2,.15,.06,.27-.13,.11-.26,.09-.41-.09-.05-.06-.06-.14-.1-.2-.02-.03-.06-.06-.09-.06-.04,0-.09,.02-.11,.04-.01,.02,0,.07,.03,.1,.05,.08,.11,.15,.17,.22l-.05,.06-.32-.04,.33,.22s-.06,.06-.09,.09c-.2,.14-.28,.14-.46-.03-.05,.24-.28,.49-.43,.49-.16-.07,.17-.33-.12-.32-.11,.08-.18,.18-.24,.17-.09,0-.18-.07-.25-.12-.04-.03-.05-.1-.09-.12-.07-.05-.16-.08-.25-.12l-.09,.21c.38,.06,.44,.11,.42,.31-.01,.1-.37,.35-.44,.3-.09-.08-.16-.2-.17-.31,0-.07,.1-.14,.16-.22l-.05-.04c-.15,.12-.29,.24-.44,.36-.1,.07-.22,.13-.33,.2l-.04-.04s-.03,.13-.07,.14c-.31,.08-.28,.3-.27,.52-.07,0-.15,.02-.18,0-.19-.14-.38-.29-.56-.45-.15-.13-.27-.27-.41-.41-.01-.01-.08-.02-.08,0-.06,.12-.28,.14-.25,.3,.02,.11-.05,.14-.15,.2-.14,.08-.27,.15-.44,.14-.04,0-.1,.07-.11,.11,0,.04,.06,.08,.1,.12,.03,.03,.07,.05,.11,.07l.02-.23c.1,.07,.21,.1,.23,.15,.04,.11,.07,.25-.11,.32-.15,.07-.3,.15-.45,.2-.04,.01-.14-.03-.17-.07-.09-.1-.18-.18-.35-.15,.09,.1,.19,.19,.24,.3,.03,.07-.01,.16-.02,.24-.08-.05-.15-.09-.23-.13-.1-.06-.2-.11-.31-.15-.09-.17-.11-.16-.29-.04-.07,.05-.24,.06-.3,.02-.26-.15-.49,.02-.73,.03-.04,0-.07,.14-.1,.24-.06,0-.14,0-.2,.01-.08,.03-.17,.07-.23,.13-.1,.1-.2,.2-.27,.31-.03,.05-.03,.13-.01,.19,.02,.08,.07,.15,.08,.23,0,.07-.04,.14-.06,.2-.07-.02-.14-.05-.21-.06-.18-.01-.37-.03-.55-.01-.16,.02-.25,0-.26-.14h0l-.27,.25c.32,.01,.32,.14,.22,.31-.01,.02,0,.06,0,.09,0,.07,.03,.19,0,.2-.08,.04-.2,.03-.32,.04,0,.11-.1,.17-.24,.26-.17,.11-.31,.21-.52,.26-.03,0-.04,.13-.03,.2,0,.06,.07,.13,.05,.19-.01,.07-.07,.15-.13,.2-.02,.01-.14-.04-.2-.08-.16-.1-.33-.2-.56-.02l.36,.07c.04,.11,.02,.2-.17,.19-.13,0-.24,.01-.32,.12-.03,.04-.16,.07-.23,.06-.05,0-.1-.1-.11-.16,0-.08,.02-.16,.04-.24-.55,0-.59,.05-.72,.51-.01,.04-.06,.11-.08,.11-.06,0-.12-.04-.16-.07-.14-.13-.14-.13-.28-.08v.96c-.3,.13-.27-.22-.48-.27l-.02,.31-.37-.14c-.12,.09-.27,.18-.39,.29-.07,.06-.09,.16-.13,.24-.02,.04-.03,.1-.07,.13-.09,.07-.08,.14-.08,.24,0,.11-.13,.22-.22,.35,.03,.05,.1,.13,.13,.21,.01,.03-.08,.13-.09,.13-.33-.1-.24,.19-.36,.28-.05,.04-.02,.14-.06,.19-.04,.07-.11,.14-.19,.17-.13,.05-.14-.06-.18-.13,0-.02-.02-.03-.04-.05-.19,.03-.37,.05-.3,.29,.04,.14-.04,.29-.25,.33-.03,.19-.06,.37-.1,.55-.01,.05-.08,.09-.12,.13-.06-.04-.13-.08-.16-.13-.11-.21-.14-.21-.3-.06l.13,.14c-.07,.03-.15,.09-.22,.08-.24-.02-.47,.12-.55,.31-.04,.11-.13,.21-.21,.33-.27-.05-.46,.11-.64,.25-.19,.15-.35,.32-.52,.49-.03,.03-.02,.09-.04,.14-.03,.07-.06,.13-.09,.19l-.19-.12c-.27,.2-.56,.41-.83,.64-.13,.11-.18,.29-.31,.41-.46,.42-.96,.82-1.42,1.25-.27,.26-.59,.49-.69,.85-.01,.04-.08,.1-.13,.11-.33,.06-.53,.22-.7,.47-.17,.26-.45,.45-.75,.61-.14,.08-.25,.18-.38,.27-.04,.03-.09,.05-.14,.08-.08,.05-.17,.11-.25,.16-.07,.04-.14,.07-.22,.1-.06,.02-.13,.03-.17,.06-.11,.1-.2,.21-.31,.31-1.07,.89-2.14,1.79-3.23,2.67l.75,1.1Z"/><path class="cls-1" d="M109.06,29.97l-.16-.02v-.28h.23c-.03,.12-.05,.22-.08,.31l.34-.06,.05,.07c-.05,.04-.1,.11-.16,.12-.12,.03-.22,0-.22-.13Z"/><path class="cls-1" d="M90.35,30.45v-.28c.25-.1,.21,.1,.29,.17-.06,.04-.12,.08-.18,.12-.02,.01-.06,.01-.08,.02-.05,.08-.07,.2-.15,.24-.07,.03-.19-.04-.3-.07,.1-.18,.25-.21,.42-.2Z"/><path class="cls-1" d="M116.22,36.64l.03-.17q.19,0,.24,.21l-.28-.05c.01,.09,.04,.17,.02,.25-.01,.05-.11,.11-.16,.11-.09,0-.17-.06-.26-.1,.03-.05,.05-.12,.11-.15,.09-.05,.2-.07,.3-.11Z"/><path class="cls-1" d="M89.91,31.12l.03-.25c.09,.04,.16,.06,.22,.09,.08,.03,.15,.07,.22,.12,.04,.03,.07,.07,.1,.11-.06,0-.11,.02-.17,.01-.14-.02-.28-.05-.41-.08,0,.21-.14,.33-.38,.35l-.04,.17-.23-.02,.21-.21c-.04-.19-.04-.19,.21-.25,.08-.02,.16-.03,.24-.04Z"/><path class="cls-1" d="M98.3,29.59l-.34,.14c0-.27,.3-.47,.68-.46-.09,.1-.15,.16-.22,.22-.04,.04-.08,.07-.13,.1l.3-.06c.03,.28-.04,.33-.34,.28l.04-.23Z"/><path class="cls-1" d="M107.15,30.27c.27,.01,.5-.05,.68-.23,.02-.03,.11-.03,.15-.02,.04,0,.08,.05,.1,.08,0,.02-.02,.07-.05,.08-.15,.06-.3,.12-.46,.17-.04,.07-.11,.12-.17,.18-.06,.07-.11,.15-.17,.21-.04,.04-.09,.08-.14,.1-.04,.02-.1,.04-.15,.05-.07,.02-.14,.04-.22,.04-.01,0-.06-.08-.04-.11,.04-.06,.1-.13,.17-.16,.1-.04,.22-.04,.33-.05-.02-.07-.04-.12-.04-.17,0-.07,0-.14,.01-.2-.1-.04-.22-.06-.31-.12-.05-.03-.06-.1-.08-.15,.07-.01,.15-.05,.21-.03,.17,.05,.19,.17,.18,.31Z"/><path class="cls-1" d="M76.75,32.99c-.04,.06-.07,.16-.12,.17-.2,.04-.3,.12-.31,.3,0,.06-.18,.13-.29,.17-.05,.02-.14-.04-.21-.06,.05-.09,.09-.18,.16-.26,.04-.05,.15-.07,.18-.13,.17-.25,.28-.29,.6-.18,0-.07-.03-.15,0-.2,.03-.05,.17-.1,.17-.09,.12,.13,.35,.29,.32,.38-.07,.18-.09,.36-.16,.53,0,.01-.03,.02-.05,.03-.09,.06-.18,.13-.29,.17-.07,.03-.2,.04-.25,0-.06-.05-.11-.15-.09-.22,.05-.2,.23-.11,.45-.04-.22-.25-.04-.36,.15-.47-.12-.04-.19-.07-.26-.1Z"/><path class="cls-1" d="M115.38,33.53s.02-.07,.05-.11c.07-.13,.18-.25,.22-.38,.05-.18,.02-.38,.06-.56,.02-.08,.11-.21,.18-.22,.13-.02,.19,.08,.18,.2,0,.05,.03,.14,.07,.16,.17,.06,.08,.13,.03,.2-.05,.06-.09,.13-.14,.2-.05,.08-.11,.16-.18,.26l.24,.13-.08,.13,.07-.02c.13,.17,.26,.33,.39,.5,.02,.02-.02,.09-.05,.12-.15,.11-.32,.21-.5,.32,.06,.07,.11,.13,.16,.18,.27,.22,.28,.27,.13,.56-.06,.11-.11,.16-.23,.04-.03-.03-.12-.05-.18-.04-.19,.02-.3,.11-.26,.28l-.25,.05,.15,.26-.05,.06-.97-.28c-.03,.06-.06,.16-.12,.23-.05,.05-.14,.07-.22,.1,0-.06-.05-.14-.02-.18,.08-.11,.19-.21,.28-.32,.04-.04,.05-.1,.08-.15-.06,0-.14-.03-.18,0-.11,.06-.21,.12-.29,.2-.11,.11-.32,.14-.35,.04-.04-.12-.07-.28,0-.38,.07-.12,.23-.22,.37-.31,.23-.14,.29-.26,.19-.46-.02-.04,0-.12,.05-.15,.12-.09,.19-.04,.24,.18,.13-.19,.51-.11,.5-.39l.26-.07-.08-.2c.08,0,.16-.03,.24-.02,.1,.01,.2,.05,.3,.07l.03-.06-.3-.15Z"/><path class="cls-1" d="M101.77,29.92c.05-.07,.14-.13,.13-.19-.05-.29,.17-.26,.38-.26,.04,0,.07,0,.11-.01,.2-.04,.29,.01,.31,.18,0,.04-.06,.11,.07,.1,.02,0,.06,.03,.06,.05,0,.03-.02,.06-.05,.07-.03,.01-.09,.01-.12,0-.11-.08-.2-.17-.31-.26l-.16,.15c.06,.01,.1,.01,.13,.02,.19,.05,.39,.31,.28,.37-.15,.08-.17,.21-.25,.31-.15,.19-.38,.18-.59,.18-.31,0-.65,.21-.93-.07,0,0-.02,0,0,0-.08,.14-.15,.25-.22,.36-.11,.18-.29,.08-.45,.1-.02-.25,.26-.22,.4-.33-.02-.02-.03-.04-.05-.06q-.2-.19,.02-.38s.05-.07,.08-.09c.15-.11,.22-.34,.52-.23v.2c-.08,0-.12-.02-.16-.02-.04,0-.09,.01-.14,.02v.16c.08,.02,.16,.03,.22,.07,.06,.03,.11,.09,.15,.13,.09-.03,.17-.06,.24-.06,.28,0,.3-.02,.24-.25l-.28-.07,.07-.33,.27,.12Z"/><path class="cls-1" d="M104.45,31.14l-.59,.43c0-.16,.01-.27,.02-.39,0-.01,.04-.02,.05-.03,.18-.22,.5-.38,.5-.7,0-.04,.06-.07,.09-.11,.04,.03,.12,.06,.13,.1,.04,.18,.16,.27,.38,.3,.21,.03,.4,.23,.35,.39-.07,.2-.02,.33,.25,.4l-.15,.25c-.04-.06-.06-.07-.07-.09-.13-.28-.17-.29-.46-.13-.04,.02-.12,.03-.14,.02-.14-.13-.42-.15-.35-.44Z"/><path class="cls-1" d="M105.88,30.98s0-.12,.03-.17c.07-.1,.15-.24,.26-.27,.16-.04,.24-.09,.26-.23,.02-.12,.09-.18,.24-.14,.09,.15,.13,.28-.12,.37-.1,.04-.16,.15-.22,.21,.06,.1,.1,.17,.15,.23,.03,.05,.07,.12,.12,.13,.24,.05,.17,.13,.04,.22-.03,.02-.05,.05-.1,.11,.15,.08,.28,.15,.41,.23,.05,.03,.06,.11,.09,.19-.28-.07-.51-.1-.72-.18-.26-.09-.1-.27-.08-.41l-.37-.31Z"/><path class="cls-1" d="M118.81,35.15c.05-.11,.06-.2,.12-.26,.18-.15,.37-.28,.56-.41,.07-.05,.15-.1,.27-.17-.23-.06-.46-.08-.42-.3,0-.04,.12-.11,.18-.1,.2,.02,.34,.11,.33,.31,.08-.03,.14-.06,.2-.07,.06,0,.14,0,.18,.02,.03,.02,.03,.09,.01,.14-.03,.12-.07,.24-.12,.35-.02,.05-.08,.08-.13,.13-.17-.24-.33-.23-.51-.05-.14,.15-.34,.27-.51,.39-.02,.02-.07,0-.17,0Z"/><path class="cls-1" d="M80,32.06c.17-.03,.22,.03,.21,.15,0,.05-.02,.11,0,.14,.12,.14,.11,.29,.04,.43-.04,.07-.11,.13-.16,.2-.06-.06-.13-.13-.19-.19-.02-.02-.02-.04-.03-.06l-.04,.04c-.16-.07-.34-.13-.49-.21-.05-.03-.06-.15-.03-.19,.03-.04,.14-.06,.22-.06,.15,0,.29,.02,.45,.03v-.27Z"/><path class="cls-1" d="M112.9,30.38c-.02,.17-.03,.33-.05,.48,0,.03,.01,.05,.02,.08,0,.06,.05,.13,.02,.16-.04,.04-.13,.04-.19,.05l-.18-.57-.31,.1,.02-.2,.32-.02c-.2-.08,0-.26-.23-.31,0,0-.01-.09,0-.1,.04-.02,.11-.03,.14-.01,.09,.05,.16,.12,.24,.18,.11-.21,.29-.11,.43-.12,.07,.23-.11,.24-.23,.25Z"/><path class="cls-1" d="M92.64,28.16c.11,.11,.22,.21,.31,.31,.03,.04,.03,.09,.04,.14-.06,0-.13,.03-.18,.02-.13-.03-.25-.08-.36-.14-.06-.03-.15-.07-.16-.12-.01-.05,.06-.11,.1-.16,.05-.06,.12-.11,.15-.17,.05-.11,.06-.24,.1-.36,0-.03,.04-.06,.07-.07,.02,0,.08,.01,.09,.03,.01,.03,0,.09-.01,.1-.17,.1-.02,.16,.04,.2,.17,.01,.32,.04,.46,.09,.03,0,.05,.08,.03,.11-.02,.03-.1,.06-.12,.05-.14-.07-.33,.11-.44-.08l-.11,.04Z"/><path class="cls-1" d="M100.91,28.51l-.25,.15,.07-.43c.23-.07,.3,.04,.3,.19,.59,.05,.76,.17,.72,.52-.32,.12-.28-.26-.54-.26,0,.05,0,.1-.03,.15-.02,.05-.06,.08-.09,.13-.04-.04-.1-.08-.12-.13-.03-.1-.05-.2-.07-.31Z"/><path class="cls-1" d="M118.38,33.48c-.04-.05-.07-.12-.12-.18-.04-.05-.08-.09-.14-.13-.01,0-.06,.02-.1,.03,.02,.05,.05,.1,.07,.15,.01,.03,.04,.08,.02,.1-.03,.03-.09,.04-.14,.04-.03,0-.07-.06-.07-.08,.05-.17-.05-.24-.22-.28-.03,0-.05-.06-.08-.09,.03-.02,.07-.05,.1-.05,.19,0,.39,0,.58,0l-.04,.05,.59,.45c-.3,0-.19,.38-.58,.33l.11-.34Z"/><path class="cls-1" d="M74.02,34.29c.09-.1,.17-.17,.24-.25,.11-.12,.32-.1,.41,.04,.09,.15,.19,.3,.28,.45,.03,.06,.04,.13,.05,.2,0,.01-.09,.05-.11,.04-.08-.04-.16-.08-.21-.14-.1-.11-.17-.23-.26-.35-.27,.17-.31,.17-.4,.01Z"/><path class="cls-1" d="M108.61,32.05c-.08,0-.15,0-.21,0-.06-.01-.12-.05-.18-.07,.04-.05,.07-.1,.11-.15,.04-.05,.1-.1,.14-.15,.1-.14,.3-.14,.4-.01,.02,.03,.05,.08,.08,.08,.36,.02,.24,.22,.21,.39-.02,.13-.11,.12-.21,.1-.02-.28-.07-.33-.31-.35l-.02,.17Z"/><path class="cls-1" d="M108.82,32.28l.06,.06c0,.19-.14,.41-.33,.49-.03,.01-.1,0-.12,0-.08-.07-.17-.13-.22-.21-.07-.11-.12-.2-.28-.08-.02,.02-.11,0-.16-.03-.02-.01-.03-.07-.01-.1,.06-.11,.32-.15,.46-.12,.2,.04,.2,.16,.21,.32l.41-.32Z"/><path class="cls-1" d="M72.32,36.6c.08,.02,.18,.01,.24,.05,.05,.03,.09,.13,.06,.17-.05,.08-.47,.05-.53-.03-.07-.1-.15-.19-.21-.29-.06-.1-.09-.21-.14-.33,.34,0,.52,.14,.57,.43Z"/><path class="cls-1" d="M74.09,35.33c.18,.05,.34,.09,.5,.14,.03,0,.04,.11,.03,.12-.08,.03-.17,.08-.25,.07-.35-.05-.57-.25-.78-.47-.03-.03-.04-.1-.02-.13,.02-.03,.11-.06,.15-.04,.17,.06,.35,.11,.37,.32Z"/><path class="cls-1" d="M104.09,28.89c-.02,.08-.05,.16-.04,.23,.01,.07,.08,.13,.11,.2,.01,.03-.01,.07-.03,.1-.09,.18-.34,.27-.66,.21,.04-.09,.08-.17,.12-.24,.04-.07,.08-.15,.14-.2,.11-.1,.03-.34,.35-.29Z"/><path class="cls-1" d="M72.78,36.15c.04-.17-.09-.33,.16-.36,.34-.04,.34-.04,.38-.33,.01-.1,.06-.14,.17-.09,.13,.06,.15,.28,.05,.38-.07,.07-.13,.16-.22,.27l-.55,.14Z"/><path class="cls-1" d="M114.74,30.36l-.05-.11c.16-.09,.3-.19,.47-.25,.1-.04,.22-.04,.34-.04,.08,0,.22,.03,.22,.06,.01,.1,0,.2-.05,.3,0,.02-.15,0-.22,0-.05,0-.11-.04-.16-.04-.18,.02-.37,.05-.55,.08Z"/><path class="cls-1" d="M79.55,33.38c-.1-.03-.16-.04-.21-.08-.18-.11-.36-.22-.52-.35-.06-.05-.1-.14-.09-.21,0-.04,.1-.12,.15-.12,.07,0,.12,.08,.18,.12,.06,.04,.11,.09,.17,.13,.17,.12,.32,.24,.32,.5Z"/><path class="cls-1" d="M121.28,34.73c-.04,.11-.06,.21-.25,.23-.14,.01-.29,.06-.37,.2-.05,.09-.17,.15-.27,.21-.03,.02-.12,.02-.14,0-.03-.02-.03-.09-.02-.13,.02-.07,.05-.14,.09-.2,.03-.04,.08-.08,.14-.09,.06-.02,.13,0,.21,0-.04-.19,.09-.21,.25-.21,.11,0,.22,0,.36,0Z"/><path class="cls-1" d="M71.06,36.58c.03,.05,.03,.06,.04,.08,0,.01,0,.03,0,.04-.21,.19-.17,.3,.13,.37,.04,.01,.09,.11,.08,.16,0,.03-.1,.08-.16,.08-.26,0-.36-.17-.47-.32-.04-.06-.02-.19,.04-.24,.08-.08,.22-.11,.34-.17Z"/><path class="cls-1" d="M81.91,32.26c-.28,.01-.4-.07-.35-.24,.01-.05,.09-.08,.12-.12,.08-.11,.15-.23,.24-.35,.02-.03,.09-.06,.13-.05,.03,0,.08,.06,.08,.09,0,.18,.06,.38-.25,.39l.04,.27Z"/><path class="cls-1" d="M83.17,32.75l-.08-.06c.13-.16,0-.45,.39-.5,.05,0,.09-.08,.12-.13,.06-.12,.16-.15,.3-.1,.02,.15,0,.26-.2,.31-.04,0-.07,.05-.1,.08-.14,.13-.28,.26-.42,.39Z"/><path class="cls-1" d="M101.6,29.35l-.08-.08c.07-.07,.13-.14,.21-.2,.05-.04,.16-.02,.2-.06,.18-.21,.34-.06,.48,.02,.05,.03,.04,.14,.06,.21-.08,0-.15,0-.23-.01-.08,0-.17-.02-.24,0-.14,.03-.26,.08-.4,.12Z"/><path class="cls-1" d="M108.72,30.55c.08-.03,.14-.06,.22-.08,.08-.02,.16-.04,.28-.08-.03,.1-.02,.17-.06,.21-.19,.19-.76,.11-.88-.13-.01-.02,0-.06,0-.09l.49-.1-.04,.27Z"/><path class="cls-1" d="M99.84,28.05c-.06,0-.13,0-.19-.03-.04-.01-.09-.05-.1-.08,0-.04,.03-.1,.06-.12,.03-.02,.11-.02,.14,0,.2,.11,.29,.28,.38,.46,.01,.03,0,.07-.03,.1-.05,.06-.11,.12-.18,.2-.12,.01-.29,.06-.38-.14,.23-.06,.41-.13,.3-.38Z"/><path class="cls-1" d="M86.37,30.3s-.01,.04-.03,.05c-.04,.06-.08,.11-.13,.16,0,0-.11-.04-.11-.05,0-.07,.02-.15,.05-.22,.02-.05,.07-.1,.12-.14,.07-.05,.17-.14,.21-.12,.11,.05,.25,.12,.3,.21,.06,.12-.06,.19-.22,.15-.06-.01-.13-.03-.19-.05Z"/><path class="cls-1" d="M118.25,35.44c-.22,.1-.44,.04-.58-.08-.17-.16,.13-.24,.17-.38,.01-.05,.13-.07,.2-.1l.05,.04-.17,.38,.33-.04v.17Z"/><path class="cls-1" d="M116.87,35.52l.06-.08c.14,.02,.29,.02,.43,.05,.09,.02,.16,.07,.24,.1-.07,.11-.12,.25-.23,.33-.07,.05-.22,.02-.21-.12,0-.06,0-.13,0-.14l-.29-.14Z"/><path class="cls-1" d="M74.44,34.49l-.07,.6c-.1-.09-.14-.16-.21-.19-.08-.03-.18-.03-.27-.04-.04-.21,.18-.37,.55-.38Z"/><path class="cls-1" d="M101.26,32.42l-.03-.04c.12-.12,.22-.24,.35-.35,.04-.04,.15-.07,.19-.06,.16,.06,.12,.2,.12,.32,0,.02-.11,.05-.18,.06-.09,.02-.17,.04-.26,.06-.06,.01-.13,.01-.19,.02Z"/><path class="cls-1" d="M103.16,29.59l.03-.04c.09,.06,.22,.1,.26,.17,.05,.11-.16,.28-.3,.28-.19,0-.24-.13-.25-.23-.01-.13,.09-.2,.26-.17Z"/><path class="cls-1" d="M106.07,28.57c-.08-.05-.15-.11-.24-.15-.12-.06-.18-.23-.39-.17-.04,.01-.1-.03-.15-.04,.02-.04,.02-.1,.06-.13,.11-.06,.21-.1,.31,.04,.05,.07,.16,.16,.24,.16,.22,0,.25,.09,.17,.29Z"/><path class="cls-1" d="M86.93,29.22l.05,.17,.3,.03c-.06,.11-.1,.2-.17,.28-.03,.03-.18,.04-.19,.02-.05-.06-.06-.15-.07-.18l-.18-.21,.26-.11Z"/><path class="cls-1" d="M113.65,30.76c-.02,.11-.03,.21-.07,.3-.02,.05-.1,.1-.17,.13-.03,.01-.12-.01-.13-.03-.06-.13-.09-.26-.14-.39h.5Z"/><path class="cls-1" d="M75.84,34.11s.08,.05,.1,.09c.03,.09-.2,.26-.37,.26-.08,0-.2-.07-.22-.12-.04-.11,.17-.2,.5-.23Z"/><path class="cls-1" d="M113.28,31.82l-.08-.53c.21-.02,.41,.1,.43,.29,.02,.19-.21,.15-.35,.25Z"/><path class="cls-1" d="M105.77,30.47l-.04,.05c-.08-.03-.19-.05-.22-.11-.1-.15-.17-.31-.23-.47-.02-.04,.04-.1,.07-.15,.05,.04,.13,.07,.16,.12,.08,.14,.15,.29,.22,.43,.02,.04,.03,.08,.05,.12Z"/><path class="cls-1" d="M109.82,32.61c-.23,0-.43,.07-.4-.15-.05,.02-.12,.08-.17,.07-.05,0-.08-.08-.12-.12,.05-.03,.11-.06,.16-.09,.04-.02,.07-.05,.11-.06,.05-.02,.13-.05,.14-.04,.1,.12,.18,.24,.3,.4Z"/><path class="cls-1" d="M73.32,35.23c-.08,.14-.15,.28-.24,.4-.03,.04-.12,.04-.18,.06-.02-.05-.05-.11-.04-.16,0-.06,.06-.11,.07-.17,.03-.17,.12-.22,.39-.14Z"/><path class="cls-1" d="M103.29,28.06c-.02,.13-.03,.26-.05,.38-.01,.06-.05,.11-.08,.17-.07-.04-.16-.06-.21-.11-.13-.16,.02-.36,.34-.44Z"/><path class="cls-1" d="M100.56,29.22c.11-.08,.21-.19,.25-.17,.1,.03,.25,.14,.24,.19-.03,.1-.15,.19-.24,.28l-.26-.29Z"/><path class="cls-1" d="M76.9,34.98c.33-.02,.43,.03,.41,.25,0,.05-.1,.13-.17,.14-.16,.02-.27-.17-.24-.39Z"/><path class="cls-1" d="M80.5,31.53c.14,.02,.28,.03,.41,.05,.06,.01,.16,.02,.18,.06,.02,.06,.01,.14-.02,.19-.02,.03-.13,.02-.19,0-.08-.02-.15-.07-.22-.08-.17-.01-.19-.09-.15-.23Z"/><path class="cls-1" d="M90.9,29.13l-.6-.24c.07-.06,.13-.16,.19-.16,.29,0,.45,.14,.41,.4Z"/><path class="cls-1" d="M95.19,29.4c0,.2-.14,.38-.27,.37-.05,0-.12-.09-.11-.11,.06-.13,.15-.24,.22-.36l.16,.11Z"/><path class="cls-1" d="M109.86,30.99c-.12-.03-.22-.08-.31-.06-.31,.05-.34,.03-.27-.28l.58,.16v.18Z"/><path class="cls-1" d="M103.75,28.75c.01,.16-.29,.49-.45,.48-.03-.3,.17-.51,.45-.48Z"/><path class="cls-1" d="M107.09,28.1c-.1,.11-.15,.19-.23,.23-.06,.03-.16,.02-.24,.03,.02-.07,.03-.14,.05-.21,0-.02,0-.05,0-.07,.04-.05,.1-.14,.12-.13,.09,.03,.17,.08,.3,.15Z"/><path class="cls-1" d="M85.29,32.16c-.17,0-.34-.12-.26-.19,.12-.11,.3-.17,.45-.25,.02,.03,.06,.07,.04,.09-.07,.11-.15,.21-.24,.34Z"/><path class="cls-1" d="M110.94,30.37c-.12-.06-.24-.09-.3-.15-.03-.03,.03-.16,.1-.2,.08-.06,.2-.08,.3-.11l.04,.05-.14,.41Z"/><path class="cls-1" d="M100.09,29.55c-.11-.1-.2-.15-.22-.22-.02-.1,.05-.22,.2-.18,.1,.02,.18,.11,.28,.17l-.25,.23Z"/><path class="cls-1" d="M69.28,38.23s.1-.09,.13-.08c.12,.05,.33,.01,.32,.21,0,.1-.06,.15-.18,.13-.16-.02-.26-.07-.26-.27Z"/><path class="cls-1" d="M106.61,29.27c.05,.14-.06,.36-.15,.39-.07,.02-.14,.06-.21,.08-.06,.01-.12,.01-.18,.01,.02-.04,.02-.1,.06-.13,.15-.12,.3-.23,.48-.35Z"/><path class="cls-1" d="M103.2,30.67q-.08,.17-.62,0c.04-.21,.21-.21,.62,0Z"/><path class="cls-1" d="M81.56,33.22c.15,.28-.18,.31-.3,.44-.02,.02-.13,0-.21-.01v-.05s.1-.07,.15-.11c.05-.04,.11-.09,.11-.14,0-.15,.12-.15,.24-.14Z"/><path class="cls-1" d="M79.46,34.04c.14-.3,.22-.36,.43-.32,.02,.34-.09,.42-.43,.32Z"/><path class="cls-1" d="M102.51,28.81c.16,.07,.31,.12,.44,.19,.03,.02,0,.13-.03,.18-.02,.03-.13,.06-.14,.05-.11-.12-.34-.17-.27-.42Z"/><path class="cls-1" d="M108.85,30.83l.26,.19c-.09,.08-.16,.22-.26,.23-.21,.03-.08-.17-.16-.25,0,0,.09-.09,.17-.17Z"/><path class="cls-1" d="M118.07,34.44c-.2-.02-.24-.14-.21-.27,.04-.14,.13-.24,.38-.19l-.17,.46Z"/><path class="cls-1" d="M63.21,43.17c-.05-.25,.15-.51,.36-.49,.01,.21-.14,.42-.36,.49Z"/><path class="cls-1" d="M108.54,28.71c-.02-.11,.02-.17,.17-.17,.18,0,.16,.11,.18,.2,.02,.09,0,.17-.15,.17-.15,0-.2-.08-.2-.2Z"/><path class="cls-1" d="M101.05,29.81c-.04-.15,.16-.33,.43-.4,.06,.22-.07,.35-.43,.4Z"/><path class="cls-1" d="M108.62,29.29c0,.17-.03,.3-.23,.32-.11,.01-.17-.05-.16-.16,.02-.24,.22-.15,.39-.16Z"/><path class="cls-1" d="M105.56,27.55c.17,.04,.26,.05,.34,.08,.04,.02,.09,.09,.08,.12-.03,.07-.09,.13-.14,.19-.05-.03-.13-.05-.16-.1-.05-.07-.07-.16-.13-.3Z"/><path class="cls-1" d="M97.22,31.64c.05-.1,.07-.21,.14-.24,.13-.06,.13,.06,.17,.13,0,0,.03,0,.04,.02,.04,.04,.07,.08,.11,.13-.08,.02-.16,.07-.24,.07-.07,0-.13-.06-.2-.09Z"/><path class="cls-1" d="M78.72,32.1c.2,.01,.34,.21,.32,.42-.26,.03-.33-.06-.32-.42Z"/><path class="cls-1" d="M94.11,29.49c-.08-.03-.19-.05-.19-.07,0-.12,.02-.25,.06-.37,.01-.03,.12-.05,.18-.07l-.05,.51Z"/><path class="cls-1" d="M96.11,30.05c-.02,.1-.02,.2-.08,.27-.03,.04-.17,.02-.26,.03,0-.06-.01-.12,0-.18,.03-.15,.16-.13,.34-.11Z"/><path class="cls-1" d="M92.15,28.8c.13-.08,.21-.15,.3-.17,.04,0,.15,.08,.16,.13,0,.1-.04,.21-.2,.19-.07,0-.13-.07-.25-.14Z"/><path class="cls-1" d="M70.86,36.24c.01,.25-.16,.41-.35,.36-.04,0-.09-.12-.08-.13,.12-.08,.26-.15,.42-.23Z"/><path class="cls-1" d="M109.98,30.73l.18-.17c.08,.07,.17,.14,.24,.23,0,.01-.14,.14-.16,.13-.09-.04-.15-.11-.25-.19Z"/><path class="cls-1" d="M82.47,32.59c-.08-.03-.16-.04-.18-.08-.02-.03,.01-.1,.04-.15,.04-.06,.08-.12,.13-.17,.03-.03,.08-.06,.12-.06,.04,0,.1,.04,.11,.06,.01,.04,0,.1-.04,.13-.03,.03-.1,.03-.16,.04l-.03,.22Z"/><path class="cls-1" d="M97.03,31.32c.04,.21-.08,.39-.3,.42,0-.27,.08-.4,.3-.42Z"/><path class="cls-1" d="M99.95,30.1l.09,.06c-.06,.11-.1,.22-.18,.32-.03,.04-.11,.04-.17,.06,0-.06-.03-.11-.01-.16,.02-.07,.06-.13,.11-.19,.04-.04,.1-.06,.16-.09Z"/><path class="cls-1" d="M110.79,30.94c.2,0,.26,.09,.27,.21,0,.04-.09,.11-.1,.11-.11-.06-.22-.12-.33-.19l.16-.13Z"/><path class="cls-1" d="M111,30.51c-.07,.18-.13,.32-.36,.3-.05,0-.11-.05-.13-.09-.02-.02,.02-.1,.04-.11,.13-.04,.27-.06,.45-.1Z"/><path class="cls-1" d="M71.12,36.17c.3,.01,.37,.07,.36,.26-.31,.04-.38,0-.36-.26Z"/><path class="cls-1" d="M112.33,32.97c.11-.12,.21-.24,.32-.34,.02-.02,.13,0,.17,.04,.02,.01,.02,.1-.01,.12-.1,.09-.21,.17-.33,.24-.02,.01-.07,.01-.1,0-.02,0-.03-.04-.05-.06Z"/><path class="cls-1" d="M105.71,31.51c.22-.09,.28,.09,.39,.18,.02,.02-.06,.13-.1,.2-.05-.03-.12-.06-.15-.1-.06-.08-.09-.18-.14-.27Z"/><path class="cls-1" d="M93.54,27.96c.23,.04,.3,.14,.31,.28,0,.04-.11,.12-.15,.11-.26-.05-.11-.22-.16-.38Z"/><path class="cls-1" d="M69.97,38.11s-.13-.02-.14-.04c-.03-.09-.06-.19-.05-.29,0-.04,.1-.08,.15-.12,.04,.05,.1,.09,.1,.14,0,.1-.04,.19-.06,.31Z"/><path class="cls-1" d="M70.78,37.66c-.1,.06-.16,.12-.22,.13-.14,.02-.19-.07-.16-.16,.02-.06,.1-.1,.15-.16l.23,.19Z"/><path class="cls-1" d="M99.26,28.89l-.18,.21c-.05-.06-.14-.13-.13-.18,0-.08,.09-.15,.14-.22l.17,.19Z"/><path class="cls-1" d="M83.8,31.59c.22-.03,.35,.03,.36,.2,0,.03-.06,.1-.1,.1-.11,.01-.28-.2-.26-.31Z"/><path class="cls-1" d="M63.71,42.57c-.03-.15,.19-.35,.38-.35,.02,.19-.11,.31-.38,.35Z"/><path class="cls-1" d="M114.05,32.11c.02-.26,.09-.32,.33-.31,.03,.24-.05,.32-.33,.31Z"/><path class="cls-1" d="M117.17,34.7c.09,.14,.18,.27,0,.36-.04,.02-.23-.06-.25-.12-.07-.18,.17-.14,.25-.24Z"/><path class="cls-1" d="M71.57,36.85c-.08-.09-.16-.15-.14-.18,.03-.07,.09-.15,.16-.17,.12-.03,.2,.05,.17,.15-.02,.06-.1,.1-.19,.2Z"/><path class="cls-1" d="M104.31,29.35l-.06-.07c.11-.1,.14-.27,.36-.27,.04,0,.09,.06,.13,.1l-.43,.24Z"/><path class="cls-1" d="M80.81,33.14v-.08c.07-.02,.14-.06,.21-.07,.15-.02,.17,.08,.16,.17,0,.04-.1,.12-.12,.11-.09-.03-.17-.08-.25-.12Z"/><path class="cls-1" d="M78.08,32.67c-.03,.17-.12,.27-.31,.26-.03,0-.09-.1-.08-.14,.06-.17,.22-.14,.39-.12Z"/><path class="cls-1" d="M113.06,35.93l-.37-.08c.02-.06,.02-.14,.07-.18,.04-.04,.18-.05,.19-.04,.04,.07,.06,.16,.11,.3Z"/><path class="cls-1" d="M97.15,30.16c-.12,.07-.19,.13-.24,.13-.07-.01-.13-.08-.2-.13,.07-.05,.12-.13,.2-.15,.04-.01,.12,.07,.24,.15Z"/><path class="cls-1" d="M102.02,31.69c-.07,.04-.12,.07-.17,.09-.04,.02-.1,0-.15,.03-.04,.02-.08,.05-.12,.08,0-.06,0-.12,.03-.17,.04-.06,.11-.11,.17-.15,.03-.02,.1-.03,.14-.02,.03,.01,.05,.06,.1,.14Z"/><path class="cls-1" d="M68.02,39.7c-.14-.07-.25-.12-.35-.19-.03-.02-.01-.09,0-.13,0-.02,.09-.04,.11-.03,.13,.07,.27,.14,.24,.36Z"/><path class="cls-1" d="M119.31,35.55c0-.19,0-.21,.14-.21,.17,0,.27,.06,.28,.21h-.42Z"/><path class="cls-1" d="M90.32,28.99c-.05,.22-.22,.31-.46,.27,.02-.26,.35-.14,.46-.27Z"/><path class="cls-1" d="M78.68,31.96c0-.08-.02-.12-.02-.17,0-.05,0-.1,.02-.18,.1,.03,.2,.04,.25,.09,.03,.03,.04,.13,0,.16-.06,.05-.15,.06-.25,.1Z"/><path class="cls-1" d="M108,30.48c.03,.14-.24,.36-.39,.35-.09-.29,.29-.21,.39-.35Z"/><path class="cls-1" d="M113.51,35.99c-.1-.08-.19-.12-.2-.18-.02-.11,.08-.16,.2-.13,.06,.01,.14,.08,.15,.13,.01,.04-.07,.09-.15,.18Z"/><path class="cls-1" d="M75.6,32.97c.08,.09,.14,.15,.19,.22,0,.01-.1,.09-.12,.09-.09-.05-.17-.11-.25-.16l.18-.15Z"/><path class="cls-1" d="M103.44,28.23l.06-.11c.07-.03,.15-.08,.22-.09,.04,0,.09,.06,.14,.1-.07,.06-.12,.14-.21,.16-.05,.02-.14-.04-.21-.07Z"/><path class="cls-1" d="M76.28,34.11c.29,0,.33,.02,.31,.23-.29,.03-.34,0-.31-.23Z"/><path class="cls-1" d="M108.17,31.5l.09,.07-.13,.29-.21-.24,.26-.12Z"/><path class="cls-1" d="M97.8,29.33c.01,.24-.08,.31-.37,.27,0-.11,.19-.25,.37-.27Z"/><path class="cls-1" d="M103.45,30.94c-.02,.16-.2,.29-.37,.25-.04,0-.09-.05-.09-.08,0-.03,.04-.08,.08-.09,.12-.03,.24-.05,.38-.08Z"/><path class="cls-1" d="M77.82,33.46c-.08-.09-.17-.15-.16-.17,.03-.06,.1-.12,.17-.14,.04,0,.15,.07,.15,.1,0,.06-.08,.11-.16,.21Z"/><path class="cls-1" d="M112.31,31.33c.12-.07,.19-.12,.26-.13,.04,0,.14,.08,.13,.1-.04,.07-.1,.13-.16,.19l-.22-.16Z"/><path class="cls-1" d="M115.56,35.74c0-.16,.09-.24,.26-.23,.05,0,.13,.09,.12,.11-.07,.14-.21,.15-.38,.12Z"/><path class="cls-1" d="M84.62,32.53s0-.07,0-.1c0-.13,.1-.17,.24-.16,.05,0,.1,.05,.14,.08-.07,.06-.13,.12-.21,.16-.04,.02-.1,.01-.17,.02Z"/><path class="cls-1" d="M98.06,27.91c.07,.13,.36,.07,.32,.28h-.34c0-.07,0-.13,0-.19,0-.03,.01-.06,.02-.08Z"/><path class="cls-1" d="M113.62,36.3l-.05-.05c.07-.23,.13-.26,.45-.16l-.41,.22Z"/><path class="cls-1" d="M77.08,33.95c0-.14,.14-.3,.24-.28,.04,0,.09,.07,.09,.1-.03,.17-.16,.2-.33,.17Z"/><path class="cls-1" d="M117.18,34.59c-.06-.14-.07-.26,.1-.32,.04-.01,.16,.03,.17,.06,.05,.18-.13,.2-.27,.26Z"/><path class="cls-1" d="M85.41,31.35c0,.11,.05,.24-.14,.24-.05,0-.15-.06-.15-.1-.02-.17,.13-.16,.29-.15Z"/><path class="cls-1" d="M101.11,29.21c0-.15,.06-.24,.23-.24,.04,0,.13,.09,.12,.13-.04,.16-.2,.11-.34,.11Z"/><path class="cls-1" d="M89.63,31.69c0,.13,.05,.26-.15,.25-.05,0-.14-.09-.14-.14,0-.17,.16-.1,.29-.11Z"/><path class="cls-1" d="M117.76,36.2c-.13,.09-.21,.14-.3,.19-.03,.02-.08,.03-.12,.02-.02,0-.06-.06-.05-.06,.08-.07,.15-.16,.25-.21,.04-.02,.13,.03,.22,.06Z"/><path class="cls-1" d="M83.99,31.06c.12-.06,.18-.12,.24-.12,.06,0,.11,.07,.16,.11-.06,.04-.11,.11-.17,.13-.04,.01-.11-.05-.22-.12Z"/><path class="cls-1" d="M93.93,30.32c.23-.05,.28,.05,.27,.16,0,.05-.09,.08-.14,.13l-.13-.29Z"/><path class="cls-1" d="M91.68,29.47c-.22,.02-.22-.13-.25-.23,0-.02,.07-.1,.1-.09,.2,.04,.15,.18,.15,.32Z"/><path class="cls-1" d="M75.09,33.59l.17-.15s.14,.09,.13,.13c0,.06-.08,.11-.12,.16l-.18-.14Z"/><path class="cls-1" d="M75.25,33.91c0,.08,.04,.16,0,.2-.04,.06-.14,.09-.21,.13l-.07-.14,.27-.19Z"/><path class="cls-1" d="M93.45,28.5l-.23,.19s-.11-.08-.1-.11c.02-.14,.13-.15,.33-.07Z"/><path class="cls-1" d="M105.22,29.35l-.04,.06-.32,.08-.05-.04,.21-.23,.2,.13Z"/><path class="cls-1" d="M107.85,31.04c.1-.05,.17-.11,.21-.1,.06,.02,.14,.07,.16,.12,.01,.03-.09,.13-.11,.13-.08-.02-.14-.08-.25-.15Z"/><path class="cls-1" d="M85.78,31.77c-.07-.09-.14-.15-.13-.17,.03-.06,.1-.1,.17-.13,.02,0,.13,.08,.12,.1-.02,.06-.08,.11-.16,.2Z"/><path class="cls-1" d="M116.06,35.7l-.09-.09,.27-.19,.1,.12-.28,.16Z"/><path class="cls-1" d="M111.53,30.25c-.03-.11-.02-.21,.13-.24,.04,0,.15,.05,.15,.08,0,.15-.11,.18-.28,.16Z"/><path class="cls-1" d="M89.29,31.14l-.04-.05c.09-.21,.18-.25,.49-.19l-.45,.24Z"/><path class="cls-1" d="M117.4,36.86c-.06-.17,.08-.19,.2-.21,.04,0,.13,.06,.13,.08-.03,.16-.18,.12-.33,.13Z"/><path class="cls-1" d="M95.39,29.04c-.08-.08-.14-.12-.17-.17,0-.01,.09-.1,.12-.09,.07,.02,.14,.07,.21,.11l-.16,.15Z"/><path class="cls-1" d="M75.95,32.97l-.11-.06,.12-.21,.2,.09-.21,.18Z"/><path class="cls-1" d="M115.6,36.25c-.07-.07-.13-.11-.16-.16,0-.02,.08-.1,.09-.09,.09,.03,.16,.08,.25,.12l-.17,.13Z"/><path class="cls-1" d="M117.98,35.48c.03,.18,.04,.28-.14,.26-.05,0-.1-.08-.14-.12l.29-.15Z"/><path class="cls-1" d="M113.49,35.37l.02,.06c-.07,.05-.13,.11-.21,.14-.04,.02-.11,0-.16,0,.01-.05,0-.13,.04-.14,.1-.03,.21-.04,.31-.06Z"/><path class="cls-1" d="M119.95,34.83c-.05,.1-.06,.16-.1,.19-.06,.04-.14,.06-.21,.07-.02,0-.07-.05-.07-.05,.05-.05,.09-.1,.15-.14,.04-.03,.1-.04,.23-.07Z"/><path class="cls-1" d="M100.41,28.74c.14-.02,.27-.04,.29,.11,0,.03-.07,.09-.12,.09-.17,.02-.19-.08-.17-.2Z"/><path class="cls-1" d="M114.87,30.95v-.07c.07-.02,.14-.06,.2-.06,.05,0,.08,.07,.12,.11-.05,.03-.1,.09-.15,.09-.06,0-.12-.05-.17-.09Z"/><path class="cls-1" d="M104.69,28.28l.07-.1,.3,.12s-.09,.12-.09,.12c-.1-.04-.18-.09-.27-.14Z"/><path class="cls-1" d="M88.15,30.97l.4-.27c0,.23-.11,.31-.4,.27Z"/><path class="cls-1" d="M104.65,28.51l.09,.04s.09,.09,.08,.1c-.05,.05-.11,.11-.19,.14-.03,.01-.14-.06-.14-.07,.04-.07,.1-.14,.15-.21Z"/><path class="cls-1" d="M118.39,35.62c.13-.08,.23-.14,.33-.2,0,0,.07,.05,.07,.05-.08,.08-.15,.16-.24,.23,0,0-.07-.04-.16-.09Z"/><path class="cls-1" d="M108.5,31.26l.05,.04c-.03,.06-.04,.13-.09,.18-.02,.02-.13,0-.17-.03-.03-.02-.05-.12-.04-.12,.08-.03,.17-.04,.25-.06Z"/><path class="cls-1" d="M85.76,32.18c.04-.28,.11-.31,.42-.19l-.42,.19Z"/><path class="cls-1" d="M116.43,37.51c-.05-.08-.11-.13-.1-.16,.03-.05,.09-.11,.15-.13,.03,0,.14,.08,.14,.09-.04,.06-.1,.11-.18,.2Z"/><path class="cls-1" d="M102.17,28.42l-.33-.09s.06-.1,.1-.11c.12-.02,.24,0,.23,.2Z"/><path class="cls-1" d="M96.77,31.39c-.21,.02-.32,.02-.31-.12,0-.04,.08-.08,.12-.12l.18,.24Z"/><path class="cls-1" d="M104.9,30.02l.07,.03c-.04,.09-.07,.19-.12,.28-.01,.02-.08,.03-.11,.03-.03,0-.06-.06-.05-.08,.07-.09,.14-.17,.22-.26Z"/><path class="cls-1" d="M78.64,33.03l-.07,.09-.26-.11,.09-.13,.23,.15Z"/><path class="cls-1" d="M88.7,30.95l.04,.07c-.04,.09-.06,.2-.22,.17-.03,0-.08-.12-.07-.12,.08-.04,.16-.08,.25-.11Z"/><path class="cls-1" d="M95.54,28.2l-.06-.06c.05-.04,.1-.11,.16-.11,.14-.02,.2,.04,.16,.17h-.26Z"/><path class="cls-1" d="M105.74,30.08c.08-.05,.12-.09,.13-.08,.1,.05,.2,.11,.3,.17,0,0-.03,.06-.05,.09l-.38-.17Z"/><path class="cls-1" d="M118.15,35.92l-.29,.3c-.06-.28-.04-.31,.29-.3Z"/><path class="cls-1" d="M119.52,33.18l.11,.05-.11,.24-.17-.09,.17-.2Z"/><path class="cls-1" d="M119.17,35.44l.05,.05c-.03,.06-.06,.12-.11,.17-.02,.02-.11,0-.13-.02-.03-.03-.05-.12-.03-.13,.06-.04,.14-.05,.21-.07Z"/><path class="cls-1" d="M96.83,29.91h-.28c-.02-.11,0-.18,.15-.17,.14,0,.16,.07,.14,.17Z"/><path class="cls-1" d="M97.24,28.06c-.07-.07-.13-.11-.16-.17,0-.01,.08-.09,.1-.09,.07,.03,.13,.08,.2,.12l-.14,.13Z"/><path class="cls-1" d="M101.55,31.19l-.16-.13c.06-.04,.11-.09,.17-.12,.01,0,.1,.06,.09,.09,0,.05-.06,.09-.11,.16Z"/><path class="cls-1" d="M99.98,28.55c.1-.05,.16-.1,.21-.1,.04,0,.09,.05,.14,.08-.05,.04-.1,.1-.16,.12-.03,.01-.1-.04-.19-.09Z"/><path class="cls-1" d="M94.13,31.16c-.02,.18-.13,.21-.3,.22-.03-.19,.12-.19,.3-.22Z"/><path class="cls-1" d="M98.2,29.86l.1,.07-.16,.17-.13-.09,.2-.16Z"/><path class="cls-1" d="M97.74,31.28c-.26,.08-.21-.16-.35-.19,.01-.02,.02-.05,.03-.06,.02,0,.06,0,.08,0,.08,.07,.15,.15,.24,.24Z"/><path class="cls-1" d="M114.64,36.35l-.1,.05c-.03-.05-.08-.11-.07-.16,0-.03,.09-.09,.13-.08,.06,0,.1,.06,.16,.09l-.11,.11Z"/><path class="cls-1" d="M107.17,29.75l.09-.07,.2,.14-.16,.1-.13-.17Z"/><path class="cls-1" d="M97.49,31.95l.08-.07,.2,.13-.11,.11-.17-.16Z"/><path class="cls-1" d="M99.57,28.95c.11-.06,.16-.1,.2-.1,.06,0,.11,.05,.17,.08-.04,.03-.08,.09-.13,.09-.06,0-.12-.03-.24-.07Z"/><path class="cls-1" d="M108.98,31.53c.09-.13,.1-.26,.29-.25,.04,.19-.06,.24-.29,.25Z"/><path class="cls-1" d="M102.14,30.95l.07-.03,.19,.26h-.26v-.23Z"/><path class="cls-1" d="M90.02,31.48c.08,.23-.08,.22-.22,.23l-.05-.05,.27-.17Z"/><path class="cls-1" d="M82.49,32.61l.32,.17-.04,.05c-.13,0-.29,.05-.29-.22Z"/><path class="cls-1" d="M116.15,35.88l-.06,.08-.09,.12s-.12-.09-.14-.14c-.01-.04,.05-.14,.08-.14,.07,0,.14,.04,.21,.07Z"/><path class="cls-1" d="M101.37,31.31l-.06,.02-.25-.1s.04-.08,.08-.13c0,0,.08,0,.09,.01,.05,.06,.1,.13,.14,.2Z"/><path class="cls-1" d="M98.38,28.3l.04-.04h.27l.04,.04c-.06,.05-.12,.12-.18,.13-.05,0-.11-.08-.16-.13Z"/><path class="cls-1" d="M80.97,33.6l.07,.09-.23,.15s-.07-.11-.05-.12c.06-.05,.14-.08,.21-.12Z"/><path class="cls-1" d="M93.37,30.44c.08-.06,.13-.11,.19-.14,0,0,.09,.06,.09,.07-.03,.06-.08,.12-.13,.18l-.15-.11Z"/><path class="cls-1" d="M87.49,30.87l.08,.07c-.12,.05-.07,.26-.37,.15l.29-.22Z"/><path class="cls-1" d="M108.07,28.49l.07-.11,.26,.12s-.07,.08-.08,.08c-.08-.02-.16-.06-.24-.09Z"/><path class="cls-1" d="M93.23,29.94l-.1,.08c-.05-.05-.11-.09-.15-.15,0-.01,.06-.06,.09-.1l.16,.17Z"/><path class="cls-1" d="M94.96,30.39h-.07c-.19-.23-.19-.24-.03-.3l.09,.3Z"/><path class="cls-1" d="M70.32,37.22l.1,.07-.14,.17s-.11-.08-.1-.09c.04-.05,.09-.1,.14-.15Z"/><path class="cls-1" d="M95.05,30.82l.1-.06c.05,.07,.11,.13,.14,.2,0,.01-.06,.05-.09,.08l-.16-.22Z"/><path class="cls-1" d="M98.16,28.88l.08-.05s.11,.08,.14,.13c0,.01-.07,.06-.11,.1l-.11-.18Z"/><path class="cls-1" d="M81.53,31.87l-.1,.06c-.04-.05-.1-.1-.13-.16,0-.01,.07-.06,.11-.08l.12,.18Z"/><path class="cls-1" d="M107.73,31.58l.08,.08s-.09,.11-.15,.12c-.03,0-.09-.06-.14-.1l.22-.11Z"/><path class="cls-1" d="M114.09,31.47l.07,.08-.17,.13-.11-.11,.21-.1Z"/><path class="cls-1" d="M107.74,31.46v-.25l.06-.03,.15,.16-.21,.13Z"/><path class="cls-1" d="M97.81,27.62c-.06-.07-.11-.11-.11-.15,0-.03,.08-.08,.11-.08,.05,0,.09,.05,.14,.08l-.14,.14Z"/><path class="cls-1" d="M105.54,29.69l-.05-.06,.28-.16c.02,.22-.08,.24-.23,.22Z"/><path class="cls-1" d="M84.64,30.35l.09,.07-.13,.13-.11-.09,.15-.11Z"/><path class="cls-1" d="M99.35,28.2l.19,.15-.14,.13-.05-.02v-.25Z"/><path class="cls-1" d="M115.23,30.5l.08,.07-.14,.13-.11-.1,.16-.1Z"/><path class="cls-1" d="M106.48,32.06l-.1-.04,.1-.2s.11,.06,.1,.07c-.02,.06-.07,.11-.1,.17Z"/><path class="cls-1" d="M137.03,47.25c.04-.07,.07-.16,.12-.22,.08-.1,.17-.18,.28-.29h-.53l.11,.35c-.17-.03-.35-.03-.37-.08-.05-.12-.03-.26-.04-.45l-.43-.17c-.15,.19-.44,.24-.7,.1-.03,.09-.07,.17-.09,.26-.03,.12,.07,.14,.18,.19,.06,.03,.08,.13,.13,.22-.16,.01-.27,.01-.37,.04-.11,.03-.17,.11-.04,.17,.13,.06,.28,.12,.16,.25-.05,.06-.22,.05-.37,.08,.05,.09,.11,.23,.2,.34,.1,.12,.08,.19-.06,.29-.14,.1-.21,.26-.32,.39-.02,.03-.05,.06-.08,.07-.03,0-.08-.03-.09-.05-.05-.1-.08-.21-.1-.26,.1-.1,.21-.16,.2-.21-.03-.11,0-.3-.22-.29-.08,0-.16,.13-.24,.19h.08l.18,.25c-.27,.07-.26-.07-.27-.19-.29,0-.19,.19-.22,.31h-.52c.01-.22,.3-.32,.31-.55-.15,.1-.3,.21-.46,.31-.15,.09-.1,.21-.03,.3,.05,.06,.17,.11,.26,.12,.1,.01,.21-.03,.28-.04l.38,.36c.32-.06,.46,0,.47,.14-.11,.08-.22,.13-.29,.2-.08,.09-.08,.17,.05,.25,.06,.03,.12,.16,.1,.18-.08,.06-.18,.11-.29,.14-.02,0-.09-.09-.13-.14-.07-.08-.14-.16-.25-.29-.05,.17-.07,.29-.12,.39-.14,.32-.26,.3-.55,.19l-.17,.13c.11,.03,.2,.05,.28,.07,.07,.03,.14,.06,.18,.08,.13-.03,.25-.1,.31-.07,.07,.03,.08,.15,.13,.26,.18,.06,.37,.25,.66,.14,.05-.02,.13,.04,.2,.06,.11,.04,.22,.09,.38,.15l-.09,.15,1.85,.82,.45-.11c-.22,.3,.02,.43,.17,.59,.12,.13,.24,.27,.37,.39,.08,.07,.19,.12,.32,.2,.08,.31,.42,.67,.72,.7-.09,.2,.09,.31,.21,.44,.17,.19,.35,.37,.53,.55,.11,.11,.18,.26,.41,.2,.03,0,.09,.06,.14,.09l-.15,.14c.27,.29,.56,.6,.87,.91,.05,.05,.15,.05,.25,.09,0,.02-.02,.07,0,.1,.01,.04,.06,.12,.07,.12,.14-.03,.29-.06,.42-.12,.11-.05,.19-.15,.3-.19,.1-.04,.23-.04,.24,.11,0,.05,.01,.12,.04,.13,.19,.06,.15,.17,.09,.29,.06,0,.1,.01,.14,0,.03,0,.06-.03,.08-.03,.16,.07,.33,.12,.47,.22,.04,.03,0,.18-.04,.24-.09,.09-.22,.16-.33,.23l.51,.28c-.07-.23,0-.3,.22-.32,.05,0,.09-.09,.12-.15,.03-.05,.04-.15,.06-.15,.08,0,.17,.01,.24,.04,.21,.08,.4,.17,.63,.04,.05-.03,.17-.01,.22,.02,.04,.02,.06,.12,.03,.16-.02,.03-.13,.02-.19,.04-.15,.04-.29,.09-.43,.14l.03,.07,1.41-.05v-.04s-.07-.02-.11-.02c-.17,0-.27-.02-.41-.16-.13-.13-.24-.28-.36-.42-.04-.05-.08-.14-.05-.19,.03-.05,.14-.07,.21-.11,.03,.07,.06,.13,.09,.2,0,.02,0,.05,.01,.09,.36-.02,.7-.06,.97-.28,.05-.04,.08-.1,.1-.16,.05-.16,.17-.23,.36-.2,.17,.03,.34,.08,.48,.12-.2-.29-.33-.32-.76-.29-.2,.02-.41-.07-.58-.1-.13,.03-.27,.11-.36,.08-.08-.03-.1-.17-.17-.3,.12,0,.16,0,.2,0,.08,0,.16,0,.25,0,0-.1,0-.2-.03-.29,0-.03-.06-.05-.1-.07-.1-.05-.32,0-.25-.18,.03-.07,.19-.1,.3-.15l-.71-.67c-.06,.03-.12,.07-.18,.07-.05,0-.1-.05-.2-.11l.31-.05-.35-.37c-.06,.07-.1,.12-.15,.17-.04,.04-.1,.08-.16,.1-.02,0-.1-.04-.09-.06,.01-.06,.03-.14,.07-.18,.17-.15,.18-.17,.07-.29l-.14,.15-.13-.08,.08-.29s-.08,0-.14,0c-.04,0-.1-.03-.11-.05-.12-.49-.6-.78-.92-1.16-.14-.17-.16-.17-.68-.23,.28,.22,.53,.43,.38,.78-.16,0-.4-.31-.38-.56-.53-.02-.73-.4-1.08-.69h1.31v-.74c-.28-.14-.57-.06-.85,.01,.05,.04,.13,.11,.13,.11-.11,.1-.21,.23-.35,.28-.09,.03-.26-.05-.36-.12-.12-.09-.1-.21,.06-.3-.09-.06-.18-.11-.25-.17-.05-.04-.06-.11-.1-.16,.07-.03,.14-.07,.21-.08,.09,0,.19,.02,.29,.03,.04-.13-.02-.19-.15-.2-.04,0-.09,.01-.13,0-.08-.02-.16-.05-.23-.08,0,0,0-.09,.03-.09,.08-.03,.2-.07,.26-.05,.25,.11,.42-.02,.58-.12,.2-.13,.2-.32,.03-.48-.11-.1-.22-.2-.32-.3-.06,.11-.11,.25-.14,.24-.12-.01-.23-.07-.35-.12-.03-.01-.06-.04-.08-.06-.05-.06-.09-.11-.14-.17,.07-.02,.14-.05,.2-.07,.04-.01,.07-.04,.15-.08l-.8-.31c.08,.16,.05,.29-.09,.39-.04,.03-.11,.05-.17,.07-.02-.04-.05-.09-.07-.13-.02-.04-.03-.08-.04-.12l-.06-.02c-.09,.13-.17,.26-.26,.39-.06,.08-.13,.17-.21,.23-.04,.03-.13,.02-.19,.03,0-.06,0-.13,.02-.19,.03-.06,.09-.1,.14-.15l-.03-.05-.65,.13c-.05-.15,.07-.43,.2-.48,.03-.01,.09,0,.13,0,.03,0,.04,.04,.07,.05,.11,.03,.22,.06,.33,.09-.04-.09-.07-.19-.13-.27-.04-.05-.14-.06-.19-.11-.05-.04-.07-.11-.14-.22-.05,.07-.07,.13-.11,.14-.05,.02-.12,0-.18,0,.01-.06,0-.14,.05-.16,.11-.07,.24-.1,.36-.16,.05-.02,.11-.09,.1-.11-.03-.05-.09-.08-.14-.11-.02-.01-.07,.02-.1,.02-.08,0-.2,0-.23-.05-.03-.05,0-.13,.02-.2,.01-.04,.06-.07,.1-.12-.09-.02-.17-.05-.24-.06-.12,0-.18,.03-.16,.14,.03,.14,.07,.27,.07,.41,0,.08-.05,.2-.12,.24-.09,.04-.25,.04-.33,0-.13-.07-.07-.18,.03-.25,.06-.04,.14-.07,.23-.11-.09-.06-.16-.13-.25-.17-.06-.02-.17,0-.21,.03-.23,.18-.44,.37-.67,.54-.04,.03-.14,.02-.21,.02-.1-.01-.2-.04-.35-.08,0-.01,.02-.09,.05-.1,.12-.03,.26-.04,.44-.06l.38-.36-.18-.15c-.01,.2-.24,.36-.35,.25-.1-.1-.21-.07-.31-.11-.08-.03-.17-.12-.17-.19,0-.07,.07-.17,.15-.2,.11-.04,.21,.02,.24,.13,.02,.06,.04,.13,.06,.18l.39-.05Zm-.72,2.64c.22,.02,.42,.08,.61,.06,.23-.02,.39,.05,.57,.14,.16,.08,.36,.11,.52,.18,.06,.03,.1,.14,.1,.21,0,.04-.1,.1-.17,.12-.1,.03-.22,.04-.33,.04-.11,0-.26,0-.33-.05-.06-.05-.05-.17-.07-.29-.21,.09-.42,.19-.63,.28-.08,.03-.23,.09-.26,.06-.16-.13-.28-.14-.48-.04-.08,.04-.3-.11-.45-.18-.06-.03-.11-.07-.16-.11-.01,.06-.02,.12-.04,.18-.01,.05,0,.12-.05,.14-.04,.03-.16,.03-.18,0-.13-.16-.31-.15-.5-.15-.06,0-.15-.07-.17-.12-.01-.05,.03-.14,.08-.17,.05-.03,.17-.02,.21,.02,.12,.09,.23,.08,.3,0,.03-.04-.03-.14-.07-.21-.06-.09-.11-.19,.04-.22,.24-.04,.49-.05,.74-.05,.13,0,.24,.07,.14,.22-.07,.12,.02,.2,.15,.18,.12-.01,.23-.08,.35-.13l-.02-.06-.4-.11c.02-.07,.04-.14,.05-.21,.01-.1,0-.2,.18-.2,.17,0,.23,.1,.26,.21,.02,.08,0,.17,0,.27Zm3.02,.52s-.02,.1-.05,.13c-.05,.04-.12,.1-.17,.09-.17-.02-.32-.15-.52-.07-.01,0-.05-.02-.07-.04-.07-.06-.14-.12-.21-.18-.11-.08-.11-.16,.01-.22,.1-.06,.22-.1,.34-.14,.05-.01,.12,.01,.18,.03,.04,0,.08,.04,.12,.04,.14,.02,.28,.02,.41,.04,.2,.03,.33,.22,.27,.42l-.32-.1Zm-3.68,.25c.24,.06,.45,.11,.65,.15,.07,.01,.15,.02,.21,.01,.14-.02,.27-.06,.4-.09,.14-.04,.25,.01,.26,.13,0,.05-.09,.14-.15,.15-.25,.03-.51,.06-.76,.03-.26-.02-.5-.09-.76,0-.02,0-.07-.03-.1-.05,.23-.03,.25-.16,.24-.33Zm.25-2.43c-.07,.08-.11,.15-.17,.18-.06,.03-.18,.05-.23,.03-.05-.03-.09-.15-.06-.18,.09-.11,.19-.21,.32-.27,.05-.02,.17,.05,.26,.08,.16,.06,.34,.43,.27,.56-.02,.04-.06,.09-.11,.11-.12,.06-.25,.1-.39,.15-.01-.21,.22-.4,.11-.66Zm6.74,4.3c.24,.03,.45,.01,.59,.09,.1,.06,.14,.24,.13,.36-.01,.13-.32,.27-.46,.23-.07-.02-.17-.08-.18-.13-.04-.17-.05-.34-.08-.55Zm-5.67-.99c-.16,0-.3,.01-.44,0-.06,0-.11-.09-.17-.14,.07-.02,.15-.06,.22-.07,.09,0,.19,.01,.28,.03,.06,.01,.11,.04,.16,.05,.06,0,.13,.02,.19,0,.07-.02,.13-.12,.18-.11,.2,.02,.4,.07,.59,.12,.03,0,.06,.08,.05,.12,0,.03-.07,.07-.1,.07-.12,0-.23-.02-.34-.04-.15-.03-.29-.1-.38,.08-.02,.05-.13,.06-.22,.1l-.02-.21Zm2.69-.91c.07,.02,.14,.02,.17,.05,.13,.09,.2,.09,.31-.04,.05-.06,.23-.07,.35-.06,.05,0,.12,.1,.13,.16,.03,.19-.16,.21-.31,.25-.44,.12-.64,.01-.65-.37Zm-4.12-1.29c.03-.07,.04-.14,.09-.17,.06-.04,.16-.06,.23-.05,.04,0,.1,.08,.09,.11-.02,.05-.08,.1-.13,.13-.06,.04-.16,.04-.19,.08-.17,.24-.45,.18-.7,.21-.03,0-.11-.09-.11-.14,0-.05,.07-.13,.12-.14,.19-.03,.39-.03,.6-.04Zm6.68,5.83c.03,.25-.08,.33-.38,.26-.15-.03-.3-.08-.45-.13-.05-.02-.13-.08-.12-.1,.03-.06,.08-.12,.14-.14,.08-.02,.17,0,.26,.02,.18,.03,.35,.06,.56,.09Zm-4.71-7.01c.05-.03,.1-.08,.16-.09,.19-.04,.48,.22,.42,.38-.02,.05-.11,.11-.17,.12-.06,0-.15-.04-.2-.08-.07-.06-.12-.14-.17-.22-.02-.03-.02-.06-.05-.11Zm7.07,8.55c-.1-.04-.19-.04-.24-.09-.09-.07-.17-.16-.21-.25-.03-.07,0-.17,.05-.24,.02-.03,.13-.04,.2-.04,.04,0,.12,.08,.11,.08-.13,.16,.02,.27,.1,.4,.01,.02,0,.06-.01,.13Zm-1.62-1.21c-.08-.04-.19-.08-.28-.14-.03-.02-.04-.09-.03-.13,0-.02,.08-.04,.12-.04,.12,0,.24,0,.35,0,.06,0,.15,.05,.16,.08,0,.05-.03,.13-.08,.17-.06,.04-.15,.04-.26,.06Zm-3.76-6.12c-.03-.22,.18-.37,.45-.33-.02,.19-.23,.35-.45,.33Zm-1.59-.65l.06-.04c.12,.03,.25,.05,.37,.09,.03,0,.07,.05,.07,.07,0,.03-.04,.09-.06,.09-.12,0-.25,0-.36-.03-.04-.01-.05-.12-.08-.18Zm5.13,7.51c.04-.19,.19-.3,.35-.25,.06,.02,.1,.09,.12,.15,0,.03-.07,.1-.11,.1-.12,.01-.24,0-.36,0Zm-3.79-5.19c-.16-.05-.3-.07-.42-.13-.02,0-.02-.14,.01-.15,.15-.08,.4,.06,.41,.28Zm-.09,.55c-.34,.05-.49,.02-.32-.27,.24-.02,.32,.05,.32,.27Zm5.09,2.68c-.09,0-.23,0-.29-.04-.05-.03,0-.16,.01-.24,0,0,.09-.02,.13-.01,.14,.04,.23,.12,.15,.29Zm-.28-.9c-.12,.08-.2,.17-.24,.16-.08-.02-.16-.09-.18-.16-.03-.11,.08-.14,.18-.12,.07,.01,.12,.06,.25,.12Zm-5.48-2.34c-.15-.04-.27-.06-.38-.1-.01,0,0-.09,.01-.1,.11-.04,.23-.08,.37-.12v.32Zm2.73,2.67c.1-.08,.18-.15,.2-.15,.07,.04,.14,.1,.19,.17,0,.01-.09,.11-.14,.11-.07,0-.13-.06-.24-.13Zm-.3,.21c.04,.18,.02,.28-.16,.26-.07,0-.14-.06-.21-.1l.37-.16Zm-4.11-6.99c-.23,.02-.32-.04-.29-.16,.01-.05,.13-.08,.2-.12l.09,.29Zm7.45,9.31c.02,.22,0,.23-.33,.2-.02-.2,.13-.21,.33-.2Zm-2.97-3.39l-.16-.16c.05-.04,.11-.11,.16-.1,.07,0,.12,.07,.18,.11l-.19,.15Zm2.78,.91l-.17,.15c-.05-.05-.12-.11-.14-.17,0-.03,.08-.08,.13-.13l.18,.14Zm-1.32-.68l-.1,.08-.24-.15c.07-.03,.15-.11,.19-.09,.06,.02,.1,.1,.15,.16Zm-2.23,.53l.2,.15s-.1,.11-.13,.11c-.08-.02-.15-.07-.22-.12l.15-.14Zm1.91,.35l-.2-.15c.05-.04,.11-.11,.16-.11,.07,0,.13,.07,.19,.11l-.15,.14Zm-1.45-2.44c-.16-.01-.35,.07-.34-.17h.34v.17Zm4.09,3.65h-.39l-.04-.05c.05-.04,.12-.12,.16-.11,.1,.01,.27,0,.26,.16Zm-8.23-5.76c-.08-.03-.17-.03-.2-.07-.03-.04-.05-.13-.02-.16,.03-.04,.13-.04,.22-.06v.29Zm4.72,4.58c0,.2-.13,.22-.3,.21-.02-.19,.12-.2,.3-.21Zm2.47,1.84c0,.17-.06,.22-.29,.18,.03-.13,.1-.23,.29-.18Zm-6.9-6.8c.24,0,.25,.02,.23,.2-.19,.04-.27-.02-.23-.2Zm-.31-.66l-.09-.09,.17-.16,.12,.12-.2,.12Zm-.84-1.46c.09-.06,.14-.12,.19-.12,.05,0,.11,.06,.13,.1,0,.02-.06,.1-.1,.1-.05,0-.11-.04-.21-.08Zm7.57,6.88l-.15,.23s-.1-.08-.11-.13c-.01-.11,.07-.14,.25-.11Zm-3.35-2.23c-.04-.15-.01-.23,.13-.22,.06,0,.1,.06,.16,.09l-.29,.13Zm-.3,2.67c.08-.06,.13-.12,.16-.12,.06,0,.1,.06,.15,.1-.04,.04-.08,.09-.13,.1-.04,0-.1-.04-.18-.08Zm-4.48-5.33l-.08-.06,.13-.18,.16,.13-.21,.12Zm4.82,1.36l.1-.06c.04,.05,.1,.1,.13,.15,0,.01-.07,.06-.11,.09l-.12-.18Z"/><path class="cls-1" d="M118.62,40.23l-.05-.32,.06-.04c.12,.08,.27,.14,.36,.24,.18,.2,.41,.12,.63,.12,.18,0,.33-.07,.4-.28,.05,.05,.14,.11,.14,.16-.03,.24-.25,.31-.5,.3,0,.11,0,.21,0,.3,0,.04-.06,.07-.1,.11-.03-.03-.07-.06-.1-.1-.03-.04-.06-.08-.11-.16l-.15,.22c.07,.03,.14,.08,.22,.1,.43,.08,.85,.15,1.28,.21,.26,.03,.27,0,.18-.19-.02-.04,.02-.09,.03-.14,.06,.02,.13,.02,.16,.06,.05,.05,.05,.13,.09,.19,.02,.03,.09,.06,.13,.05,.17-.04,.33-.09,.5-.13-.02-.04-.02-.1-.05-.1-.06-.02-.14-.03-.2,0-.05,.02-.07,.08-.16,.12,0-.06-.03-.15,0-.17,.16-.09,.33-.16,.5-.22,.04-.01,.12,.05,.18,.08,.15,.09,.29,.18,.45,.28,.14-.16-.02-.51,.41-.43,.05-.18,.11-.21,.31-.12,.03,.01,.07,.03,.1,.03,.31-.04,.63-.08,.96-.12,0-.09-.04-.17-.21-.16-.24,.01-.26-.22-.43-.29,0,0,.02-.09,.03-.09,.06,0,.13,0,.19,.02,.07,.02,.12,.06,.22,.12l-.11-.31c.24-.02,.37,.09,.41,.33l-.18,.07,.48,.14c.15-.25-.13-.6-.73-.69-.13,.23-.15,.24-.5,.17-.09,.16-.2,.32-.25,.49-.04,.14-.13,.14-.31,.14l.15-.27-.08-.13,.21-.14-.26-.09c-.16,.18-.31,.36-.47,.54-.05,.05-.11,.08-.17,.13-.06-.07-.15-.13-.17-.21-.01-.04,.05-.13,.11-.16,.18-.09,.37-.17,.33-.38,.25-.17,.5-.19,.77-.05,.03,.01,.1,0,.14-.03,.16-.07,.31-.14,.5-.22,0-.08-.25-.29,.15-.3,.08,.05-.05,.31,.19,.19,.01-.11,0-.2,.04-.27,.02-.03,.15-.05,.19-.03,.05,.03,.06,.11,.06,.17,0,.05-.04,.09-.06,.14-.04,.14-.09,.29,.13,.37,.18-.11,.29-.09,.45,.09,.15,.17-.1,.16-.15,.23,.15,.19,.39,.22,.58,.08,.04-.03,.03-.1,.04-.15,.01-.06,.03-.11,.06-.19-.17-.07-.37-.2-.6-.24-.22-.04-.19-.13-.16-.3l.3,.15c.11-.22,.37-.17,.61-.2,.05,0,.1,.04,.16,.06-.04,.04-.08,.08-.13,.1-.06,.02-.13,.03-.21,.09,.13,.08,.26,.21,.4,.21,.14,0,.29-.11,.44-.18l-.11-.25c-.05,0-.17-.02-.28-.04-.05-.01-.08-.05-.13-.08,.04-.03,.08-.07,.13-.08,.04-.01,.09-.01,.13,0,.22,.06,.45,.12,.67,.2,.04,.01,.09,.11,.07,.14-.06,.09-.14,.18-.24,.22-.15,.06-.16,.14-.13,.25,.03,.1,.04,.2,.06,.3l-.07,.04c-.07-.05-.13-.1-.2-.14-.05-.03-.1-.07-.15-.07-.03,0-.08,.05-.11,.07,.04,.04,.08,.08,.11,.12,.07,.09,.14,.19,.21,.29l-.06,.05-.28-.03c-.04,.12,.04,.19,.16,.24,.13,.05,.16,.12,.11,.2l-.35,.08,.26,.19s-.04,.07-.05,.12c-.02,.06-.06,.15-.03,.19,.09,.12,.1,.22,.04,.35,0,.02,0,.06,.01,.07,.17,.11,.35,.23,.55,.35l-.15,.32,.03,.04c.16-.06,.33-.11,.47-.19,.03-.02-.03-.15-.06-.28l.19-.11c.05,.24,.07,.42-.16,.57-.22,.14-.01,.29,.03,.44,.01,.04,.1,.07,.18,.09-.1-.14-.05-.24,.06-.34,.07-.06,.07-.18,.09-.27,.01-.06,0-.13,.01-.19l.25,.02c.05-.21,.25-.08,.41-.08-.08-.14-.19-.27-.22-.41-.02-.09,.09-.19,.14-.28,.05,.03,.14,.05,.15,.09,.04,.23,.29,.45,.55,.51,.09,.02,.15,.12,.21,.2,.04,.05,.06,.11,.09,.17h.01c0-.12-.01-.24,.01-.35,.04-.19-.06-.52-.2-.57-.02,0-.04,0-.11-.01,.06,.08,.12,.13,.14,.2,.02,.07,0,.15-.01,.23-.07-.02-.15-.04-.21-.08-.07-.05-.12-.12-.2-.21,.03-.03,.07-.1,.12-.12,.15-.03,.2-.09,.17-.22,0-.02,.15-.09,.23-.09,.14,0,.28,.02,.41,.04,.08,.02,.15,.06,.23,.09,.15-.14,.14-.27-.06-.36-.27-.13-.29-.19-.09-.39,.08-.08,.18-.16,.26-.24,.03-.04,.05-.12,.02-.15-.06-.07-.15-.11-.22-.17-.07-.06-.12-.13-.2-.22,.2-.04,.33-.07,.38,.09,0,.02,.04,.03,.07,.04,.16,.07,.56,0,.71-.09,.11-.07,.23-.14,.36-.19,.14-.06,.21-.18,.12-.31-.14-.19-.2-.42-.45-.56-.13-.08-.19-.24-.28-.36-.05-.06-.1-.11-.16-.16l-.07,.03s.06,.08,.08,.12c.03,.05,.09,.1,.09,.16,0,.06-.04,.12-.07,.19,.13,.07,.3,.15,.07,.28l.27,.32-.07,.05c-.19-.03-.33-.12-.44-.26-.05-.06-.11-.1-.17-.15-.03-.03-.06-.05-.1-.07,.03-.03,.06-.06,.1-.07,.06-.03,.13-.05,.15-.06l-.29-.34s-.06,.01-.12,.02c-.06,0-.12,0-.18,0v-.28l-.32,.19s.02,.03,.03,.04c.14,.05,.24,.15,.15,.26-.1,.12-.22,0-.32-.04-.07-.03-.15-.05-.17-.06-.09,.11-.14,.18-.22,.25-.01,0-.14-.04-.14-.05,.02-.08,.06-.15,.11-.26-.15-.21-.14-.21,.42-.36-.16-.08-.31-.18-.48-.24-.19-.07-.34-.19-.57-.21-.1,0-.24-.14-.39-.17-.02,0-.04-.02-.06-.02-.25,.04-.47,.05-.6-.19,0-.01-.11-.01-.14,0-.18,.1-.35,.08-.51-.03-.03-.02-.08-.02-.13-.03-.07,.17-.15,.29-.4,.28-.13,0-.11,.09-.07,.18,.03,.07,.04,.14,.06,.21-.12-.03-.27-.03-.36-.09-.04-.03,0-.17,.03-.25,.02-.07,.1-.13,.12-.21,.03-.12,.13-.11,.24-.11,.34,0,.5-.1,.56-.38,.02-.08-.06-.16-.09-.25-.07,.04-.15,.07-.19,.12-.1,.12-.21,.19-.4,.17-.14-.01-.28,.04-.42,.05-.08,0-.16-.03-.24-.05v-.06c.23-.07,.44-.14,.65-.21,.06-.02,.13-.08,.14-.12,0-.04-.06-.09-.09-.14l-.27,.2-.07-.04,.11-.23c-.07-.04-.16-.14-.26-.15-.16-.01-.33,.02-.49,.06-.07,.01-.12,.07-.18,.1-.06,.03-.13,.03-.2,.05,0-.06-.02-.12-.03-.18,0-.08-.02-.15-.02-.23,0-.02-.02-.06,0-.07,.13-.15,.26-.29,.42-.46-.05-.02-.12-.07-.2-.08-.21-.02-.36-.07-.45-.27-.06-.15-.23-.27-.38-.37-.06-.04-.21,.02-.32,.06,.17,.02,.21,.12,.14,.2-.08,.1-.19,.18-.31,.24-.25,.12-.29,.18-.21,.32,.11,0,.19,0,.27,.01,.02-.06,0-.14,.05-.17,.06-.05,.16-.08,.24-.11,.03,.07,.09,.14,.08,.2-.02,.15-.15,.17-.38,.08l-.08,.25c.09,.19,.05,.23-.23,.24-.08-.07-.13-.14-.21-.17-.03-.01-.16,.05-.16,.09,0,.13-.06,.15-.2,.15-.08,0-.17,.06-.25,.09,.08,.05,.16,.1,.24,.13,.05,.02,.12,.01,.17,.02,.06,.19,.03,.21-.31,.3-.09,.08-.2,.15-.28,.23-.04,.05-.07,.11-.07,.17-.01,.08,0,.16,0,.27l.33-.25,.07,.02c-.02,.12-.03,.23-.07,.35-.01,.04-.09,.08-.14,.08-.17,0-.35,0-.52,0,.05,.04,.09,.1,.15,.13,.16,.07,.14,.14,.04,.25-.18,.19-.36,.16-.56,.04-.02-.29,.04-.36,.38-.41-.08-.19-.11-.18-.29-.07-.21,.12-.26,.29-.3,.49,.22,.04,.18,.2,.09,.3-.07,.07-.24,.1-.36,.1-.19,0-.27-.11-.24-.27-.19,.02-.15,.34-.43,.2-.02,.17,.14,.36,.36,.43-.07,.21-.16,.24-.32,.09-.14-.13-.26-.28-.39-.41-.03-.03-.11-.05-.12-.04-.04,.04-.08,.09-.08,.14,0,.09,.03,.18,.05,.27q-.23,.01-.34-.49c-.25,0-.41,.07-.39,.33l-.24-.07-.36,.22c.32-.05,.35,.21,.5,.33,.03,.02-.02,.11-.04,.17-.05-.02-.13-.04-.14-.08-.04-.12-.11-.21-.26-.15-.18,.07-.07,.19-.02,.29-.13,.12-.4,.15-.37,.42,.09-.05,.14-.09,.2-.11,.04-.02,.09-.02,.14-.02,0,.04,.02,.08,0,.12-.02,.04-.05,.08-.09,.1q-.23,.17-.12,.47c.07-.1,.15-.2,.2-.31,.09-.18,.28-.17,.43-.25l.07,.06-.18,.25c.02,.15,.09,.31,.35,.34h0Zm4.15-3.53s-.08-.05-.09-.08c-.02-.07-.01-.14-.02-.2,.09,.01,.19,0,.25,.04,.06,.04,.07,.12,.1,.19h.25c.07,.09,.13,.14,.17,.19,.04,.06,.06,.12,.1,.2-.36,.03-.61-.13-.57-.34h-.2c.18,.17,.17,.26-.04,.34l.14,.24s.05-.02,.07-.02c.08,0,.16,0,.25,.02-.04,.06-.07,.14-.13,.19-.08,.07-.16,.06-.22-.05-.02-.04-.13-.07-.19-.07-.05,0-.12,.07-.13,.11-.05,.16-.19,.09-.29,.08-.05,0-.08-.09-.14-.16l.45-.02-.2-.27,.32-.07c-.14-.24-.36,.01-.52-.09,.02-.24,.2-.34,.46-.26,.05,.02,.11,.03,.17,.04Zm-.85,.86l.08,.02,.06,.15h.32c.03,.17-.05,.25-.21,.28-.19,.03-.2,.2-.13,.23,.21,.08,.19,.27,.35,.37,.05,.03,.11,.04,.2,.08-.05-.07-.1-.11-.09-.15,0-.07,.04-.13,.06-.2,.15,.05,.33-.15,.46,.04,.03,.04,0,.15-.04,.16-.23,.06-.18,.18-.12,.31,.07,.14-.01,.17-.15,.15-.12-.02-.24-.05-.34-.07-.21,.32-.55,.19-.83,.23l-.05-.04,.28-.37-.46,.08c.1-.23,.08-.39-.24-.41,.04-.13,.07-.26,.13-.38,0-.02,.12-.04,.15-.02,.2,.13,.28-.02,.36-.11,.09-.1,.15-.23,.23-.34Zm5.31,.01v-.03c.07,.04,.15,.09,.24,.11,.09,.02,.21,.01,.15,.12-.04,.07-.17,.16-.23,.14-.15-.03-.28-.12-.45-.2l-.11,.09,.27,.14c-.13,.06-.22,.12-.32,.14-.03,0-.13-.06-.14-.1-.03-.21-.17-.24-.38-.2-.04,0-.12-.03-.13-.06-.01-.04,.02-.12,.05-.12,.1-.02,.21-.03,.32-.03,.24,0,.48,0,.72,0Zm-5.38,1.92c-.02,.14-.17,.22-.36,.14-.05-.02-.11-.04-.16-.03-.2,0-.41,0-.57,.15-.04,.04-.14,.04-.22,.05-.01,0-.05-.06-.04-.07,.05-.05,.11-.1,.17-.14,.05-.03,.12-.03,.17-.05l.02-.26c.23-.05,.22,.13,.33,.22,.05-.06,.08-.13,.14-.17,.06-.03,.16-.06,.21-.04,.1,.04,.18,.11,.31,.2Zm7.38-.23l.05,.05c-.07,.08-.11,.19-.2,.24-.06,.03-.18-.02-.31-.04,.01-.01,0,0-.01,.01-.06,.04-.12,.07-.18,.11-.03-.05-.08-.11-.07-.16,0-.06,.07-.15,.12-.15,.2-.03,.4-.04,.61-.05Zm-4.49-.58c.1-.24,0-.25-.2-.19-.05,.01-.11-.02-.17-.04,.03-.03,.06-.08,.1-.1,.13-.06,.26-.11,.4-.17,.05-.02,.11-.04,.17-.06,.02,.06,.06,.12,.06,.17,0,.05-.1,.11-.09,.15,.04,.16-.08,.18-.27,.23Zm3.18-.94c.21,0,.27,.08,.2,.24-.03,.06-.02,.13-.03,.2,0,.04-.02,.11-.05,.13-.04,.02-.14,.02-.16,0-.05-.08-.1-.17-.1-.25,0-.1,.08-.19,.13-.3Zm-4.04,.31c-.05-.03-.12-.05-.12-.08,0-.04,.01-.1,.05-.13,.1-.08,.21-.15,.33-.21,.05-.03,.14-.02,.2,0,.03,0,.08,.08,.07,.09-.03,.04-.08,.08-.13,.11-.09,.05-.18,.09-.27,.14-.04,.02-.08,.05-.12,.08Zm.42-1.66l.45-.27,.08,.43q-.49-.01-.52-.16Zm-5.73,3.08c-.15-.09-.15-.36,.02-.42,.06-.02,.16,0,.23,.02,.03,0,.04,.11,.01,.14-.07,.09-.17,.17-.26,.26Zm5.26-1.42c-.06,.11-.08,.22-.15,.24-.11,.04-.25,.04-.38,.03-.02,0-.03-.11-.04-.16l.57-.11Zm-.53,.74c.25-.04,.39,.02,.46,.17,.02,.05,0,.11-.02,.17-.07,0-.16,0-.19-.03-.09-.08-.15-.18-.25-.31Zm-4.48-.05l.27,.1c-.25,.13-.34-.07-.51-.12-.01,0,.02-.13,.04-.2,0-.02,.1-.04,.11-.04,.03,.05,.06,.1,.08,.15,.01,.03,0,.07,0,.1Zm8.27,2.63c0-.1-.05-.24-.01-.26,.1-.04,.23-.03,.36-.04,0,.25-.04,.29-.34,.3Zm-.53,.09l.08-.03c.09,.03,.18,.05,.26,.09,.04,.02,.08,.06,.09,.09,0,.03-.04,.09-.07,.1-.08,.02-.2,.03-.23,0-.07-.06-.08-.16-.12-.24Zm-5.74-3.11c.09,.07,.19,.11,.19,.15,.01,.14-.14,.15-.25,.14-.06,0-.11-.08-.17-.13l.23-.17Zm7.15,2.49c.35-.04,.4,.02,.32,.33-.18-.06-.31-.15-.32-.33Zm-4.71-3.23c-.01,.14,.03,.29-.2,.28-.05,0-.15-.08-.15-.13,0-.18,.17-.16,.35-.16Zm.74-.91c-.28,0-.36-.08-.31-.32,.22,.02,.33,.12,.31,.32Zm-3.12,2.19c.13-.08,.21-.14,.31-.19,.02,0,.12,.07,.11,.07-.05,.08-.12,.17-.19,.24,0,0-.11-.06-.23-.12Zm-.77,.5c-.02,.19-.1,.28-.26,.25-.05,0-.09-.09-.14-.14l.4-.12Zm7.03,.83l.16,.19c-.06,.03-.13,.09-.19,.09-.05,0-.1-.07-.16-.1l.19-.18Zm-3.06-2.08l.17,.17c-.07,.05-.13,.11-.21,.13-.03,0-.15-.08-.14-.09,.03-.06,.09-.12,.18-.21Zm-4.85,1.32l-.06,.05c-.07-.03-.17-.04-.19-.08-.03-.05,0-.13,.03-.19,0-.02,.11-.03,.11-.02,.05,.08,.08,.16,.12,.25Zm8.43,2.04c.06,.09,.13,.14,.12,.17-.02,.05-.08,.13-.14,.13-.06,0-.12-.06-.18-.1l.2-.21Zm-.51-3.16c-.05-.23,0-.27,.28-.23,.02,.17-.11,.22-.28,.23Zm.63,2.53c.04,.15-.06,.21-.2,.23-.02,0-.09-.06-.09-.08,.03-.12,.1-.2,.29-.16Zm-3.22-4.08c.12,.03,.28-.06,.29,.11,0,.03-.06,.1-.1,.1-.13,0-.22-.06-.19-.21Zm-3.97,2.49l-.15,.27s-.1-.08-.11-.13c-.02-.12,.03-.19,.26-.14Zm3.14,.65l.05,.06c0,.09-.03,.19-.18,.17-.04,0-.08-.08-.12-.12l.25-.11Zm-2.02-.06l-.03-.06,.36-.16v.21h-.33Zm2.06-1.2c.11-.04,.18-.09,.22-.07,.06,.02,.11,.08,.16,.12-.05,.03-.1,.08-.14,.07-.07-.01-.12-.06-.24-.12Zm-2.97,1.53l.11-.03,.15,.25c-.07,0-.18,.03-.19,.02-.04-.07-.05-.16-.08-.24Zm1.86,.09l-.1-.08c.06-.06,.11-.12,.18-.16,.02-.01,.1,.06,.16,.09l-.24,.15Zm2.08-2.86c.22-.03,.27,.05,.23,.21-.2,.03-.27-.03-.23-.21Zm-1.25-1.7l-.09-.09,.17-.15,.14,.13-.21,.11Zm-.84,.39l.08-.06,.21,.12-.16,.13-.13-.18Zm3.61,5.21l.27-.22,.05,.03v.21l-.31-.02Zm1.65-1.01l.09,.09c-.05,.04-.1,.09-.16,.11-.03,0-.09-.05-.13-.09l.21-.12Zm-9.3-.69l.04-.05q.22-.02,.22,.2l-.25-.15Zm2.16,.48l-.02,.09-.28-.04s.05-.1,.07-.1c.08,0,.16,.03,.24,.05Zm1.41-.94l.07,.08c-.06,.04-.11,.09-.18,.12-.02,0-.08-.05-.12-.08l.22-.12Zm4.45,1.75h.3l.03,.05-.18,.12-.16-.17Zm-2.69-4.05s.1,.09,.1,.1c-.04,.05-.09,.09-.14,.12-.02,0-.07-.05-.11-.07l.16-.14Zm.17,.25l.05-.04s.11,.07,.14,.11c.01,.01-.03,.08-.06,.09-.04,.01-.09,0-.14,0v-.15Z"/><path class="cls-1" d="M130.23,42.17l.12,.16c.05-.03,.11-.06,.15-.11,.09-.09,.17-.2,.26-.29,.04-.04,.12-.04,.18-.06,.05,.29,0,.37-.28,.45-.17,.05-.18,.17-.08,.33,.04,.07,.03,.17,0,.25-.01,.06-.09,.1-.17,.19-.07-.22-.11-.38-.17-.53,0-.03-.05-.06-.08-.07-.24-.07-.49-.12-.59-.36-.02-.04-.13-.06-.22-.09l-.04,.21h-.27c.01,.06,.04,.12,.04,.17,0,.06-.03,.14-.08,.15-.05,.02-.13-.02-.2-.03-.12-.02-.25-.08-.35-.05-.37,.1-.4,.1-.57-.2,0-.01-.03-.02-.05-.03-.04,.09-.08,.18-.11,.28-.02,.04-.02,.09-.03,.13,.06,0,.14,.04,.18,.02,.18-.07,.27-.02,.34,.13,.06,.13,.08,.21-.13,.26-.08,.02-.13,.14-.21,.23,.27,.07,.37,0,.43-.16,.05-.14,.17-.19,.32-.14,.12,.05,.23,.09,.38,.16-.03,.03-.07,.09-.12,.11-.04,.01-.11-.04-.17-.05-.06-.01-.13-.03-.18,0-.08,.04-.14,.11-.21,.17-.08,.06-.08,.11-.02,.19,.05,.07,.09,.19,.05,.23-.08,.09-.04,.14,.02,.18,.2,.16,.25,.48,.66,.41,.08,.28,.16,.55,.23,.82,0,.03-.01,.06-.02,.09-.03,.12-.08,.24-.1,.37-.03,.18-.08,.24-.29,.28,.07,.17,.11,.18,.27,.07,.09-.06,.21-.1,.33-.15,.05,.17,.04,.26-.11,.33-.06,.03-.08,.13-.12,.19h0c.14,.02,.21-.03,.26-.15,.06-.14,.18-.2,.36-.19,.16,0,.32-.02,.57-.04-.29,.2-.05,.34-.02,.5,0,.03,.06,.08,.09,.09,.33,.01,.42,.23,.57,.45l.57-.43c-.12,0-.29-.03-.25-.24,.04-.2,.22-.13,.38-.12l.03-.16h.24l.04-.06c-.11-.07-.2-.16-.32-.2-.07-.02-.18,.04-.26,.09-.15,.1-.26,.26-.5,.23-.05,0-.14-.05-.14-.08,0-.06,.03-.14,.08-.17,.12-.08,.26-.13,.35-.17v-.48c-.24,.02-.48,.01-.56-.22-.01-.04,.08-.11,.13-.16-.07-.04-.17-.08-.23-.15-.03-.04,0-.12,0-.18,.1,.01,.24,0,.29,.04,.06,.05,.04,.16,.06,.25l.51,.11c-.08-.08-.15-.13-.18-.19-.04-.07-.06-.16-.07-.24,0-.02,.04-.05,.06-.07,.05-.05,.1-.1,.15-.14,.03,.08,.08,.16,.09,.24,0,.05-.05,.11-.09,.19l.37,.07c-.09-.14-.26-.24-.05-.36,0,0,0-.02,0-.03,0-.1-.04-.28-.01-.29,.17-.05,.35-.06,.54-.07,.17-.01,.35,0,.53,0l.02-.06c-.06-.03-.11-.07-.17-.1-.04-.02-.11-.02-.14-.04-.1-.1-.18-.05-.27,0-.05,.03-.13,.09-.16,.08-.35-.12-.55,.13-.82,.22-.16,.05-.33,.07-.51,.11-.01-.18-.19-.36,.09-.51,.04-.02,0-.14,.02-.2,.02-.05,.07-.09,.11-.14,.04,.04,.09,.07,.12,.11,.03,.03,.05,.07,.1,.15,.09-.08,.18-.14,.24-.21,.05-.08,.05-.16-.1-.18-.05,0-.1-.05-.15-.08,.04-.03,.08-.07,.12-.1,.1-.07,.2-.13,.35-.22,.04,.04,.15,.12,.13,.16-.03,.07-.14,.11-.23,.18l.2,.11c.02,.11-.29,.2-.04,.31,.09,.04,.23,.01,.34,.02l-.18-.36s.13-.07,.23-.1c.1-.03,.19-.02,.21,.1,.01,.11,.07,.19,.22,.14,.16-.05,.11-.14,.05-.22-.02-.03-.03-.05-.05-.09,.04-.02,.08-.02,.1-.04,.07-.05,.13-.1,.19-.15-.06-.04-.1-.11-.17-.13-.1-.03-.2-.04-.26,.07-.1,.19-.3,.06-.45,.11-.04-.24,.04-.31,.28-.27,.18,.03,.31-.09,.35-.38-.14,.07-.26,.13-.38,.17-.05,.02-.13,.05-.18,.03-.04-.02-.07-.09-.07-.14,0-.11,.03-.22,.04-.33,0-.05,.02-.1,.02-.16-.07,0-.14-.02-.21-.01-.32,.02-.58-.08-.83-.23-.04-.02-.04-.07-.08-.13-.06,.02-.14,.02-.17,.05-.14,.17-.26,.07-.38,0-.07-.04-.15-.09-.23-.13l-.06,.05c.1,.11,.18,.25,.3,.33,.1,.07,.22,.1,.17,.23-.05,.15-.2,.09-.31,.11h0Zm-.33,2.31c-.38,.05-.2-.25-.33-.36-.11,0-.25-.05-.28,.12,0,.03-.09,.06-.14,.06-.28,.03-.53-.19-.49-.48,.09,.05,.18,.09,.22,.14,.09,.11,.19,.1,.3,.05,.1-.06,.19-.13,.29-.19,.07-.04,.15-.06,.26-.1,0,.1,.01,.16,0,.21-.02,.05-.06,.1-.1,.16q.3,.06,.27,.39Zm.64-1.07c0,.06,0,.11-.02,.16-.02,.05-.07,.09-.11,.13-.05-.04-.09-.07-.14-.11-.04-.03-.09-.08-.13-.08-.2,.03-.26-.09-.35-.19-.1-.11-.02-.17,.07-.23,.1-.07,.15-.03,.22,.05,.07,.07,.16,.24,.3,.04,0,0,.12,.02,.13,.05,.03,.05,.01,.11,.02,.16Zm-.46,1.7l.09-.12s.09,.06,.14,.09c.07,.06,.14,.15,.22,.17,.21,.04,.32,.17,.4,.31,.02,.04,.04,.12,.01,.14-.04,.04-.13,.07-.19,.06-.04,0-.11-.07-.11-.1,0-.12-.08-.14-.19-.17-.22-.05-.3-.2-.37-.38Zm-.13,.77c-.05,0-.09,0-.12,0-.31,0-.31,0-.31-.26,0-.04-.04-.08-.05-.12-.01-.05-.04-.13,0-.15,.04-.04,.13-.06,.2-.05,.04,0,.06,.08,.08,.13,.02,.04,.03,.1,.06,.12,.17,.07,.17,.18,.15,.33Zm1.37-3.15c-.12-.02-.21-.04-.3-.07-.02,0-.03-.07-.01-.1,.09-.14,.2-.28,.31-.44l.36,.35c-.36-.02-.37-.02-.36,.26Zm-.37,3.89c0-.21,.11-.37,.24-.35,.06,0,.16,.1,.15,.12-.06,.11-.15,.21-.22,.32l-.17-.09Zm-.54-.31c0-.07,0-.09,.01-.09,.08-.02,.22-.08,.24-.06,.08,.07,.14,.18,.18,.28,.01,.03-.04,.08-.06,.12,0,0-.03,0-.04,0-.12-.09-.24-.18-.33-.25Zm-.58-3.61c-.46,.04-.48,.02-.37-.41l.37,.41Zm-.2,.69c.05,.06,.12,.12,.15,.19,0,.01-.12,.1-.17,.1-.09,0-.18-.06-.29-.11l.31-.19Zm1.19-.11c-.05-.08-.13-.17-.12-.18,.07-.06,.16-.11,.26-.14,.03,0,.09,.06,.14,.1l-.28,.22Zm-1.45,1.68l-.06-.04c.03-.08,.05-.16,.09-.23,0-.01,.13,0,.17,.03,.04,.03,.06,.12,.04,.14-.07,.05-.16,.07-.25,.1Zm.77,.8l.18-.14s.11,.09,.14,.14c.01,.02-.07,.1-.1,.1-.06,0-.12-.05-.22-.1Zm-.69-2.63v-.2h.21c0,.12,.04,.24-.21,.2Zm1.98-.38l.08-.08,.18,.13-.09,.09-.17-.13Z"/><path class="cls-1" d="M133.04,44.6l-.26,.41,.05,.03,.34-.2,.07,.42c.06-.05,.1-.06,.09-.07-.08-.33,.24-.39,.49-.52,.12-.06,.17-.23,.27-.33,.07-.07,.16-.14,.26-.16,.05-.01,.13,.08,.21,.12,.13,.08,.28,.16,.4,.24,.12,.08,.07,.14-.05,.19-.14,.06-.27,.12-.4,.19-.01,0,0,.05,0,.1,.22-.18,.3,.02,.43,.09,.02-.03,.04-.07,.05-.1,.04-.16,.17-.21,.31-.1,.14,.11,.27,.06,.38,0,.19-.1,.35-.47,.3-.65-.03-.12-.1-.15-.21-.06-.06,.04-.1,.11-.17,.14-.08,.04-.18,.06-.26,.06-.02,0-.05-.1-.07-.16,0-.02-.01-.05-.02-.09-.07,0-.13,.02-.19,.01-.08-.01-.19-.03-.23-.08-.04-.05-.04-.17,0-.2,.05-.04,.17-.03,.26-.03,.08,0,.15,.01,.23,.02v-.1c-.09,0-.18,0-.27,0-.13,0-.26,.03-.26-.13,.32-.12,.33-.21,.05-.5,0,0-.02,0-.02,0-.18,.21-.41,.33-.73,.35-.11,0-.25,.11-.29,.2-.07,.14-.2,.16-.34,.18-.32,.05-.51,.26-.68,.46-.07,.09-.12,.17-.24,.15-.06-.01-.11-.1-.17-.18-.2,0-.46,.19-.46,.37,.19,.01,.39,.05,.58,.03,.18-.02,.35-.1,.52-.15l.05,.04Zm.4-.42c.18,.15,.43,.26,.18,.47-.13,.1-.43-.03-.51-.27-.11-.32,.31-.02,.34-.2Z"/><path class="cls-1" d="M94.31,27.76c.16-.04,.31-.07,.44-.12,.08-.04,.15-.12,.17-.19,.05-.13,.12-.21,.31-.16v.19c.06,0,.12,0,.15-.02,.07-.04,.19-.09,.2-.13,0-.08-.05-.19-.12-.23-.1-.06-.23-.1-.17-.21,.04-.06,.17-.1,.26-.12,.07-.02,.16,0,.22,0,.13,.13-.13,.3,.1,.42l.06-.17c.3,.08,.09,.24,.1,.36l.22,.03,.29-.35c.11,0,.25,0,.39,0,.13,0,.26-.03,.37-.04-.08-.11-.3-.16-.58-.12-.18,.03-.37,.04-.59,.07,0-.16,0-.29-.21-.28-.04,0-.08-.08-.11-.12-.07-.11-.19-.12-.26,0-.08,.15-.16,.21-.34,.09-.03-.02-.13,0-.18,.03-.27,.12-.4,.34-.52,.56-.02,.03-.03,.08-.06,.09-.2,.1-.15,.26-.15,.43Z"/><path class="cls-1" d="M105.86,34.1c.21,.07,.41,.13,.62,.2,.08,.03,.16,.05,.25,.07,.03,0,.06,.02,.08,.02,.17,0,.69-.35,.73-.5l-.18,.08c-.01-.07,0-.15-.03-.22-.11-.21,.14-.3,.22-.46l-.27-.03,.22-.43c-.3,.06-.34,.27-.47,.42-.02,.02-.02,.06-.04,.08-.04,.04-.09,.08-.14,.13-.05-.04-.11-.08-.15-.12-.02-.03-.01-.07-.02-.11,.15-.04,.31-.08,.18-.29-.13,.12-.29,.22-.38,.36-.09,.13,.06,.29,.24,.3,.08,0,.16,0,.31,0l-.21,.29s0,0,0,0c.05,.06,.1,.11,.15,.17-.05,.03-.12,.09-.15,.08-.08-.02-.15-.08-.23-.12,0,0,0-.03,0-.04-.05-.07-.1-.13-.16-.2l-.22,.16-.35,.1v.08Z"/><path class="cls-1" d="M117.48,39.64c-.16-.08-.31-.14-.44-.22-.04-.02-.07-.11-.05-.14,.05-.06,.12-.12,.2-.15,.06-.02,.14,.03,.21,.05,.02,0,.02,.05,.03,.08q.11-.06,.02-.28c-.17,.02-.34,.04-.51,.06-.15,.02-.31,.05-.52,.08,.15,.12,.44,.11,.27,.3-.14,.16-.3,.02-.46-.07,.02,.23-.41,.23-.27,.5,.14,0,.31,0,.31,.21h.07l.17-.27c.14,0,.21,.06,.15,.21-.05,.12,0,.17,.14,.17q.08-.29,.33-.22l.33-.33Zm-.26,.11l-.05,.04c-.13-.03-.27-.06-.4-.1-.02,0,0-.13,.03-.16,.13-.09,.22,.03,.32,.08,.05,.03,.07,.09,.1,.14Z"/><path class="cls-1" d="M134.87,46.26s.1,.03,.15,.06c.17,.07,.28,.05,.33-.12,.04-.14,.11-.21,.31-.15,.21,.06,.38-.05,.51-.24,.07-.11,.18-.21,.26-.29l-.39-.13s0,.07-.02,.11c-.02,.04-.04,.09-.07,.1-.21,.05-.43,.08-.65,.12-.06,.01-.12,.05-.17,.09-.02,.01-.03,.05-.04,.06-.31,.05-.26,.22-.2,.41Z"/><path class="cls-1" d="M105.55,32.39c-.14-.04-.26-.1-.38-.1-.09,0-.21,.03-.27,.08-.07,.06-.11,.15-.13,.24,0,.06,.07,.12,.08,.18,.02,.1,.06,.22,.02,.32-.07,.17-.03,.27,.19,.29,.09,0,.18,0,.27,0,.03,0,.07,0,.18-.01-.14-.13-.24-.23-.34-.33-.08-.07-.13-.13,.03-.19,.3-.11,.37-.23,.34-.48Z"/><path class="cls-1" d="M129.25,46.39l-.78,.07c.12,.16,.29,.2,.46,.11,.04-.02,.09-.02,.14-.03,0,.22,.34,.09,.43,.29,.04,.09,.32,.11,.49,.16l.04-.04c-.04-.07-.07-.14-.13-.19-.16-.13-.14-.23,.01-.34,.05-.04,.08-.09,.11-.14l-.05-.04-.58,.32-.15-.17h0Z"/><path class="cls-1" d="M131.95,47.83c-.04-.1-.31-.08-.18-.28l.28,.04c-.23-.17-.31-.16-.55,.03q-.16,.12-.37,.11c-.1-.21,.21-.26,.25-.43-.28,.04-.34,.23-.43,.4,.13,.09,.24,.16,.45,.09,.28-.08,.36,0,.32,.25l-.42,.13,.02,.05c.15,.02,.3,.03,.45,.04,.04,0,.08-.03,.12-.04-.17-.22-.16-.24,.05-.38Z"/><path class="cls-1" d="M116.05,38.03c.13,.15,.11,.3,0,.45-.08,.11-.19,.18-.28,0-.16,.09-.29,.18-.26,.36,.01,.08-.06,.16-.1,.25l.07,.04c.09-.1,.19-.19,.26-.3,.05-.09,.09-.14,.22-.17,.14-.03,.25-.15,.37-.24,.07-.06,.11-.14,.2-.24l-.48-.15h0Z"/><path class="cls-1" d="M115.65,37.72l-.05-.24c-.31-.1-.45-.02-.5,.24-.01,.07-.1,.12-.13,.19-.03,.06-.03,.12-.04,.19,.12-.03,.17,.24,.33,.06,.06-.07,.2-.12,.1-.25-.1-.13-.05-.19,.14-.17,.05,0,.1-.01,.16-.02Z"/><path class="cls-1" d="M122.1,34.8l-.19,.11c.22,.21-.05,.3-.16,.39-.14,.11-.12,.17,0,.21,.14,0,.31-.05,.42,0,.18,.08,.23-.04,.35-.09-.18-.19-.59-.24-.42-.61Z"/><path class="cls-1" d="M128.59,48.78c.12-.02,.25-.03,.36-.08,.07-.03,.11-.11,.16-.16-.07-.04-.13-.08-.21-.1-.05-.02-.11,0-.23,0l.22-.31-.15-.06-.34,.45,.19,.27Z"/><path class="cls-1" d="M129.28,48.2c-.18-.27,.2-.3,.25-.49-.24-.03-.46-.04-.67-.09-.09-.02-.14-.13-.23-.21l-.27,.21,.03,.04c.07,0,.14,0,.21,0,.31,0,.49,.17,.48,.43,0,.04,.07,.07,.11,.11h.08Z"/><path class="cls-1" d="M129.84,47.8c-.06,.08-.17,.16-.18,.25-.02,.18-.11,.25-.32,.26v.05l.77,.25,.04-.06c-.07-.05-.16-.09-.22-.14-.04-.03-.09-.13-.09-.13,.22-.14-.01-.31,.08-.45l-.09-.03Z"/><path class="cls-1" d="M134.11,45.91c.02,.18,.02,.32-.17,.38-.01,0-.02,.08,0,.1,.23,.18,.26,.41,.19,.66l.35-.03s0-.06-.02-.07c-.23-.09-.21-.29-.26-.46-.03-.08-.04-.17,.11-.21,.19-.05,.19-.1,.05-.21-.06-.05-.13-.09-.24-.17Z"/><path class="cls-1" d="M122.04,34.39c.11-.03,.22-.08,.32-.07,.07,0,.12,.11,.2,.19,.02-.02,.09-.05,.09-.09,.02-.12,.02-.24,0-.36,0-.03-.1-.07-.15-.06-.26,.02-.4,.15-.46,.39Z"/><path class="cls-1" d="M129.35,46.93c-.12,.06-.25,.03-.33-.13l-.32,.14q.45,.03,.4,.3l.21,.13,.32-.22-.28-.22Z"/><path class="cls-1" d="M125.94,40.08s0,0-.01-.01c-.17-.08-.27,.04-.35,.11-.11,.11-.31,.21-.21,.39,.05,.1,.17,.1,.24,0,.06-.07,.09-.15,.14-.23,.06-.09,.12-.17,.19-.26Z"/><path class="cls-1" d="M130.23,42.17s.03-.07,.03-.11c-.01-.08-.03-.22-.06-.22-.14-.02-.3-.02-.44,0-.06,.01-.08,.13-.1,.23,.26-.14,.42-.01,.58,.09h0Z"/><path class="cls-1" d="M131.68,41.67c-.1-.13-.19-.23-.27-.34-.08-.12-.16-.22-.36-.19-.04,.11-.03,.18,.11,.25,.12,.06,.2,.18,.29,.27,.09,.09,.16,.09,.23,0Z"/><path class="cls-1" d="M102.01,34.04s-.04-.08-.06-.11c-.06-.1-.05-.16,.1-.19,.06-.01,.11-.07,.2-.13,.13,.06,.23,0,.26-.21-.29,.12-.57,.16-.74,.39-.07,.09-.07,.15-.01,.21,.05,.05,.14,.06,.22,.09l.03-.04Z"/><path class="cls-1" d="M79.41,30.93l.36,.66,.2-.32c-.21-.1-.23-.38-.56-.34Z"/><path class="cls-1" d="M133.32,47.41c.26,.31-.12,.35-.29,.47l.25,.16c.22-.04,.24-.08,.14-.33l.3-.06-.4-.24Z"/><path class="cls-1" d="M136.71,45.72c.06-.01,.15,0,.19-.04,.08-.07,.14-.15,.21-.23l-.28-.18-.08,.04-.03,.41h0Z"/><path class="cls-1" d="M87.75,29.48l.57-.24c0-.12-.05-.17-.2-.1-.04,.02-.09,.04-.14,.04-.33,.02-.34,.03-.23,.3Z"/><path class="cls-1" d="M129.74,41.63v-.3c-.15,.01-.29,0-.41,.04-.06,.02-.09,.11-.15,.19l.56,.07Z"/><path class="cls-1" d="M146.18,56.73c-.18,.01-.37,.1-.48-.1-.14,.22-.04,.41,.25,.48-.06-.18,0-.3,.22-.38Z"/><path class="cls-1" d="M131.08,48.16c-.16,.16-.14,.31-.04,.46,.02,.03,.13,.07,.14,.05,.05-.04,.12-.11,.1-.15-.04-.12-.12-.23-.2-.36Z"/><path class="cls-1" d="M113.74,37.63l-.44,.26,.19,.23,.3-.43-.05-.05Z"/><path class="cls-1" d="M146.3,55.49l-.45-.36c-.07,.28,.06,.39,.45,.36Z"/><path class="cls-1" d="M133.59,43.44c0-.12-.29-.36-.4-.33-.04,0-.08,.04-.11,.08-.01,.01,.01,.06,.03,.08,.11,.06,.22,.13,.33,.18,.04,.02,.1,0,.15,0Z"/><path class="cls-1" d="M146.88,57.22c0-.22-.18-.17-.3-.14-.18,.03-.35,.1-.56,.15,.29,.06,.57-.02,.86,0Z"/><path class="cls-1" d="M81.62,30.43c.07,.08,.12,.16,.2,.22,.06,.05,.15,.08,.26,.14l-.08-.33c-.12-.01-.25-.18-.37-.03Z"/><path class="cls-1" d="M126.6,42.32l-.33-.06-.03,.32c.25,.06,.27-.12,.36-.25Z"/><path class="cls-1" d="M103.61,32.74v-.5c-.11,.06-.22,.1-.21,.13,.02,.13,.07,.26,.11,.39l.1-.02Z"/><path class="cls-1" d="M101.65,33.3l-.02,.38c.09-.06,.21-.13,.31-.21,.02-.01,0-.1-.02-.11-.08-.03-.17-.05-.27-.07Z"/><path class="cls-1" d="M123.64,40.7l-.42-.02-.03,.05c.07,.05,.14,.13,.21,.13,.09,0,.19-.06,.28-.09l-.04-.06Z"/><path class="cls-1" d="M138.65,46.87v.31c.06,0,.16,.05,.22,.02,.05-.02,.1-.14,.07-.17-.06-.06-.16-.1-.29-.16Z"/><path class="cls-1" d="M127.81,42.83l-.21,.26c.06,0,.13,.02,.18,.01,.18-.03,.15-.13,.1-.23l-.08-.04Z"/><path class="cls-1" d="M136.96,46.24l.17,.11c.05-.06,.12-.12,.15-.18,0-.02-.08-.07-.12-.11l-.2,.18Z"/><path class="cls-1" d="M128.38,46.14l.41-.25-.09-.1c-.13,0-.34,.22-.32,.34Z"/><path class="cls-1" d="M136.72,45.72c-.13,.01-.28,0-.28,.17,0,.04,.02,.08,.03,.13,.05-.01,.14-.01,.15-.04,.05-.08,.06-.17,.09-.25h0Z"/><path class="cls-1" d="M146.44,56.57c.04-.05,.08-.09,.09-.13,.01-.07,0-.15,0-.22-.04,.01-.12,.02-.13,.04-.03,.08-.04,.16-.05,.24,0,.01,.04,.03,.08,.06Z"/><path class="cls-1" d="M103.62,32.19c.17-.13,.17-.23-.02-.32-.16,.12-.16,.12,.02,.32Z"/><path class="cls-1" d="M90.62,32.3l.19-.35-.47,.18,.28,.16Z"/><path class="cls-1" d="M81.32,34.41l.31-.2-.12-.15c-.06,.05-.12,.1-.16,.15-.04,.05-.05,.11-.07,.16l.05,.03Z"/><path class="cls-1" d="M130.5,47.97s.12-.06,.12-.09c0-.15-.02-.29-.07-.43l-.13,.49,.07,.03Z"/><path class="cls-1" d="M133.92,45.04l.27,.06,.06-.04-.17-.21-.2,.13,.05,.06Z"/><path class="cls-1" d="M124.63,40.28c-.08,.03-.2,.06-.21,.1-.02,.07,.04,.15,.08,.27l.19-.31-.06-.06Z"/><path class="cls-1" d="M121.47,36.31c-.07,.1-.13,.16-.15,.22,0,.02,.06,.06,.09,.09,.06-.04,.13-.08,.16-.13,.01-.02-.05-.08-.11-.18Z"/><path class="cls-1" d="M92.33,31.65l.38-.27-.07-.06c-.18,.04-.2,.22-.31,.33Z"/><path class="cls-1" d="M128.97,45.04l-.48,.19,.38,.09,.1-.29Z"/><path class="cls-1" d="M107.11,32.61c-.15-.02-.23,.04-.2,.16,0,.04,.12,.06,.24,.12-.02-.14-.03-.21-.04-.29h0Z"/><path class="cls-1" d="M127.93,43.5l-.19,.15,.33,.16,.05-.03-.19-.28Z"/><path class="cls-1" d="M120.39,37.07c-.05-.07-.09-.14-.15-.21,0,0-.09,.04-.14,.05l.2,.21,.09-.05Z"/><path class="cls-1" d="M132.81,45.58l.17-.14-.21-.22c-.17,.11,0,.22-.02,.33l.06,.03Z"/><path class="cls-1" d="M130.33,48.19c-.1,.1,0,.18,.07,.24,.04,.04,.14,.03,.21,.04l.02-.06-.3-.23Z"/><path class="cls-1" d="M95.88,32.71c0-.08,0-.16,0-.24,0-.02-.05-.04-.08-.06-.04,.04-.12,.09-.11,.12,.03,.08,.09,.15,.14,.22l.05-.04Z"/><path class="cls-1" d="M135.05,45.37l-.31,.31c.21,0,.35-.05,.31-.31Z"/><path class="cls-1" d="M116.51,38.77c.19,.16,.29,.12,.4-.13l-.4,.13Z"/><path class="cls-1" d="M126.43,42.75c.11,.05,.16,.09,.21,.09,.05,0,.1-.05,.14-.08-.05-.03-.09-.08-.14-.08-.05,0-.1,.03-.21,.08Z"/><path class="cls-1" d="M118.83,37.47l-.24-.11s-.06,.14-.04,.14c.07,.03,.15,.05,.23,.07l.05-.1Z"/><path class="cls-1" d="M111.67,34.22l-.39,.08,.02,.06c.14,.02,.3,.1,.37-.14Z"/><path class="cls-1" d="M124.8,41.14c.06-.07,.1-.11,.13-.16,0,0-.08-.07-.1-.06-.06,.02-.11,.06-.16,.1l.13,.12Z"/><path class="cls-1" d="M142.13,56.72c.16,.08,.23-.05,.32-.13l-.03-.06-.32,.11,.03,.08Z"/><path class="cls-1" d="M96.11,31.92l.16,.1c-.08-.09,.21-.27-.12-.3l-.04,.21Z"/><path class="cls-1" d="M83.81,33.88c.08-.02,.18-.02,.23-.06,.04-.04,.03-.12,.05-.18l-.06-.02-.23,.2,.02,.06Z"/><path class="cls-1" d="M110.88,34.85c-.08,.13,.01,.2,.19,.23l-.12-.25-.08,.02Z"/><path class="cls-1" d="M82.23,30.4l.29,.03c-.05-.07-.08-.16-.13-.17-.06-.01-.13,.05-.2,.08l.04,.06Z"/><path class="cls-1" d="M115.08,39.38l-.06,.21h.26l-.13-.24-.08,.03Z"/><path class="cls-1" d="M118.63,40.23l.11,.26,.31-.08-.42-.19h0Z"/><path class="cls-1" d="M133.49,49.67c.08-.06,.16-.12,.24-.18l-.07-.07c-.09,.05-.17,.11-.25,.17l.09,.08Z"/><path class="cls-1" d="M73.8,33.69l.37-.08c-.06-.06-.09-.11-.12-.12-.05,0-.11,.02-.15,.06-.04,.04-.06,.09-.09,.14h0Z"/><path class="cls-1" d="M102,30.26l.17-.11-.13-.23c-.05,.03-.16,.07-.16,.1,0,.07,.07,.14,.12,.24Z"/><path class="cls-1" d="M89.36,28.5c-.17,.05-.3,.09-.24,.27,.16-.04,.3-.08,.24-.27Z"/><path class="cls-1" d="M135.02,49.93l.09,.27,.31-.07s.04,.03,.04,.04c.02,.23,.18,.3,.44,.23,.09-.03,.23,0,.32,.03,.15,.06,.51,0,.57-.12,.01-.03-.02-.09-.05-.12-.07-.05-.15-.09-.22-.14-.19,.07-.36,.14-.54,.2-.17,.06-.4-.06-.42-.2-.02-.22-.06-.24-.31-.19-.07,.01-.14,.03-.24,.06Z"/><path class="cls-1" d="M137.43,50.5c.14,0,.29,.02,.43,.02,.04,0,.1-.05,.12-.08,0-.02-.04-.07-.07-.1-.02-.02-.06-.03-.1-.04q-.34-.13-.37,.2Z"/><path class="cls-1" d="M139.24,50.32l-.15-.1c-.04,.05-.11,.1-.12,.15,0,.04,.07,.09,.11,.13l.17-.18Z"/><path class="cls-1" d="M121.84,38.68l.2-.34h-.51l.31,.34Z"/></g></g><g id="frames"><rect class="cls-5" x="1" y="1" width="189.44" height="97.62" rx="12" ry="12"/></g></svg>