<?xml version="1.0" encoding="UTF-8"?><svg id="Layer_2" xmlns="http://www.w3.org/2000/svg" viewBox="0 0 191.44 99.62"><defs><style>.cls-1{stroke-width:1.5px;}.cls-1,.cls-2,.cls-3{stroke-linecap:round;stroke-linejoin:round;}.cls-1,.cls-4,.cls-3{fill:none;}.cls-1,.cls-3{stroke:#cb6e6c;}.cls-2{stroke:#f6c242;}.cls-2,.cls-5{fill:#cb6e6c;}.cls-6{fill:#6fcacc;}.cls-7{fill:#5e8b83;}.cls-8{fill:#71b6cc;}.cls-4{stroke:#5e8b83;stroke-miterlimit:10;}.cls-4,.cls-3{stroke-width:2px;}.cls-3{stroke-dasharray:0 0 5 5;}</style></defs><g id="water"><rect class="cls-6" x="1" y="63.85" width="119.26" height="10.85"/><rect class="cls-8" x=".92" y="58.97" width="154.42" height="4.88"/></g><g id="transition_layer"><rect class="cls-2" x="168.8" y="21.69" width="17.24" height="31.58"/><rect class="cls-2" x="142.96" y="28.86" width="17.24" height="25.16"/><polygon class="cls-2" points="144.31 45.94 136.55 39.81 128.79 45.94 127.93 46.51 127.93 55.64 145.17 55.64 145.17 46.51 144.31 45.94"/><polygon class="cls-2" points="171.13 44.06 163.37 37.92 155.61 44.06 154.75 44.62 154.75 53.75 171.99 53.75 171.99 44.62 171.13 44.06"/></g><g id="section"><path class="cls-7" d="M190.52,50.77l-65.79,3.81-9.09,2.65-32.15,6.63H51.35L1.08,70.95l-.15,15.54,.15,3.41c.55,2.36,.77,7.52,8.72,8.72H181.8c7.27-.48,8.43-6.51,8.72-7.85V50.77Z"/><polygon class="cls-3" points="79.99 53.86 72.23 47.73 64.46 53.86 63.6 54.43 63.6 63.56 80.85 63.56 80.85 54.43 79.99 53.86"/><g><path class="cls-1" d="M77.01,42.53s4.63-7.99,10.3-17.74c5.66-9.76,19.06-13.84,29.77-9.08,6.53,2.91,12.34,5.49,15.87,7.07"/><polygon class="cls-5" points="134.24 18.36 130.54 26.69 136.55 24.38 134.24 18.36"/></g></g><g id="frames"><rect class="cls-4" x="1" y="1" width="189.44" height="97.62" rx="12" ry="12"/></g></svg>