<?xml version="1.0" encoding="UTF-8"?><svg id="Layer_2" xmlns="http://www.w3.org/2000/svg" viewBox="0 0 191.44 99.62"><defs><style>.cls-1{fill:#f6c242;}.cls-2{fill:#71b6cc;}.cls-3{fill:#cb6e6c;stroke:#cb6e6c;stroke-linecap:round;stroke-linejoin:round;}.cls-3,.cls-4{stroke-width:2px;}.cls-4{fill:none;stroke:#f6c242;stroke-miterlimit:10;}</style></defs><g id="water"><path class="cls-2" d="M189.56,72.53L1.44,73.22h0l-.12,12.28,.15,3.41c.55,2.36,.76,7.52,8.66,8.72H180.9c7.22-.48,8.37-6.51,8.66-7.85v-17.24h0Z"/></g><g id="text"><rect class="cls-4" x="1" y="1" width="189.44" height="97.62" rx="12" ry="12"/><g><path class="cls-3" d="M89.68,33.52h.2c.12,.44,.32,.88,.34,1.33,.14,2.34,.25,4.68,.34,7.02,.03,.74,.28,1.25,1.06,1.33,.72,.07,1.21-.37,1.22-1.24,.02-1.94,.13-3.9-.1-5.82-.19-1.55-.68-3.11-1.29-4.55-.61-1.44-1.87-2.14-3.5-2.09-1.45,.04-2.9,.03-4.35,0-1.52-.04-2.65,.61-3.38,1.89-.41,.72-.74,1.51-.96,2.31-.72,2.66-.67,5.39-.54,8.12,.05,.94,.44,1.4,1.2,1.38,.74-.02,1.1-.52,1.09-1.46-.01-1.31-.1-2.62,0-3.91,.1-1.42,.37-2.82,.57-4.23l.33,.03c0,.3,0,.6,0,.91,0,6.38,0,12.77,0,19.15,0,.43,.02,.88,.14,1.29,.23,.78,.84,1.18,1.64,1.19,.76,.01,1.36-.34,1.63-1.07,.14-.37,.17-.79,.18-1.19,.01-3.8,0-7.6,0-11.4,0-.23-.02-.47,.02-.69,.02-.1,.17-.25,.26-.25,.1,0,.26,.14,.28,.24,.05,.22,.03,.46,.03,.69,0,3.74,0,7.49,0,11.23,0,.37,.01,.76,.1,1.12,.2,.84,.79,1.29,1.62,1.32,.83,.03,1.46-.36,1.73-1.18,.11-.35,.13-.74,.13-1.11,0-6.47,0-12.94,0-19.41,0-.31,0-.63,0-.94Z"/><path class="cls-3" d="M89,25.49c0-1.79-1.41-3.19-3.2-3.19-1.79,0-3.22,1.41-3.23,3.18-.01,1.78,1.48,3.27,3.27,3.25,1.77-.02,3.17-1.45,3.16-3.24Z"/><path class="cls-3" d="M140.03,64.1l-3.94,3.82-3.42-3.7-.22,.11v7.03h-2.72c0-.38,0-.75,0-1.11,0-2.73,.02-5.46-.01-8.18,0-.36-.13-.83-.37-1.07-4.76-4.8-9.55-9.57-14.34-14.35-.04-.04-.09-.07-.19-.14-.2,.19-.41,.37-.61,.57-4.89,4.88-9.76,9.77-14.66,14.64-.43,.42-.6,.85-.59,1.45,.03,2.7,.01,5.4,.01,8.17h-2.7v-6.03l-.23-.11c-.74,.76-1.5,1.5-2.21,2.27-.76,.82-1.64,1.17-2.77,1.17-9.78-.02-19.56-.01-29.34-.01-.32,0-.63,0-1.05,0v2.73h-2.74v-2.73c-1.51,0-2.95,.02-4.39,0-1.66-.03-2.94-1.49-2.59-3.09,.15-.68,.62-1.38,1.13-1.89,7.16-7.21,14.35-14.38,21.53-21.56,.39-.39,.79-.77,1.17-1.17,.82-.89,1.84-1.13,3.12-.94,0,.53-.01,1.04,0,1.56,.07,2.1,1.13,2.87,3.21,2.25,.02,.32,.04,.62,.04,.92,0,3.05,.03,6.09-.01,9.14-.02,1.26,.27,2.33,1.47,2.9,1.19,.57,2.26,.24,3.12-.62,.59,.29,1.12,.7,1.71,.83,1.65,.36,3.04-.86,3.09-2.66,.04-1.33,0-2.67,0-4,0-2.14,0-4.29,0-6.47,.47,.1,.85,.24,1.24,.25,1.08,0,1.91-.87,1.96-2.04,.03-.66,0-1.32,0-2.1h1.04c6.44,0,12.89,.02,19.33-.02,1.29,0,2.26,.4,3.16,1.31,7.33,7.37,14.68,14.7,22.03,22.05,.24,.24,.51,.46,.77,.69v.17Z"/><path class="cls-1" d="M89.68,33.52c0,.31,0,.63,0,.94,0,6.47,0,12.94,0,19.41,0,.37-.02,.76-.13,1.11-.26,.82-.89,1.22-1.73,1.18-.83-.03-1.42-.49-1.62-1.32-.09-.36-.1-.75-.1-1.12,0-3.74,0-7.49,0-11.23,0-.23,.02-.47-.03-.69-.02-.1-.18-.24-.28-.24-.09,0-.24,.15-.26,.25-.04,.22-.02,.46-.02,.69,0,3.8,0,7.6,0,11.4,0,.4-.04,.82-.18,1.19-.27,.73-.88,1.09-1.63,1.07-.79-.02-1.4-.41-1.64-1.19-.12-.41-.14-.86-.14-1.29,0-6.38,0-12.77,0-19.15,0-.3,0-.6,0-.91l-.33-.03c-.2,1.41-.46,2.81-.57,4.23-.09,1.3-.01,2.61,0,3.91,.01,.95-.35,1.44-1.09,1.46-.75,.02-1.15-.44-1.2-1.38-.13-2.73-.18-5.46,.54-8.12,.22-.8,.55-1.59,.96-2.31,.73-1.29,1.86-1.93,3.38-1.89,1.45,.03,2.9,.04,4.35,0,1.63-.05,2.9,.65,3.5,2.09,.61,1.45,1.11,3,1.29,4.55,.23,1.92,.12,3.88,.1,5.82,0,.87-.5,1.31-1.22,1.24-.78-.08-1.03-.59-1.06-1.33-.09-2.34-.2-4.68-.34-7.02-.03-.45-.22-.89-.34-1.33h-.2Z"/><path class="cls-1" d="M89,25.49c0,1.79-1.39,3.23-3.16,3.24-1.79,.02-3.28-1.46-3.27-3.25,.01-1.77,1.44-3.18,3.23-3.18,1.8,0,3.2,1.39,3.2,3.19Z"/></g></g></svg>