<?xml version="1.0" encoding="UTF-8"?><svg id="Layer_2" xmlns="http://www.w3.org/2000/svg" viewBox="0 0 191.44 99.62"><defs><style>.cls-1,.cls-2{fill:#f6c242;}.cls-3{fill:#71b6cc;}.cls-2{stroke:#cb6e6c;}.cls-2,.cls-4{stroke-miterlimit:10;}.cls-4{fill:none;stroke:#f6c242;stroke-width:2px;}</style></defs><g id="water"><path class="cls-3" d="M133.43,83.25c-1.49,.55,6.6-4.84-32.83-4.07-1.12-1.03-.88-2.79,.48-3.49,.4-.21,.85-.34,1.32-.53-.14-.06-.24-.11-.34-.14-1.13-.35-2.23-.16-3.32,.17-2.47,.75-4.63,2.09-6.69,3.58-.95,.69-2,1.17-3.15,1.38-.88,.16-1.77,.16-2.58-.28-2.33-1.25-2.34-3.47-.37-4.78,.59-.39,1.29-.62,1.95-.89,.33-.13,.68-.2,1.11-.32-.19-.1-.28-.16-.38-.19-2.1-.8-4.26-1-6.48-.57-2.47,.48-4.61,1.66-6.67,3-1.34,.87-2.74,1.53-4.36,1.72-2.24,.26-4.3-.31-6.26-1.28-1.21-.6-2.43-1.26-3.29-2.3-.99-1.21-1.72-2.6-2.13-4.12-.63-2.37,.24-4.39,2.47-5.52,2.48-1.26,5.15-1.44,7.87-1.12,.74,.09,1.46,.27,2.19,.42l.08-.12c-.52-.36-1.03-.74-1.56-1.08-2.46-1.59-5.16-2.27-8.09-1.95-2.42,.27-4.61,1.2-6.67,2.44-2.77,1.67-5.15,3.8-7.39,6.08-.56,.57-1.17,1.12-1.84,1.54-2.27,1.43-4.76,1.6-7.32,1.02-3.66-.83-6.61-2.78-8.89-5.68-2.87-3.66-3.09-7.52-.71-11.41,1.2-1.96,2.78-3.6,4.54-5.09,1.55-1.31,3.11-2.6,4.94-3.53,3.69-1.88,7.63-2.07,11.65-1.5,3.44,.49,6.7,1.55,9.85,2.97,.39,.17,.78,.35,1.28,.58-.11-.29-.17-.47-.24-.63-2.03-4.24-5.17-7.5-9.24-9.91-4.21-2.5-8.79-3.97-13.7-4.5-2.69-.29-5.36-.16-8.01,.28-3.53,.58-6.91,1.64-10.1,3.21-1.72,.85-3.43,1.78-5,2.87-2.4,1.67-4.61,3.58-7,5.26-1.92,1.35-3.94,2.58-6.51,2.27-.68-.08-.69-.01-.69,.66,0,12.17,0,24.34-.01,36.52,0,.18,.12,4.91,.12,5.08,33.88,0,66.84-1.02,101.46-4.54l30.53-1.5Z"/></g><g id="section"><path class="cls-1" d="M1.48,89.29c.55,2.46,.76,7.82,8.66,9.07H180.98c7.22-.5,8.38-6.77,8.66-8.17v-17.93l-56.22,10.99L1.48,89.29Z"/></g><g id="features"><path class="cls-1" d="M135.63,77.06c2.79-1.05,5.09-2.71,6.07-5.72,.2-.62,.25-1.2,.03-1.85-.81-2.42,.13-4.86,2.44-6.43,.48-.32,1.04-.55,1.6-.73,1.84-.57,3.51-1.4,4.58-3.07,.38-.59,.62-1.27,.83-1.94,.28-.9,.86-1.4,1.76-1.5,2.22-.24,4.4-.61,6.47-1.49,1.47-.63,2.84-1.43,3.75-2.79,.24-.36,.4-.83,.43-1.26,.17-2.08,.28-4.16,.44-6.25,.17-2.28,1.64-3.95,3.87-4.5,1.09-.27,2.18-.55,3.22-.95,.89-.34,1.77-.78,2.54-1.34,.57-.41,1.09-1.03,1.36-1.67,1.22-2.87,2.82-5.4,5.51-7.12,.12-.08,.2-.33,.19-.5-.04-.8-.13-1.6-.18-2.4-.11-1.64,.24-3.16,1.11-4.59,1.39-2.3,2.87-4.5,5.28-5.85,.8-.45,1.72-.67,2.69-1.04V83.25c-18.74,0-60.77,1.07-79.51,1.07l25.5-7.26Z"/><path class="cls-2" d="M154.63,38.79c-.97,1.68-1.89,3.26-2.84,4.89,.6,.27,1.15,.52,1.7,.77,.9,.4,1.79,.8,2.69,1.2,.65,.29,1.01,.79,1.12,1.48,.32,2.03,.64,4.06,.95,6.09,.16,1.01-.54,1.86-1.66,2.05-1,.17-1.91-.48-2.07-1.48-.26-1.59-.51-3.18-.78-4.77-.03-.15-.15-.34-.28-.4-1.52-.69-3.04-1.36-4.62-2.06-.02,.18-.05,.31-.05,.45,0,1.5,.04,3.01,.02,4.51,0,.4-.08,.82-.24,1.18-.99,2.17-2,4.34-3.02,6.5-.51,1.07-1.6,1.5-2.59,1.06-.98-.45-1.37-1.55-.87-2.65,.84-1.85,1.71-3.69,2.59-5.53,.25-.53,.38-1.06,.36-1.65-.07-2.39-.08-4.79-.14-7.18-.02-.88,.19-1.67,.64-2.43,1.19-2.03,2.37-4.07,3.54-6.11,1.02-1.76,3.44-2.32,4.99-1,1.04,.9,1.98,1.96,2.8,3.07,.76,1.04,1.58,1.78,2.87,2.01,.92,.17,1.82,.5,2.72,.78,.69,.21,1.19,.77,1.2,1.38,.01,.62-.24,1.17-.83,1.38-.39,.14-.88,.15-1.29,.05-1.54-.4-3.07-.84-4.58-1.33-.41-.13-.79-.44-1.1-.75-.43-.43-.77-.94-1.22-1.5Z"/><path class="cls-2" d="M157.1,29.83c0,1.57-1.26,2.83-2.83,2.83-1.54,0-2.84-1.29-2.85-2.83-.01-1.55,1.31-2.86,2.88-2.86,1.55,0,2.8,1.28,2.8,2.86Z"/></g><g id="frames"><rect class="cls-4" x="1" y="1" width="189.44" height="97.62" rx="12" ry="12"/></g></svg>