<?xml version="1.0" encoding="UTF-8"?><svg id="Layer_2" xmlns="http://www.w3.org/2000/svg" viewBox="0 0 191.44 99.62"><defs><style>.cls-1,.cls-2{fill:#cb6e6c;}.cls-3{fill:#6fcacc;}.cls-4{fill:#71b6cc;}.cls-2{stroke-linecap:round;stroke-linejoin:round;}.cls-2,.cls-5{stroke:#cb6e6c;stroke-width:2px;}.cls-5{fill:none;stroke-miterlimit:10;}</style></defs><g id="water"><rect class="cls-3" x="1" y="58.55" width="189.37" height="21.22"/><rect class="cls-4" x=".77" y="44.42" width="74.89" height="14.13"/></g><g id="section"><path class="cls-1" d="M190.37,49.81v40.45c-.29,1.34-1.45,7.37-8.72,7.85H9.64c-7.95-1.2-8.17-6.36-8.72-8.72l-.15-3.41,.23-9.1,46.66-10.34,25.21-12.08,2.57-4.49,114.93-.16Z"/></g><g id="features"><polygon class="cls-2" points="129.69 31.76 115.12 20.25 100.55 31.76 98.94 32.83 98.94 49.96 131.3 49.96 131.3 32.83 129.69 31.76"/><rect class="cls-2" x="73.78" y="23.47" width="3.75" height="30.74"/><polygon class="cls-2" points="177.38 31.76 162.81 20.25 148.25 31.76 146.63 32.83 146.63 49.96 179 49.96 179 32.83 177.38 31.76"/></g><g id="frames"><rect class="cls-5" x="1" y="1" width="189.44" height="97.62" rx="12" ry="12"/></g></svg>