<?xml version="1.0" encoding="UTF-8"?><svg id="Layer_2" xmlns="http://www.w3.org/2000/svg" viewBox="0 0 191.44 99.62"><defs><style>.cls-1{fill:#cb6e6c;}.cls-2{fill:#6fcacc;}.cls-3{fill:#71b6cc;}.cls-4{fill:#fff;stroke-width:.5px;}.cls-4,.cls-5{stroke:#cb6e6c;stroke-miterlimit:10;}.cls-5{fill:none;stroke-width:2px;}</style></defs><g id="water"><rect class="cls-2" x="1" y="55.43" width="189.37" height="19.99"/><rect class="cls-3" x=".77" y="49.21" width="168.03" height="7.03"/></g><g id="section"><path class="cls-1" d="M190.37,44.73v45.53c-.29,1.34-1.45,7.37-8.72,7.85H9.64c-7.95-1.2-8.17-6.36-8.72-8.72l-.15-3.41,.36-14.18,63.11-5.99,11.2-.05,83.92-11.83,6.89-7.02,24.11-2.18Z"/></g><g id="features"><path class="cls-4" d="M102.19,62.07s-2.92,1.16-3.03-.5,.97-2.64,1.51-2.64,1.65,.41,2.16,.97c1.09,1.19-.65,2.16-.65,2.16Z"/><path class="cls-4" d="M106.14,59.95s.21,3.09-1.25,2.8-2-1.57-1.86-2.1,.8-1.49,1.42-1.85c1.31-.76,1.69,1.15,1.69,1.15Z"/><path class="cls-4" d="M110.07,58.44s2.36,1.42,.33,2.42-3.57,.77-3.74,.39-.01-1.39,.52-2.07c1.13-1.42,2.89-.74,2.89-.74Z"/><path class="cls-4" d="M114,60.48s-2.92,1.16-3.03-.5,.97-2.64,1.51-2.64,1.65,.41,2.16,.97c1.09,1.19-.65,2.16-.65,2.16Z"/><path class="cls-4" d="M115.82,60.07s-2.03,.14-1.51-1.16,1.46-1.76,1.76-1.62,.77,.73,.86,1.29c.19,1.18-1.12,1.48-1.12,1.48Z"/><path class="cls-4" d="M117.82,60.48s-2.41-1.33-.43-2.4,3.54-.91,3.72-.54,.07,1.39-.44,2.09c-1.07,1.47-2.85,.86-2.85,.86Z"/><path class="cls-4" d="M124.67,56.37s2.36,1.42,.33,2.42-3.57,.77-3.74,.39-.01-1.39,.52-2.07c1.13-1.42,2.89-.74,2.89-.74Z"/><path class="cls-4" d="M130.42,57.99s-2.03,.14-1.51-1.16,1.46-1.76,1.76-1.62,.77,.73,.86,1.29c.19,1.18-1.12,1.48-1.12,1.48Z"/><path class="cls-4" d="M132.43,58.4s-2.41-1.33-.43-2.4,3.54-.91,3.72-.54,.07,1.39-.44,2.09c-1.07,1.47-2.85,.86-2.85,.86Z"/><path class="cls-4" d="M136.55,57.21s-2.92,1.16-3.03-.5,.97-2.64,1.51-2.64,1.65,.41,2.16,.97c1.09,1.19-.65,2.16-.65,2.16Z"/><path class="cls-4" d="M140.49,55.09s.21,3.09-1.25,2.8-2-1.57-1.86-2.1,.8-1.49,1.42-1.85c1.31-.76,1.69,1.15,1.69,1.15Z"/><path class="cls-4" d="M144.43,53.58s2.36,1.42,.33,2.42-3.57,.77-3.74,.39-.01-1.39,.52-2.07c1.13-1.42,2.89-.74,2.89-.74Z"/><path class="cls-4" d="M148.35,55.62s-2.92,1.16-3.03-.5,.97-2.64,1.51-2.64,1.65,.41,2.16,.97c1.09,1.19-.65,2.16-.65,2.16Z"/><path class="cls-4" d="M150.17,55.21s-2.03,.14-1.51-1.16,1.46-1.76,1.76-1.62,.77,.73,.86,1.29c.19,1.18-1.12,1.48-1.12,1.48Z"/><path class="cls-4" d="M152.18,55.62s-2.41-1.33-.43-2.4,3.54-.91,3.72-.54,.07,1.39-.44,2.09c-1.07,1.47-2.85,.86-2.85,.86Z"/><path class="cls-4" d="M159.03,51.51s2.36,1.42,.33,2.42-3.57,.77-3.74,.39-.01-1.39,.52-2.07c1.13-1.42,2.89-.74,2.89-.74Z"/><path class="cls-4" d="M128.6,58.4s-2.92,1.16-3.03-.5,.97-2.64,1.51-2.64,1.65,.41,2.16,.97c1.09,1.19-.65,2.16-.65,2.16Z"/><path class="cls-4" d="M61.38,67.8s-2.92,1.16-3.03-.5,.97-2.64,1.51-2.64,1.65,.41,2.16,.97c1.09,1.19-.65,2.16-.65,2.16Z"/><path class="cls-4" d="M65.33,65.68s.21,3.09-1.25,2.8-2-1.57-1.86-2.1,.8-1.49,1.42-1.85c1.31-.76,1.69,1.15,1.69,1.15Z"/><path class="cls-4" d="M69.26,64.18s2.36,1.42,.33,2.42-3.57,.77-3.74,.39-.01-1.39,.52-2.07c1.13-1.42,2.89-.74,2.89-.74Z"/><path class="cls-4" d="M73.19,66.21s-2.92,1.16-3.03-.5,.97-2.64,1.51-2.64,1.65,.41,2.16,.97c1.09,1.19-.65,2.16-.65,2.16Z"/><path class="cls-4" d="M75.01,65.8s-2.03,.14-1.51-1.16,1.46-1.76,1.76-1.62,.77,.73,.86,1.29c.19,1.18-1.12,1.48-1.12,1.48Z"/><path class="cls-4" d="M77.02,66.21s-2.41-1.33-.43-2.4,3.54-.91,3.72-.54,.07,1.39-.44,2.09c-1.07,1.47-2.85,.86-2.85,.86Z"/><path class="cls-4" d="M83.87,62.1s2.36,1.42,.33,2.42-3.57,.77-3.74,.39-.01-1.39,.52-2.07c1.13-1.42,2.89-.74,2.89-.74Z"/><path class="cls-4" d="M89.61,63.73s-2.03,.14-1.51-1.16,1.46-1.76,1.76-1.62,.77,.73,.86,1.29c.19,1.18-1.12,1.48-1.12,1.48Z"/><path class="cls-4" d="M91.62,64.14s-2.41-1.33-.43-2.4,3.54-.91,3.72-.54,.07,1.39-.44,2.09c-1.07,1.47-2.85,.86-2.85,.86Z"/><path class="cls-4" d="M95.74,62.94s-2.92,1.16-3.03-.5,.97-2.64,1.51-2.64,1.65,.41,2.16,.97c1.09,1.19-.65,2.16-.65,2.16Z"/><path class="cls-4" d="M99.68,60.82s.21,3.09-1.25,2.8-2-1.57-1.86-2.1,.8-1.49,1.42-1.85c1.31-.76,1.69,1.15,1.69,1.15Z"/><path class="cls-4" d="M87.8,64.13s-2.92,1.16-3.03-.5,.97-2.64,1.51-2.64,1.65,.41,2.16,.97c1.09,1.19-.65,2.16-.65,2.16Z"/><path class="cls-4" d="M68.73,64.57s-2.92,1.17-3.03-.49,.97-2.64,1.51-2.64,1.65,.41,2.17,.97c1.09,1.18-.64,2.17-.64,2.17Z"/><path class="cls-4" d="M72.67,62.44s.22,3.09-1.24,2.8-2.01-1.57-1.86-2.09,.79-1.49,1.42-1.85c1.31-.76,1.69,1.14,1.69,1.14Z"/><path class="cls-4" d="M76.6,60.92s2.36,1.42,.34,2.42c-2.02,1-3.57,.78-3.74,.4s-.01-1.39,.52-2.07c1.12-1.43,2.88-.75,2.88-.75Z"/><path class="cls-4" d="M80.53,62.94s-2.92,1.17-3.03-.49,.97-2.64,1.51-2.64,1.65,.41,2.17,.97c1.09,1.18-.64,2.17-.64,2.17Z"/><path class="cls-4" d="M82.35,62.53s-2.03,.14-1.51-1.15,1.46-1.76,1.76-1.62,.77,.73,.87,1.29c.19,1.18-1.11,1.48-1.11,1.48Z"/><path class="cls-4" d="M84.36,62.93s-2.42-1.32-.44-2.4,3.53-.92,3.72-.55,.07,1.39-.43,2.09c-1.06,1.47-2.85,.86-2.85,.86Z"/><path class="cls-4" d="M91.2,58.8s2.36,1.42,.34,2.42-3.57,.78-3.74,.4-.01-1.39,.52-2.07c1.12-1.43,2.88-.75,2.88-.75Z"/><path class="cls-4" d="M96.95,60.41s-2.03,.14-1.51-1.15,1.46-1.76,1.76-1.62,.77,.73,.87,1.29c.19,1.18-1.11,1.48-1.11,1.48Z"/><path class="cls-4" d="M98.96,60.82s-2.42-1.32-.44-2.4,3.53-.92,3.72-.55,.07,1.39-.43,2.09c-1.06,1.47-2.85,.86-2.85,.86Z"/><path class="cls-4" d="M103.07,59.61s-2.92,1.17-3.03-.49,.97-2.64,1.51-2.64,1.65,.41,2.17,.97c1.09,1.18-.64,2.17-.64,2.17Z"/><path class="cls-4" d="M107.01,57.48s.22,3.09-1.24,2.8-2.01-1.57-1.86-2.09,.79-1.49,1.42-1.85c1.31-.76,1.69,1.14,1.69,1.14Z"/><path class="cls-4" d="M95.13,60.82s-2.92,1.17-3.03-.49,.97-2.64,1.51-2.64,1.65,.41,2.17,.97c1.09,1.18-.64,2.17-.64,2.17Z"/><path class="cls-4" d="M109.73,58.44s-2.92,1.16-3.03-.5,.97-2.64,1.51-2.64,1.65,.41,2.16,.97c1.09,1.19-.65,2.16-.65,2.16Z"/><path class="cls-4" d="M113.67,56.32s.21,3.09-1.25,2.8-2-1.57-1.86-2.1,.8-1.49,1.42-1.85c1.31-.76,1.69,1.15,1.69,1.15Z"/><path class="cls-4" d="M117.61,54.82s2.36,1.42,.33,2.42-3.57,.77-3.74,.39-.01-1.39,.52-2.07c1.13-1.42,2.89-.74,2.89-.74Z"/><path class="cls-4" d="M121.53,56.85s-2.92,1.16-3.03-.5,.97-2.64,1.51-2.64,1.65,.41,2.16,.97c1.09,1.19-.65,2.16-.65,2.16Z"/><path class="cls-4" d="M123.35,56.44s-2.03,.14-1.51-1.16,1.46-1.76,1.76-1.62,.77,.73,.86,1.29c.19,1.18-1.12,1.48-1.12,1.48Z"/><path class="cls-4" d="M125.36,56.85s-2.41-1.33-.43-2.4,3.54-.91,3.72-.54,.07,1.39-.44,2.09c-1.07,1.47-2.85,.86-2.85,.86Z"/><path class="cls-4" d="M132.21,52.74s2.36,1.42,.33,2.42-3.57,.77-3.74,.39-.01-1.39,.52-2.07c1.13-1.42,2.89-.74,2.89-.74Z"/><path class="cls-4" d="M137.96,54.37s-2.03,.14-1.51-1.16,1.46-1.76,1.76-1.62,.77,.73,.86,1.29c.19,1.18-1.12,1.48-1.12,1.48Z"/><path class="cls-4" d="M139.96,54.78s-2.41-1.33-.43-2.4,3.54-.91,3.72-.54,.07,1.39-.44,2.09c-1.07,1.47-2.85,.86-2.85,.86Z"/><path class="cls-4" d="M144.85,53.01s-2.92,1.16-3.03-.5,.97-2.64,1.51-2.64,1.65,.41,2.16,.97c1.09,1.19-.65,2.16-.65,2.16Z"/><path class="cls-4" d="M148.03,51.46s.21,3.09-1.25,2.8-2-1.57-1.86-2.1,.8-1.49,1.42-1.85c1.31-.76,1.69,1.15,1.69,1.15Z"/><path class="cls-4" d="M137.57,53.76s-2.92,1.16-3.03-.5,.97-2.64,1.51-2.64,1.65,.41,2.16,.97c1.09,1.19-.65,2.16-.65,2.16Z"/><path class="cls-4" d="M74.46,61.05s-2.92,1.16-3.03-.5,.97-2.64,1.51-2.64,1.65,.41,2.16,.97c1.09,1.19-.65,2.16-.65,2.16Z"/><path class="cls-4" d="M78.4,58.94s.21,3.09-1.25,2.8-2-1.57-1.86-2.1,.8-1.49,1.42-1.85c1.31-.76,1.69,1.15,1.69,1.15Z"/><path class="cls-4" d="M82.34,57.43s2.36,1.42,.33,2.42-3.57,.77-3.74,.39-.01-1.39,.52-2.07c1.13-1.42,2.89-.74,2.89-.74Z"/><path class="cls-4" d="M86.26,59.46s-2.92,1.16-3.03-.5,.97-2.64,1.51-2.64,1.65,.41,2.16,.97c1.09,1.19-.65,2.16-.65,2.16Z"/><path class="cls-4" d="M88.08,59.06s-2.03,.14-1.51-1.16,1.46-1.76,1.76-1.62,.77,.73,.86,1.29c.19,1.18-1.12,1.48-1.12,1.48Z"/><path class="cls-4" d="M90.09,59.47s-2.41-1.33-.43-2.4,3.54-.91,3.72-.54,.07,1.39-.44,2.09c-1.07,1.47-2.85,.86-2.85,.86Z"/><path class="cls-4" d="M96.94,55.36s2.36,1.42,.33,2.42-3.57,.77-3.74,.39-.01-1.39,.52-2.07c1.13-1.42,2.89-.74,2.89-.74Z"/><path class="cls-4" d="M102.69,56.98s-2.03,.14-1.51-1.16,1.46-1.76,1.76-1.62,.77,.73,.86,1.29c.19,1.18-1.12,1.48-1.12,1.48Z"/><path class="cls-4" d="M104.69,57.39s-2.41-1.33-.43-2.4,3.54-.91,3.72-.54,.07,1.39-.44,2.09c-1.07,1.47-2.85,.86-2.85,.86Z"/><path class="cls-4" d="M108.81,56.2s-2.92,1.16-3.03-.5,.97-2.64,1.51-2.64,1.65,.41,2.16,.97c1.09,1.19-.65,2.16-.65,2.16Z"/><path class="cls-4" d="M112.76,54.08s.21,3.09-1.25,2.8-2-1.57-1.86-2.1,.8-1.49,1.42-1.85c1.31-.76,1.69,1.15,1.69,1.15Z"/><path class="cls-4" d="M100.87,57.39s-2.92,1.16-3.03-.5,.97-2.64,1.51-2.64,1.65,.41,2.16,.97c1.09,1.19-.65,2.16-.65,2.16Z"/><path class="cls-4" d="M115.39,54.79s-2.99,.96-2.99-.71,1.15-2.56,1.69-2.53,1.62,.52,2.09,1.12c1.01,1.26-.79,2.12-.79,2.12Z"/><path class="cls-4" d="M119.47,52.95s0,3.1-1.44,2.7-1.89-1.71-1.71-2.22,.9-1.43,1.54-1.75c1.36-.67,1.61,1.26,1.61,1.26Z"/><path class="cls-4" d="M123.49,51.71s2.25,1.58,.17,2.44-3.62,.52-3.76,.13,.08-1.39,.66-2.03c1.22-1.34,2.93-.54,2.93-.54Z"/><path class="cls-4" d="M127.27,54s-2.99,.96-2.99-.71,1.15-2.56,1.69-2.53,1.62,.52,2.09,1.12c1.01,1.26-.79,2.12-.79,2.12Z"/><path class="cls-4" d="M129.12,53.72s-2.03,0-1.43-1.26,1.58-1.65,1.87-1.5,.72,.78,.77,1.35c.11,1.19-1.22,1.4-1.22,1.4Z"/><path class="cls-4" d="M131.09,54.27s-2.32-1.49-.27-2.43,3.59-.67,3.75-.29-.03,1.39-.58,2.05c-1.16,1.39-2.9,.66-2.9,.66Z"/><path class="cls-4" d="M151.7,50.01s2.16,1.71,.03,2.44-3.64,.32-3.76-.08,.16-1.38,.78-1.99c1.29-1.27,2.95-.37,2.95-.37Z"/><path class="cls-4" d="M157.21,52.34s-2.03-.12-1.35-1.34,1.67-1.56,1.95-1.39,.67,.82,.69,1.39c.04,1.2-1.29,1.33-1.29,1.33Z"/><path class="cls-4" d="M159.14,53s-2.23-1.62-.13-2.44,3.62-.47,3.76-.07-.11,1.39-.7,2.02c-1.24,1.33-2.94,.49-2.94,.49Z"/><path class="cls-4" d="M155.35,52.51s-3.04,.79-2.94-.88,1.29-2.49,1.83-2.43,1.58,.61,2.03,1.24c.93,1.31-.91,2.07-.91,2.07Z"/></g><g id="text"><rect class="cls-5" x="1" y="1" width="189.44" height="97.62" rx="12" ry="12"/></g></svg>