<?xml version="1.0" encoding="UTF-8"?><svg id="Layer_2" xmlns="http://www.w3.org/2000/svg" viewBox="0 0 191.44 99.62"><defs><style>.cls-1{font-family:Arial-Black, 'Arial Black';font-size:14px;}.cls-1,.cls-2{fill:#f6c242;}.cls-3{fill:#49a0b5;}.cls-4{fill:#6fcacc;}.cls-5{fill:#71b6cc;}.cls-6{stroke:#f6c242;stroke-dasharray:0 0 5 2;}.cls-6,.cls-7,.cls-8{stroke-width:2px;}.cls-6,.cls-8{fill:none;stroke-miterlimit:10;}.cls-7{fill:#cb6e6c;stroke:#cb6e6c;stroke-linecap:round;stroke-linejoin:round;}.cls-8{stroke:#49a0b5;}</style></defs><g id="water"><rect class="cls-4" x="1" y="63.85" width="119.26" height="10.85"/><rect class="cls-5" x=".92" y="58.97" width="154.42" height="4.88"/></g><g id="section"><path class="cls-3" d="M190.52,55.64h-48.46l-23.72,7.07-56.31,.63-7.58,1.93-17.91,5.14L1,74.7l-.08,11.79,.15,3.41c.55,2.36,.77,7.52,8.72,8.72H181.8c7.27-.48,8.43-6.51,8.72-7.85V55.64Z"/></g><g id="features"><line class="cls-6" x1="54.45" y1="98.62" x2="54.45" y2="43.31"/><line class="cls-6" x1="134.26" y1="98.62" x2="134.26" y2="45.84"/><text class="cls-1" transform="translate(84.46 43.31)"><tspan x="0" y="0">$$</tspan></text><g><path class="cls-2" d="M90.19,51.37c-.3-.02-.5-.04-.7-.04-.89,0-1.78,.03-2.66-.02-.58-.04-1.15-.2-1.71-.32-.09-.02-.18-.15-.23-.24-.36-.63-.94-.95-1.6-.86-.68,.09-1.04,.53-1.22,1.16-.72,2.66-1.45,5.33-2.17,7.99-.34,1.25,.59,2.19,1.86,1.9,.15-.03,.33-.03,.48,0,.73,.17,1.37,.46,1.81,1.12,.31,.46,.71,.85,1.07,1.27,.07,.08,.16,.15,.25,.23,.51-1.11,.91-1.39,1.86-1.35,1.15,.05,1.65,.76,1.77,1.83,.67-.31,1.24-.17,1.78,.21,.61,.42,.7,1,.52,1.69,.12,0,.19,.01,.27,.01,.87,0,1.24,.29,1.36,1.17,.1,.73,.12,1.47,.21,2.2,.02,.16,.14,.36,.27,.43,.62,.34,1.26,.64,1.89,.96,.49,.25,.98,.22,1.41-.07,.36-.24,.66-.59,1.02-.91l-2.96-1.72,.27-.39c.98,.56,1.91,1.09,2.85,1.63,.65,.37,1.33,.35,2.01,.13,.56-.18,1.06-.9,1.08-1.38l-4.01-3.14c.09-.12,.13-.19,.18-.24,.05-.05,.11-.09,.18-.13,.13,.11,.25,.21,.37,.3,1.17,.89,2.3,1.85,3.53,2.65,1.15,.75,2.62-.06,2.78-1.44,.02-.13-.05-.32-.15-.42-1.58-1.55-3.17-3.08-4.76-4.62-.07-.07-.13-.15-.2-.25l.32-.3c.07,.06,.13,.11,.18,.16,1.5,1.46,2.99,2.92,4.49,4.38,.55,.54,1.09,.68,1.76,.31,1.82-.98,2.13-1.95,.52-3.35-2.6-2.26-5.32-4.38-7.89-6.66-1.1-.97-2.2-1.55-3.66-1.3-.04,0-.09,0-.14,0-.41-.05-.74,.06-1.04,.38-.31,.32-.69,.58-1.06,.83-1.06,.69-2.2,1.1-3.49,1-.56-.05-1.03-.26-1.24-.82-.21-.55-.15-1.05,.32-1.48,.27-.24,.49-.53,.73-.8,.49-.54,.98-1.08,1.53-1.69Z"/><path class="cls-2" d="M108.45,61.4c.03,.33,.04,.55,.07,.77,.13,.75,.74,1.21,1.52,1.17,.78-.04,1.37-.58,1.37-1.34,.02-2.9,.02-5.8,0-8.71,0-.75-.53-1.26-1.27-1.33-.86-.08-1.4,.31-1.66,1.12-1.71,0-3.39,0-5.08,0-.15,0-.31-.1-.44-.19-.93-.62-1.86-1.22-2.76-1.87-1.18-.85-2.49-1.22-3.93-1.2-.99,.01-1.99,.03-2.98,0-.71-.03-1.25,.25-1.71,.75-1.13,1.23-2.25,2.46-3.37,3.7-.44,.49-.27,1.18,.38,1.33,.4,.09,.84,.1,1.25,.04,1.34-.21,2.45-.88,3.39-1.83,.27-.27,.53-.38,.9-.37,.74,.02,1.47-.02,2.21,.02,.26,.01,.56,.11,.76,.27,1.48,1.21,2.94,2.44,4.4,3.66,1.93,1.62,3.86,3.24,5.83,4.89l1.1-.88Z"/><path class="cls-2" d="M87.14,62.71c-.74,0-.97,.16-1.24,.85-.27,.7-.52,1.4-.8,2.1-.54,1.33,.65,2.27,1.74,2.14,.14-.02,.33-.15,.4-.28,.31-.63,.62-1.27,.85-1.93,.18-.52,.32-1.07,.34-1.61,.04-.82-.47-1.26-1.29-1.27Z"/><path class="cls-2" d="M90.87,65.47c.02-.7-.84-1.29-1.44-1.05-.23,.09-.49,.28-.58,.5-.39,.86-.71,1.75-1.07,2.62-.15,.37,0,.85,.39,1.19,.36,.31,1.12,.47,1.39,.29,.07-.05,.14-.12,.18-.2,.56-1.09,.96-2.23,1.13-3.34Z"/><path class="cls-2" d="M92.59,68.92h.04c-.08-.66-.15-1.32-.25-1.97-.06-.36-.32-.52-.68-.53-.36,0-.56,.1-.67,.49-.19,.64-.42,1.29-.73,1.88-.23,.45-.13,.8,.22,1.01,.42,.26,.92,.42,1.4,.57,.37,.11,.62-.11,.67-.47,.04-.32,0-.66,0-.98Z"/><path class="cls-2" d="M90.19,51.37c-.55,.61-1.04,1.15-1.53,1.69-.24,.27-.46,.56-.73,.8-.47,.42-.52,.93-.32,1.48,.21,.55,.68,.77,1.24,.82,1.29,.1,2.43-.31,3.49-1,.38-.25,.76-.51,1.06-.83,.3-.32,.63-.42,1.04-.38,.04,0,.09,0,.14,0,1.46-.25,2.56,.33,3.66,1.3,2.58,2.28,5.29,4.4,7.89,6.66,1.61,1.4,1.31,2.37-.52,3.35-.68,.36-1.21,.22-1.76-.31-1.5-1.46-2.99-2.92-4.49-4.38-.05-.05-.11-.09-.18-.16l-.32,.3c.08,.09,.13,.18,.2,.25,1.59,1.54,3.18,3.07,4.76,4.62,.1,.1,.17,.28,.15,.42-.16,1.38-1.63,2.19-2.78,1.44-1.23-.81-2.36-1.76-3.53-2.65-.12-.09-.23-.19-.37-.3-.06,.05-.13,.08-.18,.13-.05,.05-.09,.11-.18,.24l4.01,3.14c-.02,.48-.52,1.2-1.08,1.38-.68,.22-1.36,.24-2.01-.13-.94-.54-1.88-1.07-2.85-1.63l-.27,.39,2.96,1.72c-.36,.33-.66,.67-1.02,.91-.43,.29-.93,.32-1.41,.07-.63-.32-1.27-.62-1.89-.96-.13-.07-.25-.28-.27-.43-.09-.73-.11-1.47-.21-2.2-.12-.87-.48-1.16-1.36-1.17-.07,0-.14,0-.27-.01,.18-.68,.09-1.27-.52-1.69-.55-.38-1.11-.52-1.78-.21-.12-1.07-.61-1.79-1.77-1.83-.95-.04-1.34,.24-1.86,1.35-.09-.08-.18-.15-.25-.23-.36-.42-.77-.81-1.07-1.27-.44-.67-1.08-.96-1.81-1.12-.15-.03-.33-.04-.48,0-1.27,.29-2.19-.64-1.86-1.9,.72-2.67,1.45-5.33,2.17-7.99,.17-.64,.53-1.07,1.22-1.16,.67-.09,1.24,.24,1.6,.86,.05,.1,.14,.22,.23,.24,.57,.13,1.14,.29,1.71,.32,.88,.06,1.77,.02,2.66,.02,.2,0,.41,.02,.7,.04Z"/><path class="cls-2" d="M108.45,61.4l-1.1,.88c-1.96-1.65-3.9-3.27-5.83-4.89-1.46-1.23-2.92-2.46-4.4-3.66-.2-.16-.5-.26-.76-.27-.74-.04-1.47,0-2.21-.02-.37-.01-.64,.09-.9,.37-.94,.95-2.06,1.62-3.39,1.83-.41,.06-.85,.05-1.25-.04-.65-.15-.82-.84-.38-1.33,1.12-1.24,2.25-2.47,3.37-3.7,.46-.5,1-.77,1.71-.75,.99,.04,1.98,.02,2.98,0,1.44-.02,2.75,.35,3.93,1.2,.9,.65,1.84,1.25,2.76,1.87,.13,.09,.29,.19,.44,.19,1.68,.01,3.37,0,5.08,0,.26-.81,.8-1.2,1.66-1.12,.74,.07,1.27,.58,1.27,1.33,.01,2.9,.02,5.8,0,8.71,0,.76-.6,1.3-1.37,1.34-.79,.04-1.4-.42-1.52-1.17-.04-.22-.04-.44-.07-.77Z"/><path class="cls-2" d="M87.14,62.71c.82,0,1.33,.45,1.29,1.27-.02,.54-.16,1.1-.34,1.61-.23,.66-.54,1.3-.85,1.93-.06,.13-.25,.27-.4,.28-1.09,.13-2.28-.81-1.74-2.14,.28-.69,.54-1.4,.8-2.1,.26-.7,.49-.86,1.24-.85Z"/><path class="cls-2" d="M90.87,65.47c-.17,1.11-.56,2.25-1.13,3.34-.04,.08-.1,.15-.18,.2-.27,.18-1.03,.02-1.39-.29-.39-.33-.54-.81-.39-1.19,.35-.88,.68-1.76,1.07-2.62,.1-.21,.36-.4,.58-.5,.6-.24,1.46,.35,1.44,1.05Z"/><path class="cls-2" d="M92.59,68.92c0,.33,.03,.66,0,.98-.05,.37-.29,.59-.67,.47-.48-.15-.97-.31-1.4-.57-.35-.21-.45-.56-.22-1.01,.31-.6,.54-1.24,.73-1.88,.11-.39,.32-.5,.67-.49,.36,0,.63,.16,.68,.53,.1,.65,.17,1.31,.25,1.96h-.04Z"/></g></g><g id="text"><polygon class="cls-7" points="173.22 46.33 165.46 40.2 157.7 46.33 156.84 46.9 156.84 56.03 174.08 56.03 174.08 46.9 173.22 46.33"/><rect class="cls-8" x="1" y="1" width="189.44" height="97.62" rx="12" ry="12"/></g></svg>