<?xml version="1.0" encoding="UTF-8"?><svg id="Layer_2" xmlns="http://www.w3.org/2000/svg" viewBox="0 0 191.44 99.62"><defs><style>.cls-1{fill:#f6c242;}.cls-2{fill:#49a0b5;}.cls-3{fill:#6fcacc;}.cls-4{fill:#5e8b83;}.cls-5{fill:#71b6cc;}.cls-6{stroke:#cb6e6c;}.cls-6,.cls-7{fill:none;stroke-miterlimit:10;stroke-width:2px;}.cls-7{stroke:#49a0b5;}</style></defs><g id="water"><rect class="cls-3" x="1" y="62.62" width="135.7" height="10.85"/><rect class="cls-5" x=".92" y="57.73" width="154.42" height="4.88"/></g><g id="transition_layer"><g><path class="cls-4" d="M72.35,62.06v.04l.03-.05h-.03Z"/><path class="cls-4" d="M189.84,55.71v-2.15h-.09l-.04,.25h-.08c-.02-.28-.04-.57-.07-.91-.05,.23-.09,.42-.14,.61h-.07v-.45h-.08l-.02,.17-.12-.2c.02,.11,.03,.18,.05,.24,.03,.11,.09,.23-.15,.25-.04,0-.07,.08-.1,.13-.21-.14-.17-.32-.15-.5l-.08,.19c-.43-.17,0-.37-.07-.57-.04,.06-.08,.1-.11,.15-.04,.05-.07,.11-.11,.18l-.15-.12v.36q-.21-.12-.18-.42c-.1,.18-.2,.36-.3,.54h-.08c-.07-.31-.15-.64-.23-1-.04,.23-.07,.42-.1,.61l.11-.15c.1,.28,.13,.5-.2,.7,.02-.16,.03-.28,.04-.4l-.08,.14c-.3-.18-.06-.36-.01-.57l-.2,.23c-.13-.21-.24-.4-.34-.55-.02,.27,.21,.59-.08,.91-.05-.07-.09-.13-.13-.18-.02-.02-.02-.07-.04-.07-.29-.02-.12-.17-.12-.28-.02,0-.04,.01-.05,.02-.02,.01-.03,.03-.06,.05-.08-.15-.15-.29-.21-.42,.14,.35,.2,.68-.11,1.03-.1-.16-.2-.32-.31-.48-.03,.09-.05,.17-.07,.25l-.19,.12c-.04-.05-.09-.11-.12-.17-.07-.14-.12-.29-.22-.44,.19,.27-.07,.43-.24,.61-.43-.23-.1-.52-.11-.78-.09,.24-.18,.47-.28,.71h-.04l-.11-.43c.05,.31-.15,.53-.4,.79-.07-.29,.17-.49,.19-.72-.07,.09-.14,.19-.22,.29-.1-.17-.19-.33-.28-.49h-.04c.04,.12,.09,.22,.12,.33,.03,.11,.04,.22,.06,.32l-.07,.02c-.08-.12-.17-.23-.25-.34-.07,.19,.05,.43-.1,.62h-.09c-.07-.31-.14-.61-.22-.92h-.07l-.02,.09c.2,.21,.07,.42,0,.63-.21-.02-.25-.1-.19-.23,.06-.12,.1-.24,.15-.35-.08,.1-.16,.2-.25,.31l-.17-.1c.04,.11,.07,.21,.1,.3l-.06,.02-.12-.12c-.17,.02,.07,.28-.25,.24v.14h-.03s-.08-.08-.08-.12c.03-.17,.08-.34,.12-.52,.01-.06,.02-.12,.01-.17l-.21,.72h-.09l.06-.85-.15,.19c-.02-.13-.03-.21-.04-.3h-.04c-.02,.19-.05,.37-.07,.58l-.13-.03c0,.11,.02,.22,.03,.33h-.07l-.12-.18c.06,.33,.11,.66-.06,.97h-.07l-.29-1.57h-.09c.03,.14,.09,.26,.1,.39,0,.07-.02,.16-.07,.23-.07,.09-.16,.08-.23-.01-.09-.13-.18-.26-.27-.39-.01-.02-.02-.04-.04-.05-.18-.09-.18-.09-.15-.19-.09-.1-.16-.17-.22-.24,.19,.29-.02,.53-.16,.85-.06-.09-.09-.15-.12-.2l-.06,.04c.05,.07,.11,.14,.13,.21,.02,.07-.01,.15-.06,.23l-.24-.33c.07,.25,.12,.47,.18,.68h-.07c-.44-.38-.34-.93-.67-1.37,0,.31,.39,.62-.03,.91-.16-.19-.33-.38-.48-.57v.53h-.08c-.05-.21-.1-.44-.16-.66h-.03c.05,.31,.09,.62,.14,.93l-.22,.05-.17-.25c-.11,.24-.2,.44-.31,.68-.11-.2-.06-.38-.03-.55,.02-.18,.05-.35,.05-.53-.04,.12-.07,.25-.11,.37h-.06v-.42h-.08c0,.07,0,.15,0,.22,0,.09-.01,.15-.15,.19-.08,.02-.15,.09-.24,.15-.21-.13-.11-.32-.11-.5l-.07,.16c-.24-.04-.26-.06-.19-.22,.04-.11,.1-.21,.1-.33-.07,.1-.14,.2-.24,.35l-.11-.18c.02,.17,.04,.28,.06,.4l-.07,.02-.14-.09c.03,.13,.05,.26,.08,.39l-.1,.02c-.05-.09-.1-.17-.18-.3v.18c-.19-.01-.26-.08-.27-.23-.03-.28-.1-.55-.2-.83,0,.14-.02,.28-.03,.43,.03,0,.07,0,.08,.02,.14,.21,.06,.49-.22,.67,.02-.15,.03-.28,.05-.4l-.08,.14q-.15-.13-.02-.58c-.09,.11-.14,.18-.2,.26-.28-.09-.18-.31-.31-.49,.02,.22,.04,.4,.04,.58,0,.04-.07,.09-.08,.13,0,.05,.02,.1,.03,.15,.02,.09,.03,.18,.05,.26h-.06l-.17-.26h-.03c.03,.16,.07,.31,.07,.46,0,.14-.05,.28-.08,.42h-.14c-.03-.19-.07-.37-.08-.56-.01-.25,.02-.51,0-.76,0-.05-.1-.1-.19-.19,.12,.31,.05,.58-.13,.87-.12-.22-.22-.42-.35-.65-.07,.19-.04,.38-.29,.41-.11,.32-.22,.62-.32,.92h-.06c-.05-.06-.1-.13-.14-.2-.09-.17-.22-.3,.04-.49,.17-.12,.17-.37,.28-.61-.16,.19-.29,.33-.41,.48-.11,.14-.11,.14-.35,.13,.12-.34,.23-.69,.35-1.03h-.03c-.19,.48-.38,.96-.57,1.44l-.12-.02,.16-.62h-.03c-.08,.07-.16,.15-.26,.26-.09-.27,.16-.45,.2-.7l-.24,.29c-.1-.19-.19-.37-.28-.54h-.03c.07,.25,.14,.48,.23,.77l-.18-.09,.06,.34-.11,.02c-.03-.1-.07-.2-.09-.31-.02-.1,0-.21,0-.32h-.09v1.11c-.27-.14-.16-.32-.19-.49-.05-.28-.07-.57-.15-.85-.03,.26,.21,.55-.18,.77-.11-.17-.22-.34-.32-.5h-.04l.1,.27-.05,.03-.15-.1c-.15,.26-.31,.55-.47,.83h-.05l.23-.87h-.04c-.09,.25-.17,.51-.27,.79-.21-.5,.02-.93,.16-1.37-.05,.09-.11,.17-.15,.26-.05,.09-.09,.19-.15,.29l-.16-.07c.02,.11,.05,.24,.08,.37h-.09l-.16-.21c.04,.32,.13,.63-.05,.94h-.08c-.04-.22-.11-.46-.12-.69-.02-.36-.11-.7-.34-1.07,.07,.23,.15,.42,.19,.61,.02,.07-.02,.15-.06,.21-.08,.1-.17,.09-.24-.01-.09-.14-.18-.28-.27-.41-.01-.02-.03-.04-.05-.04-.22-.02-.16-.13-.14-.18-.09-.09-.15-.16-.26-.27,.22,.33,.03,.57-.1,.85l-.25-.18c.12,.18,.3,.31,.12,.5l-.24-.34c.06,.25,.12,.47,.18,.69h-.07c-.44-.39-.35-.94-.69-1.37,.06,.16,.1,.32,.17,.48,.08,.19-.03,.31-.18,.43-.16-.2-.32-.39-.47-.57l-.03,.02c.03,.11,.07,.22,.1,.34h0l-.1,.15h-.05l-.16-.63h-.02c.05,.31,.09,.63,.14,.93l-.22,.06-.17-.25-.29,.62h-.06c-.09-.35,.07-.68,.05-1.02-.03,.12-.07,.24-.1,.36h-.07v-.45h-.08c0,.08,0,.16,0,.23,.01,.11,0,.18-.17,.21-.08,.02-.15,.09-.23,.15-.2-.14-.1-.33-.08-.56l-.09,.21c-.24-.02-.26-.05-.2-.2,.04-.11,.1-.21,.12-.32-.09,.1-.18,.19-.26,.29l-.06-.03v.32l-.19-.12,.1,.4-.1,.02c-.06-.09-.12-.18-.19-.3v.18c-.19-.02-.25-.08-.27-.23-.03-.28-.1-.55-.19-.83-.03,.19-.06,.38-.09,.57l.12-.15c.09,.28,.14,.5-.21,.71,.02-.16,.03-.28,.04-.41l-.08,.15c-.29-.19-.06-.37-.05-.55l-.18,.22c-.28-.1-.19-.32-.31-.48,.01,.14,.05,.29,.04,.43,0,.09,.11,.22-.09,.28,0,0,.04,.07,.05,.11,.02,.1,.03,.19,.05,.29h-.06l-.13-.26-.06,.02c0,.28,.23,.58-.15,.86-.03-.18-.08-.35-.08-.53-.01-.26,.03-.52,0-.78-.01-.1-.13-.2-.24-.35,.16,.38,.12,.7-.08,1.03-.12-.22-.23-.42-.35-.65-.03,.11-.06,.19-.08,.26l-.22,.16c-.11,.3-.21,.6-.32,.9h-.08c-.05-.09-.08-.21-.17-.3-.09-.09-.12-.15-.05-.26,.15-.22,.29-.45,.43-.68l-.05-.02c-.12,.15-.26,.29-.37,.45-.08,.11-.17,.16-.35,.12,.12-.34,.23-.67,.35-1.01h-.03c-.19,.47-.38,.95-.56,1.43l-.1-.02c0-.29,.17-.57,.22-.84l-.34,.46c-.11-.28,.13-.49,.21-.77-.11,.14-.2,.25-.3,.38-.09-.18-.17-.34-.26-.51h-.03c.06,.22,.12,.43,.19,.67l-.16-.03c.01,.11,.03,.22,.05,.34h-.13c-.03-.19-.07-.4-.1-.6h-.05v1.1h-.12c-.02-.08-.06-.17-.07-.27-.04-.32-.08-.64-.12-.96,0-.04-.04-.07-.07-.14,0,.29,.27,.58-.14,.8-.11-.17-.22-.34-.33-.5h-.04c.03,.1,.07,.19,.1,.28l-.05,.03-.15-.1-.42,.7h-.06c.08-.31,.16-.61,.24-.91h-.04c-.1,.3-.2,.6-.31,.95-.22-.51,.02-.93,.15-1.37-.1,.18-.2,.36-.3,.55l-.15-.07c.02,.12,.04,.26,.07,.39h-.08l-.16-.24c.06,.33,.11,.65-.08,1.01-.29-.57-.06-1.19-.47-1.72,.05,.19,.11,.35,.14,.52,.01,.07-.03,.15-.08,.21-.07,.09-.17,.08-.23-.02-.09-.14-.18-.27-.27-.41-.01-.02-.03-.04-.05-.05-.25-.02-.14-.14-.17-.21l-.19-.2c.18,.28-.02,.53-.17,.83l-.13-.19-.06,.03c.08,.14,.24,.27,.08,.44-.08-.1-.15-.2-.24-.33,.07,.25,.12,.47,.18,.68h-.06c-.44-.38-.35-.93-.69-1.36,.06,.16,.1,.33,.17,.49,.08,.18-.05,.3-.17,.41-.17-.19-.33-.38-.49-.57l-.03,.02c.03,.11,.06,.23,.1,.34h0l-.1,.18h-.05c-.06-.22-.11-.44-.17-.66h-.02c.05,.31,.09,.62,.14,.95-.17-.02-.34,.01-.35-.2l-.07,.03c-.09,.2-.18,.4-.27,.6-.15-.36,.02-.7,0-1.06l-.1,.37h-.07c0-.09,0-.17,0-.26,0-.08-.02-.15-.03-.23h-.08c.01,.09,.03,.19,.04,.28,.02,.11-.02,.18-.18,.21-.08,.02-.13,.09-.21,.15-.21-.14-.13-.32-.12-.5-.01,.02-.01,.05-.03,.06-.05,.03-.11,.06-.16,.08-.03-.05-.09-.1-.08-.14,.04-.13,.1-.25,.12-.38-.07,.1-.14,.19-.21,.3l-.12-.07,.03,.34-.08,.02-.1-.14-.05,.02c.05,.11,.15,.21,.09,.33l-.23-.59-.07,.03,.08,.3-.06,.03c-.12-.27-.25-.54-.39-.84,0-.03-.01-.05-.02-.07v.03l-.07-.14,.05,.22-.05,.28-.1-.24-.07,.02,.06,.2-.19-.19c.04,.07,.07,.12,.1,.17-.04,.05-.07,.08-.1,.11-.03,.03-.05,.07-.11,.16-.05-.07-.08-.12-.12-.18h0s-.05-.07-.07-.1c-.05-.1-.08-.21-.12-.32,.02,.2,.08,.39,.05,.58v.03c-.22-.12-.05-.42-.18-.59,0,.08-.02,.14-.02,.21,0,.07,0,.15,0,.24l-.18-.09,.17,.42q-.23-.08-.34-.43c0,.24,0,.49,0,.73l-.06,.04c-.21-.35-.42-.7-.66-1.1,.08,.28,.14,.51,.21,.74l.02-.21c.21,.29,.34,.54,.16,.88l-.15-.48v.19c-.33-.11-.22-.4-.28-.66l-.06,.33c-.2-.2-.38-.38-.54-.53,.11,.32,.45,.61,.36,1.08-.07-.06-.13-.11-.2-.17-.02-.02-.05-.08-.06-.07-.25,.07-.18-.15-.23-.28-.01,.02-.02,.02-.03,.04,0,.02-.01,.04-.03,.08-.13-.15-.25-.28-.37-.42,.28,.35,.48,.73,.39,1.23l-.48-.46c.02,.12,.04,.21,.05,.31l-.1,.21c-.06-.05-.12-.09-.17-.15-.12-.15-.24-.3-.38-.44,.29,.25,.14,.52,.09,.79-.47-.13-.32-.57-.46-.87,.03,.3,.07,.61,.1,.91l-.03,.02c-.1-.16-.2-.31-.29-.47,.18,.34,.13,.67,.04,1.05-.19-.31-.09-.62-.17-.9l-.05,.41c-.16-.17-.31-.33-.46-.48l-.03,.03c.08,.11,.17,.22,.25,.33,.07,.11,.13,.24,.2,.36l-.05,.04c-.12-.11-.25-.21-.36-.31,.03,.25,.24,.48,.21,.76l-.07,.03c-.2-.33-.4-.66-.6-.99l-.06,.03,.02,.11c.27,.18,.26,.46,.3,.73-.19,.04-.25-.04-.26-.21,0-.15-.03-.31-.04-.46l-.07,.45-.19-.06,.22,.32-.04,.05-.16-.1c-.13,.08,.19,.3-.09,.36l.08,.16-.03,.03s-.11-.07-.12-.12c-.06-.21-.09-.43-.14-.64-.02-.07-.04-.14-.07-.21,.05,.3,.11,.6,.16,.9l-.08,.02c-.11-.33-.23-.66-.34-.99l-.03,.26-.17-.33h-.03c.07,.24,.14,.46,.21,.71h-.13l.17,.38-.06,.03-.19-.17c.2,.36,.4,.72,.4,1.15l-.05,.03c-.33-.58-.65-1.16-.98-1.74l-.07,.04c.09,.14,.19,.27,.26,.41,.04,.08,.06,.2,.04,.29-.02,.13-.1,.15-.2,.06-.14-.12-.27-.25-.41-.37-.02-.02-.04-.04-.06-.04-.19-.05-.2-.05-.21-.18l-.29-.2c.29,.27,.23,.63,.26,1.04l-.2-.2-.03,.07c.07,.07,.15,.12,.2,.2,.05,.08,.06,.17,.05,.28-.11-.09-.21-.18-.35-.3,.17,.27,.32,.5,.46,.74l-.05,.04c-.55-.32-.72-.99-1.2-1.39,.15,.36,.61,.59,.4,1.07l-.66-.5c.09,.22,.17,.41,.24,.61l-.07,.04c-.15-.24-.29-.48-.44-.72h-.03l.54,1.04-.16,.13-.26-.23c.02,.32,.04,.58,.06,.89-.19-.2-.22-.42-.28-.63-.06-.21-.12-.43-.21-.63,.03,.16,.06,.31,.09,.47l-.05,.02c-.06-.16-.13-.32-.19-.48l-.06,.02c.03,.09,.07,.17,.1,.26,.05,.1,.06,.18-.04,.27-.06,.05-.08,.15-.13,.25-.23-.08-.24-.33-.32-.54l.02,.21c-.22,.03-.24,.02-.26-.19-.01-.14-.02-.28-.07-.42-.01,.14-.02,.28-.03,.48-.06-.06-.1-.1-.18-.17l.24,.45-.05,.04-.16-.06,.25,.42-.07,.06-.29-.29,.08,.21c-.17,.05-.25,0-.33-.17-.15-.31-.34-.61-.55-.9l.18,.51s.06-.02,.08,0c.22,.2,.28,.55,.13,.85l-.15-.48v.19q-.19-.09-.28-.67l-.05,.37c-.27-.02-.3-.31-.48-.47,.11,.25,.21,.45,.3,.66,.02,.05-.02,.12,0,.18,.01,.06,.06,.11,.09,.16,.06,.1,.11,.19,.16,.29l-.05,.02-.26-.24-.02,.02c.09,.16,.2,.32,.27,.49,.06,.16,.09,.34,.13,.51l-.11,.04c-.11-.21-.23-.41-.33-.62-.13-.29-.22-.6-.35-.89-.03-.06-.13-.09-.24-.15,.24,.33,.31,.66,.29,1.05l-.59-.64c.03,.24,.14,.46-.05,.57,.06,.41,.11,.79,.16,1.18l-.05,.03c-.07-.07-.14-.13-.21-.2-.15-.16-.33-.28-.2-.58,.08-.19-.03-.48-.05-.8-.04,.27-.08,.48-.11,.69-.03,.19-.02,.2-.23,.27l-.19-1.31h-.03c.07,.63,.14,1.25,.21,1.88l-.11,.02-.16-.77h-.03c-.03,.12-.05,.24-.09,.4-.2-.28-.08-.58-.16-.88-.03,.16-.04,.28-.07,.42-.17-.19-.33-.37-.48-.54l-.02,.02c.17,.25,.34,.5,.55,.81l-.19-.04,.21,.38-.09,.06c-.07-.11-.16-.21-.22-.33-.06-.12-.1-.24-.15-.37l-.08,.03c.17,.43,.34,.86,.52,1.29-.29-.07-.28-.32-.38-.5-.17-.31-.33-.64-.52-.94,.1,.31,.43,.57,.21,.95-.17-.16-.33-.32-.5-.48l-.03,.03,.2,.26-.02,.05-.17-.07c0,.35,0,.74,0,1.12h-.04l-.21-1.08h-.04c.05,.33,.09,.66,.15,1.02-.41-.51-.42-1.08-.51-1.65,0,.12,0,.23,0,.35,0,.12,0,.25,.01,.39l-.17-.03,.23,.4-.06,.05c-.08-.07-.16-.14-.23-.21,.19,.36,.41,.69,.39,1.11l-.06,.04c-.14-.26-.3-.5-.42-.77-.15-.34-.35-.64-.61-.93,.1-.15,.2-.3,.31-.44,.04-.05,.07-.11,.11-.16-.03,.01-.07,.01-.09,.03-.13,.12-.28,.24-.39,.38-.02,.02-.03,.04-.04,.06-.02-.02-.04-.05-.06-.07,.02,.03,.04,.05,.05,.08-.12,.15-.24,.32-.34,.49-.1-.01-.1-.11-.11-.17l-.06-.04,.03-.15s.02-.03,.03-.04c.04-.05,.1-.08,.11-.14,.1-.32,.19-.65,.27-.97,.02-.07,0-.14,0-.22,0-.05-.02-.1-.03-.14,0,.01-.03,.06-.05,.06-.11,.02-.15,.12-.18,.22-.08,.27-.15,.54-.22,.81-.02,.09,0,.18,0,.27,0,.05,.02,.11,0,.16l-.02,.1-.21-.14c.23-1,.63-1.91,1.11-2.79,0-.01,.01-.03,.02-.05h.04l.23,.49c-.03-.13-.06-.25-.08-.37-.01-.05-.02-.1-.03-.14-.03-.08-.08-.1-.14-.04-.09,.09-.19,.18-.26,.28-.52,.67-.81,1.47-.99,2.32-.09,.44-.14,.89-.19,1.34,0,.03,0,.05,0,.08-.07-.1-.13-.2-.2-.29,.03-.37,.05-.73,.09-1.1,.15-1.24,.55-2.38,1.22-3.4,.02-.03,.04-.06,.06-.09l-.03-.02c-.12,.16-.24,.32-.35,.49-.36,.58-.59,1.22-.77,1.89-.17,.62-.26,1.26-.31,1.9,0,.04-.01,.07-.02,.11-.03-.02-.03-.04-.03-.06,0-.78,0-1.57,0-2.35,0-.03,.01-.07,.03-.08,.08-.07,.09-.16,.1-.26,.02-.24,.03-.47,.05-.71,0-.15,.03-.3-.08-.42,0,.01-.01,.04-.02,.05-.12,.08-.14,.22-.15,.36-.02,.25-.04,.49-.05,.74,0,.06,0,.14,.03,.18,.06,.07,.05,.15,.05,.23,0,.11-.01,.22,0,.32,0,.69,.02,1.37,.03,2.06-.05-.05-.09-.11-.14-.15,.05,.07,.1,.13,.14,.2,0,.03,0,.05,0,.08,0,.2,.02,.4,.04,.6-.1-.07-.19-.15-.28-.22-.03-.46-.06-.92-.09-1.38,0-.03,.02-.07,.03-.1,.02-.07,.07-.14,.07-.21,0-.31,0-.61-.02-.92,0-.06-.03-.15-.07-.18-.05-.04-.05-.09-.05-.14,0-.04,0-.07,0-.11-.01,.05-.01,.1-.02,.16,0,.03-.01,.05-.02,.07-.03,.08-.08,.16-.09,.24,0,.25,0,.51,.01,.76,0,.1,0,.21,.06,.29,.06,.09,.06,.18,.07,.28,0,.09,0,.17,.01,.26,.02,.32,.05,.63,.07,.95l-.1-.07-.02,.03c.04,.06,.08,.13,.13,.19l.02,.22-.14-.19c-.13-.76-.25-1.51-.38-2.27-.1-.57-.19-1.15-.38-1.69-.06-.16-.13-.3-.21-.47,.09,.37,.19,.72,.25,1.07,.19,1.1,.38,2.2,.62,3.29l-.13-.2c-.05-.24-.1-.48-.16-.71-.14-.53-.3-1.05-.59-1.51,.01-.02,.03-.04,.04-.06-.02,.01-.03,.03-.05,.04-.12-.18-.25-.35-.43-.47,0,.02,.02,.04,.03,.06,.12,.15,.22,.31,.32,.48-.14,.11-.26,.24-.36,.38-.32,.46-.5,.98-.65,1.51-.1,.36-.19,.72-.27,1.08-.02-.03-.04-.06-.06-.1,.27-1.11,.49-2.24,.7-3.36,.07-.35,.18-.7,.28-1.07-.08,.17-.17,.31-.23,.47-.21,.55-.31,1.12-.42,1.69-.14,.72-.27,1.44-.4,2.16-.03-.05-.06-.1-.09-.14,.02,.09,.05,.17,.07,.26v.06c-.04,.15-.07,.3-.1,.44-.02-.1-.02-.21-.05-.31v.04c.03-.45,.07-.91,.11-1.36,0-.09,0-.17,.01-.26,0-.1,.01-.19,.08-.28,.05-.07,.06-.19,.06-.29,.01-.25,.02-.51,.01-.76,0-.08-.06-.16-.09-.24,0-.02-.02-.05-.02-.07,0-.05,0-.1-.02-.16,0,.04,0,.07,0,.11,0,.05,0,.1-.06,.14-.05,.04-.07,.12-.08,.18-.01,.31-.02,.61-.02,.92,0,.07,.05,.14,.07,.21,.01,.03,.03,.07,.03,.1-.05,.65-.09,1.31-.15,1.96,0,.02-.01,.04-.01,.06-.04,0-.07-.02-.09-.04,0,0,0,0,0-.01h0c-.07-.03-.13-.09-.17-.16,.02-.27,.05-.54,.05-.82,.02-.73,.03-1.46,.04-2.18,0-.11,0-.22-.01-.32,0-.08-.01-.16,.05-.23,.04-.04,.04-.12,.04-.18-.01-.25-.03-.49-.05-.74-.01-.14-.03-.28-.16-.36-.01,0-.02-.04-.03-.05-.12,.12-.1,.27-.09,.42,.02,.24,.03,.47,.05,.71,0,.1,.02,.19,.11,.26,.02,.02,.03,.05,.03,.08,0,.78,0,1.57,0,2.35,0,.02,0,.04-.04,.06,0-.04-.02-.07-.02-.11-.05-.64-.16-1.28-.34-1.9-.2-.67-.45-1.31-.84-1.89-.12-.17-.25-.32-.38-.49l-.03,.02s.04,.06,.06,.09c.73,1.02,1.18,2.15,1.34,3.4,.07,.51,.11,1.03,.14,1.54,0,.06,0,.13,0,.19-.03-.04-.05-.07-.08-.1,.03,.06,.05,.11,.08,.17l-.07,.15,.02-.06h-.02l-.02,.08-.1-.2c.02,.14,.04,.25,.05,.36l-.04,.16-.05-.04s0-.09,0-.13c.04-.27,0-.54-.04-.8-.06-.45-.11-.9-.21-1.34-.19-.85-.52-1.65-1.09-2.32-.09-.1-.19-.19-.29-.28-.07-.06-.13-.04-.16,.04-.02,.05-.02,.09-.04,.14-.03,.12-.06,.23-.09,.37,.09-.17,.17-.33,.25-.48h.04s0,.02,.02,.04c.53,.89,.99,1.82,1.24,2.84,.13,.55,.22,1.11,.25,1.67,0,.05-.02,.09-.03,.14-.03-.03-.06-.06-.1-.09v-.02c-.14-.57-.27-1.14-.39-1.71-.01-.05,0-.11,0-.16,0-.09,.01-.19,0-.27-.07-.27-.15-.54-.24-.81-.03-.1-.07-.2-.19-.22-.03,0-.04-.05-.06-.06,0,.04-.02,.09-.03,.14,0,.07-.02,.15,0,.22,.09,.33,.19,.65,.3,.97,.02,.05,.08,.09,.13,.14,.01,.01,.03,.03,.04,.04,.09,.38,.18,.76,.28,1.14,0,0,0,.02-.01,.05-.02-.05-.04-.08-.05-.11-.18-.48-.45-.92-.8-1.29-.13-.14-.29-.26-.43-.38-.03-.02-.06-.02-.1-.03,.04,.05,.07,.11,.12,.16,.38,.43,.71,.9,.97,1.41,0,.14,0,.29,0,.43-.04-.09-.1-.17-.06-.28,0-.03,0-.06-.02-.09-.1-.2-.2-.4-.3-.6-.04-.07-.09-.13-.2-.11,0,.04-.02,.1,0,.13,.12,.25,.25,.49,.37,.74,.11,.07,.17,.17,.21,.27v.03h.02c.06,.15,.08,.3,.12,.45-.03,.15-.1,.29-.22,.41,0-.19,.01-.35,.02-.5l-.06,.18q-.14-.15-.05-.72c-.07,.14-.12,.23-.17,.33-.25-.11-.18-.39-.3-.6,.03,.27,.05,.49,.07,.72,0,.05-.06,.11-.06,.17,0,.06,.02,.12,.03,.18,.02,.11,.04,.22,.06,.33h-.05c-.06-.1-.11-.2-.17-.31h-.01v-.03h-.04c.03,.29,.06,.59,.09,.88-.01,.08-.02,.17-.03,.25h-.11c-.01-.1-.03-.2-.06-.3v.02c-.03-.13-.05-.27-.06-.4-.02-.32-.01-.64-.04-.96,0-.07-.1-.13-.18-.22,.12,.39,.07,.72-.07,1.09-.12-.27-.22-.51-.35-.79-.05,.24-.02,.48-.24,.52-.06,.32-.12,.62-.18,.91-.02-.03-.05-.06-.1-.11,.02,.06,.06,.11,.09,.17l-.04,.2h-.06c-.04-.07-.09-.15-.13-.24-.09-.2-.22-.37,0-.61,.14-.16,.13-.46,.21-.77-.13,.24-.24,.43-.33,.61-.09,.17-.09,.18-.31,.18,.08-.44,.17-.87,.25-1.3h-.03l-.42,1.83-.11-.02c.03-.26,.07-.52,.1-.78l-.03-.02c-.07,.11-.13,.22-.22,.36-.1-.33,.11-.57,.13-.88l-.2,.37c-.1-.24-.19-.45-.28-.67h-.03c.08,.31,.16,.6,.25,.96l-.16-.1c.02,.13,.05,.28,.07,.42l-.1,.03c-.03-.13-.08-.25-.1-.38-.02-.13-.02-.26-.02-.4h-.08l.06,1.39c-.25-.16-.16-.4-.19-.6-.06-.35-.1-.71-.18-1.06-.01,.33,.22,.67-.12,.97-.11-.21-.21-.41-.32-.62l-.04,.02,.1,.31-.04,.04-.14-.12-.37,1.06h-.04c.05-.37,.1-.73,.15-1.1h-.04c-.06,.32-.13,.65-.19,1-.22-.61-.04-1.16,.06-1.72-.04,.11-.08,.22-.12,.33-.04,.12-.07,.24-.12,.37l-.15-.08,.09,.46-.08,.02-.15-.28c.06,.4,.16,.79,0,1.17h-.07c-.05-.28-.12-.56-.15-.85-.04-.45-.14-.87-.37-1.32,.08,.29,.15,.52,.2,.76,.02,.08,0,.19-.04,.27-.06,.13-.15,.12-.22,0-.09-.17-.17-.34-.26-.5-.01-.02-.03-.04-.05-.05-.2-.02-.15-.15-.13-.22-.08-.11-.14-.19-.25-.33,.21,.4,.06,.72-.04,1.06l-.23-.21c.11,.22,.28,.37,.13,.62l-.23-.41c.07,.31,.13,.58,.2,.85l-.06,.02c-.41-.48-.36-1.18-.69-1.7,.06,.2,.11,.4,.18,.59,.08,.23,0,.39-.13,.55-.16-.24-.31-.47-.46-.7l-.03,.02c.04,.14,.07,.28,.11,.42h0l-.08,.19h-.05c-.06-.25-.12-.51-.18-.78h-.02l.18,1.15-.19,.08c-.04-.08-.09-.17-.17-.31-.08,.3-.15,.54-.22,.79h-.06c-.1-.43,.03-.86-.01-1.28-.02,.15-.05,.31-.07,.46h-.06l-.03-.56h-.07c0,.1,0,.2,.02,.29,.02,.13,0,.22-.14,.27-.07,.03-.13,.12-.2,.19-.18-.17-.11-.41-.11-.69l-.07,.27c-.22-.02-.24-.05-.19-.25,.03-.13,.07-.27,.09-.41-.07,.12-.15,.25-.22,.37l-.05-.04,.02,.41-.18-.14c.03,.15,.07,.32,.11,.49l-.09,.03c-.06-.11-.11-.22-.19-.37v.23c-.16-.01-.22-.09-.24-.28-.04-.35-.12-.69-.21-1.03-.02,.24-.03,.48-.05,.71l.1-.2c.1,.35,.15,.62-.14,.89,0-.2,0-.36,.01-.51l-.06,.19c-.27-.22-.07-.45-.07-.69-.05,.09-.09,.18-.14,.28-.25-.12-.19-.39-.3-.58,.02,.18,.06,.36,.06,.54,0,.11,.11,.27-.07,.35,0,0,.04,.08,.05,.13,.02,.12,.04,.24,.06,.36h-.06l-.13-.32-.05,.03c.01,.36,.24,.72-.08,1.08-.04-.22-.09-.44-.1-.66-.03-.32,0-.65-.05-.98-.02-.13-.13-.25-.23-.43,.17,.46,.15,.87-.01,1.29-.12-.27-.23-.52-.35-.8-.02,.14-.04,.24-.06,.33-.07,.07-.13,.14-.19,.21-.08,.38-.15,.76-.23,1.14l-.07,.02c-.05-.13-.09-.27-.17-.38-.09-.11-.12-.19-.06-.32,.07-.15,.12-.31,.19-.47,.02-.02,.03-.05,.06-.07,.11-.25,.23-.49,.34-.74,.02-.04,0-.09,0-.13-.1-.02-.15,.04-.18,.11-.09,.2-.18,.4-.27,.6-.01,.03-.03,.06-.02,.09,0,.03,0,.05,0,.07-.04,.07-.08,.14-.11,.22-.04,.09-.1,.14-.17,.15,0-.01,.01-.03,.02-.04,.05-.13,.07-.27,.13-.4,.25-.58,.58-1.09,.97-1.56,.04-.05,.07-.11,.11-.16-.03,.01-.07,.01-.09,.03-.13,.12-.28,.24-.39,.38-.32,.38-.56,.81-.72,1.29-.01,.03-.02,.06-.04,.11,0-.04-.01-.05-.01-.05,.08-.38,.17-.76,.25-1.14,0-.02,.02-.03,.03-.04,.04-.05,.1-.08,.11-.14,.1-.32,.19-.65,.27-.97,.02-.07,0-.14,0-.22,0-.05-.02-.1-.03-.14,0,.01-.03,.06-.05,.06-.11,.02-.15,.12-.18,.22-.08,.27-.15,.54-.22,.81-.02,.09,0,.18,0,.27,0,.05,.02,.11,0,.16-.02,.09-.04,.17-.05,.26h-.02c-.12,.53-.24,1.06-.37,1.59-.01-.05-.03-.11-.03-.16,.03-.57,.11-1.12,.23-1.67,.22-1.02,.64-1.94,1.12-2.84,0-.01,.01-.03,.02-.05h.04c.07,.17,.15,.32,.23,.49-.03-.13-.06-.25-.08-.37-.01-.05-.02-.1-.03-.14-.03-.08-.08-.1-.14-.04-.09,.09-.19,.18-.26,.28-.52,.67-.81,1.47-.99,2.32-.09,.44-.14,.89-.19,1.34-.01,.1-.02,.19-.03,.29l-.14,.29c-.11-.35,.09-.61,.14-.97-.08,.16-.14,.28-.21,.42,.03-.45,.06-.9,.11-1.35,.15-1.24,.55-2.38,1.22-3.4,.02-.03,.04-.06,.06-.09l-.03-.02c-.12,.16-.24,.32-.35,.49-.36,.58-.59,1.22-.77,1.89-.17,.62-.26,1.26-.31,1.9,0,.04-.01,.07-.02,.11-.03-.02-.03-.04-.03-.06,0-.78,0-1.57,0-2.35,0-.03,.01-.07,.03-.08,.08-.07,.09-.16,.1-.26,.02-.24,.03-.47,.05-.71,0-.15,.03-.3-.08-.42,0,.01-.01,.04-.02,.05-.12,.08-.14,.22-.15,.36-.02,.25-.04,.49-.05,.74,0,.06,0,.14,.03,.18,.06,.07,.05,.15,.05,.23,0,.11-.01,.22-.01,.32,.01,.73,.02,1.46,.04,2.18,0,.04,0,.08,0,.12-.05-.13-.11-.26-.16-.38h-.03c.07,.27,.14,.54,.21,.83h0l-.14-.03,.06,.42-.12,.02-.08-.46c-.04-.51-.07-1.01-.1-1.52,0-.03,.02-.07,.03-.1,.02-.07,.07-.14,.07-.21,0-.31,0-.61-.02-.92,0-.06-.03-.15-.07-.18-.05-.04-.05-.09-.05-.14,0-.04,0-.07,0-.11-.01,.05-.01,.1-.02,.16,0,.03-.01,.05-.02,.07-.03,.08-.08,.16-.09,.24,0,.25,0,.51,.01,.76,0,.1,.01,.21,.06,.29,.06,.09,.06,.18,.07,.28,0,.09,0,.17,.01,.26,.02,.28,.04,.55,.06,.83h-.04c.01,.3,.03,.59,.04,.89h0c-.03-.18-.06-.35-.09-.53-.13-.78-.26-1.56-.39-2.33-.1-.57-.19-1.15-.38-1.69-.05-.16-.14-.3-.21-.47,.09,.37,.19,.72,.25,1.07,.21,1.24,.42,2.48,.71,3.7,.01,.05,0,.1,0,.14h-.03c-.02-.07-.04-.13-.06-.2-.02-.08-.04-.15-.05-.23-.02-.17-.04-.34-.07-.5,0-.05-.04-.09-.07-.17,0,.08,.02,.15,.04,.23-.04-.2-.09-.39-.14-.59-.14-.53-.3-1.05-.59-1.51-.12-.19-.26-.36-.44-.49,0,.02,.02,.04,.03,.06,.27,.35,.49,.74,.66,1.17,.19,.46,.29,.95,.4,1.43,.04,.17,.06,.34,.09,.52-.03,.07-.07,.13-.14,.2-.11-.21-.21-.41-.32-.61l-.04,.02,.11,.32-.04,.04-.13-.12c-.11,.28-.22,.59-.34,.89l-.06-.02c.05-.38,.11-.75,.16-1.13h-.03c-.07,.38-.14,.76-.22,1.2-.23-.63-.04-1.17,.05-1.72-.08,.23-.15,.46-.24,.7l-.14-.08,.08,.49-.07,.02c-.05-.1-.1-.2-.15-.31,.07,.41,.14,.81-.01,1.27-.29-.71-.13-1.48-.52-2.13,.06,.23,.12,.43,.16,.64,.01,.08-.02,.19-.06,.27-.06,.11-.14,.1-.21-.01-.09-.17-.18-.34-.26-.5-.01-.02-.03-.05-.05-.06-.22-.01-.13-.17-.17-.26l-.18-.24c.17,.35,.02,.66-.1,1.05l-.12-.23-.05,.04c.08,.17,.23,.33,.09,.55-.07-.13-.14-.25-.23-.4,.07,.31,.14,.58,.2,.85l-.06,.02c-.41-.48-.37-1.17-.69-1.69,.06,.2,.11,.41,.18,.6,.08,.23-.03,.38-.13,.52-.16-.24-.31-.46-.47-.69l-.03,.02c.04,.14,.07,.28,.1,.42h0l-.08,.23h-.04c-.06-.27-.13-.54-.19-.82h-.02c.06,.39,.12,.77,.18,1.18-.15-.01-.3,.03-.32-.24l-.06,.04c-.07,.25-.14,.51-.21,.76-.15-.44-.02-.88-.06-1.32-.02,.15-.05,.31-.07,.46h-.06c0-.11,0-.21-.02-.32,0-.1-.03-.19-.04-.29h-.07c.02,.12,.03,.23,.05,.35,.01,.09,0,.15-.06,.2,0-.14-.02-.28-.03-.44-.04,.21-.08,.38-.11,.55-.02,.02-.04,.03-.06,.05h-.02v-.44h-.07l-.02,.17-.1-.17s0-.05,0-.08c0,.03,0,.06-.03,.08-.04,.04-.09,.07-.14,.11-.03-.06-.09-.12-.08-.17,.03-.16,.08-.31,.08-.48-.05,.12-.11,.25-.17,.39l-.11-.09c.02,.13,.03,.28,.05,.42l-.07,.03-.09-.17h0c.03-.1,.14-.22,.11-.33-.04,.06-.07,.1-.1,.15-.03,.05-.06,.11-.1,.18l-.13-.12v.36q-.18-.12-.16-.42l-.07,.14c-.04-.29-.11-.58-.18-.91-.02,.31-.04,.55-.06,.79l.08-.17c.08,.17,.11,.29,.1,.4l-.14,.29h-.07v-.04l.03-.49-.08,.31-.1-.48c0-.06,.02-.11,.03-.18-.02,.04-.03,.06-.05,.09l-.04-.21c-.02,.15-.04,.28-.06,.41l-.04,.08c-.08-.14-.14-.24-.18-.34-.05-.13-.08-.26-.12-.39,.03,.23,.09,.47,.08,.7l-.08,.09-.3-.55c-.02,.27,.19,.59-.07,.91-.04-.07-.08-.13-.12-.18-.01-.02-.02-.07-.03-.07-.26-.02-.11-.17-.11-.28-.02,0-.03,.01-.04,.02-.02,.01-.03,.03-.06,.05-.07-.15-.13-.29-.19-.42,.13,.35,.17,.68-.09,1.03-.09-.16-.18-.32-.27-.48-.03,.09-.05,.17-.07,.25l-.17,.12c-.04-.05-.08-.11-.1-.17-.06-.14-.11-.29-.19-.44,.17,.27-.06,.43-.21,.61-.39-.23-.09-.52-.1-.78-.08,.24-.16,.47-.25,.71h-.04c-.03-.14-.07-.29-.1-.43,.05,.31-.13,.53-.36,.79-.06-.29,.15-.49,.17-.72-.06,.09-.13,.19-.2,.29-.06-.11-.11-.21-.16-.32,.02-.02,.03-.04,.06-.06,.11-.25,.23-.49,.34-.74,.02-.04,0-.09,0-.13-.1-.02-.15,.04-.18,.11-.09,.2-.18,.4-.27,.6,0,.02-.01,.05-.02,.07v-.02h-.05c.01,.05,.03,.1,.04,.14,0,.06-.03,.12-.06,.19-.01,.04-.03,.07-.04,.11l-.07-.1c-.03,.1-.02,.21-.02,.31-.02,.06-.05,.12-.07,.18,0,.02-.02,.05-.04,.08h.06s-.01,.03-.02,.05h-.08v-.05h.02l-.03-.08v.08l-.05-.19h0c.03-.1,.08-.19,.11-.28,.05-.13,.07-.27,.13-.4,.25-.58,.58-1.09,.97-1.56,.04-.05,.07-.11,.11-.16-.03,.01-.07,.01-.09,.03-.13,.12-.28,.24-.39,.38-.32,.38-.56,.81-.72,1.29-.01,.03-.02,.06-.04,.11,0-.04-.01-.05-.01-.05,.08-.38,.17-.76,.25-1.14,0-.02,.02-.03,.03-.04,.04-.05,.1-.08,.11-.14,.1-.32,.19-.65,.27-.97,.02-.07,0-.14,0-.22,0-.05-.02-.1-.03-.14,0,.01-.03,.06-.05,.06-.11,.02-.15,.12-.18,.22-.08,.27-.15,.54-.22,.81-.02,.09,0,.18,0,.27,0,.05,.02,.11,0,.16-.1,.51-.21,1.01-.31,1.52l-.09-.43h-.02c.04-.36,.09-.72,.17-1.08,.22-1.02,.64-1.94,1.12-2.84,0-.01,.01-.03,.02-.05h.04c.07,.17,.15,.32,.23,.49-.03-.13-.06-.25-.08-.37-.01-.05-.02-.1-.03-.14-.03-.08-.08-.1-.14-.04-.09,.09-.19,.18-.26,.28-.52,.67-.81,1.47-.99,2.32-.09,.44-.14,.89-.19,1.34-.01,.11-.02,.21-.03,.32l-.16,.23-.05-.03c0-.09-.01-.19,0-.28,.03-.52,.07-1.03,.13-1.54,.15-1.24,.55-2.38,1.22-3.4,.02-.03,.04-.06,.06-.09l-.03-.02c-.12,.16-.24,.32-.35,.49-.36,.58-.59,1.22-.77,1.89-.17,.62-.26,1.26-.31,1.9,0,.04-.01,.07-.02,.11-.03-.02-.03-.04-.03-.06,0-.78,0-1.57,0-2.35,0-.03,.01-.07,.03-.08,.08-.07,.09-.16,.1-.26,.02-.24,.03-.47,.05-.71,0-.15,.03-.3-.08-.42,0,.01-.01,.04-.02,.05-.12,.08-.14,.22-.15,.36-.02,.25-.04,.49-.05,.74,0,.06,0,.14,.03,.18,.06,.07,.05,.15,.05,.23,0,.11-.01,.22-.01,.32,.01,.73,.02,1.46,.04,2.18,0,.24,.03,.48,.04,.71h-.02l.02,.06c0,.09,.01,.17,.02,.26l-.11-.12c-.12,.02-.01,.19-.13,.22-.02-.05-.03-.11-.04-.16-.05-.65-.09-1.31-.13-1.96,0-.03,.02-.07,.03-.1,.02-.07,.07-.14,.07-.21,0-.31,0-.61-.02-.92,0-.06-.03-.15-.07-.18-.05-.04-.05-.09-.05-.14,0-.04,0-.07,0-.11-.01,.05-.01,.1-.02,.16,0,.03-.01,.05-.02,.07-.03,.08-.08,.16-.09,.24,0,.25,0,.51,.01,.76,0,.1,0,.21,.06,.29,.06,.09,.06,.18,.07,.28,0,.09,0,.17,.01,.26,.03,.39,.06,.78,.09,1.18l-.07,.27c-.02-.09-.03-.17-.05-.26-.02-.09-.03-.19-.05-.28h0c-.11-.69-.23-1.37-.34-2.05-.1-.57-.19-1.15-.38-1.69-.06-.16-.13-.3-.21-.47,.09,.37,.19,.72,.25,1.07,.19,1.09,.38,2.17,.61,3.25l-.06,.09c-.02-.07-.03-.14-.05-.2v-.07h-.02c-.05-.23-.1-.46-.16-.69-.14-.53-.3-1.05-.59-1.51-.12-.19-.26-.36-.44-.49,0,.02,.02,.04,.03,.06,.27,.35,.49,.74,.66,1.17,.19,.46,.29,.95,.4,1.43,.02,.08,.03,.16,.04,.24-.01,.12-.03,.24-.04,.38l-.12-.03c0,.11,.02,.22,.02,.33h-.07l-.11-.18c.05,.33,.1,.66-.05,.97h-.06l-.26-1.57h-.08c.03,.14,.08,.26,.09,.39,0,.07-.02,.16-.07,.23-.06,.09-.15,.08-.2-.01-.08-.13-.16-.26-.24-.39-.01-.02-.02-.04-.04-.05-.16-.09-.16-.09-.13-.19l-.2-.24c.17,.29-.02,.53-.14,.85l-.11-.2-.05,.04c.04,.07,.1,.14,.12,.21,.02,.07,0,.15-.06,.23l-.21-.33,.16,.68h-.06c-.39-.38-.3-.93-.59-1.37,0,.31,.35,.62-.02,.91l-.43-.57v.53h-.07l-.14-.66h-.03c.04,.31,.08,.62,.12,.93l-.2,.05c-.03-.05-.08-.12-.15-.25-.1,.24-.18,.44-.28,.68-.1-.2-.05-.38-.03-.55,.02-.18,.05-.35,.04-.53-.03,.12-.06,.25-.09,.37h-.06v-.42h-.07c0,.07,0,.15,0,.22,0,.09-.01,.15-.14,.19-.08,.02-.13,.09-.21,.15-.19-.13-.1-.32-.1-.5l-.06,.16c-.22-.04-.23-.06-.17-.22,.04-.11,.09-.21,.09-.33l-.21,.35-.1-.18c.02,.17,.04,.28,.05,.4l-.06,.02-.12-.09c.02,.13,.05,.26,.07,.39l-.09,.02c-.05-.09-.09-.17-.16-.3v.18c-.17-.01-.23-.08-.25-.23-.02-.28-.09-.55-.18-.83,0,.14-.02,.28-.03,.43,.03,0,.07,0,.07,.02,.13,.21,.06,.49-.2,.67,.02-.15,.03-.28,.04-.4l-.07,.14q-.14-.13-.02-.58l-.18,.26c-.25-.09-.16-.31-.28-.49,.01,.22,.03,.4,.03,.58,0,.04-.06,.09-.07,.13,0,.05,.01,.1,.02,.15,.02,.09,.03,.18,.04,.26h-.05l-.16-.26h-.03c.02,.16,.07,.31,.07,.46,0,.14-.05,.28-.07,.42h-.12c-.03-.19-.07-.37-.07-.56,0-.25,.02-.51,0-.76,0-.05-.09-.1-.17-.19,.11,.31,.04,.58-.12,.87-.11-.22-.2-.42-.31-.65-.06,.19-.04,.38-.26,.41l-.29,.92h-.06c-.04-.06-.08-.13-.12-.2-.08-.17-.2-.3,.03-.49,.15-.12,.16-.37,.25-.61-.14,.19-.26,.33-.36,.48-.1,.14-.09,.14-.31,.13,.1-.34,.21-.69,.31-1.03h-.03c-.17,.48-.34,.96-.5,1.44l-.11-.02c.05-.21,.09-.41,.14-.62h-.03l-.23,.26c-.08-.27,.14-.45,.17-.7l-.22,.29-.13-.28s.05-.07,.09-.1c.11-.25,.23-.49,.34-.74,.02-.04,0-.09,0-.13-.1-.02-.15,.04-.18,.11-.09,.2-.18,.4-.27,.6-.01,.03-.03,.06-.02,.09,0,.03,0,.05,0,.07l-.07-.16h-.03c.25-.53,.56-1.02,.93-1.48,.04-.05,.07-.11,.11-.16-.03,.01-.07,.01-.09,.03-.13,.12-.28,.24-.39,.38-.32,.38-.56,.81-.72,1.29-.01,.03-.02,.06-.04,.11,0-.04-.01-.05-.01-.05,.08-.38,.17-.76,.25-1.14,0-.02,.02-.03,.03-.04,.04-.05,.1-.08,.11-.14,.1-.32,.19-.65,.27-.97,.02-.07,0-.14,0-.22,0-.05-.02-.1-.03-.14,0,.01-.03,.06-.05,.06-.11,.02-.15,.12-.18,.22-.08,.27-.15,.54-.22,.81-.02,.09,0,.18,0,.27,0,.05,.02,.11,0,.16-.11,.57-.23,1.14-.35,1.71-.02-.16-.05-.32-.08-.48,.04-.41,.1-.82,.19-1.23,.22-1.02,.64-1.94,1.12-2.84,0-.01,.01-.03,.02-.05h.04c.07,.17,.15,.32,.23,.49-.03-.13-.06-.25-.08-.37-.01-.05-.02-.1-.03-.14-.03-.08-.08-.1-.14-.04-.09,.09-.19,.18-.26,.28-.52,.67-.81,1.47-.99,2.32-.09,.44-.14,.89-.19,1.34-.03,.27-.07,.53-.03,.8,0,.05,0,.09,0,.14-.01,0-.01,.02-.02,.02l-.05-.08c-.03-.1-.05-.2-.08-.3h-.02l.05,.23-.1-.17c0-.14-.02-.27,0-.41,.03-.52,.07-1.03,.13-1.54,.15-1.24,.55-2.38,1.22-3.4,.02-.03,.04-.06,.06-.09l-.03-.02c-.12,.16-.24,.32-.35,.49-.36,.58-.59,1.22-.77,1.89-.17,.62-.26,1.26-.31,1.9,0,.04-.01,.07-.02,.11-.03-.02-.03-.04-.03-.06,0-.78,0-1.57,0-2.35,0-.03,.01-.07,.03-.08,.08-.07,.09-.16,.1-.26,.02-.24,.03-.47,.05-.71,0-.15,.03-.3-.08-.42,0,.01-.01,.04-.02,.05-.12,.08-.14,.22-.15,.36-.02,.25-.04,.49-.05,.74,0,.06,0,.14,.03,.18,.06,.07,.05,.15,.05,.23,0,.11-.01,.22-.01,.32,.01,.73,.02,1.46,.04,2.18,0,.25,.03,.49,.04,.74v-.02h-.05l.06,.19v.09l-.02,.02-.13-.1-.09,.17s-.03-.08-.03-.13c-.05-.65-.09-1.31-.13-1.96,0-.03,.02-.07,.03-.1,.02-.07,.07-.14,.07-.21,0-.31,0-.61-.02-.92,0-.06-.03-.15-.07-.18-.05-.04-.05-.09-.05-.14,0-.04,0-.07,0-.11-.01,.05-.01,.1-.02,.16,0,.03-.01,.05-.02,.07-.03,.08-.08,.16-.09,.24,0,.25,0,.51,.01,.76,0,.1,0,.21,.06,.29,.06,.09,.06,.18,.07,.28,0,.09,0,.17,.01,.26,.04,.56,.08,1.13,.13,1.69,0,.04,0,.08,0,.12h-.03s-.02-.06-.02-.09c-.03-.17-.06-.35-.09-.52-.13-.78-.26-1.56-.39-2.33-.1-.57-.19-1.15-.38-1.69-.06-.16-.13-.3-.21-.47,.09,.37,.19,.72,.25,1.07,.18,1.07,.37,2.14,.6,3.19-.02,.04-.04,.07-.06,.11-.07-.31-.13-.62-.21-.92-.14-.53-.3-1.05-.59-1.51-.12-.19-.26-.36-.44-.49,0,.02,.02,.04,.03,.06,.27,.35,.49,.74,.66,1.17,.19,.46,.29,.95,.4,1.43,.03,.14,.05,.28,.07,.42-.03,.07-.07,.15-.1,.23l-.14-.07c.02,.11,.04,.24,.07,.37h-.08l-.14-.21c.04,.32,.12,.63-.05,.94h-.07c-.04-.22-.09-.46-.11-.69-.02-.36-.1-.7-.3-1.07,.07,.23,.13,.42,.17,.61,.01,.07-.02,.15-.06,.21-.07,.1-.15,.09-.22-.01-.08-.14-.16-.28-.24-.41,0-.02-.03-.04-.05-.04-.19-.02-.14-.13-.12-.18-.08-.09-.13-.16-.23-.27,.19,.33,.03,.57-.09,.85l-.22-.18c.1,.18,.26,.31,.11,.5-.07-.11-.13-.21-.21-.34,.06,.25,.11,.47,.16,.69h-.06c-.39-.39-.31-.94-.61-1.37,.05,.16,.09,.32,.15,.48,.07,.19-.03,.31-.16,.43-.15-.2-.28-.39-.42-.57l-.03,.02c.03,.11,.06,.22,.09,.34h0l-.09,.15h-.05c-.05-.2-.1-.42-.15-.63h-.02c.04,.31,.08,.63,.12,.93l-.2,.06-.15-.25c-.1,.23-.18,.43-.26,.62h-.06c-.08-.35,.07-.68,.05-1.02l-.09,.36h-.06v-.45h-.07c0,.08,0,.16,0,.23,.01,.11,0,.18-.15,.21-.07,.02-.13,.09-.2,.15-.18-.14-.09-.33-.07-.56l-.08,.21c-.21-.02-.24-.05-.18-.2,.04-.11,.09-.21,.11-.32l-.24,.29-.05-.03v.32l-.17-.12c.03,.12,.06,.26,.09,.4l-.09,.02-.17-.3v.18c-.14-.01-.19-.07-.22-.17,.11-.43,.21-.85,.4-1.26,.19-.42,.43-.81,.73-1.17,.01-.02,.03-.04,.04-.06-.2,.13-.35,.3-.48,.49-.32,.46-.5,.98-.65,1.51-.03,.09-.05,.19-.07,.29-.01-.09-.02-.18-.04-.27,.17-.79,.33-1.59,.48-2.39,.07-.35,.18-.7,.28-1.07-.08,.17-.17,.31-.23,.47-.21,.55-.31,1.12-.42,1.69-.06,.33-.12,.65-.18,.98,0-.03-.02-.07-.02-.1-.03,.19-.05,.38-.08,.57l.03-.04c-.03,.18-.07,.36-.1,.54,.01-.13,.02-.25,.03-.35l-.07,.15c-.06-.04-.08-.08-.1-.12,0-.1,.02-.19,.02-.29,.02-.05,.03-.09,.04-.14l-.03,.04v-.08c.01-.09,.01-.17,.02-.26,0-.1,.01-.19,.08-.28,.05-.07,.06-.19,.06-.29,.01-.25,.02-.51,.01-.76,0-.08-.06-.16-.09-.24,0-.02-.02-.05-.02-.07,0-.05,0-.1-.02-.16,0,.04,0,.07,0,.11,0,.06,0,.1-.06,.14-.05,.04-.07,.12-.08,.18-.01,.31-.02,.61-.02,.92,0,.07,.05,.14,.07,.21,.01,.03,.03,.07,.03,.1-.01,.19-.03,.37-.04,.56l-.07,.1c-.21-.09-.19-.26-.25-.41,0-.48,.02-.96,.03-1.45,0-.11,0-.22-.01-.32,0-.08-.01-.16,.05-.23,.04-.04,.04-.12,.04-.18-.01-.25-.03-.49-.05-.74-.01-.14-.03-.28-.16-.36-.01,0-.02-.04-.03-.05-.12,.12-.1,.27-.09,.42,.02,.24,.03,.47,.05,.71,0,.1,.02,.19,.11,.26,.02,.02,.03,.05,.03,.08,0,.78,0,1.57,0,2.35,0,.02,0,.04-.04,.06,0-.04-.02-.07-.02-.11-.05-.64-.16-1.28-.34-1.9-.2-.67-.45-1.31-.84-1.89-.12-.17-.25-.32-.38-.49l-.03,.02s.04,.06,.06,.09c.73,1.02,1.18,2.15,1.34,3.4,.05,.36,.07,.73,.1,1.1h-.03c0,.29,.2,.59-.13,.87,0-.07-.02-.13-.03-.2,0-.15-.03-.3-.04-.45,0-.22,.02-.44,0-.66,0-.07-.06-.15-.13-.24-.02-.15-.05-.3-.08-.45-.19-.85-.52-1.65-1.09-2.32-.09-.1-.19-.19-.29-.28-.07-.06-.13-.04-.16,.04-.02,.05-.02,.09-.04,.14-.03,.12-.06,.23-.09,.37,.09-.17,.17-.33,.25-.48h.04s0,.02,.02,.04c.53,.89,.99,1.82,1.24,2.84,.06,.26,.11,.51,.15,.77-.03,.08-.06,.16-.1,.24l-.17-.34c-.05-.23-.1-.45-.15-.68-.01-.05,0-.11,0-.16,0-.09,.01-.19,0-.27-.07-.27-.15-.54-.24-.81-.03-.1-.07-.2-.19-.22-.03,0-.04-.05-.06-.06,0,.04-.03,.09-.03,.14,0,.07-.02,.15,0,.22,.09,.33,.19,.65,.3,.97,.02,.05,.08,.09,.13,.14,.01,.01,.03,.03,.04,.04,.04,.18,.09,.36,.13,.54l-.07-.15c-.03,.1-.05,.17-.07,.24-.16-.3-.34-.58-.57-.83-.13-.14-.29-.26-.43-.38-.02-.02-.06-.02-.1-.03,.04,.05,.07,.11,.12,.16,.33,.37,.61,.78,.86,1.21l-.07,.06c-.07-.13-.13-.27-.2-.4-.04-.07-.09-.13-.2-.11,0,.04-.02,.1,0,.13,.03,.05,.05,.1,.08,.16-.08,.1-.16,.2-.22,.3-.07,.11-.15,.16-.31,.12,.1-.34,.21-.67,.31-1.01h-.03c-.17,.47-.34,.95-.5,1.43l-.09-.02c0-.29,.15-.57,.19-.84-.09,.14-.2,.3-.3,.46-.1-.28,.12-.49,.19-.77-.1,.14-.18,.25-.27,.38-.08-.18-.16-.34-.23-.51h-.03c.06,.22,.11,.43,.17,.67l-.14-.03c.01,.11,.03,.22,.04,.34h-.12c-.03-.19-.06-.4-.09-.6h-.05v1.1h-.11c-.02-.08-.05-.17-.06-.27-.04-.32-.07-.64-.11-.96,0-.04-.03-.07-.06-.14,0,.29,.24,.58-.13,.8-.1-.17-.19-.34-.29-.5h-.04c.03,.1,.06,.19,.09,.28l-.04,.03-.13-.1c-.08,.15-.17,.32-.27,.49,0-.15-.01-.3-.02-.44l.06-.26h-.03l-.05,.16h-.06l-.03,.25h-.07l-.05-.46c.04-.12,.08-.25,.11-.37l-.12,.25-.03-.31c-.03,.21-.06,.39-.09,.56l-.03,.05h-.01l-.03-.02c0-.14-.01-.28-.02-.43h-.07v.17l-.13-.19c.02,.11,.04,.18,.06,.24,.03,.11,.09,.22-.12,.26-.04,0-.06,.08-.09,.13-.09-.06-.13-.13-.14-.21,0-.02,0-.05-.01-.07,0-.07,0-.14,0-.22l-.03,.09c-.03-.11-.08-.21-.14-.31,.02-.05,.04-.11,.02-.16-.04,.06-.07,.1-.09,.15-.03,.05-.06,.11-.09,.18l-.14-.11v.36s0-.02-.02-.02c-.03-.05-.06-.11-.09-.16-.01-.02-.03-.04-.04-.05h0s0-.1,0-.18l-.07,.16c-.11-.04-.06-.13-.08-.19l-.17-.2c.11,.21,.05,.4-.04,.6-.06-.26-.13-.52-.2-.81-.02,.23-.04,.42-.06,.61l.09-.16c.07,.2,.1,.36,.02,.52l-.07-.12-.05,.03s.06,.1,.08,.15c-.03,.04-.07,.09-.13,.13h0l.02-.4-.07,.14c-.27-.17-.07-.36-.04-.57l-.17,.23c-.12-.2-.23-.39-.32-.54,0,.16,.06,.34,.07,.53-.03-.08-.06-.15-.11-.23,.04,.12,.07,.24,.11,.36-.01,.08-.04,.16-.11,.24-.05-.07-.09-.12-.13-.18-.02-.02-.02-.07-.04-.07-.26-.01-.11-.16-.12-.27-.02,0-.03,.01-.04,.02-.01,.01-.03,.03-.06,.06-.07-.15-.14-.28-.21-.42,.12,.3,.17,.59,.01,.9-.03-.14-.07-.29-.1-.43h-.02c.02,.17,.05,.35,.07,.53,0,.01,0,.02-.02,.04-.1-.16-.19-.31-.29-.47-.02,.1-.04,.17-.06,.25l-.17,.13s-.02-.03-.03-.05c0-.03,0-.06,0-.1l-.02,.07s-.05-.06-.06-.09c-.07-.14-.12-.29-.21-.43,.18,.26-.04,.43-.19,.62-.4-.22-.11-.51-.13-.78l-.22,.72h-.04l-.04-.14c.03-.11,.08-.21,.09-.33l-.13,.2-.04-.15c.01,.08,.01,.15,0,.22l-.02,.04-.1-.07,.03,.3s-.02,.03-.03,.04h-.04l-.09-.12h-.03c.04-.1,.09-.21,.1-.32-.06,.1-.12,.19-.18,.3-.09-.17-.18-.33-.27-.48h-.04c.04,.12,.09,.22,.12,.33,.03,.11,.05,.21,.07,.32l-.06,.02-.17-.24c-.03-.23-.08-.46-.13-.72-.04,.24-.07,.44-.1,.63l.09-.14c.03,.07,.05,.12,.07,.17-.01,.07-.01,.14,0,.22-.03,.07-.09,.13-.17,.2l-.03-.12c.02-.11,.04-.22,.06-.34l-.09,.22-.09-.35s.02-.09,.04-.16c-.03,.04-.04,.06-.06,.08l-.02-.07h-.07v.1s0,.04,.02,.06c-.02,.03-.04,.06-.08,.12l-.02-.03s.02-.07,.03-.1l-.05,.07c-.05-.08-.1-.15-.13-.22-.04-.1-.07-.21-.11-.32,.02,.2,.07,.39,.05,.59,0,.06-.02,.12-.02,.18l-.11-.07,.1,.3-.05,.03-.11-.12c-.15,.03,.08,.27-.21,.25l.02,.14h-.04s-.08-.07-.07-.11c.02-.17,.06-.35,.08-.52,0-.06,.01-.12,0-.18-.05,.24-.1,.48-.15,.72h-.08l.02-.84-.12,.19-.05-.3h-.04c-.01,.19-.03,.38-.04,.58l-.12-.03c.01,.11,.02,.22,.04,.33h-.06l-.12-.17c.07,.33,.13,.65-.01,.97h-.06l-.32-1.56h-.08c.04,.14,.09,.26,.1,.39,0,.07-.01,.16-.06,.23-.06,.09-.14,.09-.2,0-.09-.13-.17-.26-.26-.38-.01-.02-.02-.04-.04-.05-.17-.09-.17-.09-.14-.19-.09-.1-.15-.16-.21-.23,.18,.28,0,.53-.11,.85l-.12-.2-.05,.04c.04,.07,.1,.13,.12,.2,.02,.07,0,.15-.05,.23l-.23-.32,.19,.68h-.06c-.41-.36-.34-.92-.65-1.34,.02,.31,.38,.6,.01,.91l-.45-.55c0,.19,.01,.36,.02,.53h-.07c-.06-.21-.11-.43-.17-.65h-.03c.05,.31,.11,.62,.16,.92l-.2,.06-.16-.24-.25,.69c-.11-.2-.07-.38-.05-.55,.01-.18,.03-.35,.02-.53-.03,.13-.05,.25-.08,.38h-.06l-.02-.41h-.07c0,.08,0,.15,0,.22,0,.09,0,.16-.13,.19-.07,.02-.13,.1-.21,.16-.19-.12-.11-.31-.12-.49l-.06,.16c-.22-.03-.23-.05-.18-.21,.04-.11,.08-.21,.08-.33-.06,.1-.11,.21-.2,.36l-.11-.18c.03,.17,.05,.28,.07,.4l-.06,.02-.13-.09c.03,.12,.06,.25,.09,.38l-.09,.02c-.05-.08-.1-.17-.17-.29v.18c-.17,0-.23-.07-.25-.22-.04-.28-.12-.55-.21-.82,0,.14,0,.29,0,.43,.03,0,.07,0,.07,.01,.14,.21,.08,.49-.17,.67,0-.15,.02-.28,.03-.4l-.07,.15q-.14-.12-.04-.58l-.17,.26c-.25-.08-.17-.31-.3-.48,.02,.22,.05,.39,.06,.57,0,.04-.06,.09-.06,.14,0,.05,.02,.1,.03,.15,.02,.09,.04,.18,.06,.26h-.05c-.06-.08-.11-.16-.17-.25h-.03c.03,.16,.08,.3,.08,.45,0,.14-.03,.28-.05,.42h-.12c-.03-.18-.08-.36-.1-.55-.02-.25,0-.51-.02-.76,0-.05-.1-.1-.18-.18,.12,.31,.06,.58-.08,.87l-.34-.63c-.05,.19-.02,.39-.25,.42-.09,.32-.17,.63-.25,.93h-.06c-.04-.06-.09-.12-.13-.19-.09-.16-.21-.29,.01-.49,.14-.13,.14-.37,.22-.62-.13,.19-.24,.34-.34,.49-.09,.14-.09,.14-.31,.14,.09-.35,.18-.69,.27-1.04h-.03c-.15,.48-.3,.97-.44,1.46l-.11-.02,.11-.63h-.03c-.07,.07-.14,.16-.22,.27-.09-.27,.12-.46,.15-.71-.08,.11-.14,.2-.2,.3-.1-.19-.18-.36-.27-.53h-.03c.07,.24,.15,.48,.24,.76l-.16-.08,.07,.34-.1,.02c-.03-.1-.07-.2-.09-.3-.02-.1-.01-.21-.02-.32h-.08l.05,1.12c-.25-.13-.16-.32-.19-.48-.05-.28-.09-.57-.17-.85-.02,.26,.21,.54-.13,.77-.1-.16-.21-.33-.31-.49l-.04,.02,.1,.25-.04,.03-.14-.09-.38,.85h-.04c.06-.3,.11-.59,.17-.88h-.04l-.21,.8c-.21-.49-.02-.93,.08-1.38-.04,.09-.09,.17-.13,.26-.04,.09-.08,.19-.12,.3l-.14-.07c.03,.11,.05,.24,.08,.36l-.08,.02c-.05-.07-.1-.15-.15-.22,.05,.32,.15,.63,0,.94h-.07c-.05-.22-.11-.45-.13-.68-.03-.36-.13-.7-.35-1.05,.08,.23,.15,.42,.19,.6,.02,.07-.01,.15-.05,.21-.06,.1-.15,.1-.22,0-.09-.13-.17-.27-.26-.4-.01-.02-.03-.04-.05-.04-.19-.01-.15-.12-.13-.17-.08-.09-.14-.15-.25-.26,.21,.32,.05,.57-.06,.85l-.23-.17c.11,.17,.28,.3,.13,.49l-.23-.33c.07,.25,.13,.46,.18,.68h-.06c-.41-.37-.35-.93-.67-1.34,.06,.16,.1,.32,.17,.47,.08,.18-.01,.31-.14,.44-.15-.19-.3-.37-.45-.56l-.03,.02c.03,.11,.07,.22,.1,.33h0l-.08,.15h-.05c-.06-.2-.12-.41-.17-.62h-.02c.05,.31,.11,.62,.16,.92l-.2,.07-.16-.25c-.09,.24-.16,.43-.23,.63h-.06c-.09-.34,.04-.68,0-1.02l-.08,.37h-.06c0-.15-.01-.3-.02-.44h-.07c0,.08,0,.16,.01,.24,.02,.1,0,.18-.14,.22-.07,.02-.13,.1-.2,.15-.18-.13-.11-.33-.1-.55l-.07,.22c-.21-.02-.24-.04-.18-.2,.04-.11,.08-.21,.09-.33-.07,.1-.15,.2-.22,.3l-.05-.03v.32l-.16-.11,.11,.39-.09,.02-.18-.29v.18c-.16-.01-.22-.07-.24-.22-.04-.28-.12-.55-.2-.82-.02,.19-.04,.38-.06,.57l.1-.16c.09,.28,.14,.5-.15,.72,0-.16,.01-.29,.02-.41l-.07,.15c-.26-.17-.07-.36-.06-.55l-.15,.23c-.25-.09-.18-.31-.3-.46,.02,.14,.05,.29,.05,.43,0,.09,.11,.21-.07,.28,0,0,.04,.07,.04,.1,.02,.1,.04,.19,.06,.29h-.06l-.13-.25-.05,.02c0,.28,.23,.58-.1,.86-.03-.17-.08-.35-.1-.52-.02-.26,0-.52-.03-.78-.01-.1-.13-.2-.22-.34,.16,.37,.13,.69-.03,1.03-.12-.22-.22-.41-.34-.64-.03,.11-.04,.19-.06,.27l-.19,.17c-.08,.3-.16,.61-.25,.91h-.07c-.05-.09-.08-.21-.17-.29-.08-.09-.11-.15-.05-.26,.13-.23,.24-.46,.36-.69l-.05-.02c-.11,.15-.22,.3-.31,.46-.07,.12-.15,.17-.31,.13,.09-.34,.18-.68,.27-1.02h-.03l-.44,1.45-.09-.02c-.02-.29,.12-.57,.16-.84-.09,.15-.19,.31-.28,.47-.11-.28,.1-.49,.16-.77l-.25,.39-.25-.5h-.03l.2,.67-.14-.03,.06,.34-.12,.02c-.04-.2-.08-.4-.12-.61h-.05c.02,.37,.03,.73,.05,1.1l-.11,.02c-.03-.09-.06-.18-.07-.28-.05-.32-.1-.64-.15-.96,0-.04-.04-.07-.07-.14,.01,.29,.26,.57-.09,.81-.1-.16-.21-.33-.31-.49l-.04,.02,.1,.26-.04,.03-.13-.1c-.11,.22-.23,.47-.35,.72h-.06c.06-.31,.12-.61,.18-.91h-.03c-.08,.3-.15,.61-.24,.96-.22-.5-.02-.93,.07-1.38l-.25,.56-.14-.06c.02,.12,.05,.26,.08,.39h-.07c-.05-.07-.1-.15-.15-.23,.07,.33,.12,.65-.03,1.02-.28-.56-.1-1.18-.49-1.71,.06,.18,.12,.34,.15,.51,.01,.07-.02,.15-.06,.21-.06,.09-.15,.08-.21,0-.09-.13-.17-.27-.26-.4-.01-.02-.03-.04-.04-.04-.22,0-.13-.14-.16-.21l-.17-.19c.17,.28,0,.53-.11,.84l-.12-.19-.05,.03c.08,.14,.23,.26,.09,.44l-.23-.32c.07,.25,.13,.46,.19,.68h-.06c-.41-.37-.35-.92-.67-1.33,.06,.16,.1,.32,.17,.48,.08,.18-.03,.3-.14,.41l-.46-.55-.03,.02c.03,.11,.07,.22,.1,.34h0c-.03,.06-.05,.12-.08,.19h-.04c-.06-.22-.12-.43-.18-.65h-.02c.05,.31,.11,.62,.17,.94-.15,0-.3,.03-.32-.19l-.06,.03c-.07,.2-.15,.41-.22,.61-.14-.35-.01-.7-.05-1.05l-.08,.37h-.06c0-.08,0-.17-.01-.25,0-.08-.02-.15-.04-.23h-.07c.02,.09,.03,.19,.05,.28,.02,.11-.01,.18-.15,.22-.07,.02-.11,.09-.18,.15-.19-.13-.13-.32-.13-.5,0,.02,0,.05-.03,.06-.04,.03-.09,.06-.14,.09-.03-.05-.09-.1-.08-.14,.03-.13,.08-.25,.09-.38l-.18,.31-.11-.07c.01,.1,.03,.22,.04,.34l-.07,.03-.09-.14-.05,.03c.06,.13,.2,.26,.04,.42-.06-.1-.11-.18-.18-.3v.17c-.18,0-.23-.08-.25-.23-.03-.27-.12-.54-.19-.86-.03,.25-.05,.44-.07,.63,.03-.04,.05-.09,.09-.14,.17,.3,.14,.43-.14,.64l.06-.51c-.03,.09-.06,.18-.1,.28q-.15-.13-.04-.57c-.05,.06-.07,.1-.1,.14-.02,.04-.04,.07-.1,.16-.07-.11-.14-.19-.18-.27-.05-.1-.08-.21-.12-.31,.03,.19,.09,.39,.07,.58-.01,.17-.06,.33,.03,.5,.01,.03-.02,.07-.05,.15-.03-.09-.04-.14-.07-.18-.03-.04-.08-.07-.12-.11q.11,.7-.06,.88v1.44c9.8-.4,19.59-.8,29.39-1.2h31.83v.56c4.42-.2,8.83-.41,13.24-.61,.09,.17,.19,.34,.24,.52,.06,.2,.09,.41,.24,.58,.02,.03,.01,.09,.02,.19-.07-.09-.1-.16-.14-.2-.04-.04-.11-.06-.16-.09q.4,.79,.32,1.05l.61,1.69c3.58-1.43,7.16-2.86,10.74-4.29,3.44-.16,6.89-.32,10.33-.48-.04-.9-.08-1.79-.12-2.69h-.08l-.03,.31h-.07c-.03-.35-.07-.7-.11-1.12,3.91-1.56,7.83-3.13,11.74-4.69h37.68Zm-4.19-2.44c.05,.14,.09,.28,.13,.43h-.03l-.2-.24h0v-.2s.1,0,.1,.02Zm-.1,.18c.03,.2,.2,.39,.08,.6-.09-.13-.17-.27-.2-.41-.01-.05,.08-.12,.12-.18Zm-19.3-.16s.1,.07,.12,.11c.2,.31-.07,.57-.12,.86-.15-.32-.07-.64,0-.97Zm-4.89,0s0-.03,0-.04c.05,.01,.12,.02,.12,.04,.05,.18,.1,.37,.13,.56,.02,.12-.07,.18-.21,.2-.12-.26-.22-.5-.04-.76Zm-7.21,0s.1,.06,.12,.11c.2,.31-.07,.57-.12,.85-.14-.32-.06-.64,0-.96Zm-106.38,11.28c-.14-.32-.08-.64-.04-.96,.04,.03,.09,.06,.12,.1,.19,.3-.04,.57-.07,.86Zm6.44-.47c-.12-.25-.21-.49-.07-.76,0-.01,0-.03,0-.04,.04,.01,.11,.02,.11,.04,.05,.18,.1,.37,.14,.55,.03,.12-.06,.18-.18,.21Zm4.33,.03c-.15-.32-.09-.64-.04-.96,.04,.03,.09,.06,.11,.1,.19,.3-.04,.57-.07,.86Zm19.84-2.14c.04,.13,.07,.26,.1,.38-.25-.11-.16-.25-.1-.38Zm-2.61,.44c.05,.14,.09,.28,.13,.42h-.02c-.06-.07-.13-.15-.19-.24h0l-.02-.2s.1,0,.1,.02Zm-.09,.19c.01,.07,.04,.14,.07,.21l-.05,.02-.05,.13c-.03-.06-.05-.12-.07-.18-.01-.05,.06-.12,.1-.19Zm-1.49-.09c.03,.07,.07,.13,.09,.21-.03,.05-.07,.09-.1,.14l-.02-.03c-.02-.11,0-.22,.04-.31Zm-.84-.03s-.03-.1,0-.21c.02,.07,.02,.14,0,.21Zm10.42,.4h-.04c0-.06,.01-.13,.01-.19,.01,.06,.02,.13,.03,.19Zm.6-.16c.03-.14,.07-.28,.1-.42,.03,.16,.02,.29-.1,.42Zm-.61-.52c0,.07,.05,.17-.02,.24,0-.12,0-.24,0-.35,0,.04,.01,.08,0,.12Zm-.98,.31c.02,.1,.04,.2,.06,.29-.05-.11-.11-.22-.16-.33,.04,.01,.1,.02,.1,.04Zm-.04,.41c.04,.09,.07,.19,.1,.29-.03,.03-.08,.05-.13,.06-.08-.2-.15-.39-.11-.58,.04,.08,.1,.15,.14,.24Zm-.63,.62c-.05-.1-.08-.22-.15-.31-.08-.09-.11-.15-.04-.26,.1-.16,.18-.32,.27-.48,.07,.13,.13,.26,.2,.39-.07,.21-.14,.43-.2,.65h-.07Zm4.92-.05c-.14-.32-.06-.64,0-.97,.04,.04,.08,.07,.11,.11,.17,.31-.06,.57-.11,.86Zm4.57-1.55l.07,.27s-.02,.05-.03,.08c-.04,.1-.08,.21-.12,.31,0-.09,0-.17,0-.26h-.06c.03-.11,.06-.23,.11-.33,.01-.03,.03-.05,.04-.08Zm-.5,.67c0-.14,.03-.28,.04-.42,0,.18,.08,.37-.02,.54-.01-.04-.03-.08-.02-.12Zm-.96-.55c.04,.16,.06,.32,.1,.48,0,.03,0,.06,0,.09l-.02,.05h-.01c-.02-.07-.04-.14-.06-.2-.02-.09-.04-.18-.06-.27,.02-.05,.03-.1,.05-.15Zm-.11,.38s.04,.05,.05,.08c.03,.13,.06,.25,.09,.38-.04,.15-.09,.29-.13,.45-.12-.32-.08-.62,0-.9Zm.07,.98l.09-.39,.16-.02-.21,.42h-.04Zm1.17-.43l.02-.02-.02,.17c.06-.04,.07-.06,.08-.26h-.08s0,.04,0,.05v-.04h0c.01-.07,.02-.15,.05-.22,.03-.09,.08-.18,.11-.27h0v.41s-.02,.04-.03,.06h.03v.58c-.23-.13-.15-.31-.17-.47Zm.43-.04l-.1,.02c-.02-.08-.04-.15-.06-.23,.03-.17,.06-.34,.15-.48,.04,.14,.08,.28,.12,.45l-.16-.09c.02,.11,.03,.22,.05,.34Zm10.14-.28s-.01-.04-.01-.06c0-.14,.03-.27,.04-.41,.08,.16,.03,.31-.03,.47Zm-.19-.17c.02-.05,.04-.11,.06-.16,0,.12,0,.25,0,.37-.1-.04-.11-.11-.07-.21Zm-.54-.16c.01,.13,.02,.27,.03,.4,0,.01,0,.03,0,.04-.01,0-.01,0-.03,0v.07h0s-.02-.06-.02-.09c0-.05-.02-.1-.03-.15,.02-.09,.04-.18,.06-.28Zm-.15,.19s0,.1,0,.14h-.03c-.02-.06-.04-.12-.05-.18l.02-.26c.02,.1,.04,.2,.06,.3Zm-.1,.27v.04h0v-.04Zm1.61-.16l-.14-.21c.03-.08,.07-.16,.12-.22,.01,.03,.02,.06,.03,.1,.03,.11,.04,.22,.05,.32l-.06,.02Zm1.81,.63c-.08-.13-.15-.27-.18-.41-.01-.05,.07-.12,.11-.18,.03,.2,.18,.39,.07,.6Zm.11-.35l-.18-.25h0v-.2s.09,0,.09,.02c.04,.14,.08,.28,.11,.43h-.03Zm3.06-.42c.02,.07,.04,.14,0,.19-.05-.11-.04-.24-.04-.37,.01,.07,.02,.13,.03,.18Zm-1.45-.09c-.03-.05-.04-.11-.04-.21,.02,.07,.03,.14,.04,.21Zm2.95,1.11c-.15-.4-.09-.8-.06-1.2,.04,.04,.09,.08,.12,.13,.2,.37-.03,.71-.06,1.07Zm4.3-.23c-.02-.09-.04-.18-.06-.27l.16-.02v.27l-.09,.02Zm.72-.31s0-.01,0-.02h0s0-.02,0-.03h0s0-.1,0-.14c0,.05,0,.09,0,.14h.1l-.02,.07-.09-.02Zm1.42-.02c-.12-.32-.22-.62-.08-.95,0-.01,0-.04,0-.06,.04,.01,.11,.02,.11,.04,.06,.23,.11,.46,.15,.69,.03,.15-.05,.22-.17,.26Zm17.89-2.08l-.04,.03c-.06-.04-.1-.09-.16-.13,.01-.06,.02-.11,.04-.17l.16,.25v.02Zm-.91,.44c-.04-.07-.08-.14-.12-.22h.08s-.02-.04-.02-.06c0-.09,0-.18,0-.27,.05,.1,.07,.2,.08,.31h-.06c.01,.07,.04,.1,.08,.13,0,.05,.01,.1,.02,.15-.02-.01-.03-.02-.05-.04Zm.8-.91v.02l-.14-.12c.02-.05,.03-.1,.05-.15,0-.01,.01-.02,.02-.03,.06,.07,.09,.16,.08,.28Zm-.23-.27s-.02,.05-.03,.07l-.03-.02c.02-.07,.03-.14,.05-.21,.02,.02,.04,.03,.06,.05-.01,.04-.04,.07-.05,.11Zm.16,.44c-.02,.05-.04,.11-.06,.16-.04-.04-.09-.07-.12-.1,.01-.03,.02-.05,.03-.08,.02-.05,.03-.1,.05-.14l.11,.17Zm.9-1.09c.04,.07,.05,.18,.05,.27-.02,.14-.1,.17-.21,.07-.07-.07-.14-.13-.21-.2,.02-.04,.04-.09,.06-.13,.02-.04,0-.09,0-.13-.1-.02-.15,.04-.18,.11v.03l-.06-.04c.08-.14,.17-.27,.26-.4,.11,.15,.2,.29,.29,.43Zm-.88,.25c-.04,.08-.08,.16-.11,.24l-.07-.03c.04-.18,.08-.37,.12-.55,.03,.11,.05,.22,.06,.34Zm-.28-.66v-.03c.1,.09,.15,.18,.19,.28-.04,.2-.08,.4-.12,.61l-.07-.03s.04,.04,.06,.06c-.01,.07-.03,.14-.04,.21l-.04-.04,.04,.06c-.02,.1-.04,.2-.06,.3-.05-.06-.09-.12-.14-.18,.04-.42,.1-.83,.19-1.24Zm-.55,1.22c0-.12,.02-.24,.03-.36,.02,.03,.04,.06,.06,.09,.16,.19,.12,.37,.05,.56l-.14-.11c0-.06,0-.12,0-.18Zm-.08,.35c0,.06,0,.12,.01,.18,0,.03-.02,.07-.03,.12,.01,.03,.02,.07,.03,.11-.04-.08-.08-.15-.12-.23,0,0,0-.01-.01-.02-.03-.11-.06-.23-.09-.35,.05,.03,.11,.05,.15,.09,.03,.03,.04,.06,.06,.09Zm-.22-.18h0l-.02,.21-.03,.02c0-.11-.01-.22-.02-.33l.07,.1Zm-.09,.18s0-.03,0-.04v.04Zm-.21-.24c.02,.09,.04,.18,.06,.27,.01,.05,0,.1,0,.14h-.03c-.02-.07-.04-.13-.06-.2-.04-.16-.07-.31-.11-.47l.14,.25Zm-2.19,.6c.04-.19,.06-.38,.11-.56,.12-.48,.24-.97,.44-1.43,.17-.39,.4-.75,.67-1.08,.12,.21,.23,.42,.32,.65,.19,.46,.29,.95,.4,1.43,.04,.19,.07,.38,.1,.56,.02,.03,.04,.05,.05,.08,.03,.12,.05,.23,.08,.35l-.04-.04,.02,.28s-.02,.05-.02,.08l-.12-.25-.05,.05c.04,.08,.11,.16,.13,.25,.02,.08,0,.16-.03,.25-.15-.33-.2-.7-.35-1.03l.08,.46-.06,.02c-.07-.17-.14-.34-.21-.51l-.06,.02c.04,.09,.07,.18,.11,.27,.06,.12,.08,.21-.04,.3-.06-.25-.13-.5-.26-.72,.02,.29,.23,.57,.18,.86-.01,.04-.03,.07-.04,.11-.23-.1-.24-.35-.33-.62,.01,.14,.02,.21,.02,.28-.06,.01-.1,.02-.13,.02l-.13-.19h0c-.01-.14-.02-.28-.05-.42l-.08,.43-.06-.02-.03-.15h-.03l.07,.48-.08-.03,.1,.17,.04,.27-.25-.24,.09,.21c-.16,.04-.25-.01-.33-.18-.04-.07-.08-.14-.12-.21,0-.01,0-.03,0-.04v.03c-.04-.06-.07-.12-.11-.18h0Zm-.03,.61c0-.17-.02-.34-.02-.5h0v-.03h.01c.05,.07,.09,.15,.12,.22l-.05,.33h-.06Zm-.14-.09c.02-.08,.04-.15,.06-.22,0,.03,0,.05,0,.08,0,.07,0,.12-.03,.16,0,0-.02-.01-.02-.02Zm.26-.19c.05,.13,.05,.26,0,.41,0-.14,0-.27,0-.41Zm.68,.21v-.04l.02,.04h-.02Zm-.07-.32c-.02-.11-.05-.22-.07-.33l.14,.35-.07-.02Zm-.87-.12s-.03,.1-.05,.15h-.03c0-.05-.01-.1,0-.15,.01-.05,.02-.1,.03-.15l.04,.15Zm-.53,.2s.04,.07,.06,.11c-.04,0-.07-.02-.1-.02h0c-.02-.07-.04-.1-.03-.13v-.09s.05,.09,.07,.14Zm-.27,.15h-.04l.02-.08v.08Zm-.72-.87c.06,.13,.09,.27,.14,.4,.04,.09,.09,.18,.13,.27,.03,.07,.04,.14,.05,.21l.15,.02c.06,.12,.1,.25,.13,.38h-.04l-.18-.35c0,.11,0,.16,.01,.22-.04,0-.05-.02-.08-.03l-.02-.16,.04,.03s-.02-.07-.03-.11h-.09c.02,.16,.03,.2,.08,.23-.09-.03-.15-.1-.16-.24h.04s-.03-.07-.04-.09l-.02-.04c-.04-.3-.11-.6-.2-.9,.03,.05,.06,.1,.09,.16Zm-.04,.39s.02,0,.03,0c.04,.07,.06,.14,.07,.21-.03-.07-.06-.14-.09-.22Zm-5.79,3.75h0Zm-2.33-2.91s.09,.08,.11,.13c.19,.37-.03,.72-.06,1.08-.15-.4-.1-.8-.06-1.21Zm-.12,4.01l-.16-.62,.03,.37q-.2-.1-.28-.65c-.02,.09-.03,.14-.03,.19,0,.05-.01,.1-.02,.22-.12-.11-.21-.18-.28-.26-.05-.06-.09-.12-.14-.19l.64-.03,.1,.37,.02-.19c.29,.3,.32,.46,.14,.8Zm.74-.15l-.29-.29c.04,.1,.06,.15,.08,.2-.18,.06-.26-.02-.34-.19-.09-.18-.19-.36-.31-.55l.83-.04v.09l-.14-.05c.06,.12,.12,.25,.18,.38l-.06,.06-.14-.13-.03,.05c.11,.13,.3,.24,.22,.48Zm.74-.52c-.06,.04-.07,.15-.11,.24-.24-.09-.26-.33-.33-.54,0,.03,.01,.06,0,.08-.03,.05-.06,.1-.1,.15-.05-.04-.12-.08-.13-.13,0-.05-.01-.1-.02-.15l.69-.03s.03,.06,.04,.08c.06,.12,.06,.21-.05,.3Zm.2-.09c-.04-.1-.08-.2-.12-.29h.13l.05,.27-.06,.02Zm.46-.11l-.04,.06c.02,.26,.04,.53,.05,.79-.25-.32-.3-.7-.43-1.05,.21,0,.41-.02,.62-.03,.06,.12,.12,.23,.19,.35-.15,.04-.28,.13-.38-.12Zm.4-.24h.2c.16,.26,.11,.58,.19,.87-.21-.26-.31-.56-.39-.87Zm1.17,.18c-.1-.06-.19-.14-.27-.22h.19l.12,.19-.05,.03Zm1.6-.11c-.05-.06-.09-.13-.13-.2h.11c0,.06,.02,.12,.02,.2Zm12.11-2.84c-.03-.06-.06-.12-.09-.18l.11-.05c0,.07,0,.15-.03,.23Zm1.47-.8l.16-.07c-.03,.08-.08,.16-.17,.24v-.18Zm.36-.02l-.02-.11,.15-.06-.05,.15h-.07Zm.38-.26l.1-.04v.13s-.07-.06-.1-.09Zm1.15,.26h-.06l-.03-.55h-.07c0,.06,0,.13-.01,.21-.04-.07-.07-.13-.12-.24,.03,.14,.04,.22,.06,.3,.03,.14,.09,.28-.12,.32-.04,0-.06,.1-.09,.16-.2-.17-.17-.4-.16-.62l-.06,.24c-.12-.06-.17-.13-.18-.21l.93-.37c-.03,.29-.06,.52-.08,.76Zm7.74-7.1c.11,.15,.2,.3,.3,.45l-.02,.02c-.09-.08-.19-.15-.28-.23h0l-.11-.23s.1-.03,.11-.01Zm-.02,.5c-.04-.06,0-.17,.01-.25,.12,.22,.35,.38,.34,.67-.14-.13-.26-.26-.35-.42Zm3.15-1.62c.03,.06,.05,.11,.07,.16h-.02l-.06-.14h0Zm-.25-.14s.03,.06,.05,.08c.05,.07,.1,.15,.09,.22l-.03,.07s-.03,.04-.07,.06c-.02,.01-.02,.05-.02,.1-.14-.12-.14-.14-.02-.53Z"/><path class="cls-4" d="M181.83,52.75v.04l.03-.05h-.03Z"/><path class="cls-4" d="M144.67,54.71l.02,.05v-.07l-.02,.02Z"/><polygon class="cls-4" points="81.56 61.26 81.56 61.26 81.56 61.26 81.56 61.26"/><polygon class="cls-4" points="126.66 58.91 126.66 58.91 126.66 58.91 126.66 58.91"/><path class="cls-4" d="M128.03,61.5h0Z"/><path class="cls-4" d="M128.03,61.5h.04v-.07l-.04,.07Z"/><polygon class="cls-4" points="92.64 60.34 92.64 60.34 92.64 60.34 92.64 60.34"/><path class="cls-4" d="M91.4,62.94v-.02h0v.02Z"/><path class="cls-4" d="M91.37,62.85s0,.05,0,.08h.03l-.03-.08Z"/><polygon class="cls-4" points="134.18 58.48 134.17 58.48 134.18 58.48 134.18 58.48"/><polygon class="cls-4" points="103.37 60.34 103.36 60.34 103.37 60.34 103.37 60.34"/><path class="cls-4" d="M102.14,62.93h-.01v0Z"/><polygon class="cls-4" points="115.64 60.34 115.63 60.34 115.64 60.34 115.64 60.34"/></g></g><g id="section"><path class="cls-2" d="M190.52,55.64h-40.59l-20.8,8.22h-33.31l-53.52,.97L1.08,70.95l-.15,15.54,.15,3.41c.55,2.36,.77,7.52,8.72,8.72H181.8c7.27-.48,8.43-6.51,8.72-7.85V55.64Z"/></g><g id="text"><path class="cls-4" d="M81.14,46.03c-.11-.12-.21-.25-.32-.37-.11-.12-.11-.17,.03-.24,.09-.05,.19-.06,.24-.17,.02-.04,.15-.02,.21-.06,.03-.03,.04-.08,.08-.09,.14-.06,.28-.11,.43-.17l-.07-.1,.25-.13v-.05c-.3-.05-.59-.12-.89-.14-.11,0-.23,.08-.35,.13-.21,.1-.41,.2-.62,.3-.03,.01-.06,0-.1,0,.06-.24,.2-.43,.41-.54,.2-.1,.26-.31,.44-.46h-.17l.07-.16c-.43,.07-.81,.22-1.15,.46-.09,.07-.17,.16-.24,.26-.13,.19-.27,.25-.47,.14-.28-.14-.55-.3-.82-.46-.19-.11-.37-.17-.59-.1-.11,.03-.24-.01-.39-.03,.04,.05,.06,.08,.09,.1,.14,.09,.27,.19,.41,.27,.09,.05,.19,.1,.29,.11,.35,.07,.66,.23,.94,.44,.08,.06,.14,.15,.18,.23,.15,.27,.36,.45,.65,.55,.44,.15,.89,.24,1.36,.28,.03,0,.05,0,.08,0l.03-.03Z"/><path class="cls-4" d="M139.57,39.5l-.07,.15-.04,.02c.14,.12,.29,.24,.43,.37,.08,.08,.14,.19,.21,.28l-.04,.05c-.13-.05-.26-.09-.38-.16-.37-.21-.63-.23-1.05-.03l.18,.09-.04,.08c.05,.02,.1,.03,.15,.06,.2,.1,.4,.2,.59,.31,.08,.05,.05,.11,0,.16-.08,.08-.15,.17-.22,.26l.03,.06c.29-.06,.58-.12,.86-.19,.3-.07,.52-.23,.69-.52,.16-.27,.47-.35,.76-.46,.21-.08,.4-.2,.59-.33-.27,.02-.54-.08-.78,.12-.13,.11-.31,.18-.46,.27-.2,.11-.3,.07-.44-.1-.09-.11-.2-.2-.33-.26-.21-.1-.43-.17-.63-.25Z"/><path class="cls-4" d="M166.65,33.38c-.08-.02-.22-.01-.24-.06-.07-.15-.09-.32-.15-.51l-.23,.08v-.36h.26l.02-.03-.12-.07,.2-.15-.3-.06-.03-.15-.31,.22-.07-.27,.47-.16-.13-.23,.17-.1-.2-.24,.05-.08c-.07-.14-.35,.02-.31-.26l-.31,.16c-.23-.09-.39-.39-.27-.6l-.31-.26s0-.03,.02-.11c-.24,.09-.45,.19-.67,.26-.09,.03-.2,0-.34-.01l-.31,.33,.03,.04-.3-.03,.06-.3-.45-.57,.02-.04,.36,.04c.04-.16-.01-.29-.18-.37l.1-.14-.29-.04-.07-.14c.09-.13,.2-.16,.34-.04v-.23c.25,.05,.13,.27,.21,.37l.19-.06c.11-.02,.04-.23,.26-.21,.08,0,.17-.17,.33-.06l-.24-.39-.25-.05,.08-.13c-.29-.11-.11-.26-.04-.4l.26,.06-.07-.27,.15-.08-.29-.19v-.04h.19l.08-.11,.19,.29,.06-.38,.13,.04c-.02-.07-.03-.13-.06-.17-.05-.07-.12-.13-.18-.2-.03-.03-.07-.08-.06-.1,.12-.2-.06-.22-.16-.29-.03-.02-.06-.05-.1-.08l.19-.1-.16-.06v-.06l.29,.04-.03-.14,.24-.16-.25-.14,.03-.1-.25,.04,.06-.21-.12-.04v-.31l-.18,.16-.08-.11-.19,.43c-.11-.07-.28-.13-.36-.32-.01-.03-.02-.06-.04-.08-.14-.11-.08-.14,.04-.23,.07-.05,.23-.11,.21-.27,0-.04,.11-.08,.17-.13l-.17-.24,.03-.04c-.06,0-.13-.01-.18,.01-.13,.06-.18-.06-.21-.12-.03-.07,.01-.14,.12-.14,.04,0,.07-.04,.1-.07,.03-.03,.05-.07,.1-.13-.03-.04-.08-.1-.13-.16-.04-.04-.12-.05-.07-.14,0-.02-.12-.11-.18-.16-.11-.09-.11-.18,.02-.29-.05-.02-.1-.06-.13-.05-.25,.1-.36-.05-.45-.26-.05,.04-.1,.07-.15,.1-.03,.02-.09,.07-.1,.06-.14-.11-.23,.07-.37,.05,.01,.05,.02,.09,.03,.12,.04,.12-.03,.18-.13,.17-.11-.01-.22-.06-.32-.09-.02,0-.04,0-.07,.01-.03-.27,.2-.25,.36-.3l-.14-.55c-.07-.05-.19-.19-.38,0-.03,.04-.17-.03-.3-.05l.19-.14-.21-.18,.08-.04c-.17-.1-.36,.07-.48-.1,.07-.27,.13-.28,.36-.19l.1-.29c.09,0,.21,0,.32-.03,.04-.01,.11-.1,.1-.13-.04-.09,.03-.23-.1-.28-.03-.01-.08-.04-.08-.06-.06-.32-.31-.35-.57-.36-.04,.05-.08,.11-.13,.17l-.18-.15c-.11,.24-.21,.27-.39,.15-.12,.05-.22,.1-.32,.14-.01,0-.05-.07-.09-.13h.18l-.03-.11,.23-.03-.24-.2,.06-.16c-.3,.1-.54,0-.79-.12l.05-.1-.38-.14,.07-.15h-.99l.1,.26-.45-.02-.04-.23h-.35l-.02,.24-.12,.02-.02,.35h-.46v.05l.12,.11-.11,.21,.21,.02-.16,.3c-.09-.03-.21-.03-.26-.1-.04-.05,0-.17,0-.28l-.18,.13c-.11-.23-.25-.13-.4-.06-.03,.01-.07,0-.1,0-.05-.02-.1-.06-.15-.09-.26-.15-.38-.1-.44,.18l-.29,.05,.06,.14-.43-.03v-.11c-.19,.03-.42,.08-.22-.29l-.24,.05c-.03-.1-.04-.23-.11-.3-.11-.11-.39-.04-.48,.07-.17,.21-.29,.22-.49,.07-.03,.02-.08,.07-.1,.06-.17-.08-.31,.03-.45,.09-.08,.03-.13,.11-.19,.15,.12,.1,.22,.16,.3,.24,.07,.08,0,.12-.08,.15-.13,.05-.26,.1-.39,.15,.12,.2,.11,.23-.09,.32-.04,.02-.07,.06-.11,.09-.04,.02-.09,.03-.15,.05,.06,.09,.11,.17,.16,.24,0,0,.01,.03,0,.03-.05,.1-.08,.27-.16,.3-.19,.07-.09,.26-.21,.33l.05,.05,.47-.25,.04,.05c.09-.02,.16-.05,.22-.04,.03,0,.06,.12,.04,.17-.04,.11-.09,.21-.23,.23-.13,.01-.26,.04-.39,.06l.08,.25h-.47v-.05l.18-.15-.16-.24-.38,.02,.07-.19-.11-.03-.03-.22-.18,.12-.13-.1v.25c-.08-.02-.17-.06-.26-.06-.06,0-.12,.06-.18,.1-.06,.04-.12,.08-.19,.11-.09,.25-.27-.08-.35,.06l-.17,.26,.15,.04-.08,.19-.19-.14,.05-.16c-.22,.06-.42,.13-.62,.18-.06,.01-.12-.02-.14-.02-.08,.04-.12,.08-.17,.07-.22,0-.42,.17-.42,.35l-.42,.18,.03,.4-.11-.03c.03,.16-.06,.35,.21,.46l-.45,.08,.11,.09-.18,.1-.05-.3-.13,.18-.23-.1v.27l-.12,.04c.01,.08,.03,.16,.04,.23,0,.06,0,.14-.03,.17-.09,.08-.19,.2-.26,.36l.14,.1-.13,.21c-.08-.01-.15-.04-.21-.03-.06,0-.18,0-.09,.14,.01,.02-.03,.08-.05,.12-.04,.08-.07,.16-.11,.23l.2,.16c-.06,.1-.11,.18-.16,.27-.07,.16-.03,.26,.15,.34,.02,.01,.03,.05,.04,.08,.03,.06,.06,.11,.1,.21l.06-.17h.05l.09,.3,.37-.11,.04,.05-.03-.33,.15-.03-.1-.54,.21,.11c.09-.15,0-.4,.21-.49l.18,.28,.34-.29,.09,.27-.13,.09,.2,.12-.44,.23,.17,.09-.07,.09c.06,.06,.16,.1,.16,.16,0,.06-.11,.12-.12,.19-.03,.2-.13,.33-.32,.39,.08,.17-.14,.27-.09,.43l.13-.09,.25,.37,.08-.21c.14,.15,.13,.19-.1,.51l-.38-.29-.27-.1-.02,.24-.12,.08h0c-.08,.06-.22,.1-.24,.18-.04,.12-.11,.08-.13,.05-.07-.11-.17-.11-.28-.13-.03,0-.05-.06-.1-.13-.07,.09-.11,.19-.19,.25-.06,.05-.16,.07-.25,.11v.24l-.33,.2,.02,.04,.5,.05,.02,.07,.47,.13v.06s-.07,.04-.1,.06c-.06,.04-.17,.01-.16,.16,0,.05-.11,.26-.3,.2-.04-.01-.11,.05-.16,.04-.06,0-.12-.04-.16-.06l-.27,.28,.51,.06c-.08,.17-.37,.1-.31,.37,.11-.02,.23-.04,.24,.16,0,.05,.12,.09,.16,.15,.05,.07,.07,.15,.12,.25l.08-.16,.05,.03,.02,.17,.59-.09c.11,.09,.13,.26,.15,.43l-.05,.02-.21-.28-.07,.14-.39-.06,.11,.37c-.1-.05-.15-.07-.19-.1-.1-.05-.2-.09-.3-.14-.15-.08-.31-.15-.45-.25-.07-.05-.29-.12-.38-.08-.12,.05-.17,0-.16-.12,0-.07-.03-.14-.05-.22l-.29,.06c-.11,.11-.23,.25-.37,.37-.03,.03-.09,.01-.14,.01-.2,0-.38,.04-.49,.24l.06,.05c-.12,.14-.26,.27-.35,.42-.03,.05,.08,.17,.12,.27,.2-.14,.37-.28,.64-.18l-.36,.27,.08,.09-.15,.24,.29,.02v.09l.24-.12-.08,.26,.17,.02-.09,.1,.06-.07,.13,.11-.09,.08,.12-.04,.06-.22,.26-.02-.19,.2,.1,.11c-.25,.12-.08,.3-.05,.47l-.15-.03-.02,.12-.17-.03-.07-.5-.28,.14-.12-.06-.15,.33h-.45c.03,.12-.03,.22-.33,.61l.42-.08,.03,.24,.29-.11-.09,.27-.28-.04,.09,.21-.03,.04-.27-.14-.06,.1-.18-.21-.04,.02,.07,.21-.44,.23,.35,.18c-.04,.21-.02,.25,.16,.26l.09,.26,.2-.21,.08,.04s.02-.07,.02-.1c-.03-.08-.06-.16-.1-.25h-.06l.08-.13h.51l-.35,.3h.31l-.05,.36,.17-.06c-.02,.07-.02,.12-.05,.17-.03,.06,0,.13,.05,.17,.04,.03,.09,.08,.1,.14,0,.03-.05,.07-.08,.11-.07,.13-.2,0-.29,.07l.06,.12-.05-.05-.14,.22,.29,.16v.05l.19-.11,.08,.11c-.13,.07-.24,.14-.38,.06-.02-.01-.08,.05-.13,.07-.07,.03-.15,.06-.25,.1l.2,.13h-.27l-.02,.03,.11,.04-.02,.05-.51,.04,.12,.15-.17,.12h.04l-.06,.34c.1,.01,.17-.18,.26,0q.2-.22,.31-.22c-.07,.1-.14,.17-.17,.25-.03,.1-.03,.21-.04,.36l.24-.18,.18,.58,.13-.22,.07,.1,.11-.14,.29,.27,.17-.22,.07,.05,.06-.15,.16,.09-.15,.29,.12-.02,.19,.35c.16-.19,.1-.57,.48-.43,.01-.27,.11-.38,.36-.4,.02,0,.05,.02,.08,.03-.02,.02-.03,.03-.05,.05-.06,.06-.13,.11-.21,.19l.16,.03,.03,.21,.37-.12c0,.15,.1,.27-.1,.34-.05,.02-.06,.17-.09,.25-.15,.05-.31,.07-.43,.15-.11,.08-.18,.22-.28,.34l.18,.07c-.07,.09-.14,.17-.2,.25-.22,.28-.18,.45,.15,.61,.15-.21,.31-.4,.6-.42l-.18,.29,.06-.02,.21,.27,.23-.17,.03,.04,.03-.19,.17,.04,.24-.44,.35,.06c.04-.1,.05-.22,.1-.25,.07-.04,.18,0,.28,0,.02,.02,.05,.06,.06,.1,.02,.05,.02,.1,.03,.16l.15-.02v.18c.1-.03,.18-.06,.26-.08,.17-.03,.14,.13,.19,.21,.03,.06,.05,.13,.08,.23l.06-.15,.2,.12-.06-.3,.16-.09-.16-.14c.07,0,.19-.01,.31,0,.05,0,.1,.08,.15,.12,.03-.08,.05-.17,.1-.23,.02-.03,.12,.01,.17,.02l.23-.15-.04,.25,.39-.13,.09-.16h.5l-.34,.29h.31l-.04,.36,.13-.04,.15,.29,.56-.74,.16,.13,.05-.3,.17-.03c-.04-.16-.16-.12-.28-.09l.11-.13-.22-.12,.02-.05c.28,.1,.59,.15,.81,.41l-.08,.15-.24-.13,.02,.23h-.22l.13,.2-.34-.05,.07,.09-.26,.08,.06,.04-.06,.24,.22-.02-.15,.23,.22,.08,.12-.21,.09,.1,.22-.23,.06,.13,.24-.19,.11,.09c-.11,.05-.05,.27-.26,.24-.09-.01-.2,.04-.3,.04-.01,.1-.09,.1-.2,.06l.05,.18-.34-.05,.02,.18-.22-.16-.09,.13-.19-.32-.12,.1-.3-.23v.22h-.67v.08h-.16l.09,.21h-.3l.08,.14-.37,.03-.05,.05,.17,.09-.12,.31,.31-.16,.05,.02-.16,.49,.35-.26,.03,.25,.19-.17,.08,.08c.06-.06,.11-.12,.17-.17,.03-.02,.08-.03,.12-.03,.07,0,.15,.02,.23,0l.2,.16-.41,.16c-.01,.24-.25,.07-.37,.17l.06,.07-.11,.19,.03,.03,.28-.12,.02,.16h.01c.13-.01,.26-.03,.38-.06,.09-.03,.14-.02,.13,.09,0,.09,0,.18,0,.28h.04l.11-.16,.41,.09-.02-.29,.04-.03,.21,.18-.14,.25h.17l.08,.25,.25-.2,.07,.02-.14-.43,.24,.07-.04-.44c.18,.12,.17,.41,.4,.32l.21,.29,.03-.21,.2,.16h.04l-.09-.36,.27,.06-.12-.31,.2-.08-.48-.18v-.04l.19,.06,.04-.04-.22-.25s.1-.04,.14-.03c.3,.05,.6,.11,.9,.17,.23,.05,.46,.06,.69-.01,.07-.02,.15-.04,.22-.06,.22-.06,.26-.05,.34,.17,.21,.56,.57,1,1.1,1.29,.2,.11,.29,.26,.33,.49,.08,.56,.25,1.12,.3,1.68,.08,.93,.12,1.87,.11,2.8-.02,1.29-.11,2.57-.18,3.86,0,0,0,.02-.03,.06l-.05-.22-.08,.1-.11-.77h-.06v.82h-.03l-.13-.3h-.03l.02,.32-.11-.12-.04,.1-.1-.18-.05,.32h-.03v-.23h-.03l-.06,.22h-.02v-.45h-.03l-.07,.42-.34-.44-.03,.02,.22,.48-.03,.02-.2-.14,.12,.23-.71-.29-.02,.04,.54,.3-.02,.04-.27-.12,.14,.19-.02,.02-.48-.21v.03l.33,.21-.84-.05v.22l-.29-.41h-.02l.17,.46-.07,.03-.14-.19-.03,.02,.09,.26-.4-.37c.03,.2,.29,.28,.18,.5l-.27-.15-.02,.03,.19,.22-.18-.09v.02l.11,.13h-.1s0,.09-.04,.11c-.26,.22-.51,.44-.87,.5-.24,.04-.48,.16-.61,.4h11.48c-.02-.21-.16-.34-.31-.45-.2-.13-.42-.23-.63-.35-.06-.03-.11-.06-.18-.1l.13-.06-.27-.02,.08-.1h-.29l.14-.1-.24,.02,.23-.2c-.27,.18-.56,.16-.89,.1l.2-.13-.52,.05,.32-.35v-.02l-.39,.28-.02-.02,.07-.12-.51,.05,.09-.25h-.02l-.19,.21-.18-.49v.38h-.04l-.15-.4-.02,.12h-.31l.23-.12v-.03l-.31,.07,.09-.1v-.02l-.23,.11-.02-.02,.23-.21v-.02l-.32,.13,.29-.34-.02-.02-.51,.36-.06-.02v-.35l-.21,.31h-.08c-.04-.27-.09-.54-.1-.8-.02-.85,0-1.71-.05-2.56-.05-.86-.17-1.71-.22-2.56-.04-.73-.08-1.47-.02-2.2,.06-.75,.24-1.49,.37-2.24,.02-.14,.04-.28,.04-.42,.02-.24,.13-.44,.32-.56,.81-.51,1.36-1.26,1.88-2.03,.03-.04,.06-.09,.09-.13,.33-.66,.95-.81,1.59-.88,.43-.05,.86-.06,1.28-.06,.1,0,.21,.06,.3,.12,.12,.09,.23,.2,.33,.32,.04,.05,.02,.14,.03,.21l-.33,.09v.06l.4,.05-.07,.25h.31l-.16,.22-.26-.14,.02,.24-.04,.03-.2-.22-.1,.05-.09-.23h-.04v.23l-.51,.07,.3,.29-.1,.15,.41,.02,.16-.14,.46,.19-.42,.15,.29,.12-.16,.31h.15l.03,.31,.26-.17c.14,.04,.22,.15,.26,.31l.17-.24,.13,.05s.04-.1,.02-.13c-.04-.08-.1-.14-.16-.21h-.05l.11-.15,.14,.23,.14-.26,.18,.04c.01-.15-.1-.18-.24-.2l.15-.08-.16-.19,.03-.04,.39,.31c.02-.14,.21-.26,.05-.42l.41-.3,.08,.12s-.08,.05-.09,.08c-.03,.06-.17,.09-.03,.2,.05,.04,0,.19,0,.32l.21-.17,.05,.17,.21-.16,.15,.12,.04-.16,.51,.15-.06-.78,.12-.07,.25,.1c.05-.2,.18-.1,.3-.07,.06-.26-.06-.45-.21-.65l.11-.06-.21-.34,.35-.16-.1-.11,.24-.14-.34-.11v-.17l-.33,.12,.03,.17-.05,.02-.12-.27-.12,.11-.19-.15-.07,.22c-.11-.04-.25-.02-.21-.21l.18-.02-.27-.35-.05,.02,.06-.15-.3,.02-.19-.24c-.09,.04-.18,.11-.29,.14-.11,.03-.23,.03-.35,.04l.08,.14-.45,.06-.21,.35h.2l.02,.04s-.08,.07-.12,.06c-.29-.03-.54,.08-.8,.17-.32,.11-.65,.17-.99,.23,.18-.25,.34-.49,.61-.64,.18-.09,.34-.21,.51-.31,.06-.03,.14-.02,.2-.02-.05,.07-.11,.12-.14,.19-.03,.07-.04,.14-.06,.22h.04l.13-.07,.19,.17,.08-.26h.19l-.26-.33,.07-.04-.05-.18c.06-.02,.13-.06,.18-.04,.16,.03,.32,.09,.48,.13l.02-.07,.51,.03,.02-.36-.16-.13,.06,.03,.21-.31,.2,.14,.27-.25,.24,.58,.09-.14c.26,.16,.26-.14,.4-.23l.13,.1c.03-.19,.07-.34,.07-.5,0-.15-.07-.3-.11-.46l.5-.2v-.21l.04-.04-.52-.2-.02-.25c.13-.12,.32,.07,.48,0,0-.02,0-.03,0-.04-.02-.09-.04-.18-.06-.26,.1,0,.19-.01,.29,0,.06,0,.11,.06,.16,.06,.03,0,.07-.03,.11-.04v-.81s-.09-.05-.14-.07Zm-3.42-7.45s.26,0,.24,.21l-.18-.08-.18,.27-.21-.17c.11-.08,.22-.18,.34-.22Zm-.13,2.26l.03-.14h.34l-.02-.19h.04l.06,.24-.35,.04c0,.19-.21,.05-.27,.17l-.07-.17,.24,.05Zm1.05,10.21c.05,.04,.13,.04,.2,.05,.07,.01,.14,.01,.24,.02l-.44,.49-.26,.02,.09-.48h-.11c.09-.21,.11-.21,.28-.1Zm-.65-.54l.29,.43c-.1-.01-.17,0-.23-.03-.12-.05-.24-.05-.29,.07-.07,.18-.15,.3-.38,.21v.14l-.07,.05-.47-.57c.38-.1,.73-.39,1.14-.3Zm-1.35-8.05l.12,.05c.02-.1-.16-.3,.14-.27l-.05,.31,.19,.2s-.07,.07-.09,.1c-.05,.06-.11,.1-.04,.2,.03,.06-.02,.17-.02,.25,0,.04,.01,.08,.02,.12l-.19,.14c.04,.1,.19,.19,.03,.3-.01,0,.03,.09,.02,.12-.06,.16-.23,.2-.42,.09-.13-.07-.23-.19-.39-.16-.02,0-.05-.02-.07-.04-.06-.09,.04-.35,.15-.39l-.39-.46,.27-.07-.04-.28c-.14-.08-.41-.07-.45-.32l.46-.48-.03,.15c.14,.07,.31,.11,.4,.21,.1,.12,.13,.3,.2,.46l.18-.26Zm.3,4.85l-.04,.14-.16-.06-.29,.2-.06-.09c.18-.09,.31-.3,.55-.18Zm-.39-.42l.32,.15v.04l-.29,.05-.02-.24Zm.31-.29c-.03-.08-.17-.19,.02-.3l-.95-.49,.05,.22c-.3-.11-.02-.3-.08-.45,.11,.17,.26,.18,.42,.16,.04,0,.06-.07,.08-.1l.64,.22-.35,.23-.02,.05c.25-.06,.34,.07,.36,.28l-.12,.06,.21,.14c-.14,.13-.23,.08-.27,0Zm-.73,1.86c-.32,.03-.63-.11-.87-.36l.1-.33,.48-.26,.18,.67,.16-.1c-.04,.14-.29,.24-.05,.38Zm-1.42-.93l-.09,.15c-.18-.18-.26-.18-.46,0,.16,.08,.18,.35,.46,.28-.53,.52-1.12,.71-1.83,.56,.03-.11,.06-.22,.09-.32,.13-.36,.03-.7-.12-1.02-.1-.23-.05-.42,.1-.6,.09-.11,.16-.11,.2,.02l.44-.29,.3,.24,.14-.24,.24,.16-.29,.2,.05,.02c0,.08-.01,.17,0,.24,.02,.08,.06,.16,.08,.24l.64-.1c-.08,.3,.27,.2,.3,.42l-.36-.1,.08,.11Zm.03,2.15l-.27-.05,.19-.29,.09,.34Zm-2.05-3.33l-.3,.42-.28-.59c.24-.15,.47-.16,.63-.01-.05,.03-.09,.05-.13,.08-.04,.03-.06,.08-.12,.16l.2-.06Zm.57-2.12s.07,0,.07,0c.08-.15,.16-.29,.24-.42,.02-.03,.08-.05,.1-.04,.04,.02,.1,.1,.1,.11-.1,.13,0,.25,.02,.34l.38,.2c-.26,.24-.46,.44-.68,.62-.1,.08-.23,.12-.37,.2l-.36-.06c.1-.37,.31-.65,.51-.93Zm-.51-.24h.29l-.09,.3h-.07l-.13-.3Zm2,1.61s-.15-.03-.07-.13c-.03-.02-.06-.04-.1-.06-.07-.03-.15-.07-.22-.1-.03-.01-.08-.02-.1,0-.13,.08-.19,0-.25-.11l.09-.13-.08-.1c.13-.2,.32-.3,.58-.32l.23,.43,.13-.16,.06,.11,.19-.15c0,.07,0,.11,0,.13-.02,.03-.05,.05-.08,.07-.15,.1-.23,.2-.07,.37l.28-.06,.02,.11,.22,.09,.21-.23,.06,.03-.08,.5-.23-.17-.05,.32s-.01,0-.01,0c-.17-.26-.54-.21-.73-.45Zm-.47-1.06c.12-.22,.31-.25,.49-.32l.09,.2-.59,.12Zm1.86-4.44c-.03-.14,.02-.24,.16-.2,.09,.03,.17,.12,.26,.19-.23,.09-.15,.3-.18,.46-.01,.07-.02,.14-.05,.22-.03-.22-.18-.37-.27-.48l-.35-.11q.09-.14,.43-.08Zm-1.28,1.22s.04,.08,.04,.08c.21-.04,.25,.06,.26,.25,0,.07,.14,.13,.21,.19,.16-.23-.09-.36-.13-.58l.26,.15-.17-.38,.07-.21,.14,.04,.03,.5,.2-.15,.27,.21c-.15,.25-.36,.5-.6,.73-.14,.13-.29,.14-.37,.02-.12-.17-.22-.06-.36-.02l.14-.82Zm-.49-.27c.07,.01,.15,.03,.2,.08,.02,.02-.01,.12-.04,.17-.02,.04-.08,.06-.13,.1-.12-.16-.25-.27-.47-.13l.05,.22,.04-.04,.27,.12v-.17l.04-.02,.08,.16,.18-.1s.04,.07,.04,.1c-.03,.28-.1,.54-.3,.75-.06,.07-.19,.1-.29,.1-.07,0-.14-.09-.22-.14l.14-.15c-.18,0-.3-.13-.48-.03-.06,.03-.2-.09-.31-.12l-.43-.1c.18-.15,.33-.27,.48-.38,.03-.02,.1,.02,.16,.04-.01-.15,.05-.27,.2-.34,.14-.07,.28-.09,.44-.03,.07,.03,.16-.01,.25-.03,.04-.01,.08-.07,.12-.06Zm-.59-.24l.18,.09c.04-.2-.07-.45,.18-.56q.22,.26,.05,.43c.08,.05,.21,.07,.11,.2-.08,.1-.16,.16-.3,.1-.1-.04-.22-.04-.35-.06l.13-.2Zm-.38,.33c-.05-.14-.07-.22,.09-.24,.06,0,.11-.1,.16-.15l.04,.03-.29,.36Zm.07-5.11c-.05-.02-.15-.08-.18,.05,0,0-.07,0-.11,0-.05-.01-.09-.03-.16-.06,.04-.15,.12-.31,.27-.33,.12-.01,.26,.1,.39,.16,0,.17-.07,.23-.22,.19Zm-.72-.59l.03-.02,.14,.16-.04-.13h.13c.06-.17-.31-.38,0-.51l.44,.22c-.06,.23-.07,.49-.38,.55v.13h-.03l-.05-.08-.12,.16-.34-.3,.29-.06-.05-.12Zm-.07,.5l.17,.35c-.14,.14-.25-.04-.4-.08l.23-.27Zm-.59,5.38l.46,.33c0-.15-.02-.28,.01-.4,0-.03,.15-.03,.23-.05l.04,.21,.2-.04-.61,.7c-.19-.05-.41,0-.44,.13-.07-.3-.21-.61,.12-.89Zm-.06,3.2c-.01,.13-.09,.26,.07,.35,.03,.02,.01,.12,.02,.22,.06-.04,.1-.07,.15-.09,.05-.03,.12-.04,.15-.08,.05-.06,.1-.15,.11-.22,.02-.19,.03-.2,.21-.11-.18,.37-.3,.77-.65,.99-.11-.2-.22-.38-.32-.57-.02-.04-.02-.09-.02-.14,.01-.08,.04-.16,.07-.25l.21-.1Zm-.52-4.94l.22,.12-.08,.41-.18-.49,.04-.04Zm-.91-5.84c.04,.12,.34,.06,.21,.31l-.27-.1,.06-.21Zm-.28,5.67l.16,.41c.11-.05,.3-.03,.3-.28l.15,.18c.11-.11,.22-.24,.37-.15l.41,.91c-.29,0-.43,.07-.49,.29,.06,.03,.12,.06,.19,.09l-.08,.12,.1,.04c.15,.07,.15,.11,.04,.22-.08,.08-.16,.17-.23,.26,.15-.11,.29,.05,.46,0,.03,.31,.06,.6,.07,.9,0,.15-.05,.3-.07,.45l-.27-.06c-.04,.06-.05,.09-.08,.12-.14,.12-.28,.11-.45,.04-.08-.04-.18-.02-.28-.02,.04,.21,0,.24-.17,.21,0-.45,.45-.71,.52-1.16l.23,.1,.04-.02-.19-.35h.29l-.09-.21-.14-.07,.23-.17-.52-.04,.2-.07-.32-.27,.02-.04h.27l.02-.03-.22-.17,.24-.13c-.06-.1-.28,.02-.24-.21l-.37,.15-.11-.29h.27l-.03-.04,.15-.19h-.25c-.01-.1-.05-.17-.16-.09l-.15-.33,.22-.14Zm-.26,2.76h.26l-.15-.42c.22,.05,.29,.39,.54,.17,.14,.4-.24,.54-.32,.84-.09-.05-.14-.08-.2-.12-.06-.04-.11-.06-.07-.17,.03-.08-.03-.19-.06-.3Zm-.08-2.48h.06l.09,.26-.3-.02,.15-.24Zm.32,3.31c-.22-.1-.48-.06-.65-.27h.15c-.04-.21-.09-.26-.26-.26l-.06-.17c.2-.02,.81,.5,.81,.71Zm-1.03-.11c.28,.06,.57,.1,.85,.18,.21,.06,.22,.15,.05,.31l.07,.2c-.13-.06-.23-.09-.33-.14-.09-.05-.14-.02-.19,.07-.07,.11-.17,.19-.27,.28l-.38-.9c.09,0,.15,0,.2,0Zm.28,1.24l-.21,.14c-.02-.21,.05-.42,.18-.47l-.09,.11,.11,.22Zm-.85-1.22c.3,.21,.48,.48,.48,.91l-.7-.25c-.01-.28,.13-.47,.22-.66Zm-.07,1.08s-.03-.14-.06-.25l.61,.12c-.06,.31-.15,.62-.18,.92-.02,.31,.02,.62,.02,.94-.1-.18-.32-.3-.26-.57-.03-.04-.24,0-.09-.17,.02-.02-.05-.11-.08-.17l.15-.07c-.03-.11,0-.25-.16-.26-.1-.01-.21,.02-.35,0,.05-.06,.11-.13,.16-.19,.08-.1,.18-.18,.24-.29Zm-2.04,3.75c-.02-.06-.05-.16-.02-.19,.04-.04,.13-.02,.2-.02,.36,0,.4,.26,.45,.51,.06,.28,.15,.54,.33,.77,.05,.07,.03,.19,.02,.28-.01,.08-.06,.16-.09,.23h.25l.16-.2c.17,.1,.28,.24,.35,.43,.24,.64,.49,1.28,.73,1.92,.07,.19,.12,.38,.14,.59-.04-.05-.08-.1-.12-.15-.54-.67-1.21-1.2-1.93-1.65-.18-.11-.25-.25-.22-.44,.11-.71-.07-1.39-.25-2.06Zm-.9,1.42l-.21,.11c-.41-.25-.69-.58-.77-1.08-.04-.23-.16-.45-.24-.67,.18-.05,.32,.04,.49,.31,.07-.06,.13-.14,.21-.18,.07-.03,.16-.02,.27-.02l.23,.26c.04-.06,.07-.11,.11-.15,.03-.02,.1-.04,.13-.02,.13,.07,.25,.16,.37,.23l.17-.27c.23,.6,.4,1.86,.09,2.23-.23-.13-.47-.26-.71-.38-.15-.08-.18-.19-.13-.36Zm.1,1.99l-.08,.55h-.06c-.07-.11-.15-.21-.22-.32,0-.01,.05-.08,.08-.1,.07-.04,.15-.08,.27-.13Zm-.79-1.71h-.04l-.14-.1-.03,.49h-.04l-.06-.15c-.09,.02-.22-.1-.25-.22l-.35,.04v-.05l-.18,.22c-.07-.14-.33,0-.36-.26l.14,.02c-.07-.29,.02-.32,.2-.17l.29-.05-.11-.29c.21-.03,.75,.13,.91,.32,.03,.04,.01,.12,.02,.19Zm-1.81,.79l-.03,.05-.49,.08v.05l.06,.05-.19,.15-.16-.16c-.04-.05-.12,.1-.17-.04-.04,.02-.08,.02-.1,.05-.09,.1-.15,.06-.2-.03,.11-.2,.32-.17,.49-.23,.06-.02,.11-.03,.15-.05-.01-.09-.05-.19-.02-.22,.04-.04,.13-.05,.19-.04,.27,.04,.52,.02,.78-.08,.09-.04,.2-.01,.3-.02v.09h-.29c-.05,.25-.31,.15-.48,.28l.16,.07Zm-1.06-.49l.24-.19c.06,.16,.11,.16,.33,.03l.03,.09-.5,.22,.06-.1-.15-.05Zm.79-.29q.42,.04,.51,.2l-.51,.1-.02-.05c.21-.07,.02-.16,.03-.25Zm1.46-1.98l-.22-.25c.13-.09,.37-.04,.48,.09l-.26,.16Zm1.18-1.73h.85l.03,.17c-.28-.05-.35,.22-.54,.33l-.05-.12-.18,.16-.16-.18,.26-.18-.21-.18Zm-.17-7.41c.3-.1,.63-.02,.78,.19l-.37,.05,.09-.16c-.14-.13-.36,.15-.5-.08Zm1.02,1.46v-.05l.09,.1c.09-.09-.13-.25,.08-.31,.12-.03,.25-.13,.36-.1,.09,.02,.16,.16,.26,.27l-.17,.05,.03,.1-.34,.17,.16,.1c-.05,.12-.1,.2-.12,.3-.01,.05,.03,.16,0,.16-.14,.06-.2,.29-.28,.3-.26,.03-.28,.2-.33,.38,0,.02-.03,.04-.05,.06l-.24-.12-.02-.27,.25,.04-.27-.3,.25-.77,.33-.11Zm-.21-.88l.17-.1,.39,.57s-.08,.05-.13,.07c-.1,.03-.11-.03-.11-.12,0-.07-.02-.16-.06-.21-.06-.08-.16-.13-.26-.21Zm1.19-.22h-.28l.06-.21c-.04-.08-.31-.15-.12-.34,.07-.07,.22-.08,.3,.05l-.17,.13,.21,.37Zm-.4,2.38s.03-.12,.05-.23l.22,.25-.03,.06c-.08-.02-.17-.04-.25-.08Zm.15,6.35l-.14-.28,.07-.03c.12,.06,.18,.14,.07,.31Zm.77-2.35l.03,.05-.29,.17v-.26l.26,.04Zm-.21-.21s.03-.06,.04-.06c.07,.03,.14,.06,.21,.1,.02,.01,.03,.05,.05,.09-.06,0-.09,0-.11,0-.07-.03-.13-.08-.19-.12Zm.15,2.26c.06-.05,.11-.11,.18-.15,.05-.03,.11-.06,.17-.06,.12,0,.25,.04,.38,.06l.06-.16c.08,.2,.02,.34-.14,.4-.08,.03-.16,.09-.19,.1,.04,.14,.09,.24,.09,.33,0,.03-.13,.06-.2,.1-.14,.08-.28,.15-.44,.24l.16,.09-.07,.1c.23,.15,.23,.2,0,.35-.21-.25-.27-.55-.33-.85-.01-.07-.02-.14-.02-.21,0-.04,.04-.1,.07-.1,.19,0,.21-.14,.29-.25Zm.87-1.19l.24-.1-.04,.35c-.21,.01-.16-.15-.21-.25Zm-.89-2.38c.14-.14,.19,.08,.26,.1l.21-.1,.03,.06-.12,.07,.06,.07-.16,.23,.28,.03v.09h-.33l-.04-.14-.24,.23-.12-.17c.05-.03,.1-.06,.15-.1,.05-.04,.11-.09,.12-.14,0-.06-.05-.12-.09-.22Zm-.21-6.12h0l-.16,.15,.27,.25c-.18,.01-.32,.03-.46,.02-.05,0-.1-.06-.13-.11,0-.01,.05-.08,.08-.11,.03-.03,.07-.03,.11-.05-.08-.2-.05-.29,.1-.28,.06,0,.12,.08,.18,.12h0l-.07-.15,.15-.12c.03,.09,.06,.16,.06,.23,0,.01-.09,.03-.14,.05Zm-.66-2.61l.36-.02-.05-.27h.45c.04,.19-.31,.18-.15,.39-.05,.03-.13,.05-.16,.1-.09,.15-.2,.13-.33,.06-.14-.08-.19-.16-.11-.24Zm-.12,4.01s.09,0,.17-.01l-.28,.34-.32-.44,.11-.07-.06-.11s.11,0,.11,0c.01,.07,.01,.15,.02,.21l.12,.15s.08-.05,.13-.07Zm-.42-1.39c.08,.02,.16,.07,.24,.1v.05c-.09,.02-.18,.05-.27,.04-.04,0-.07-.08-.11-.13,.05-.03,.1-.08,.14-.07Zm-1.01,.39c.09-.12,.17-.26,.38-.25,.03,0,.06-.06,.09-.1,.08-.08,.15-.17,.25-.27l.21,.77c-.33-.14-.45-.1-.58,.21h.15v.02h-.59l.2-.24-.21-.02-.03-.04,.12-.08Zm-.22,2.28l.26-.05s-.04-.09-.06-.13c-.03-.07-.05-.14-.08-.21,.09-.03,.18-.08,.27-.08,.1,0,.18,.06,.13,.19-.02,.05,0,.11,.01,.18l.16-.1-.08,.49-.62-.24v-.05Zm.29,6.14l-.25,.21-.2-.15c.25-.12,.33-.13,.45-.07Zm-.61-9.03l.13,.12-.1,.16h-.29l.26-.28Zm-.28,2.51l.16,.28-.03,.04-.15-.06-.07,.09-.38,.02-.1-.35c.21,.05,.39,.25,.57-.02Zm-.35-2.12l-.19,.31c-.1-.22-.06-.28,.19-.31Zm.35,11.08l-.77-.07-.02-.05,.39-.18-.36-.27v-.07l-.35,.05-.2,.08,.03,.11-.16,.04-.09-.12,.11-.1c-.11-.18-.15-.18-.4,.02l-.1-.74,.18-.24,.36,.4,.14-.29,.27,.08,.04-.28c.11,0,.12-.01,.31,.2,.36,.4,.61,.85,.62,1.41Zm-1.15-11.54l.08,.12s.09-.02,.15-.02c.04,0,.12,.03,.12,.05,0,.2,.26,.34,.09,.6-.24-.19-.38-.44-.48-.72l.04-.03Zm-.3,.53c.03-.07,.05-.15,.08-.23,.04-.07,.09-.13,.13-.19l.42,.68c-.18,.06-.23-.19-.4-.17l-.02,.11s-.09-.02-.13-.03c-.12-.02-.12-.08-.08-.18Zm-.48,6.15c.09,.05,.18,.09,.27,.14v.05l-.18,.07,.06,.14-.04,.03-.43-.65,.06-.05s.05,.09,.09,.13c.05,.05,.11,.1,.17,.13Zm-.3,.04l-.41,.05-.03-.06s.09-.05,.14-.07c.06-.03,.11-.07,.18-.11l.12,.2Zm-.7-2.98l.27-.29,.1,.18,.19-.16,.2,.04v.34l-.19-.04,.1,.59-.3-.25,.08-.11-.21-.15-.12,.02-.11-.18Zm-.26,3.5l.02-.23,.06-.02,.25,.22c.06,0,.14-.02,.21,0,.03,0,.05,.09,.07,.14,.08,.18,.25,.17,.39,.2l-.12-.48,.15-.05-.02-.19c.12,.17,.22,.32,.32,.47,.04,.06,.05,.13,.07,.19h-.17l-.02,.34-.37-.03-.08,.21c-.49-.17-.56-.23-.52-.44l-.32,.03c.04-.14-.09-.3,.08-.36Zm-2.31,.46l.23,.27h-.16l-.09-.24,.03-.03Zm.07,2.08l-.24,.13s-.06-.06-.07-.09c-.02-.05-.03-.1-.05-.14,.05,0,.11,.01,.16,.03,.05,.02,.11,.04,.19,.08Zm-.41-.66c-.06,.12,.24,.19-.01,.31l-.16-.22,.17-.09Zm-.29,2.23l-.16-.06v-.19l.24-.13s.02,.04,.04,.07c.02,.03,.04,.06,.06,.08l-.18,.22Zm1.48-.86l-.29-.15-.11,.04-.02,.41h-.06l-.13-.2-.09,.14-.1-.05,.09-.31-.06-.03-.16,.27-.11-.17-.16-.09-.04,.07c-.22-.26-.15-.4,.19-.47l-.08,.15h.06l.14,.22,.19-.14,.04,.03-.02-.22-.18-.05,.35-.3,.56,.62,.09-.08-.11,.3Zm.71-.35c-.08,.05-.21,.16-.24,.14-.24-.17-.55-.24-.74-.5-.12-.16-.06-.29-.04-.44,0-.02,.04-.04,.07-.06l.1,.14,.11-.16,.09,.07,.06-.15c.27,.21,.5,.43,.4,.76,.09,.04,.15,.06,.21,.09,.01,0,.03,.03,.02,.05,0,.03-.02,.06-.04,.07Zm-.1-.53l-.09-.15,.16-.13q.11,.07-.07,.28Zm.65,.91l-.33,.07c.03-.09,.05-.19,.05-.19,.09,.01,.19,.04,.28,.07v.06Zm.3-.26l-.02,.18c-.24,.02-.66-.28-.78-.56,.22-.02,.24,.22,.41,.32l.28-.4,.23,.12c.1-.07,.18-.12,.25-.18,.03-.03,.03-.08,.06-.16,.07,.06,.14,.1,.18,.15,.1,.15,.24,.29,.22,.5-.01,.16,.09,.16,.21,.11,.13,.24,.14,.45,0,.54l.03-.17-.27,.03s-.01,.03-.03,.07l-.17-.14s.03-.05,.05-.08c.07-.08,.04-.13-.06-.18-.05-.03-.08-.1-.14-.17l.12-.18-.55,.18Zm2,5.1l-.28-.04,.08,.21-.03,.04-.26-.13-.08,.08-.16-.19-.04,.02,.08,.23c-.19,.05-.38,.1-.57,.13-.05,0-.12-.03-.16-.05l.17-.28c-.06-.09-.25,0-.17-.22l-.18,.12c-.08-.07-.14-.32-.1-.41,.02-.03,.02-.07,.05-.09,.03-.03,.08-.09,.1-.08,.1,.04,.21,.08,.3,.15,.09,.08,.15,.06,.24-.04l.21,.34c.13-.14,.23-.11,.4,.13v-.24l.04-.04,.2,.18,.24-.08-.07,.26Zm.42-1.18l-.14-.1-.16,.36c-.05,0-.13-.01-.2-.04-.04-.02-.07-.06-.11-.1,.04-.03,.08-.08,.13-.09,.06,0,.13,.01,.22,.03l-.06-.23,.16-.03-.07-.11c.08-.17,.77-.08,.93,.12-.21,.14-.52-.07-.69,.2Zm.72-.32c-.16-.05-.31-.12-.48-.19l.15-.06s-.06-.09-.08-.13c-.02-.03-.04-.09-.03-.1,.03-.03,.08-.04,.12-.05,.1-.02,.21-.03,.31-.04v-.04l.16,.1-.09,.1s.06,0,.08-.01c.1,0,.18-.15,.3-.02,.11,.12,.09,.2-.06,.24-.09,.02-.19,.02-.32,.03l.13,.15c-.08,.01-.14,.04-.2,.02Zm.17,1.28c.18-.1,.18-.1,.05-.34l.35-.09,.02-.26c.34,.15,.38,.24,.34,.58-.03,.24-.03,.48-.04,.74-.3-.15-.5-.4-.72-.63Zm2.18,2.8c-.37-.05-.73-.14-1.09-.21v-.08l.22-.04-.25-.25-.38,.08c-.13-.05-.06-.17-.07-.26l.57-.1-.11-.16,.27,.09-.02-.23,.14-.16,.16,.12v-.13l.14-.02-.05-.17c.54,.33,.94,.76,1.26,1.31-.25,.15-.52,.25-.8,.21Zm2.37,1.24c-.38-.18-.64-.42-.83-.73-.16-.26-.3-.54-.47-.81-.52-.8-1.2-1.4-2.11-1.7-.15-.05-.22-.13-.23-.29-.04-.41-.02-.82,.12-1.22l.23,.09,.08-.16,.06,.27,.12-.11,.25,.13v-.28l.09-.03s-.04-.1-.07-.11c-.08-.03-.16-.04-.28-.07l.02-.13c.06,.02,.13,.03,.19,.06,.07,.04,.13,.09,.22,.15l-.02-.26,.37,.15-.18-.4,.12-.04c-.07-.15-.22-.14-.34-.18-.09-.03-.28,.04-.23-.18,0-.01-.09-.06-.15-.06-.1-.01-.21,0-.31,0,.02-.21,.22-.3,.43-.16,.38,.26,.76,.53,1.12,.82,.55,.44,1.01,.97,1.4,1.55,.25,.37,.42,.75,.42,1.21,0,.81,0,1.62,0,2.47Zm.57-3.18c-.05-.25-.09-.47-.13-.69-.1-.49-.27-.95-.49-1.39-.17-.35-.32-.71-.49-1.06-.06-.13-.04-.25,.07-.32,.13-.08,.2,.01,.27,.12,.04,.06,.07,.12,.12,.2,.14-.22,.22-.06,.31-.04,.08-.24-.07-.44-.11-.61l.44-.35c-.12-.13-.47-.19-.21-.49,.24,.18,.48,.66,.42,.91,.16-.03,.2,.07,.24,.18,.03,.09,.06,.19,.11,.28,.17,.28,.21,.56,.15,.89-.11,.68-.21,1.37-.5,2.01-.04,.09-.09,.18-.14,.26-.02,.03-.04,.06-.07,.11Zm.66-4.43l-.26,.1c-.06-.1-.19-.17-.14-.35,.03-.1-.06-.23-.1-.39,.21,.04,.36,.26,.51,0l.22,.13-.38,.39,.14,.11Zm.28,3.5v.06l-.02,.03c-.01,.07-.02,.15-.03,.22,0,.27-.03,.54,0,.8,.11,.85-.11,1.64-.34,2.44-.05,.17-.11,.34-.17,.55-.23-.81-.32-1.59-.08-2.37,.12-.4,.31-.77,.46-1.16,.06-.16,.1-.33,.15-.5v-.04l.02-.06,.13-.8h.06l-.19,.8Zm.13-6.16l.05-.11c-.18-.23-.43-.03-.64-.14v.12c-.16,.17-.35,.32-.63,.34-.02-.01-.06-.06-.11-.09-.06-.03-.12-.05-.18-.05-.09,0-.24-.13-.24-.22,0-.34-.03-.68-.04-1.02,0-.07,.01-.15,.02-.22l.06,.02v.28l.18-.15-.05,.37,.42,.07,.09-.28,.14,.05,.12-.55,.15,.21c.13-.13,.18-.34,.38-.38l.06,.36c.17-.12,.27-.06,.36,.06,.11,.13,.24,.25,.35,.37,.25,.28,.35,.6,.21,.97-.05,.15-.05,.31-.08,.47-.01,.06-.04,.13-.08,.17-.02,.02-.14-.02-.15-.05-.02-.08-.02-.17,0-.25,0-.04,.05-.08,.08-.12l-.03-.05-.38,.11,.04-.26-.1-.04Zm.16,4.06c.03-.12,.02-.25,.04-.37,.01-.07,.04-.16,.09-.18,.05-.02,.13,.03,.21,.06l.03-.14,.26-.02c-.03-.17-.06-.33-.09-.5,0-.05,.01-.1,0-.15,0-.04-.03-.09-.06-.11-.08-.05-.17-.09-.28-.15l.22-.52,.26-.09c.11,.02,.22,.28,.48,.12l.04,.09c.03-.2,.06-.37,.07-.55,0-.06-.05-.13-.09-.18-.06-.08-.14-.14-.23-.22l.17-.1c.31,.32,.42,.67,.28,1.09-.11,.34-.19,.69-.32,1.02-.11,.27-.28,.51-.45,.75-.16,.22-.35,.41-.52,.62-.09-.14-.18-.29-.12-.48Zm2.45,1.48c-.49,.64-.98,1.28-1.62,1.78-.17,.13-.37,.23-.57,.36-.11-.5-.04-.94,0-1.39,.04-.36,.05-.73,.09-1.09,.04-.36,.22-.67,.45-.94,.29-.35,.53-.71,.65-1.16,.02-.07,.11-.15,.18-.17,.2-.07,.41-.13,.63-.16,.4-.06,.77-.2,1.1-.44,.02-.02,.05-.03,.09-.04,.01,.06,.02,.1,.04,.15,.05,.16-.03,.25-.19,.22-.09-.02-.19-.02-.33-.04l.1,.15c-.15,.08-.28,.18-.46,.07-.05-.03-.13,.01-.23,.03l.09,.11-.29,.29,.03,.04,.27-.02-.05,.12h.44v.23l.04,.03,.19-.29,.05,.05c-.09,.75-.23,1.48-.7,2.11Zm3.46-1.67c-.41,.16-.72,.45-1.01,.77-.04,.05-.13,.09-.19,.08-.6-.04-1.17,.04-1.69,.31,.07-.36,.14-.73,.22-1.09,0-.04,.06-.07,.1-.11l.1,.33,.28-.12-.1-.11,.11,.09-.07,.16,.24,.43h.04l.08-.36,.13,.03,.05-.25,.18,.09c.23-.2,.22-.34-.04-.5-.06-.04-.12-.1-.17-.15l.03-.06h.46c-.05-.2-.07-.41-.35-.43l.12-.18h-.39l-.19-.3h-.23v-.05c.09-.04,.19-.05,.24-.11,.05-.05,.05-.15,.08-.24,.24,.21,.53,.41,.94,.4v.92l.31-.24v.28l.37-.27c.13,.05,.26,.1,.19,.31-.04,.12,.15,.25,.32,.25-.05,.04-.1,.1-.16,.12Zm-.06-8.26l-.04-.22,.36,.19-.02,.04h-.3Z"/><rect class="cls-7" x="1" y="1" width="189.44" height="97.62" rx="12" ry="12"/><g><polygon class="cls-1" points="109.6 32.83 102.55 27.26 95.51 32.83 94.73 33.35 94.73 41.63 110.38 41.63 110.38 33.35 109.6 32.83"/><circle class="cls-6" cx="102.12" cy="35.41" r="12.97"/><line class="cls-6" x1="93.13" y1="24.85" x2="110.53" y2="45.27"/></g></g></svg>