<?xml version="1.0" encoding="UTF-8"?><svg id="Layer_2" xmlns="http://www.w3.org/2000/svg" viewBox="0 0 191.44 99.62"><defs><style>.cls-1{fill:#cb6e6c;}.cls-2{fill:#6fcacc;}.cls-3{fill:#71b6cc;}.cls-4{fill:none;stroke:#cb6e6c;stroke-miterlimit:10;stroke-width:2px;}</style></defs><g id="water"><rect class="cls-2" x="1" y="55.74" width="189.37" height="19.68"/><rect class="cls-3" x=".43" y="51.61" width="168.36" height="4.25"/></g><g id="section"><path class="cls-1" d="M190.37,47.84v42.42c-.29,1.34-1.45,7.37-8.72,7.85H9.64c-7.95-1.2-8.17-6.36-8.72-8.72l-.15-3.41v-18l63.47-2.17,11.2-.05,34.14-4.81,54.3-11.13,26.49-1.97Z"/><g><path class="cls-1" d="M59.83,60.92c.08-.13,.15-.26,.23-.39,.01-.02,.05-.01,.08,0,.36,.13,.7,.08,1.01-.2,.3-.27,.47-.65,.45-1.18,0-.2-.01-.2,.12-.28,.08-.04,.15-.08,.24-.13-.02,.09-.04,.16-.05,.24-.07,.45,.02,.82,.24,1.14,.44,.63,1.26,.63,1.7,0,.33-.47,.36-1.08,.08-1.6,0-.01-.01-.02-.02-.05,.24,.03,.47,.1,.69,.2-.03,.13-.07,.25-.09,.38-.06,.46,.05,.83,.29,1.13,.44,.55,1.13,.56,1.59,.04,.01-.01,.03-.03,.04-.05l.32,.4c-.17,.1-.32,.15-.45,.26-.31,.24-.5,.6-.49,1.13,0,.39,.14,.69,.34,.93,.4,.46,1,.5,1.44,.11l.07-.06,.11,.57c-.05,.04-.1,.07-.15,.11-.26,.21-.44,.5-.49,.93-.06,.49,.09,.87,.36,1.17,.08,.08,.17,.14,.25,.2,.04,.03,.05,.06,.04,.12-.06,.3-.27,.53-.48,.55-.04,0-.07,0-.11,0-2.53,0-5.06,0-7.59,0-.25,0-.45-.12-.55-.44-.05-.15-.07-.32-.08-.48-.07-.77-.05-1.53,.07-2.29,.01-.08,.03-.11,.09-.11,.31,0,.6-.14,.83-.46,.37-.52,.36-1.27-.03-1.77-.03-.03-.05-.06-.08-.1Zm.62,2.47c-.31,0-.57,.11-.77,.31-.49,.49-.53,1.38-.09,1.93,.46,.57,1.22,.55,1.66-.05,.34-.46,.36-1.15,.05-1.65-.24-.38-.55-.53-.85-.55Zm1.3-2.79c-.33,0-.59,.11-.81,.36-.46,.51-.47,1.38-.02,1.91,.48,.56,1.22,.51,1.66-.11,.29-.41,.33-1.04,.09-1.5-.24-.46-.57-.64-.91-.66Zm2.52,2.66c.32,0,.58-.12,.81-.37,.42-.46,.46-1.26,.09-1.81-.43-.63-1.24-.65-1.7-.05-.38,.51-.38,1.24-.02,1.75,.23,.32,.52,.46,.81,.47Zm1.33,2.8c.28,0,.54-.11,.76-.35,.46-.49,.49-1.34,.07-1.89-.43-.57-1.2-.57-1.64,0-.41,.53-.4,1.34,.03,1.84,.23,.27,.5,.38,.78,.4Zm-2.65,0c.34,0,.62-.13,.83-.38,.41-.47,.45-1.25,.09-1.79-.45-.67-1.3-.66-1.75,0-.33,.49-.32,1.19,.02,1.67,.24,.34,.53,.47,.81,.48Z"/><path class="cls-1" d="M63.01,58.47c.22,0,.41,.08,.57,.29,.22,.29,.22,.69,.01,.99-.29,.4-.87,.41-1.17,.02-.24-.32-.22-.77,.04-1.05,.15-.17,.33-.25,.54-.25Zm-.01,.93c.1,0,.19-.12,.19-.26,0-.15-.08-.26-.19-.26-.1,0-.19,.11-.19,.26,0,.14,.08,.27,.19,.27Z"/><path class="cls-1" d="M66.88,62.73c-.19,0-.39-.09-.55-.31-.21-.29-.21-.7,0-.98,.19-.25,.41-.32,.66-.3,.03,0,.06,.04,.07,.07,.17,.35,.32,.73,.44,1.13,.02,.06,0,.09-.02,.12-.14,.17-.35,.27-.59,.27Zm-.15-.53c.1,0,.18-.12,.18-.27,0-.14-.08-.26-.19-.26-.1,0-.19,.13-.19,.27,0,.14,.09,.26,.19,.26Z"/><path class="cls-1" d="M66.14,59.82c-.2,.21-.43,.27-.67,.23-.2-.04-.38-.15-.51-.38-.13-.23-.14-.52-.02-.75,.01-.02,.05-.05,.07-.04,.41,.23,.78,.53,1.12,.92v.02Z"/><path class="cls-1" d="M59.61,61.37c.26,.25,.3,.71,.09,1.02-.15,.22-.33,.31-.55,.33,.12-.49,.27-.93,.46-1.35Z"/><path class="cls-1" d="M67.83,65.39c-.22-.13-.35-.39-.35-.67,0-.27,.14-.54,.34-.66,.04,.44,.04,.88,.01,1.33Z"/><path class="cls-1" d="M61.23,59.21c0,.22-.04,.38-.14,.52-.19,.27-.42,.35-.7,.33,.26-.34,.53-.61,.84-.85Z"/><path class="cls-1" d="M60.39,65.52c-.22,0-.43-.09-.59-.31-.2-.27-.2-.67,0-.95,.29-.41,.87-.44,1.17-.05,.26,.33,.23,.81-.06,1.1-.15,.15-.33,.22-.51,.22Zm0-.53c.1,0,.18-.12,.18-.27,0-.15-.08-.27-.19-.27-.1,0-.18,.12-.18,.27,0,.15,.08,.26,.19,.26Z"/><path class="cls-1" d="M61.66,62.72c-.16,0-.34-.07-.49-.23-.28-.3-.29-.78-.02-1.1,.29-.35,.82-.34,1.11,.01,.26,.32,.24,.82-.05,1.1-.16,.15-.34,.22-.55,.22Zm-.25-.92c0,.14,.09,.27,.19,.26,.1,0,.18-.12,.19-.27,0-.14-.09-.27-.19-.27-.1,0-.18,.13-.18,.27Z"/><path class="cls-1" d="M64.28,62.73c-.2-.01-.4-.09-.56-.3-.22-.29-.22-.71,0-1,.29-.38,.84-.4,1.14-.02,.27,.33,.24,.86-.07,1.12-.17,.15-.31,.2-.52,.2Zm.11-.93c-.11,0-.19,.13-.19,.28,0,.14,.09,.26,.19,.26,.1,0,.18-.13,.18-.27,0-.14-.09-.26-.19-.26Z"/><path class="cls-1" d="M65.6,65.52c-.2,0-.38-.07-.54-.25-.27-.31-.27-.78,0-1.09,.3-.34,.8-.33,1.09,0,.27,.31,.26,.8-.02,1.1-.15,.16-.33,.24-.54,.24Zm.19-.53c.1,0,.19-.13,.19-.27,0-.15-.08-.26-.19-.26-.1,0-.19,.12-.19,.26,0,.14,.09,.27,.19,.27Z"/><path class="cls-1" d="M63.03,65.52c-.23,0-.41-.07-.56-.24-.28-.31-.28-.81,0-1.12,.3-.32,.77-.32,1.07,0,.27,.3,.28,.79,0,1.09-.16,.18-.35,.26-.52,.26Zm.24-.93c0-.15-.08-.26-.18-.27-.1,0-.19,.12-.19,.26,0,.14,.08,.27,.19,.27,.1,0,.18-.12,.18-.27Z"/></g><g><path class="cls-1" d="M72.3,60.45c.08-.13,.15-.26,.23-.39,.01-.02,.05-.01,.08,0,.36,.13,.7,.08,1.01-.2,.3-.27,.47-.65,.45-1.18,0-.2-.01-.2,.12-.28,.08-.04,.15-.08,.24-.13-.02,.09-.04,.16-.05,.24-.07,.45,.02,.82,.24,1.14,.44,.63,1.26,.63,1.7,0,.33-.47,.36-1.08,.08-1.6,0-.01-.01-.02-.02-.05,.24,.03,.47,.1,.69,.2-.03,.13-.07,.25-.09,.38-.06,.46,.05,.83,.29,1.13,.44,.55,1.13,.56,1.59,.04,.01-.01,.03-.03,.04-.05l.32,.4c-.17,.1-.32,.15-.45,.26-.31,.24-.5,.6-.49,1.13,0,.39,.14,.69,.34,.93,.4,.46,1,.5,1.44,.11l.07-.06,.11,.57c-.05,.04-.1,.07-.15,.11-.26,.21-.44,.5-.49,.93-.06,.49,.09,.87,.36,1.17,.08,.08,.17,.14,.25,.2,.04,.03,.05,.06,.04,.12-.06,.3-.27,.53-.48,.55-.04,0-.07,0-.11,0-2.53,0-5.06,0-7.59,0-.25,0-.45-.12-.55-.44-.05-.15-.07-.32-.08-.48-.07-.77-.05-1.53,.07-2.29,.01-.08,.03-.11,.09-.11,.31,0,.6-.14,.83-.46,.37-.52,.36-1.27-.03-1.77-.03-.03-.05-.06-.08-.1Zm.62,2.47c-.31,0-.57,.11-.77,.31-.49,.49-.53,1.38-.09,1.93,.46,.57,1.22,.55,1.66-.05,.34-.46,.36-1.15,.05-1.65-.24-.38-.55-.53-.85-.55Zm1.3-2.79c-.33,0-.59,.11-.81,.36-.46,.51-.47,1.38-.02,1.91,.48,.56,1.22,.51,1.66-.11,.29-.41,.33-1.04,.09-1.5-.24-.46-.57-.64-.91-.66Zm2.52,2.66c.32,0,.58-.12,.81-.37,.42-.46,.46-1.26,.09-1.81-.43-.63-1.24-.65-1.7-.05-.38,.51-.38,1.24-.02,1.75,.23,.32,.52,.46,.81,.47Zm1.33,2.8c.28,0,.54-.11,.76-.35,.46-.49,.49-1.34,.07-1.89-.43-.57-1.2-.57-1.64,0-.41,.53-.4,1.34,.03,1.84,.23,.27,.5,.38,.78,.4Zm-2.65,0c.34,0,.62-.13,.83-.38,.41-.47,.45-1.25,.09-1.79-.45-.67-1.3-.66-1.75,0-.33,.49-.32,1.19,.02,1.67,.24,.34,.53,.47,.81,.48Z"/><path class="cls-1" d="M75.48,58c.22,0,.41,.08,.57,.29,.22,.29,.22,.69,.01,.99-.29,.4-.87,.41-1.17,.02-.24-.32-.22-.77,.04-1.05,.15-.17,.33-.25,.54-.25Zm-.01,.93c.1,0,.19-.12,.19-.26,0-.15-.08-.26-.19-.26-.1,0-.19,.11-.19,.26,0,.14,.08,.27,.19,.27Z"/><path class="cls-1" d="M79.35,62.25c-.19,0-.39-.09-.55-.31-.21-.29-.21-.7,0-.98,.19-.25,.41-.32,.66-.3,.03,0,.06,.04,.07,.07,.17,.35,.32,.73,.44,1.13,.02,.06,0,.09-.02,.12-.14,.17-.35,.27-.59,.27Zm-.15-.53c.1,0,.18-.12,.18-.27,0-.14-.08-.26-.19-.26-.1,0-.19,.13-.19,.27,0,.14,.09,.26,.19,.26Z"/><path class="cls-1" d="M78.62,59.35c-.2,.21-.43,.27-.67,.23-.2-.04-.38-.15-.51-.38-.13-.23-.14-.52-.02-.75,.01-.02,.05-.05,.07-.04,.41,.23,.78,.53,1.12,.92v.02Z"/><path class="cls-1" d="M72.08,60.9c.26,.25,.3,.71,.09,1.02-.15,.22-.33,.31-.55,.33,.12-.49,.27-.93,.46-1.35Z"/><path class="cls-1" d="M80.3,64.92c-.22-.13-.35-.39-.35-.67,0-.27,.14-.54,.34-.66,.04,.44,.04,.88,.01,1.33Z"/><path class="cls-1" d="M73.71,58.74c0,.22-.04,.38-.14,.52-.19,.27-.42,.35-.7,.33,.26-.34,.53-.61,.84-.85Z"/><path class="cls-1" d="M72.87,65.05c-.22,0-.43-.09-.59-.31-.2-.27-.2-.67,0-.95,.29-.41,.87-.44,1.17-.05,.26,.33,.23,.81-.06,1.1-.15,.15-.33,.22-.51,.22Zm0-.53c.1,0,.18-.12,.18-.27,0-.15-.08-.27-.19-.27-.1,0-.18,.12-.18,.27,0,.15,.08,.26,.19,.26Z"/><path class="cls-1" d="M74.14,62.25c-.16,0-.34-.07-.49-.23-.28-.3-.29-.78-.02-1.1,.29-.35,.82-.34,1.11,.01,.26,.32,.24,.82-.05,1.1-.16,.15-.34,.22-.55,.22Zm-.25-.92c0,.14,.09,.27,.19,.26,.1,0,.18-.12,.19-.27,0-.14-.09-.27-.19-.27-.1,0-.18,.13-.18,.27Z"/><path class="cls-1" d="M76.76,62.26c-.2-.01-.4-.09-.56-.3-.22-.29-.22-.71,0-1,.29-.38,.84-.4,1.14-.02,.27,.33,.24,.86-.07,1.12-.17,.15-.31,.2-.52,.2Zm.11-.93c-.11,0-.19,.13-.19,.28,0,.14,.09,.26,.19,.26,.1,0,.18-.13,.18-.27,0-.14-.09-.26-.19-.26Z"/><path class="cls-1" d="M78.08,65.05c-.2,0-.38-.07-.54-.25-.27-.31-.27-.78,0-1.09,.3-.34,.8-.33,1.09,0,.27,.31,.26,.8-.02,1.1-.15,.16-.33,.24-.54,.24Zm.19-.53c.1,0,.19-.13,.19-.27,0-.15-.08-.26-.19-.26-.1,0-.19,.12-.19,.26,0,.14,.09,.27,.19,.27Z"/><path class="cls-1" d="M75.51,65.05c-.23,0-.41-.07-.56-.24-.28-.31-.28-.81,0-1.12,.3-.32,.77-.32,1.07,0,.27,.3,.28,.79,0,1.09-.16,.18-.35,.26-.52,.26Zm.24-.93c0-.15-.08-.26-.18-.27-.1,0-.19,.12-.19,.26,0,.14,.08,.27,.19,.27,.1,0,.18-.12,.18-.27Z"/></g><g><path class="cls-1" d="M84.74,59.45c.08-.13,.15-.26,.23-.39,.01-.02,.05-.01,.08,0,.36,.13,.7,.08,1.01-.2,.3-.27,.47-.65,.45-1.18,0-.2-.01-.2,.12-.28,.08-.04,.15-.08,.24-.13-.02,.09-.04,.16-.05,.24-.07,.45,.02,.82,.24,1.14,.44,.63,1.26,.63,1.7,0,.33-.47,.36-1.08,.08-1.6,0-.01-.01-.02-.02-.05,.24,.03,.47,.1,.69,.2-.03,.13-.07,.25-.09,.38-.06,.46,.05,.83,.29,1.13,.44,.55,1.13,.56,1.59,.04,.01-.01,.03-.03,.04-.05l.32,.4c-.17,.1-.32,.15-.45,.26-.31,.24-.5,.6-.49,1.13,0,.39,.14,.69,.34,.93,.4,.46,1,.5,1.44,.11l.07-.06,.11,.57c-.05,.04-.1,.07-.15,.11-.26,.21-.44,.5-.49,.93-.06,.49,.09,.87,.36,1.17,.08,.08,.17,.14,.25,.2,.04,.03,.05,.06,.04,.12-.06,.3-.27,.53-.48,.55-.04,0-.07,0-.11,0-2.53,0-5.06,0-7.59,0-.25,0-.45-.12-.55-.44-.05-.15-.07-.32-.08-.48-.07-.77-.05-1.53,.07-2.29,.01-.08,.03-.11,.09-.11,.31,0,.6-.14,.83-.46,.37-.52,.36-1.27-.03-1.77-.03-.03-.05-.06-.08-.1Zm.62,2.47c-.31,0-.57,.11-.77,.31-.49,.49-.53,1.38-.09,1.93,.46,.57,1.22,.55,1.66-.05,.34-.46,.36-1.15,.05-1.65-.24-.38-.55-.53-.85-.55Zm1.3-2.79c-.33,0-.59,.11-.81,.36-.46,.51-.47,1.38-.02,1.91,.48,.56,1.22,.51,1.66-.11,.29-.41,.33-1.04,.09-1.5-.24-.46-.57-.64-.91-.66Zm2.52,2.66c.32,0,.58-.12,.81-.37,.42-.46,.46-1.26,.09-1.81-.43-.63-1.24-.65-1.7-.05-.38,.51-.38,1.24-.02,1.75,.23,.32,.52,.46,.81,.47Zm1.33,2.8c.28,0,.54-.11,.76-.35,.46-.49,.49-1.34,.07-1.89-.43-.57-1.2-.57-1.64,0-.41,.53-.4,1.34,.03,1.84,.23,.27,.5,.38,.78,.4Zm-2.65,0c.34,0,.62-.13,.83-.38,.41-.47,.45-1.25,.09-1.79-.45-.67-1.3-.66-1.75,0-.33,.49-.32,1.19,.02,1.67,.24,.34,.53,.47,.81,.48Z"/><path class="cls-1" d="M87.92,57c.22,0,.41,.08,.57,.29,.22,.29,.22,.69,.01,.99-.29,.4-.87,.41-1.17,.02-.24-.32-.22-.77,.04-1.05,.15-.17,.33-.25,.54-.25Zm-.01,.93c.1,0,.19-.12,.19-.26,0-.15-.08-.26-.19-.26-.1,0-.19,.11-.19,.26,0,.14,.08,.27,.19,.27Z"/><path class="cls-1" d="M91.79,61.25c-.19,0-.39-.09-.55-.31-.21-.29-.21-.7,0-.98,.19-.25,.41-.32,.66-.3,.03,0,.06,.04,.07,.07,.17,.35,.32,.73,.44,1.13,.02,.06,0,.09-.02,.12-.14,.17-.35,.27-.59,.27Zm-.15-.53c.1,0,.18-.12,.18-.27,0-.14-.08-.26-.19-.26-.1,0-.19,.13-.19,.27,0,.14,.09,.26,.19,.26Z"/><path class="cls-1" d="M91.06,58.35c-.2,.21-.43,.27-.67,.23-.2-.04-.38-.15-.51-.38-.13-.23-.14-.52-.02-.75,.01-.02,.05-.05,.07-.04,.41,.23,.78,.53,1.12,.92v.02Z"/><path class="cls-1" d="M84.52,59.9c.26,.25,.3,.71,.09,1.02-.15,.22-.33,.31-.55,.33,.12-.49,.27-.93,.46-1.35Z"/><path class="cls-1" d="M92.74,63.92c-.22-.13-.35-.39-.35-.67,0-.27,.14-.54,.34-.66,.04,.44,.04,.88,.01,1.33Z"/><path class="cls-1" d="M86.14,57.73c0,.22-.04,.38-.14,.52-.19,.27-.42,.35-.7,.33,.26-.34,.53-.61,.84-.85Z"/><path class="cls-1" d="M85.3,64.05c-.22,0-.43-.09-.59-.31-.2-.27-.2-.67,0-.95,.29-.41,.87-.44,1.17-.05,.26,.33,.23,.81-.06,1.1-.15,.15-.33,.22-.51,.22Zm0-.53c.1,0,.18-.12,.18-.27,0-.15-.08-.27-.19-.27-.1,0-.18,.12-.18,.27,0,.15,.08,.26,.19,.26Z"/><path class="cls-1" d="M86.58,61.25c-.16,0-.34-.07-.49-.23-.28-.3-.29-.78-.02-1.1,.29-.35,.82-.34,1.11,.01,.26,.32,.24,.82-.05,1.1-.16,.15-.34,.22-.55,.22Zm-.25-.92c0,.14,.09,.27,.19,.26,.1,0,.18-.12,.19-.27,0-.14-.09-.27-.19-.27-.1,0-.18,.13-.18,.27Z"/><path class="cls-1" d="M89.19,61.25c-.2-.01-.4-.09-.56-.3-.22-.29-.22-.71,0-1,.29-.38,.84-.4,1.14-.02,.27,.33,.24,.86-.07,1.12-.17,.15-.31,.2-.52,.2Zm.11-.93c-.11,0-.19,.13-.19,.28,0,.14,.09,.26,.19,.26,.1,0,.18-.13,.18-.27,0-.14-.09-.26-.19-.26Z"/><path class="cls-1" d="M90.52,64.05c-.2,0-.38-.07-.54-.25-.27-.31-.27-.78,0-1.09,.3-.34,.8-.33,1.09,0,.27,.31,.26,.8-.02,1.1-.15,.16-.33,.24-.54,.24Zm.19-.53c.1,0,.19-.13,.19-.27,0-.15-.08-.26-.19-.26-.1,0-.19,.12-.19,.26,0,.14,.09,.27,.19,.27Z"/><path class="cls-1" d="M87.95,64.05c-.23,0-.41-.07-.56-.24-.28-.31-.28-.81,0-1.12,.3-.32,.77-.32,1.07,0,.27,.3,.28,.79,0,1.09-.16,.18-.35,.26-.52,.26Zm.24-.93c0-.15-.08-.26-.18-.27-.1,0-.19,.12-.19,.26,0,.14,.08,.27,.19,.27,.1,0,.18-.12,.18-.27Z"/></g><g><path class="cls-1" d="M96.36,58.29c.08-.13,.15-.26,.23-.39,.01-.02,.05-.01,.08,0,.36,.13,.7,.08,1.01-.2,.3-.27,.47-.65,.45-1.18,0-.2-.01-.2,.12-.28,.08-.04,.15-.08,.24-.13-.02,.09-.04,.16-.05,.24-.07,.45,.02,.82,.24,1.14,.44,.63,1.26,.63,1.7,0,.33-.47,.36-1.08,.08-1.6,0-.01-.01-.02-.02-.05,.24,.03,.47,.1,.69,.2-.03,.13-.07,.25-.09,.38-.06,.46,.05,.83,.29,1.13,.44,.55,1.13,.56,1.59,.04,.01-.01,.03-.03,.04-.05l.32,.4c-.17,.1-.32,.15-.45,.26-.31,.24-.5,.6-.49,1.13,0,.39,.14,.69,.34,.93,.4,.46,1,.5,1.44,.11l.07-.06,.11,.57c-.05,.04-.1,.07-.15,.11-.26,.21-.44,.5-.49,.93-.06,.49,.09,.87,.36,1.17,.08,.08,.17,.14,.25,.2,.04,.03,.05,.06,.04,.12-.06,.3-.27,.53-.48,.55-.04,0-.07,0-.11,0-2.53,0-5.06,0-7.59,0-.25,0-.45-.12-.55-.44-.05-.15-.07-.32-.08-.48-.07-.77-.05-1.53,.07-2.29,.01-.08,.03-.11,.09-.11,.31,0,.6-.14,.83-.46,.37-.52,.36-1.27-.03-1.77-.03-.03-.05-.06-.08-.1Zm.62,2.47c-.31,0-.57,.11-.77,.31-.49,.49-.53,1.38-.09,1.93,.46,.57,1.22,.55,1.66-.05,.34-.46,.36-1.15,.05-1.65-.24-.38-.55-.53-.85-.55Zm1.3-2.79c-.33,0-.59,.11-.81,.36-.46,.51-.47,1.38-.02,1.91,.48,.56,1.22,.51,1.66-.11,.29-.41,.33-1.04,.09-1.5-.24-.46-.57-.64-.91-.66Zm2.52,2.66c.32,0,.58-.12,.81-.37,.42-.46,.46-1.26,.09-1.81-.43-.63-1.24-.65-1.7-.05-.38,.51-.38,1.24-.02,1.75,.23,.32,.52,.46,.81,.47Zm1.33,2.8c.28,0,.54-.11,.76-.35,.46-.49,.49-1.34,.07-1.89-.43-.57-1.2-.57-1.64,0-.41,.53-.4,1.34,.03,1.84,.23,.27,.5,.38,.78,.4Zm-2.65,0c.34,0,.62-.13,.83-.38,.41-.47,.45-1.25,.09-1.79-.45-.67-1.3-.66-1.75,0-.33,.49-.32,1.19,.02,1.67,.24,.34,.53,.47,.81,.48Z"/><path class="cls-1" d="M99.54,55.84c.22,0,.41,.08,.57,.29,.22,.29,.22,.69,.01,.99-.29,.4-.87,.41-1.17,.02-.24-.32-.22-.77,.04-1.05,.15-.17,.33-.25,.54-.25Zm-.01,.93c.1,0,.19-.12,.19-.26,0-.15-.08-.26-.19-.26-.1,0-.19,.11-.19,.26,0,.14,.08,.27,.19,.27Z"/><path class="cls-1" d="M103.41,60.09c-.19,0-.39-.09-.55-.31-.21-.29-.21-.7,0-.98,.19-.25,.41-.32,.66-.3,.03,0,.06,.04,.07,.07,.17,.35,.32,.73,.44,1.13,.02,.06,0,.09-.02,.12-.14,.17-.35,.27-.59,.27Zm-.15-.53c.1,0,.18-.12,.18-.27,0-.14-.08-.26-.19-.26-.1,0-.19,.13-.19,.27,0,.14,.09,.26,.19,.26Z"/><path class="cls-1" d="M102.68,57.19c-.2,.21-.43,.27-.67,.23-.2-.04-.38-.15-.51-.38-.13-.23-.14-.52-.02-.75,.01-.02,.05-.05,.07-.04,.41,.23,.78,.53,1.12,.92v.02Z"/><path class="cls-1" d="M96.14,58.74c.26,.25,.3,.71,.09,1.02-.15,.22-.33,.31-.55,.33,.12-.49,.27-.93,.46-1.35Z"/><path class="cls-1" d="M104.36,62.76c-.22-.13-.35-.39-.35-.67,0-.27,.14-.54,.34-.66,.04,.44,.04,.88,.01,1.33Z"/><path class="cls-1" d="M97.77,56.57c0,.22-.04,.38-.14,.52-.19,.27-.42,.35-.7,.33,.26-.34,.53-.61,.84-.85Z"/><path class="cls-1" d="M96.93,62.89c-.22,0-.43-.09-.59-.31-.2-.27-.2-.67,0-.95,.29-.41,.87-.44,1.17-.05,.26,.33,.23,.81-.06,1.1-.15,.15-.33,.22-.51,.22Zm0-.53c.1,0,.18-.12,.18-.27,0-.15-.08-.27-.19-.27-.1,0-.18,.12-.18,.27,0,.15,.08,.26,.19,.26Z"/><path class="cls-1" d="M98.2,60.09c-.16,0-.34-.07-.49-.23-.28-.3-.29-.78-.02-1.1,.29-.35,.82-.34,1.11,.01,.26,.32,.24,.82-.05,1.1-.16,.15-.34,.22-.55,.22Zm-.25-.92c0,.14,.09,.27,.19,.26,.1,0,.18-.12,.19-.27,0-.14-.09-.27-.19-.27-.1,0-.18,.13-.18,.27Z"/><path class="cls-1" d="M100.82,60.09c-.2-.01-.4-.09-.56-.3-.22-.29-.22-.71,0-1,.29-.38,.84-.4,1.14-.02,.27,.33,.24,.86-.07,1.12-.17,.15-.31,.2-.52,.2Zm.11-.93c-.11,0-.19,.13-.19,.28,0,.14,.09,.26,.19,.26,.1,0,.18-.13,.18-.27,0-.14-.09-.26-.19-.26Z"/><path class="cls-1" d="M102.14,62.89c-.2,0-.38-.07-.54-.25-.27-.31-.27-.78,0-1.09,.3-.34,.8-.33,1.09,0,.27,.31,.26,.8-.02,1.1-.15,.16-.33,.24-.54,.24Zm.19-.53c.1,0,.19-.13,.19-.27,0-.15-.08-.26-.19-.26-.1,0-.19,.12-.19,.26,0,.14,.09,.27,.19,.27Z"/><path class="cls-1" d="M99.57,62.89c-.23,0-.41-.07-.56-.24-.28-.31-.28-.81,0-1.12,.3-.32,.77-.32,1.07,0,.27,.3,.28,.79,0,1.09-.16,.18-.35,.26-.52,.26Zm.24-.93c0-.15-.08-.26-.18-.27-.1,0-.19,.12-.19,.26,0,.14,.08,.27,.19,.27,.1,0,.18-.12,.18-.27Z"/></g><g><path class="cls-1" d="M108.78,56.53c.08-.13,.15-.26,.23-.39,.01-.02,.05-.01,.08,0,.36,.13,.7,.08,1.01-.2,.3-.27,.47-.65,.45-1.18,0-.2-.01-.2,.12-.28,.08-.04,.15-.08,.24-.13-.02,.09-.04,.16-.05,.24-.07,.45,.02,.82,.24,1.14,.44,.63,1.26,.63,1.7,0,.33-.47,.36-1.08,.08-1.6,0-.01-.01-.02-.02-.05,.24,.03,.47,.1,.69,.2-.03,.13-.07,.25-.09,.38-.06,.46,.05,.83,.29,1.13,.44,.55,1.13,.56,1.59,.04,.01-.01,.03-.03,.04-.05l.32,.4c-.17,.1-.32,.15-.45,.26-.31,.24-.5,.6-.49,1.13,0,.39,.14,.69,.34,.93,.4,.46,1,.5,1.44,.11l.07-.06,.11,.57c-.05,.04-.1,.07-.15,.11-.26,.21-.44,.5-.49,.93-.06,.49,.09,.87,.36,1.17,.08,.08,.17,.14,.25,.2,.04,.03,.05,.06,.04,.12-.06,.3-.27,.53-.48,.55-.04,0-.07,0-.11,0-2.53,0-5.06,0-7.59,0-.25,0-.45-.12-.55-.44-.05-.15-.07-.32-.08-.48-.07-.77-.05-1.53,.07-2.29,.01-.08,.03-.11,.09-.11,.31,0,.6-.14,.83-.46,.37-.52,.36-1.27-.03-1.77-.03-.03-.05-.06-.08-.1Zm.62,2.47c-.31,0-.57,.11-.77,.31-.49,.49-.53,1.38-.09,1.93,.46,.57,1.22,.55,1.66-.05,.34-.46,.36-1.15,.05-1.65-.24-.38-.55-.53-.85-.55Zm1.3-2.79c-.33,0-.59,.11-.81,.36-.46,.51-.47,1.38-.02,1.91,.48,.56,1.22,.51,1.66-.11,.29-.41,.33-1.04,.09-1.5-.24-.46-.57-.64-.91-.66Zm2.52,2.66c.32,0,.58-.12,.81-.37,.42-.46,.46-1.26,.09-1.81-.43-.63-1.24-.65-1.7-.05-.38,.51-.38,1.24-.02,1.75,.23,.32,.52,.46,.81,.47Zm1.33,2.8c.28,0,.54-.11,.76-.35,.46-.49,.49-1.34,.07-1.89-.43-.57-1.2-.57-1.64,0-.41,.53-.4,1.34,.03,1.84,.23,.27,.5,.38,.78,.4Zm-2.65,0c.34,0,.62-.13,.83-.38,.41-.47,.45-1.25,.09-1.79-.45-.67-1.3-.66-1.75,0-.33,.49-.32,1.19,.02,1.67,.24,.34,.53,.47,.81,.48Z"/><path class="cls-1" d="M111.96,54.08c.22,0,.41,.08,.57,.29,.22,.29,.22,.69,.01,.99-.29,.4-.87,.41-1.17,.02-.24-.32-.22-.77,.04-1.05,.15-.17,.33-.25,.54-.25Zm-.01,.93c.1,0,.19-.12,.19-.26,0-.15-.08-.26-.19-.26-.1,0-.19,.11-.19,.26,0,.14,.08,.27,.19,.27Z"/><path class="cls-1" d="M115.83,58.33c-.19,0-.39-.09-.55-.31-.21-.29-.21-.7,0-.98,.19-.25,.41-.32,.66-.3,.03,0,.06,.04,.07,.07,.17,.35,.32,.73,.44,1.13,.02,.06,0,.09-.02,.12-.14,.17-.35,.27-.59,.27Zm-.15-.53c.1,0,.18-.12,.18-.27,0-.14-.08-.26-.19-.26-.1,0-.19,.13-.19,.27,0,.14,.09,.26,.19,.26Z"/><path class="cls-1" d="M115.09,55.43c-.2,.21-.43,.27-.67,.23-.2-.04-.38-.15-.51-.38-.13-.23-.14-.52-.02-.75,.01-.02,.05-.05,.07-.04,.41,.23,.78,.53,1.12,.92v.02Z"/><path class="cls-1" d="M108.56,56.98c.26,.25,.3,.71,.09,1.02-.15,.22-.33,.31-.55,.33,.12-.49,.27-.93,.46-1.35Z"/><path class="cls-1" d="M116.78,61c-.22-.13-.35-.39-.35-.67,0-.27,.14-.54,.34-.66,.04,.44,.04,.88,.01,1.33Z"/><path class="cls-1" d="M110.18,54.82c0,.22-.04,.38-.14,.52-.19,.27-.42,.35-.7,.33,.26-.34,.53-.61,.84-.85Z"/><path class="cls-1" d="M109.34,61.13c-.22,0-.43-.09-.59-.31-.2-.27-.2-.67,0-.95,.29-.41,.87-.44,1.17-.05,.26,.33,.23,.81-.06,1.1-.15,.15-.33,.22-.51,.22Zm0-.53c.1,0,.18-.12,.18-.27,0-.15-.08-.27-.19-.27-.1,0-.18,.12-.18,.27,0,.15,.08,.26,.19,.26Z"/><path class="cls-1" d="M110.61,58.33c-.16,0-.34-.07-.49-.23-.28-.3-.29-.78-.02-1.1,.29-.35,.82-.34,1.11,.01,.26,.32,.24,.82-.05,1.1-.16,.15-.34,.22-.55,.22Zm-.25-.92c0,.14,.09,.27,.19,.26,.1,0,.18-.12,.19-.27,0-.14-.09-.27-.19-.27-.1,0-.18,.13-.18,.27Z"/><path class="cls-1" d="M113.23,58.34c-.2-.01-.4-.09-.56-.3-.22-.29-.22-.71,0-1,.29-.38,.84-.4,1.14-.02,.27,.33,.24,.86-.07,1.12-.17,.15-.31,.2-.52,.2Zm.11-.93c-.11,0-.19,.13-.19,.28,0,.14,.09,.26,.19,.26,.1,0,.18-.13,.18-.27,0-.14-.09-.26-.19-.26Z"/><path class="cls-1" d="M114.56,61.13c-.2,0-.38-.07-.54-.25-.27-.31-.27-.78,0-1.09,.3-.34,.8-.33,1.09,0,.27,.31,.26,.8-.02,1.1-.15,.16-.33,.24-.54,.24Zm.19-.53c.1,0,.19-.13,.19-.27,0-.15-.08-.26-.19-.26-.1,0-.19,.12-.19,.26,0,.14,.09,.27,.19,.27Z"/><path class="cls-1" d="M111.98,61.13c-.23,0-.41-.07-.56-.24-.28-.31-.28-.81,0-1.12,.3-.32,.77-.32,1.07,0,.27,.3,.28,.79,0,1.09-.16,.18-.35,.26-.52,.26Zm.24-.93c0-.15-.08-.26-.18-.27-.1,0-.19,.12-.19,.26,0,.14,.08,.27,.19,.27,.1,0,.18-.12,.18-.27Z"/></g><g><path class="cls-1" d="M120.09,54.07c.08-.13,.15-.26,.23-.39,.01-.02,.05-.01,.08,0,.36,.13,.7,.08,1.01-.2,.3-.27,.47-.65,.45-1.18,0-.2-.01-.2,.12-.28,.08-.04,.15-.08,.24-.13-.02,.09-.04,.16-.05,.24-.07,.45,.02,.82,.24,1.14,.44,.63,1.26,.63,1.7,0,.33-.47,.36-1.08,.08-1.6,0-.01-.01-.02-.02-.05,.24,.03,.47,.1,.69,.2-.03,.13-.07,.25-.09,.38-.06,.46,.05,.83,.29,1.13,.44,.55,1.13,.56,1.59,.04,.01-.01,.03-.03,.04-.05l.32,.4c-.17,.1-.32,.15-.45,.26-.31,.24-.5,.6-.49,1.13,0,.39,.14,.69,.34,.93,.4,.46,1,.5,1.44,.11l.07-.06,.11,.57c-.05,.04-.1,.07-.15,.11-.26,.21-.44,.5-.49,.93-.06,.49,.09,.87,.36,1.17,.08,.08,.17,.14,.25,.2,.04,.03,.05,.06,.04,.12-.06,.3-.27,.53-.48,.55-.04,0-.07,0-.11,0-2.53,0-5.06,0-7.59,0-.25,0-.45-.12-.55-.44-.05-.15-.07-.32-.08-.48-.07-.77-.05-1.53,.07-2.29,.01-.08,.03-.11,.09-.11,.31,0,.6-.14,.83-.46,.37-.52,.36-1.27-.03-1.77-.03-.03-.05-.06-.08-.1Zm.62,2.47c-.31,0-.57,.11-.77,.31-.49,.49-.53,1.38-.09,1.93,.46,.57,1.22,.55,1.66-.05,.34-.46,.36-1.15,.05-1.65-.24-.38-.55-.53-.85-.55Zm1.3-2.79c-.33,0-.59,.11-.81,.36-.46,.51-.47,1.38-.02,1.91,.48,.56,1.22,.51,1.66-.11,.29-.41,.33-1.04,.09-1.5-.24-.46-.57-.64-.91-.66Zm2.52,2.66c.32,0,.58-.12,.81-.37,.42-.46,.46-1.26,.09-1.81-.43-.63-1.24-.65-1.7-.05-.38,.51-.38,1.24-.02,1.75,.23,.32,.52,.46,.81,.47Zm1.33,2.8c.28,0,.54-.11,.76-.35,.46-.49,.49-1.34,.07-1.89-.43-.57-1.2-.57-1.64,0-.41,.53-.4,1.34,.03,1.84,.23,.27,.5,.38,.78,.4Zm-2.65,0c.34,0,.62-.13,.83-.38,.41-.47,.45-1.25,.09-1.79-.45-.67-1.3-.66-1.75,0-.33,.49-.32,1.19,.02,1.67,.24,.34,.53,.47,.81,.48Z"/><path class="cls-1" d="M123.27,51.61c.22,0,.41,.08,.57,.29,.22,.29,.22,.69,.01,.99-.29,.4-.87,.41-1.17,.02-.24-.32-.22-.77,.04-1.05,.15-.17,.33-.25,.54-.25Zm-.01,.93c.1,0,.19-.12,.19-.26,0-.15-.08-.26-.19-.26-.1,0-.19,.11-.19,.26,0,.14,.08,.27,.19,.27Z"/><path class="cls-1" d="M127.14,55.87c-.19,0-.39-.09-.55-.31-.21-.29-.21-.7,0-.98,.19-.25,.41-.32,.66-.3,.03,0,.06,.04,.07,.07,.17,.35,.32,.73,.44,1.13,.02,.06,0,.09-.02,.12-.14,.17-.35,.27-.59,.27Zm-.15-.53c.1,0,.18-.12,.18-.27,0-.14-.08-.26-.19-.26-.1,0-.19,.13-.19,.27,0,.14,.09,.26,.19,.26Z"/><path class="cls-1" d="M126.4,52.97c-.2,.21-.43,.27-.67,.23-.2-.04-.38-.15-.51-.38-.13-.23-.14-.52-.02-.75,.01-.02,.05-.05,.07-.04,.41,.23,.78,.53,1.12,.92v.02Z"/><path class="cls-1" d="M119.87,54.51c.26,.25,.3,.71,.09,1.02-.15,.22-.33,.31-.55,.33,.12-.49,.27-.93,.46-1.35Z"/><path class="cls-1" d="M128.09,58.54c-.22-.13-.35-.39-.35-.67,0-.27,.14-.54,.34-.66,.04,.44,.04,.88,.01,1.33Z"/><path class="cls-1" d="M121.49,52.35c0,.22-.04,.38-.14,.52-.19,.27-.42,.35-.7,.33,.26-.34,.53-.61,.84-.85Z"/><path class="cls-1" d="M120.65,58.66c-.22,0-.43-.09-.59-.31-.2-.27-.2-.67,0-.95,.29-.41,.87-.44,1.17-.05,.26,.33,.23,.81-.06,1.1-.15,.15-.33,.22-.51,.22Zm0-.53c.1,0,.18-.12,.18-.27,0-.15-.08-.27-.19-.27-.1,0-.18,.12-.18,.27,0,.15,.08,.26,.19,.26Z"/><path class="cls-1" d="M121.92,55.87c-.16,0-.34-.07-.49-.23-.28-.3-.29-.78-.02-1.1,.29-.35,.82-.34,1.11,.01,.26,.32,.24,.82-.05,1.1-.16,.15-.34,.22-.55,.22Zm-.25-.92c0,.14,.09,.27,.19,.26,.1,0,.18-.12,.19-.27,0-.14-.09-.27-.19-.27-.1,0-.18,.13-.18,.27Z"/><path class="cls-1" d="M124.54,55.87c-.2-.01-.4-.09-.56-.3-.22-.29-.22-.71,0-1,.29-.38,.84-.4,1.14-.02,.27,.33,.24,.86-.07,1.12-.17,.15-.31,.2-.52,.2Zm.11-.93c-.11,0-.19,.13-.19,.28,0,.14,.09,.26,.19,.26,.1,0,.18-.13,.18-.27,0-.14-.09-.26-.19-.26Z"/><path class="cls-1" d="M125.86,58.66c-.2,0-.38-.07-.54-.25-.27-.31-.27-.78,0-1.09,.3-.34,.8-.33,1.09,0,.27,.31,.26,.8-.02,1.1-.15,.16-.33,.24-.54,.24Zm.19-.53c.1,0,.19-.13,.19-.27,0-.15-.08-.26-.19-.26-.1,0-.19,.12-.19,.26,0,.14,.09,.27,.19,.27Z"/><path class="cls-1" d="M123.29,58.66c-.23,0-.41-.07-.56-.24-.28-.31-.28-.81,0-1.12,.3-.32,.77-.32,1.07,0,.27,.3,.28,.79,0,1.09-.16,.18-.35,.26-.52,.26Zm.24-.93c0-.15-.08-.26-.18-.27-.1,0-.19,.12-.19,.26,0,.14,.08,.27,.19,.27,.1,0,.18-.12,.18-.27Z"/></g></g><g id="text"><rect class="cls-4" x="1" y="1" width="189.44" height="97.62" rx="12" ry="12"/></g></svg>