<?xml version="1.0" encoding="UTF-8"?><svg id="Layer_2" xmlns="http://www.w3.org/2000/svg" viewBox="0 0 191.44 99.62"><defs><style>.cls-1,.cls-2,.cls-3{fill:none;}.cls-4{fill:#cb6e6c;}.cls-5{fill:#6fcacc;}.cls-6{fill:#fff;}.cls-6,.cls-2,.cls-3{stroke:#cb6e6c;}.cls-6,.cls-3{stroke-miterlimit:10;}.cls-2{stroke-linecap:round;stroke-linejoin:round;}.cls-2,.cls-3{stroke-width:2px;}</style></defs><g id="features"><rect class="cls-5" x=".28" y="55.43" width="189.37" height="19.99"/><path class="cls-4" d="M189.64,75.42v14.84c-.29,1.34-1.45,7.37-8.72,7.85H8.92C.97,96.91,.75,91.75,.2,89.39l-.15-3.41,.23-10.56H189.64Z"/><rect class="cls-4" x="32.53" y="42.88" width="3.87" height="35.13"/><rect class="cls-4" x=".28" y="42.88" width="3.87" height="35.13"/><rect class="cls-4" x="185.77" y="42.88" width="3.87" height="35.13"/><rect class="cls-4" x="153.57" y="42.88" width="3.87" height="35.13"/><g><rect class="cls-1" x="72.71" y="46.11" width="1.63" height="6.45"/><rect class="cls-1" x="115.33" y="46.11" width="1.64" height="6.45"/><path class="cls-4" d="M116.97,36.51v4.9h-1.64v-4.9h-40.98v4.9h-1.63v-4.9h-7.84v41.5h7.84v-20.75h1.63v4.38h40.98v-4.38h1.64v20.75h7.84V36.51h-7.84Zm-42.62,16.05h-1.63v-6.45h1.63v6.45Zm42.62,0h-1.64v-6.45h1.64v6.45Z"/></g><g><line class="cls-2" x1="94.21" y1="33.45" x2="94.21" y2="27.66"/><polygon class="cls-4" points="88.13 28.48 100.28 28.48 94.21 22.4 88.13 28.48"/></g><rect class="cls-6" x="74.35" y="36.51" width="40.98" height="25.13"/><g><line class="cls-2" x1="94.21" y1="63.82" x2="94.21" y2="69.61"/><polygon class="cls-4" points="100.28 68.8 88.13 68.8 94.21 74.87 100.28 68.8"/></g></g><g id="frames"><rect class="cls-4" x="36.4" y="60.72" width="1.63" height="4.7"/><rect class="cls-4" x="63.24" y="60.72" width="1.63" height="4.7"/><rect class="cls-4" x="4.14" y="60.72" width="1.63" height="4.7"/><rect class="cls-4" x="31.49" y="60.72" width="1.63" height="4.7"/><rect class="cls-4" x="124.81" y="60.72" width="1.63" height="4.7"/><rect class="cls-4" x="151.94" y="60.72" width="1.63" height="4.7"/><rect class="cls-4" x="157.44" y="60.72" width="1.63" height="4.7"/><rect class="cls-4" x="184.57" y="60.72" width="1.63" height="4.7"/><rect class="cls-6" x="126.44" y="49.81" width="25.51" height="26.21"/><rect class="cls-6" x="159.07" y="49.33" width="25.51" height="26.21"/><rect class="cls-6" x="37.88" y="49.33" width="25.51" height="26.21"/><rect class="cls-6" x="5.77" y="49.33" width="25.72" height="26.21"/></g><g id="text"><rect class="cls-3" x="1" y="1" width="189.44" height="97.62" rx="12" ry="12"/></g></svg>