<?xml version="1.0" encoding="UTF-8"?><svg id="Layer_2" xmlns="http://www.w3.org/2000/svg" viewBox="0 0 191.44 99.62"><defs><style>.cls-1{fill:#cb6e6c;}.cls-1,.cls-2{stroke:#f6c242;stroke-linecap:round;stroke-linejoin:round;}.cls-2,.cls-3,.cls-4{fill:none;}.cls-5{fill:#f6c242;}.cls-6{fill:#6fcacc;}.cls-7{fill:#5e8b83;}.cls-8{fill:#71b6cc;}.cls-3{stroke:#cb6e6c;}.cls-3,.cls-4{stroke-miterlimit:10;stroke-width:2px;}.cls-4{stroke:#5e8b83;}</style></defs><g id="water"><rect class="cls-6" x="1.43" y="63.92" width="119.26" height="10.85"/><rect class="cls-8" x="1.36" y="59.04" width="154.42" height="4.88"/></g><g id="transition_layer"><rect class="cls-1" x="157.38" y="34.47" width="17.24" height="22.45"/><polygon class="cls-1" points="186.48 48.03 178.71 41.89 170.95 48.03 170.09 48.6 170.09 57.73 187.34 57.73 187.34 48.6 186.48 48.03"/><polygon class="cls-1" points="162.18 48.03 154.42 41.89 146.65 48.03 145.8 48.6 145.8 57.73 163.04 57.73 163.04 48.6 162.18 48.03"/></g><g id="section"><path class="cls-7" d="M190.52,55.64h-40.59l-38.72,3.4-10.19,4.82h-31.97L1.08,70.95l-.15,15.54,.15,3.41c.55,2.36,.77,7.52,8.72,8.72H181.8c7.27-.48,8.43-6.51,8.72-7.85V55.64Z"/></g><g id="frames"><rect class="cls-4" x="1" y="1" width="189.44" height="97.62" rx="12" ry="12"/><polygon class="cls-2" points="111.2 59.04 101.98 63.92 101.98 77.29 189.13 77.29 189.13 55.64 161.84 56.09 145.8 56.09 111.2 59.04"/><line class="cls-2" x1="104.31" y1="62.94" x2="115.4" y2="77.29"/><line class="cls-2" x1="109.85" y1="60.29" x2="123.15" y2="77.29"/><line class="cls-2" x1="116.63" y1="59.04" x2="131.36" y2="77.29"/><line class="cls-2" x1="124" y1="58.2" x2="139.18" y2="77.29"/><line class="cls-2" x1="131.26" y1="57.73" x2="147.4" y2="77.22"/><line class="cls-2" x1="101.98" y1="69.35" x2="108.53" y2="77.29"/><line class="cls-2" x1="139.57" y1="56.92" x2="156.43" y2="77.29"/><line class="cls-2" x1="148" y1="56.34" x2="165.33" y2="77.29"/><line class="cls-2" x1="157.61" y1="57" x2="174.4" y2="77.29"/><line class="cls-2" x1="164.88" y1="56.44" x2="181.87" y2="76.98"/><line class="cls-2" x1="173.17" y1="56.44" x2="189.13" y2="75.73"/><line class="cls-2" x1="181.57" y1="56.44" x2="189.13" y2="65.58"/></g><g id="text"><g><polygon class="cls-5" points="131.47 33.13 124.43 27.56 117.38 33.13 116.6 33.65 116.6 41.93 132.25 41.93 132.25 33.65 131.47 33.13"/><circle class="cls-3" cx="124" cy="35.71" r="12.97"/><line class="cls-3" x1="115" y1="25.16" x2="132.41" y2="45.58"/></g></g></svg>