<?xml version="1.0" encoding="UTF-8"?><svg id="Layer_2" xmlns="http://www.w3.org/2000/svg" viewBox="0 0 191.44 99.62"><defs><style>.cls-1{letter-spacing:0em;}.cls-2{font-family:Arial-Black, 'Arial Black';font-size:7px;}.cls-2,.cls-3,.cls-4{fill:#cb6e6c;}.cls-5{letter-spacing:0em;}.cls-6{fill:#f6c242;}.cls-7{fill:#71b6cc;}.cls-8{letter-spacing:0em;}.cls-9{stroke:#cb6e6c;}.cls-9,.cls-10{stroke-width:2px;}.cls-9,.cls-10,.cls-11{fill:none;}.cls-9,.cls-11{stroke-linecap:round;stroke-linejoin:round;}.cls-10,.cls-12{stroke:#f6c242;stroke-miterlimit:10;}.cls-4{font-family:AvenirNextCondensed-Regular, 'Avenir Next Condensed';font-size:4.14px;}.cls-12{fill:#fff;}.cls-12,.cls-11{stroke-width:1.5px;}.cls-11{stroke:#fff;}</style></defs><g id="water"><path class="cls-7" d="M189.84,77.4L1.73,77.97h0l-.12,10.16,.15,2.82c.55,1.95,.76,6.22,8.66,7.21H181.18c7.22-.4,8.37-5.39,8.66-6.5v-14.27h0Z"/></g><g id="features"><text class="cls-4" transform="translate(98.01 65.75)"><tspan x="0" y="0">seve</tspan><tspan class="cls-1" x="6.47" y="0">r</tspan><tspan x="7.58" y="0">e flood </tspan><tspan x=".3" y="4.97">warnings in </tspan><tspan x="2.46" y="9.94">your a</tspan><tspan class="cls-8" x="11.36" y="9.94">re</tspan><tspan class="cls-5" x="14.19" y="9.94">a</tspan></text><path class="cls-6" d="M112.82,12.79h-14.54c-6.75,0-12.27-1.28-12.27,5.32V84.76c0,6.6,5.52,5.92,12.27,5.92h14.54c6.75,0,12.27,.6,12.27-6V18.45c0-6.6-5.52-5.65-12.27-5.65Zm-4.44,74.4h-5.41c-.87,0-1.58-.71-1.58-1.58s.71-1.58,1.58-1.58h5.41c.87,0,1.58,.71,1.58,1.58s-.71,1.58-1.58,1.58Zm14.05-6.38h-32.59V21.44h32.59v59.38Z"/><text class="cls-2" transform="translate(103.21 59.27)"><tspan x="0" y="0">3</tspan></text><polygon class="cls-9" points="106.13 28.51 93.91 50.15 118.02 50.15 106.13 28.51"/><path class="cls-3" d="M109.03,41.6c0,.5,.01,.92,0,1.33-.01,.28,.04,.69-.11,.81-.36,.28-.82,.49-1.27,.58-.29,.06-.7-.07-.95-.26-.47-.35-.86-.37-1.33,0-.56,.43-1.19,.42-1.76,.02-.38-.26-.73-.44-1.22-.05v-2.33l-.16-.12c-.06,.12-.1,.31-.19,.33-.2,.06-.42,.04-.64,.05,0-.21-.09-.48,0-.62,.37-.51,.79-.99,1.23-1.44,.3-.31,.41-.64,.38-1.06-.03-.42,0-.85,0-1.31h.99l.13,.62c.38-.43,.72-.82,1.07-1.2,.52-.56,.6-.57,1.11,.02,1.2,1.38,2.39,2.77,3.58,4.16,.21,.24,.45,.49,.15,.79-.31,.3-.55,.08-.77-.17-.04-.04-.1-.07-.22-.16Zm-.67,1.3v-1.3h-1.18v1.3h1.18Z"/><path class="cls-7" d="M97.19,48.1l.93-1.72c.37,.25,.71,.48,1.05,.7,.47,.31,.97,.3,1.46,.06,.12-.06,.25-.11,.37-.19,.62-.43,1.17-.41,1.81,.06,.71,.52,1.51,.42,2.19-.11,.54-.41,.98-.39,1.52,0,.81,.61,1.67,.55,2.46-.06,.42-.32,.84-.38,1.26-.05,1.05,.81,1.86,.59,2.82-.06,.12-.08,.25-.17,.42-.28l.88,1.64h-17.18Z"/><path class="cls-7" d="M99.2,44.47c.18,.16,.33,.3,.49,.42,.56,.45,1.16,.56,1.81,.2,.16-.09,.34-.15,.5-.25,.37-.23,.7-.24,1.08,.05,.77,.59,1.59,.58,2.37,0,.4-.3,.75-.33,1.15-.02,.81,.62,1.65,.59,2.45-.02,.33-.25,.65-.3,.98-.05,.84,.64,1.68,.72,2.65-.1,.05,.4,.21,.78,.09,.96-.39,.56-1.19,.77-1.62,.53-.13-.07-.25-.18-.38-.26-.78-.5-1.54-.48-2.3,.05-.64,.45-.88,.45-1.52,0-.8-.56-1.57-.56-2.38,0-.66,.45-.89,.47-1.52,0-.84-.61-1.64-.43-2.44,.04-.41,.24-.77,.36-1.22,.03-.82-.61-.85-.69-.18-1.59Z"/><path class="cls-12" d="M125.08,36.29l3.16-1.16s3.38-.67,4.21,1.83,.44,3.66-.39,4.43-6.98,2.99-6.98,2.99v-8.09Z"/><path class="cls-12" d="M123.53,46.6l2.77-.55s2.49,.06,3.16,1.27,1.22,1.49,.89,2.88-1.16,2.72-2.49,3.16-4.32,.89-4.32,.89c0,0-2.38-.22-3.21-2s0-3.55,0-3.55c0,0,1.66-1.8,3.21-2.11Z"/><path class="cls-12" d="M123.09,56.76l2.95-.57s2.65,.06,3.36,1.32,1.3,1.54,.94,2.97-1.24,2.81-2.65,3.27-4.6,.92-4.6,.92c0,0-2.53-.23-3.42-2.06s0-3.67,0-3.67c0,0,1.77-1.86,3.42-2.18Z"/><path class="cls-12" d="M125.95,75.59l-3.04,.47s-2.72-.13-3.41-1.37-1.29-1.52-.89-2.9,1.34-2.69,2.81-3.09,4.74-.76,4.74-.76c0,0,2.59,.29,3.45,2.09s-.1,3.55-.1,3.55c0,0-1.86,1.75-3.56,2.01Z"/><path class="cls-12" d="M88.84,66.75c7.57,.33,9.23-6.82,9.23-6.82v-3.74h-14.88l-6.98,14.8v27.63l17.38-.06s1.08-1.05,1.08-4.71-.15-14.92-8.65-20.29l2.83-6.82Z"/></g><g id="frames"><rect class="cls-10" x="1" y="1" width="189.44" height="97.62" rx="12" ry="12"/><line class="cls-11" x1="103.51" y1="17.45" x2="107.83" y2="17.45"/><circle class="cls-11" cx="105.55" cy="15.02" r=".23"/></g></svg>