<?xml version="1.0" encoding="UTF-8"?><svg id="Layer_2" xmlns="http://www.w3.org/2000/svg" viewBox="0 0 191.44 99.62"><defs><style>.cls-1{stroke:#fff;}.cls-1,.cls-2{stroke-linecap:round;stroke-linejoin:round;}.cls-1,.cls-3,.cls-4{fill:none;}.cls-5{fill:#f6c242;}.cls-6{fill:#6fcacc;}.cls-7{fill:#71b6cc;}.cls-2{fill:#cb6e6c;stroke:#cb6e6c;}.cls-2,.cls-3{stroke-width:2px;}.cls-3,.cls-4{stroke:#f6c242;stroke-miterlimit:10;}</style></defs><g id="water"><rect class="cls-6" x="1" y="56.03" width="189.44" height="25.16"/><rect class="cls-7" x="1" y="51.88" width="189.44" height="6.33"/></g><g id="section"><path class="cls-5" d="M190.44,56.03H107.81l-44.81,9.48L1.08,70.95l-.15,15.54,.15,3.41c.55,2.36,.77,7.52,8.72,8.72H181.8c7.27-.48,8.43-6.51,8.72-7.85v-17.24l-.08-17.49Z"/></g><g id="features"><polygon class="cls-2" points="162.79 34.1 140.82 14.9 118.86 34.1 116.43 35.88 116.43 64.45 165.21 64.45 165.21 35.88 162.79 34.1"/><rect class="cls-7" x="117.41" y="53.29" width="46.83" height="9.84"/><line class="cls-1" x1="117.99" y1="51.88" x2="163.1" y2="51.88"/><line class="cls-1" x1="117.99" y1="35.85" x2="163.1" y2="35.85"/></g><g id="frames"><rect class="cls-3" x="1" y="1" width="189.44" height="97.62" rx="12" ry="12"/></g><g id="text"><g><line class="cls-4" x1="139.69" y1="58.22" x2="139.69" y2="41.32"/><polygon class="cls-5" points="136.65 41.73 142.73 41.73 139.69 38.69 136.65 41.73"/></g><g><path class="cls-5" d="M137.76,35.28v-.72l-.64-.03-.06-.59h-1.24l-.06,.58-.65,.05v.71h2.65Z"/><path class="cls-5" d="M142.23,35.27h2.66v-.71l-.65-.03-.06-.59h-1.24l-.05,.59-.66,.04v.7Z"/><path class="cls-5" d="M137.76,35.28h-2.65v-.71l.65-.05,.06-.58h1.24l.06,.59,.64,.03v.72Z"/><path class="cls-5" d="M142.23,35.27v-.7l.66-.04,.05-.59h1.24l.06,.59,.65,.03v.71h-2.66Z"/><path class="cls-5" d="M138.29,27.09c.41,.08,.69,.12,.96,.18,.44,.11,.71,.4,.74,.85,.03,.44-.13,.83-.51,1.08-.4,.27-.85,.16-1.06-.34-.21-.51-.52-.66-1.03-.6-.17,.02-.35-.13-.52-.21,.09-.19,.14-.47,.29-.55,.38-.2,.81-.3,1.13-.41Z"/><path class="cls-5" d="M140.96,29.71c-.03,.81-.29,1.42-.79,1.91-.31,.31-.72,.35-1.12,.13-.4-.21-.68-.68-.63-1.05,.05-.37,.34-.63,.79-.6,.51,.03,.75-.2,.88-.64,.02-.08,.05-.16,.1-.22,.1-.1,.23-.26,.32-.25,.13,.02,.28,.15,.34,.28,.08,.16,.09,.36,.11,.44Z"/><path class="cls-5" d="M136.91,29.02c.75,0,1.11,.56,.7,1.18-.29,.44-.19,.75,.07,1.14,.11,.16,.09,.4,.12,.61-.23,0-.49,.08-.68,0-.76-.36-1.18-1.02-1.31-1.83-.11-.63,.39-1.1,1.09-1.1Z"/><path class="cls-5" d="M138.45,29.29c.1,.14,.29,.3,.28,.43-.01,.14-.22,.36-.35,.36-.13,0-.34-.21-.36-.34-.02-.13,.16-.29,.26-.44h.17Z"/><path class="cls-5" d="M134.46,33.49c0-.14-.02-.26-.02-.38,0-2.06,0-4.12,0-6.17,0-.98,.44-1.41,1.41-1.41,1.96,0,3.93,0,5.89,0,.15,0,.29,0,.46,0v7.96h-7.74Zm3.93-7c-1.79,0-3.23,1.43-3.24,3.21,0,1.81,1.42,3.25,3.23,3.25,1.78,0,3.23-1.43,3.24-3.21,0-1.8-1.44-3.25-3.24-3.25Z"/><path class="cls-5" d="M145.56,33.5h-2.98v-7.95c.68,0,1.34-.03,2,.01,.52,.03,.92,.51,.98,1.04,.01,.09,0,.19,0,.28,0,2.19,0,4.38,0,6.62Zm-.81-6.55h-1.62v.41h1.62v-.41Zm-1.62,1.33h1.64l-.03-.4h-1.62v.4Zm1.62,.52h-1.64l.02,.39h1.61v-.39Z"/></g></g></svg>