<?xml version="1.0" encoding="UTF-8"?><svg id="Layer_2" xmlns="http://www.w3.org/2000/svg" viewBox="0 0 191.44 99.62"><defs><style>.cls-1{fill:#f6c242;}.cls-2{fill:#6fcacc;}.cls-3{fill:#71b6cc;}.cls-4{fill:#cb6e6c;stroke:#cb6e6c;stroke-linecap:round;stroke-linejoin:round;}.cls-4,.cls-5{stroke-width:2px;}.cls-5{fill:none;stroke:#f6c242;stroke-miterlimit:10;}</style></defs><g id="water"><rect class="cls-2" x="1" y="54.58" width="163.66" height="26.61"/><rect class="cls-3" x="1" y="54.58" width="163.66" height="5.8"/></g><g id="section"><path class="cls-1" d="M190.52,58.13l-12.69,.26-9.82-4.96h-17.53l-11.32,5.74-33.13,.67-36.99,4.01L1.08,70.95l-.15,15.54,.15,3.41c.55,2.36,.77,7.52,8.72,8.72H181.8c7.27-.48,8.43-6.51,8.72-7.85V58.13Z"/></g><g id="frames"><rect class="cls-5" x="1" y="1" width="189.44" height="97.62" rx="12" ry="12"/></g><g id="text"><polygon class="cls-4" points="167.23 42.68 159.47 36.54 151.7 42.68 150.84 43.25 150.84 52.38 168.09 52.38 168.09 43.25 167.23 42.68"/><polygon class="cls-4" points="124.2 41.6 116.43 35.46 108.67 41.6 107.81 42.17 107.81 51.3 125.05 51.3 125.05 42.17 124.2 41.6"/><rect class="cls-4" x="110.37" y="51.3" width="0" height="7.67"/><rect class="cls-4" x="122.51" y="51.3" width="0" height="7.67"/></g></svg>