<?xml version="1.0" encoding="UTF-8"?><svg id="Layer_2" xmlns="http://www.w3.org/2000/svg" viewBox="0 0 191.44 99.62"><defs><style>.cls-1{fill:#cb6e6c;}.cls-2{fill:#6fcacc;}.cls-3{fill:#71b6cc;}.cls-4{fill:none;stroke:#cb6e6c;stroke-miterlimit:10;stroke-width:2px;}</style></defs><g id="water"><rect class="cls-2" x="1.5" y="52.96" width="189.37" height="19.68"/><rect class="cls-3" x=".77" y="46.96" width="140.13" height="5.78"/></g><g id="section"><path class="cls-1" d="M190.37,89.39v.21c0,.48-.05,.95-.17,1.41-.53,2.08-3.05,5.28-8.55,7.1H10.15c-.47,0-1.2-.19-1.61-.43-5.65-3.27-6.16-4.73-7.34-7.47-.14-.33-.27-.9-.29-1.26l-.13-2.97v-17.5c0-3.02-1.42-5.25,1.59-5.53l64.98-5.98c.25-.02,.49-.06,.73-.11l14.13-3.15c4.73-1.05,9.26-2.78,13.47-5.13,4.61-2.57,9.97-3.44,15.2-2.73l4.69,.63c3.62,.49,9.16-.62,12.32-2.46,4.42-2.57,3.66-2.42,11.66-9.69,.63-.57,4.4-4.79,8.26-5.07,3.2-.23,6.37,.82,8.82,2.89l7.96,6.94c1.76,1.53,3.8,2.69,6.02,3.41,4.08,1.33,10.88,3.23,19.78,5.73v41.15Z"/></g><g id="frames"><rect class="cls-4" x="1" y="1" width="189.44" height="97.62" rx="12" ry="12"/></g></svg>