<?xml version="1.0" encoding="UTF-8"?><svg id="Layer_2" xmlns="http://www.w3.org/2000/svg" viewBox="0 0 191.44 99.62"><defs><style>.cls-1,.cls-2{fill:#cb6e6c;}.cls-3{fill:#6fcacc;}.cls-4{fill:#71b6cc;}.cls-2{stroke-linecap:round;stroke-linejoin:round;}.cls-2,.cls-5{stroke:#cb6e6c;stroke-width:2px;}.cls-5{fill:none;stroke-miterlimit:10;}</style></defs><g id="water"><rect class="cls-3" x="1" y="60.55" width="189.37" height="16.32"/><rect class="cls-4" x=".77" y="53.97" width="76.73" height="6.58"/></g><g id="section"><path class="cls-1" d="M190.37,49.81v40.45c-.29,1.34-1.45,7.37-8.72,7.85H9.64c-7.95-1.2-8.17-6.36-8.72-8.72l-.15-3.41,.23-9.1,63.24-11.07,11.2-.05v-15.79l114.93-.16Z"/><polygon class="cls-2" points="159.46 31.76 144.89 20.25 130.33 31.76 128.71 32.83 128.71 49.96 161.08 49.96 161.08 32.83 159.46 31.76"/><rect class="cls-2" x="78.02" y="44.17" width=".32" height="5.8"/></g><g id="frames"><rect class="cls-5" x="1" y="1" width="189.44" height="97.62" rx="12" ry="12"/></g></svg>