<?xml version="1.0" encoding="UTF-8"?><svg id="Layer_2" xmlns="http://www.w3.org/2000/svg" viewBox="0 0 191.44 99.62"><defs><style>.cls-1{fill:#cb6e6c;}.cls-2{fill:#6fcacc;}.cls-3{fill:#71b6cc;}.cls-4{fill:#fff;stroke-width:.5px;}.cls-4,.cls-5{stroke:#cb6e6c;stroke-miterlimit:10;}.cls-5{fill:none;stroke-width:2px;}</style></defs><g id="water"><rect class="cls-2" x=".96" y="54.95" width="189.37" height="18.17"/><rect class="cls-3" x="1" y="49.81" width="165.94" height="5.1"/></g><g id="features"><path class="cls-4" d="M66.5,61.75s-2.92,1.16-3.03-.5,.97-2.64,1.51-2.64,1.65,.41,2.16,.97c1.09,1.19-.65,2.16-.65,2.16Z"/><path class="cls-4" d="M46.06,56.23s.21,3.09-1.25,2.8-2-1.57-1.86-2.1,.8-1.49,1.42-1.85c1.31-.76,1.69,1.15,1.69,1.15Z"/><path class="cls-4" d="M45.66,60.34s2.36,1.42,.33,2.42-3.57,.77-3.74,.39-.01-1.39,.52-2.07c1.13-1.42,2.89-.74,2.89-.74Z"/><path class="cls-4" d="M49.66,63.19s-2.92,1.16-3.03-.5,.97-2.64,1.51-2.64,1.65,.41,2.16,.97c1.09,1.19-.65,2.16-.65,2.16Z"/><path class="cls-4" d="M50.9,61.45s-2.03,.14-1.51-1.16,1.46-1.76,1.76-1.62,.77,.73,.86,1.29c.19,1.18-1.12,1.48-1.12,1.48Z"/><path class="cls-4" d="M39.15,63.37s-2.41-1.33-.43-2.4,3.54-.91,3.72-.54,.07,1.39-.44,2.09c-1.07,1.47-2.85,.86-2.85,.86Z"/><path class="cls-4" d="M54.14,60.34s2.36,1.42,.33,2.42-3.57,.77-3.74,.39-.01-1.39,.52-2.07c1.13-1.42,2.89-.74,2.89-.74Z"/><path class="cls-4" d="M36.53,63.38s-2.42-1.32-.44-2.4,3.53-.92,3.72-.55,.07,1.39-.43,2.09c-1.06,1.47-2.85,.86-2.85,.86Z"/><path class="cls-4" d="M62.12,58.37s-2.92,1.17-3.03-.49,.97-2.64,1.51-2.64,1.65,.41,2.17,.97c1.09,1.18-.64,2.17-.64,2.17Z"/><path class="cls-4" d="M64.23,59.63s.22,3.09-1.24,2.8-2.01-1.57-1.86-2.09,.79-1.49,1.42-1.85c1.31-.76,1.69,1.14,1.69,1.14Z"/><path class="cls-4" d="M48.74,57.34s-2.92,1.16-3.03-.5,.97-2.64,1.51-2.64,1.65,.41,2.16,.97c1.09,1.19-.65,2.16-.65,2.16Z"/><path class="cls-4" d="M52.64,56.23s.21,3.09-1.25,2.8-2-1.57-1.86-2.1,.8-1.49,1.42-1.85c1.31-.76,1.69,1.15,1.69,1.15Z"/><path class="cls-4" d="M48.69,57.17s2.36,1.42,.33,2.42-3.57,.77-3.74,.39-.01-1.39,.52-2.07c1.13-1.42,2.89-.74,2.89-.74Z"/><path class="cls-4" d="M61.04,61.75s-2.92,1.16-3.03-.5,.97-2.64,1.51-2.64,1.65,.41,2.16,.97c1.09,1.19-.65,2.16-.65,2.16Z"/><path class="cls-4" d="M40.6,60.38s-2.03,.14-1.51-1.16,1.46-1.76,1.76-1.62,.77,.73,.86,1.29c.19,1.18-1.12,1.48-1.12,1.48Z"/><path class="cls-4" d="M52.8,60.2s-2.41-1.33-.43-2.4,3.54-.91,3.72-.54,.07,1.39-.44,2.09c-1.07,1.47-2.85,.86-2.85,.86Z"/><path class="cls-4" d="M55.97,50.77s2.36,1.42,.33,2.42-3.57,.77-3.74,.39-.01-1.39,.52-2.07c1.13-1.42,2.89-.74,2.89-.74Z"/><path class="cls-4" d="M56.43,55.83s-1.72-2.15,.52-2.39,3.62,.51,3.65,.93-.47,1.31-1.2,1.76c-1.55,.95-2.96-.3-2.96-.3Z"/><path class="cls-4" d="M52.61,55.27s-2.92,1.16-3.03-.5,.97-2.64,1.51-2.64,1.65,.41,2.16,.97c1.09,1.19-.65,2.16-.65,2.16Z"/><path class="cls-4" d="M56.18,56.45s-2.71,1.95-3.27,.57,.29-2.57,.85-2.74,1.82-.2,2.5,.11c1.45,.65-.08,2.06-.08,2.06Z"/><path class="cls-4" d="M49.58,54.77s-2.92,1.16-3.03-.5,.97-2.64,1.51-2.64,1.65,.41,2.16,.97c1.09,1.19-.65,2.16-.65,2.16Z"/><path class="cls-4" d="M44.3,60.77s-2.99,.96-2.99-.71,1.15-2.56,1.69-2.53,1.62,.52,2.09,1.12c1.01,1.26-.79,2.12-.79,2.12Z"/><path class="cls-4" d="M58,60.38s0,3.1-1.44,2.7-1.89-1.71-1.71-2.22,.9-1.43,1.54-1.75c1.36-.67,1.61,1.26,1.61,1.26Z"/><path class="cls-4" d="M59.72,56.21s2.25,1.58,.17,2.44-3.62,.52-3.76,.13,.08-1.39,.66-2.03c1.22-1.34,2.93-.54,2.93-.54Z"/><path class="cls-4" d="M66.14,55.52s2.36,1.42,.33,2.42-3.57,.77-3.74,.39-.01-1.39,.52-2.07c1.13-1.42,2.89-.74,2.89-.74Z"/><path class="cls-4" d="M52.75,49.12s2.36,1.42,.33,2.42-3.57,.77-3.74,.39-.01-1.39,.52-2.07c1.13-1.42,2.89-.74,2.89-.74Z"/><path class="cls-4" d="M68.99,59.22s-2.99,.96-2.99-.71,1.15-2.56,1.69-2.53,1.62,.52,2.09,1.12c1.01,1.26-.79,2.12-.79,2.12Z"/><path class="cls-4" d="M67.48,61.27s-1.72-2.15,.52-2.39,3.62,.51,3.65,.93-.47,1.31-1.2,1.76c-1.55,.95-2.96-.3-2.96-.3Z"/><path class="cls-4" d="M60.9,55.09s-1.72-2.15,.52-2.39,3.62,.51,3.65,.93-.47,1.31-1.2,1.76c-1.55,.95-2.96-.3-2.96-.3Z"/><path class="cls-4" d="M57.99,53.68s-2.41-1.33-.43-2.4,3.54-.91,3.72-.54,.07,1.39-.44,2.09c-1.07,1.47-2.85,.86-2.85,.86Z"/><path class="cls-4" d="M53.71,50.7s-2.41-1.33-.43-2.4,3.54-.91,3.72-.54,.07,1.39-.44,2.09c-1.07,1.47-2.85,.86-2.85,.86Z"/><path class="cls-4" d="M59.02,51.19s-2.92,1.16-3.03-.5,.97-2.64,1.51-2.64,1.65,.41,2.16,.97c1.09,1.19-.65,2.16-.65,2.16Z"/></g><g id="text"><path class="cls-1" d="M.85,86.49l.15,3.41c.55,2.36,.77,7.52,8.72,8.72H181.72c7.27-.48,8.43-6.51,8.72-7.85V46.05h-25.32l-57.54,13L1.05,65.61l-.21,20.87Z"/><rect class="cls-5" x="1" y="1" width="189.44" height="97.62" rx="12" ry="12"/></g></svg>