<?xml version="1.0" encoding="UTF-8"?><svg id="Layer_2" xmlns="http://www.w3.org/2000/svg" viewBox="0 0 191.44 99.62"><defs><style>.cls-1{fill:#f6c242;}.cls-2,.cls-3{fill:#cb6e6c;}.cls-4{fill:#6fcacc;}.cls-5{fill:#71b6cc;}.cls-3,.cls-6{stroke:#cb6e6c;stroke-linecap:round;stroke-linejoin:round;}.cls-3,.cls-6,.cls-7{stroke-width:2px;}.cls-6,.cls-7{fill:none;}.cls-7{stroke:#f6c242;stroke-miterlimit:10;}</style></defs><g id="water"><rect class="cls-4" x="1" y="56.03" width="189.44" height="25.16"/><rect class="cls-5" x="1" y="49.81" width="156.01" height="6.22"/></g><g id="section"><path class="cls-1" d="M190.52,49.81h-36.84l-4.98,9.44-43.24,9.36-41.24,3.71-63.18,1.9-.12,12.28,.15,3.41c.55,2.36,.77,7.52,8.72,8.72H181.8c7.27-.48,8.43-6.51,8.72-7.85V49.81Z"/></g><g id="features"><polygon class="cls-3" points="118.87 37.82 111.1 31.69 103.34 37.82 102.48 38.39 102.48 47.52 119.72 47.52 119.72 38.39 118.87 37.82"/><rect class="cls-3" x="111.1" y="38.53" width="0" height="22.55" transform="translate(160.91 -61.3) rotate(90)"/><rect class="cls-3" x="83.72" y="38.53" width="0" height="22.55" transform="translate(133.53 -33.92) rotate(90)"/><polygon class="cls-3" points="64.99 37.82 57.23 31.69 49.47 37.82 48.61 38.39 48.61 47.52 65.85 47.52 65.85 38.39 64.99 37.82"/><rect class="cls-3" x="57.23" y="38.53" width="0" height="22.55" transform="translate(107.03 -7.43) rotate(90)"/><rect class="cls-3" x="75.1" y="24.92" width="17.24" height="22.45"/><rect class="cls-3" x="137.43" y="38.53" width="0" height="22.55" transform="translate(187.23 -87.63) rotate(90)"/><rect class="cls-3" x="128.81" y="24.92" width="17.24" height="22.45"/><g><line class="cls-6" x1="70.19" y1="64.26" x2="70.19" y2="58.47"/><polygon class="cls-2" points="64.12 59.29 76.27 59.29 70.19 53.21 64.12 59.29"/></g><g><line class="cls-6" x1="102.48" y1="54.58" x2="102.48" y2="60.36"/><polygon class="cls-2" points="108.56 59.55 96.41 59.55 102.48 65.62 108.56 59.55"/></g></g><g id="frames"><rect class="cls-7" x="1" y="1" width="189.44" height="97.62" rx="12" ry="12"/></g></svg>