<?xml version="1.0" encoding="UTF-8"?><svg id="Layer_2" xmlns="http://www.w3.org/2000/svg" viewBox="0 0 191.44 99.62"><defs><style>.cls-1{fill:#cb6e6c;}.cls-1,.cls-2{stroke:#f6c242;stroke-linecap:round;stroke-linejoin:round;}.cls-2,.cls-3{fill:none;}.cls-4{fill:#6fcacc;}.cls-5{fill:#5e8b83;}.cls-6{fill:#71b6cc;}.cls-3{stroke:#5e8b83;stroke-miterlimit:10;stroke-width:2px;}</style></defs><g id="water"><rect class="cls-4" x="1" y="64.64" width="119.26" height="10.85"/><rect class="cls-6" x=".92" y="59.75" width="154.42" height="4.88"/></g><g id="transition_layer"><polygon class="cls-1" points="156.96 46.72 149.2 40.59 141.44 46.72 140.58 47.29 140.58 56.42 157.82 56.42 157.82 47.29 156.96 46.72"/><rect class="cls-1" x="112.07" y="35.28" width="17.24" height="22.45"/><rect class="cls-1" x="167.46" y="30.67" width="17.24" height="22.45"/></g><g id="section"><path class="cls-5" d="M190.52,52.76h-31.32l-27.94,5.29-31.92-.32v6.13h-30.3L1.08,70.95l-.15,15.54,.15,3.41c.55,2.36,.77,7.52,8.72,8.72H181.8c7.27-.48,8.43-6.51,8.72-7.85V52.76Z"/></g><g id="frames"><rect class="cls-3" x="1" y="1" width="189.44" height="97.62" rx="12" ry="12"/><polygon class="cls-2" points="99.34 57.73 99.34 73.96 184.7 73.96 184.7 53.12 159.2 52.76 131.26 58.05 99.34 57.73"/><line class="cls-2" x1="100.22" y1="57.73" x2="112.76" y2="73.96"/><line class="cls-2" x1="108.02" y1="57.99" x2="120.52" y2="73.96"/><line class="cls-2" x1="115.92" y1="58.09" x2="128.72" y2="73.96"/><line class="cls-2" x1="123.83" y1="57.97" x2="136.55" y2="73.96"/><line class="cls-2" x1="131.64" y1="58.04" x2="144.76" y2="73.89"/><line class="cls-2" x1="99.34" y1="66.03" x2="105.9" y2="73.96"/><line class="cls-2" x1="139.51" y1="56.71" x2="153.79" y2="73.96"/><line class="cls-2" x1="147.37" y1="55.43" x2="162.7" y2="73.96"/><line class="cls-2" x1="154.98" y1="53.68" x2="171.76" y2="73.96"/><line class="cls-2" x1="162.24" y1="53.12" x2="179.24" y2="73.66"/><line class="cls-2" x1="170.53" y1="53.12" x2="184.5" y2="69.99"/><line class="cls-2" x1="178.93" y1="53.12" x2="184.7" y2="60.09"/></g></svg>