<?xml version="1.0" encoding="UTF-8"?><svg id="Layer_2" xmlns="http://www.w3.org/2000/svg" viewBox="0 0 191.44 99.62"><defs><style>.cls-1{stroke:#f6c242;}.cls-1,.cls-2{stroke-linecap:round;stroke-linejoin:round;}.cls-1,.cls-3{fill:none;}.cls-4{fill:#6fcacc;}.cls-5{fill:#5e8b83;}.cls-6{fill:#71b6cc;}.cls-2{fill:#cb6e6c;stroke:#cb6e6c;}.cls-2,.cls-3{stroke-width:2px;}.cls-3{stroke:#5e8b83;stroke-miterlimit:10;}</style></defs><g id="water"><rect class="cls-4" x="1" y="63.19" width="119.26" height="10.85"/><rect class="cls-6" x=".92" y="58.3" width="154.42" height="4.88"/></g><g id="transition_layer"><rect class="cls-2" x="127.22" y="33.6" width="17.24" height="22.45"/><polygon class="cls-2" points="165.15 45.82 157.38 39.68 149.62 45.82 148.76 46.39 148.76 55.51 166 55.51 166 46.39 165.15 45.82"/><polygon class="cls-2" points="186.69 45.82 178.93 39.68 171.16 45.82 170.3 46.39 170.3 55.51 187.55 55.51 187.55 46.39 186.69 45.82"/></g><g id="section"><path class="cls-5" d="M190.52,55.64H118.12l-33.66,8.22-17.56,.83L1.08,70.95l-.15,15.54,.15,3.41c.55,2.36,.77,7.52,8.72,8.72H181.8c7.27-.48,8.43-6.51,8.72-7.85V55.64Z"/></g><g id="frames"><rect class="cls-3" x="1" y="1" width="189.44" height="97.62" rx="12" ry="12"/><polygon class="cls-1" points="118.12 55.64 118.12 75.55 84.97 75.55 84.97 63.86 118.12 55.64"/><line class="cls-1" x1="88.44" y1="62.89" x2="98.39" y2="75.55"/><line class="cls-1" x1="95.04" y1="61.36" x2="106.15" y2="75.55"/><line class="cls-1" x1="101.55" y1="59.69" x2="114.35" y2="75.55"/><line class="cls-1" x1="106.86" y1="58.43" x2="118.12" y2="72.23"/><line class="cls-1" x1="112.59" y1="56.99" x2="118.12" y2="64.18"/><line class="cls-1" x1="84.97" y1="67.62" x2="91.53" y2="75.55"/></g></svg>