<?xml version="1.0" encoding="UTF-8"?><svg id="Layer_2" xmlns="http://www.w3.org/2000/svg" viewBox="0 0 191.44 99.62"><defs><style>.cls-1{stroke-dasharray:0 0 5 1;}.cls-1,.cls-2,.cls-3{stroke:#cb6e6c;stroke-miterlimit:10;}.cls-1,.cls-3{fill:none;}.cls-4{fill:#cb6e6c;}.cls-5{fill:#6fcacc;}.cls-6{fill:#71b6cc;}.cls-2{fill:#fff;stroke-width:.5px;}.cls-3{stroke-width:2px;}</style></defs><g id="water"><rect class="cls-5" x="1" y="55.43" width="189.37" height="19.99"/><rect class="cls-6" x=".77" y="49.21" width="168.03" height="7.03"/></g><g id="section"><path class="cls-4" d="M190.37,34.99v55.27c-.29,1.34-1.45,7.37-8.72,7.85H9.64c-7.95-1.2-8.17-6.36-8.72-8.72l-.15-3.41,.36-14.18,42.04-3.3,57.36-2.86,17.08-10.82,51.19-19.83h21.57Z"/></g><g id="features"><path class="cls-2" d="M115.77,51.24s2.36,1.42,.33,2.42-3.57,.77-3.74,.39-.01-1.39,.52-2.07c1.13-1.42,2.89-.74,2.89-.74Z"/><path class="cls-2" d="M82.23,66.51s-2.92,1.16-3.03-.5,.97-2.64,1.51-2.64,1.65,.41,2.16,.97c1.09,1.19-.65,2.16-.65,2.16Z"/><path class="cls-2" d="M85.48,64.63s.21,3.09-1.25,2.8-2-1.57-1.86-2.1,.8-1.49,1.42-1.85c1.31-.76,1.69,1.15,1.69,1.15Z"/><path class="cls-2" d="M93.01,63.06s2.36,1.42,.33,2.42-3.57,.77-3.74,.39-.01-1.39,.52-2.07c1.13-1.42,2.89-.74,2.89-.74Z"/><path class="cls-2" d="M99.66,65.77s-2.92,1.16-3.03-.5,.97-2.64,1.51-2.64,1.65,.41,2.16,.97c1.09,1.19-.65,2.16-.65,2.16Z"/><path class="cls-2" d="M103.63,62.68s-2.41-1.33-.43-2.4,3.54-.91,3.72-.54,.07,1.39-.44,2.09c-1.07,1.47-2.85,.86-2.85,.86Z"/><path class="cls-2" d="M106.01,55.92s-2.41-1.33-.43-2.4,3.54-.91,3.72-.54,.07,1.39-.44,2.09c-1.07,1.47-2.85,.86-2.85,.86Z"/><path class="cls-2" d="M121.77,50.58s-2.92,1.16-3.03-.5,.97-2.64,1.51-2.64,1.65,.41,2.16,.97c1.09,1.19-.65,2.16-.65,2.16Z"/><path class="cls-2" d="M88.53,66.32s-2.92,1.17-3.03-.49,.97-2.64,1.51-2.64,1.65,.41,2.17,.97c1.09,1.18-.64,2.17-.64,2.17Z"/><path class="cls-2" d="M96.62,64.05s.22,3.09-1.24,2.8-2.01-1.57-1.86-2.09,.79-1.49,1.42-1.85c1.31-.76,1.69,1.14,1.69,1.14Z"/><path class="cls-2" d="M93.9,60.32s2.36,1.42,.34,2.42-3.57,.78-3.74,.4-.01-1.39,.52-2.07c1.12-1.43,2.88-.75,2.88-.75Z"/><path class="cls-2" d="M102.43,62.5s-2.92,1.17-3.03-.49,.97-2.64,1.51-2.64,1.65,.41,2.17,.97c1.09,1.18-.64,2.17-.64,2.17Z"/><path class="cls-2" d="M98.32,60.03s-2.42-1.32-.44-2.4,3.53-.92,3.72-.55,.07,1.39-.43,2.09c-1.06,1.47-2.85,.86-2.85,.86Z"/><path class="cls-2" d="M109.2,57.97s2.36,1.42,.34,2.42-3.57,.78-3.74,.4-.01-1.39,.52-2.07c1.12-1.43,2.88-.75,2.88-.75Z"/><path class="cls-2" d="M121.97,53.04s-2.42-1.32-.44-2.4c1.98-1.08,3.53-.92,3.72-.55s.07,1.39-.43,2.09c-1.06,1.47-2.85,.86-2.85,.86Z"/><path class="cls-2" d="M119.15,55.12s-2.92,1.17-3.03-.49,.97-2.64,1.51-2.64,1.65,.41,2.17,.97c1.09,1.18-.64,2.17-.64,2.17Z"/><path class="cls-2" d="M122.31,51.24s.22,3.09-1.24,2.8-2.01-1.57-1.86-2.09,.79-1.49,1.42-1.85c1.31-.76,1.69,1.14,1.69,1.14Z"/><path class="cls-2" d="M125.29,50.58s-2.92,1.17-3.03-.49,.97-2.64,1.51-2.64,1.65,.41,2.17,.97c1.09,1.18-.64,2.17-.64,2.17Z"/><path class="cls-2" d="M111.37,55.86s-2.92,1.16-3.03-.5,.97-2.64,1.51-2.64,1.65,.41,2.16,.97c1.09,1.19-.65,2.16-.65,2.16Z"/><path class="cls-2" d="M103.71,64.95s-2.92,1.16-3.03-.5,.97-2.64,1.51-2.64,1.65,.41,2.16,.97c1.09,1.19-.65,2.16-.65,2.16Z"/><path class="cls-2" d="M90.64,61.58s.21,3.09-1.25,2.8-2-1.57-1.86-2.1,.8-1.49,1.42-1.85c1.31-.76,1.69,1.15,1.69,1.15Z"/><path class="cls-2" d="M99.02,60.02s2.36,1.42,.33,2.42-3.57,.77-3.74,.39-.01-1.39,.52-2.07c1.13-1.42,2.89-.74,2.89-.74Z"/><path class="cls-2" d="M96.74,60.43s-2.92,1.16-3.03-.5,.97-2.64,1.51-2.64,1.65,.41,2.16,.97c1.09,1.19-.65,2.16-.65,2.16Z"/><path class="cls-2" d="M105.96,56.83s-2.03,.14-1.51-1.16,1.46-1.76,1.76-1.62,.77,.73,.86,1.29c.19,1.18-1.12,1.48-1.12,1.48Z"/><path class="cls-2" d="M102.36,60.03s-2.41-1.33-.43-2.4,3.54-.91,3.72-.54,.07,1.39-.44,2.09c-1.07,1.47-2.85,.86-2.85,.86Z"/><path class="cls-2" d="M128.82,48.43s2.36,1.42,.33,2.42-3.57,.77-3.74,.39-.01-1.39,.52-2.07c1.13-1.42,2.89-.74,2.89-.74Z"/><path class="cls-2" d="M113.53,56.98s-2.41-1.33-.43-2.4,3.54-.91,3.72-.54,.07,1.39-.44,2.09c-1.07,1.47-2.85,.86-2.85,.86Z"/><path class="cls-2" d="M112.81,58.67s-2.92,1.16-3.03-.5,.97-2.64,1.51-2.64,1.65,.41,2.16,.97c1.09,1.19-.65,2.16-.65,2.16Z"/><path class="cls-2" d="M119.69,49.6s.21,3.09-1.25,2.8-2-1.57-1.86-2.1,.8-1.49,1.42-1.85c1.31-.76,1.69,1.15,1.69,1.15Z"/><path class="cls-2" d="M108.77,58.75s-2.92,1.16-3.03-.5,.97-2.64,1.51-2.64,1.65,.41,2.16,.97c1.09,1.19-.65,2.16-.65,2.16Z"/></g><g id="frames"><rect class="cls-3" x="1" y="1" width="189.44" height="97.62" rx="12" ry="12"/></g><g id="text"><path class="cls-1" d="M53.57,63.87l8.65,1.38c4.76,.76,11.11-.24,14.11-2.23s5.17-5.08,4.82-6.88-2.48-3.84-4.71-4.54-5,.15-6.13,1.89-.85,4.04,.63,5.1,3.41,.64,4.29-.93,.66-2.86-.49-2.87h-2.08"/><path class="cls-1" d="M14.76,64.85l8.65,1.38c4.76,.76,11.11-.24,14.11-2.23s5.17-5.08,4.82-6.88-2.48-3.84-4.71-4.54-5,.15-6.13,1.89-.85,4.04,.63,5.1,3.41,.64,4.29-.93,.66-2.86-.49-2.87h-2.08"/></g></svg>